<?xml version="1.0" standalone="no"?>
<!DOCTYPE svg PUBLIC "-//W3C//DTD SVG 1.1//EN" "http://www.w3.org/Graphics/SVG/1.1/DTD/svg11.dtd" >
<svg>
<metadata></metadata>
<defs>
<font id="FSElliotWeb-ThinItalic" horiz-adv-x="547" >
  <font-face 
    font-family="FS Elliot Web Thin"
    font-weight="250"
    font-style="italic"
    font-stretch="normal"
    units-per-em="1000"
    panose-1="2 0 5 3 3 0 0 9 0 4"
    ascent="750"
    descent="-250"
    x-height="481"
    cap-height="672"
    bbox="-205 -275 1171 1008"
    underline-thickness="50"
    underline-position="-50"
    slope="-12"
    unicode-range="U+000D-FB04"
  />
<missing-glyph horiz-adv-x="500" 
d="M28 672h476v-672h-476v672zM266 380l162 244h-324zM76 92l162 244l-162 244v-488zM294 336l162 -244v488zM266 292l-162 -244h324z" />
    <glyph glyph-name="fi" unicode="fi" horiz-adv-x="534" 
d="M180 459h-111l4 22h111l19 108q11 59 52.5 93t104.5 34q34 0 69.5 -10t71.5 -27l-11 -20q-32 15 -65 25t-65 10q-51 0 -87.5 -28.5t-45.5 -77.5l-19 -107h275l-84 -481h-24l80 459h-251l-80 -459h-24z" />
    <glyph glyph-name="fl" unicode="fl" horiz-adv-x="582" 
d="M180 459h-111l4 22h111l19 108q11 60 52.5 93.5t104.5 33.5q38 0 77 -9t82 -24l-105 -589q-3 -17 -3 -29q0 -26 17 -40.5t44 -14.5q12 0 22.5 2t19.5 4l4 -22q-12 -2 -24.5 -4t-24.5 -2q-36 0 -59 20t-23 55q0 13 3 31l103 574q-32 10 -65.5 18t-67.5 8q-53 0 -88.5 -28
t-44.5 -78l-19 -107h157l-4 -22h-157l-80 -459h-24z" />
    <glyph glyph-name="f_f" unicode="ff" horiz-adv-x="645" 
d="M180 459h-111l4 22h111l22 124q9 51 43 81t84 30q41 0 94 -22l-8 -21q-23 10 -45 15.5t-40 5.5q-41 0 -68.5 -24t-35.5 -66l-22 -123h267l22 124q9 51 43 81t84 30q39 0 94 -22l-8 -21q-24 10 -45.5 15.5t-39.5 5.5q-41 0 -68.5 -24t-35.5 -66l-22 -123h157l-4 -22h-157
l-80 -459h-24l80 459h-267l-80 -459h-24z" />
    <glyph glyph-name="f_f_i" unicode="ffi" horiz-adv-x="825" 
d="M180 459h-111l4 22h111l22 124q9 51 43 81t84 30q41 0 94 -22l-8 -21q-23 10 -45 15.5t-40 5.5q-41 0 -68.5 -24t-35.5 -66l-22 -123h267l19 108q11 59 52.5 93t104.5 34q33 0 69 -10t72 -27l-11 -20q-32 15 -65 25t-65 10q-51 0 -87.5 -28.5t-45.5 -77.5l-19 -107h275
l-85 -481h-23l80 459h-251l-80 -459h-24l80 459h-267l-80 -459h-24z" />
    <glyph glyph-name="f_f_l" unicode="ffl" horiz-adv-x="873" 
d="M180 459h-111l4 22h111l22 124q9 51 43 81t84 30q41 0 94 -22l-8 -21q-23 10 -45 15.5t-40 5.5q-41 0 -68.5 -24t-35.5 -66l-22 -123h267l19 108q11 60 52.5 93.5t104.5 33.5q38 0 77 -9t82 -24l-105 -589q-3 -17 -3 -29q0 -26 17 -40.5t44 -14.5q11 0 22 2t20 4l4 -22
q-13 -2 -25 -4t-24 -2q-37 0 -59.5 20t-22.5 55q0 13 3 31l103 574q-32 10 -65.5 18t-67.5 8q-53 0 -88.5 -28t-44.5 -78l-19 -107h157l-4 -22h-157l-80 -459h-24l80 459h-267l-80 -459h-24z" />
    <glyph glyph-name=".notdef" horiz-adv-x="500" 
d="M28 672h476v-672h-476v672zM266 380l162 244h-324zM76 92l162 244l-162 244v-488zM294 336l162 -244v488zM266 292l-162 -244h324z" />
    <glyph glyph-name=".null" horiz-adv-x="0" 
 />
    <glyph glyph-name=".null" horiz-adv-x="0" 
 />
    <glyph glyph-name="nonmarkingreturn" unicode="&#xd;" horiz-adv-x="240" 
 />
    <glyph glyph-name="space" unicode=" " horiz-adv-x="240" 
 />
    <glyph glyph-name="nonbreakingspace" unicode="&#xa0;" horiz-adv-x="240" 
 />
    <glyph glyph-name="A" unicode="A" horiz-adv-x="650" 
d="M389 672h24l155 -672h-24l-49 212h-348l-124 -212h-28zM159 234h331l-93 406z" />
    <glyph glyph-name="B" unicode="B" horiz-adv-x="633" 
d="M193 672h230q76 0 119 -40t43 -109q0 -67 -35.5 -114.5t-98.5 -64.5q48 -12 74.5 -52t26.5 -95q0 -44 -15.5 -80t-43.5 -62t-66 -40.5t-84 -14.5h-268zM103 22h239q41 0 75 13t59 36t38.5 55t13.5 71q0 61 -35.5 98.5t-107.5 37.5h-227zM162 355h224q39 0 71 12t55.5 34
t36 53t12.5 68q0 60 -37 94t-103 34h-208z" />
    <glyph glyph-name="C" unicode="C" horiz-adv-x="633" 
d="M74 256q0 92 25.5 170.5t72.5 135.5t113.5 89.5t147.5 32.5q54 0 107.5 -17.5t99.5 -50.5l-13 -19q-92 65 -193 65q-77 0 -138.5 -30.5t-105.5 -85t-67.5 -128.5t-23.5 -161q0 -55 18 -100.5t50 -78t76 -50.5t97 -18t102.5 14t94.5 43l11 -18q-48 -31 -101 -46t-108 -15
q-58 0 -106.5 19.5t-84 55t-55 84.5t-19.5 109z" />
    <glyph glyph-name="D" unicode="D" horiz-adv-x="690" 
d="M193 672h167q140 0 215 -70.5t75 -198.5q0 -90 -28 -164t-78 -127t-119.5 -82.5t-152.5 -29.5h-197zM625 403q0 118 -68.5 182.5t-198.5 64.5h-144l-110 -628h168q78 0 143 27.5t111.5 78t72.5 120.5t26 155z" />
    <glyph glyph-name="E" unicode="E" horiz-adv-x="585" 
d="M193 672h389l-4 -22h-364l-52 -295h333l-4 -22h-333l-54 -311h380l-4 -22h-405z" />
    <glyph glyph-name="F" unicode="F" horiz-adv-x="569" 
d="M193 672h389l-4 -22h-364l-56 -319h333l-5 -22h-332l-54 -309h-25z" />
    <glyph glyph-name="G" unicode="G" horiz-adv-x="674" 
d="M558 32q-48 -21 -98.5 -32.5t-105.5 -11.5q-63 0 -114.5 19t-88 54.5t-57 85t-20.5 110.5q0 91 26 169.5t74 135.5t115 89.5t149 32.5q55 0 109 -16t106 -46l-12 -20q-50 29 -100.5 44.5t-101.5 15.5q-77 0 -140 -30.5t-107.5 -84.5t-69 -128t-24.5 -161
q0 -56 18.5 -101.5t52.5 -78t81.5 -50.5t105.5 -18q51 0 96.5 10.5t84.5 27.5l45 254h-181l4 22h205z" />
    <glyph glyph-name="H" unicode="H" horiz-adv-x="730" 
d="M193 672h25l-56 -317h446l56 317h24l-118 -672h-24l58 333h-446l-58 -333h-25z" />
    <glyph glyph-name="I" unicode="I" horiz-adv-x="259" 
d="M193 672h25l-118 -672h-25z" />
    <glyph glyph-name="J" unicode="J" horiz-adv-x="433" 
d="M298 139q-12 -70 -58 -110.5t-114 -40.5q-56 0 -129 28l8 21q33 -13 64.5 -20t55.5 -7q60 0 99.5 35t49.5 95l94 532h24z" />
    <glyph glyph-name="K" unicode="K" horiz-adv-x="635" 
d="M193 672h24l-68 -386l461 386h35l-373 -312l268 -360h-29l-257 345l-110 -92l-45 -253h-24z" />
    <glyph glyph-name="L" unicode="L" horiz-adv-x="521" 
d="M193 672h25l-114 -650h347l-4 -22h-372z" />
    <glyph glyph-name="M" unicode="M" horiz-adv-x="818" 
d="M193 672h26l198 -375l333 375h26l-118 -672h-23l112 636l-324 -367h-17l-195 369l-112 -638h-24z" />
    <glyph glyph-name="N" unicode="N" horiz-adv-x="730" 
d="M193 672h24l336 -635l112 635h23l-118 -672h-24l-335 635l-112 -635h-24z" />
    <glyph glyph-name="O" unicode="O" horiz-adv-x="730" 
d="M74 256q0 92 27 170.5t74.5 135.5t112.5 89.5t142 32.5q57 0 104.5 -19t82 -54t54 -84.5t19.5 -110.5q0 -92 -27 -170.5t-74.5 -135.5t-113 -89.5t-141.5 -32.5q-57 0 -105 19t-82.5 54t-53.5 84.5t-19 110.5zM99 257q0 -57 17.5 -102.5t48.5 -77.5t74.5 -49.5
t95.5 -17.5q71 0 131.5 30.5t104.5 84.5t69 128.5t25 161.5q0 57 -17.5 102.5t-49 77.5t-74.5 49.5t-95 17.5q-71 0 -131.5 -30.5t-104.5 -84.5t-69 -128.5t-25 -161.5z" />
    <glyph glyph-name="P" unicode="P" horiz-adv-x="601" 
d="M193 672h210q43 0 77.5 -12.5t58.5 -35.5t37 -56t13 -73q0 -48 -17.5 -88t-48.5 -69.5t-74.5 -45.5t-94.5 -16h-206l-49 -276h-24zM152 299h202q46 0 85 14.5t67 40t43.5 61.5t15.5 79q0 72 -44 114t-121 42h-187z" />
    <glyph glyph-name="Q" unicode="Q" horiz-adv-x="730" 
d="M74 256q0 92 27 170.5t74.5 135.5t112.5 89.5t142 32.5q57 0 104.5 -19t82 -54t54 -84.5t19.5 -110.5q0 -68 -15 -129t-42 -111.5t-65.5 -89t-84.5 -62.5l162 -136l-15 -17l-170 143q-29 -12 -60.5 -19t-65.5 -7q-57 0 -105 19t-82.5 54t-53.5 84.5t-19 110.5zM99 257
q0 -57 17.5 -102.5t48.5 -77.5t74.5 -49.5t95.5 -17.5q71 0 131.5 30.5t104.5 84.5t69 128.5t25 161.5q0 57 -17.5 102.5t-49 77.5t-74.5 49.5t-95 17.5q-71 0 -131.5 -30.5t-104.5 -84.5t-69 -128.5t-25 -161.5z" />
    <glyph glyph-name="R" unicode="R" horiz-adv-x="633" 
d="M193 672h220q81 0 128.5 -45.5t47.5 -123.5q0 -45 -16 -83.5t-45 -66t-69 -43.5t-87 -17l158 -293h-27l-157 292h-195l-52 -292h-24zM155 315h209q44 0 81 13.5t63.5 38.5t41.5 59.5t15 75.5q0 69 -41 108.5t-113 39.5h-198z" />
    <glyph glyph-name="S" unicode="S" horiz-adv-x="561" 
d="M118 508q0 37 16 69.5t44 56t67 37t86 13.5q51 0 106.5 -13t115.5 -41l-10 -21q-112 53 -212 53q-41 0 -76 -11.5t-60 -32.5t-39 -49t-14 -61q0 -46 25.5 -74.5t63 -49t82 -37.5t82 -39.5t63 -55t25.5 -84.5q0 -40 -16 -73t-44.5 -57t-68.5 -37t-87 -13
q-54 0 -116.5 14.5t-122.5 45.5l10 21q59 -29 117 -44t111 -15q43 0 78.5 11.5t61 32t39.5 49.5t14 65q0 47 -25.5 76t-63 50t-82 38t-82 39t-63 54t-25.5 83z" />
    <glyph glyph-name="T" unicode="T" horiz-adv-x="585" 
d="M352 650h-249l4 22h522l-4 -22h-249l-114 -650h-24z" />
    <glyph glyph-name="U" unicode="U" horiz-adv-x="730" 
d="M620 240q-10 -58 -35 -104.5t-62 -79.5t-85 -50.5t-103 -17.5q-51 0 -93 15.5t-71.5 43.5t-46 67t-16.5 87q0 12 1.5 26.5t3.5 29.5l72 415h25l-73 -415q-3 -15 -4 -29t-1 -26q0 -43 14.5 -78.5t41.5 -60.5t64.5 -39t83.5 -14q50 0 93.5 16.5t77.5 46.5t57 72.5t32 95.5
l76 431h24z" />
    <glyph glyph-name="V" unicode="V" horiz-adv-x="650" 
d="M295 0h-24l-156 672h25l147 -639l374 639h27z" />
    <glyph glyph-name="W" unicode="W" horiz-adv-x="978" 
d="M679 0h-25l-96 636l-306 -636h-26l-99 672h24l93 -636l307 636h25l96 -636l306 636h26z" />
    <glyph glyph-name="X" unicode="X" horiz-adv-x="650" 
d="M329 346l-191 326h28l181 -309l281 309h33l-303 -330l201 -342h-28l-191 325l-296 -325h-34z" />
    <glyph glyph-name="Y" unicode="Y" horiz-adv-x="571" 
d="M284 304l-190 368h27l178 -345l277 345h30l-298 -371l-53 -301h-24z" />
    <glyph glyph-name="Z" unicode="Z" horiz-adv-x="609" 
d="M23 17l549 633h-426l4 22h461l-3 -17l-549 -633h450l-4 -22h-485z" />
    <glyph glyph-name="a" unicode="a" horiz-adv-x="514" 
d="M36 121q0 75 60.5 118t165.5 43q29 0 62.5 -4t68.5 -12l12 69q3 15 3 32q0 45 -32.5 74.5t-90.5 29.5q-73 0 -156 -28l-5 21q44 15 85 22t78 7q68 0 106 -35t38 -90q0 -18 -3 -34l-47 -270q-1 -5 -1.5 -8.5t-0.5 -7.5q0 -18 13 -28t34 -10q8 0 14.5 1t13.5 3l3 -22
q-8 -2 -17 -3t-17 -1q-31 0 -49 15.5t-18 42.5q0 7 2 17l6 29q-33 -54 -78 -79t-104 -25q-68 0 -107 36.5t-39 96.5zM60 122q0 -51 33 -82t92 -31q37 0 69.5 12.5t58 36t43 55.5t23.5 71l11 62q-68 16 -128 16q-94 0 -148 -38t-54 -102z" />
    <glyph glyph-name="b" unicode="b" 
d="M176 704h24l-56 -312q32 48 78.5 74.5t100.5 26.5q39 0 70.5 -13.5t54.5 -38.5t35.5 -60t12.5 -77q0 -67 -18.5 -124.5t-51 -100t-77.5 -67t-98 -24.5q-59 0 -101.5 32.5t-54.5 88.5l-23 -109h-20zM472 303q0 37 -11 68t-31 53t-48 34t-62 12q-35 0 -67 -12.5t-57.5 -35
t-43.5 -53t-24 -66.5l-17 -102q-5 -23 -5 -43q0 -33 10.5 -60t30 -46.5t45.5 -30.5t58 -11q48 0 88.5 22.5t70.5 62t46.5 93t16.5 115.5z" />
    <glyph glyph-name="c" unicode="c" horiz-adv-x="473" 
d="M51 185q0 65 19.5 121.5t54 98t83 65t105.5 23.5q38 0 76 -12t70 -35l-13 -18q-62 43 -133 43q-52 0 -95.5 -22t-75 -60t-49.5 -90.5t-18 -112.5q0 -39 12.5 -71.5t35 -56t53 -36t67.5 -12.5t73 10.5t68 30.5l12 -18q-74 -45 -155 -45q-41 0 -76 14.5t-60.5 40.5
t-39.5 62t-14 80z" />
    <glyph glyph-name="d" unicode="d" 
d="M411 0h-20l13 90q-34 -49 -80.5 -75.5t-100.5 -26.5q-38 0 -70 13.5t-54.5 38.5t-35 60t-12.5 77q0 67 18.5 124.5t51 100t77 67t97.5 24.5q60 0 102.5 -32.5t55.5 -88.5l58 332h24zM75 178q0 -38 11 -68.5t31 -53t48 -34.5t62 -12q35 0 67 12.5t57.5 35t43.5 53.5t24 67
l17 101q5 25 5 43q0 33 -10.5 60t-30 46.5t-46 30.5t-57.5 11q-48 0 -88.5 -22.5t-70.5 -61.5t-46.5 -92.5t-16.5 -115.5z" />
    <glyph glyph-name="e" unicode="e" horiz-adv-x="514" 
d="M78 236q-2 -13 -3 -26t-1 -26q0 -39 13 -71t35.5 -55t54.5 -35.5t70 -12.5q74 0 151 45l10 -19q-42 -23 -82.5 -35.5t-80.5 -12.5q-43 0 -79 14.5t-61.5 40.5t-39.5 62t-14 80q0 65 19 121t52.5 97.5t79.5 65.5t99 24q38 0 69.5 -13.5t54 -38.5t35 -60t12.5 -77
q0 -28 -8 -68h-386zM300 471q-40 0 -75.5 -15.5t-64.5 -44t-49 -68t-29 -87.5h362q2 12 3 24t1 25q0 75 -40 120.5t-108 45.5z" />
    <glyph glyph-name="f" unicode="f" horiz-adv-x="354" 
d="M180 459h-111l4 22h111l22 124q9 51 43 81t84 30q41 0 94 -22l-8 -21q-23 10 -45 15.5t-40 5.5q-41 0 -68.5 -24t-35.5 -66l-22 -123h157l-4 -22h-157l-80 -459h-24z" />
    <glyph glyph-name="g" unicode="g" 
d="M75 178q0 -38 11 -68.5t31 -53t48 -34.5t62 -12q36 0 68 12.5t57.5 34.5t43 53t23.5 68l17 101q5 25 5 43q0 33 -10.5 60t-30 46.5t-46 30.5t-57.5 11q-48 0 -88.5 -22.5t-70.5 -61.5t-46.5 -92.5t-16.5 -115.5zM403 -45q-15 -85 -74 -130t-145 -45q-37 0 -81.5 10.5
t-90.5 33.5l9 21q43 -21 85 -32t77 -11q76 0 130 39t67 114l23 134q-32 -48 -78.5 -74.5t-101.5 -26.5q-38 0 -70 13.5t-54.5 38.5t-35 60t-12.5 77q0 67 18.5 124.5t51 100t77 67t97.5 24.5q60 0 102 -32.5t55 -88.5l23 109h20z" />
    <glyph glyph-name="h" unicode="h" 
d="M176 704h24l-58 -324q29 52 79 82.5t107 30.5q33 0 60.5 -10t47 -29t30.5 -45t11 -57q0 -12 -1.5 -25.5t-3.5 -27.5l-53 -299h-24l53 299q5 28 5 51q0 55 -35.5 87.5t-93.5 32.5q-36 0 -69 -13.5t-59 -38t-44 -58t-25 -73.5l-51 -287h-24z" />
    <glyph glyph-name="i" unicode="i" horiz-adv-x="212" 
d="M136 481h24l-84 -481h-24zM148 636q0 12 8.5 20.5t20.5 8.5q22 0 22 -22q0 -13 -8 -21.5t-21 -8.5q-10 0 -16 6.5t-6 16.5z" />
    <glyph glyph-name="j" unicode="j" horiz-adv-x="220" 
d="M64 -109q-8 -51 -42.5 -81t-84.5 -30q-20 0 -44 5.5t-50 14.5l8 21q24 -8 45.5 -13.5t39.5 -5.5q42 0 69.5 24t34.5 66l104 589h24zM156 636q0 12 8.5 20.5t20.5 8.5q22 0 22 -22q0 -13 -8 -21.5t-21 -8.5q-10 0 -16 6.5t-6 16.5z" />
    <glyph glyph-name="k" unicode="k" horiz-adv-x="476" 
d="M176 704h23l-87 -494l319 271h34l-265 -225l189 -256h-29l-178 241l-75 -63l-32 -178h-23z" />
    <glyph glyph-name="l" unicode="l" horiz-adv-x="260" 
d="M91 94q-3 -17 -3 -29q0 -26 17 -40.5t44 -14.5q12 0 23 2t20 4l3 -22l-24 -4t-25 -2q-36 0 -59 20t-23 55q0 13 3 31l109 610h24z" />
    <glyph glyph-name="m" unicode="m" horiz-adv-x="858" 
d="M136 481h20l-15 -98q32 53 78.5 81.5t100.5 28.5q60 0 98.5 -33.5t42.5 -88.5q31 58 80 90t106 32q63 0 102.5 -37t39.5 -97q0 -25 -4 -48l-55 -311h-24l55 311q2 11 3 23t1 24q0 51 -33.5 81.5t-87.5 30.5q-35 0 -66.5 -13t-56.5 -37t-42.5 -57t-24.5 -72l-51 -291h-24
l55 311q2 11 3 23t1 24q0 51 -34 81.5t-88 30.5q-35 0 -66 -13t-56 -37t-42.5 -57t-24.5 -72l-51 -291h-24z" />
    <glyph glyph-name="n" unicode="n" 
d="M136 481h20l-15 -102q29 53 79.5 83.5t107.5 30.5q33 0 60.5 -10t47 -29t30.5 -45t11 -57q0 -12 -1.5 -25.5t-3.5 -27.5l-53 -299h-24l53 299q5 28 5 51q0 55 -35.5 87.5t-93.5 32.5q-36 0 -69 -13.5t-59 -38t-44 -58t-25 -73.5l-51 -287h-24z" />
    <glyph glyph-name="o" unicode="o" 
d="M51 185q0 66 19.5 122.5t54 98t81.5 64.5t103 23q42 0 76 -14.5t59 -40.5t38.5 -62t13.5 -80q0 -66 -19.5 -122.5t-54 -98t-82 -64.5t-103.5 -23q-41 0 -75.5 14.5t-59 40.5t-38 62t-13.5 80zM75 185q0 -39 12 -71t33.5 -55.5t51.5 -36t66 -12.5q51 0 94 21.5t74 59.5
t48.5 90t17.5 114q0 39 -12 71.5t-33.5 56t-51.5 36t-66 12.5q-51 0 -94 -21.5t-74 -59.5t-48.5 -90.5t-17.5 -114.5z" />
    <glyph glyph-name="p" unicode="p" 
d="M136 481h20l-13 -90q34 49 80 75.5t100 26.5q39 0 70.5 -13.5t54.5 -38.5t35.5 -60t12.5 -77q0 -67 -18.5 -124.5t-51 -100t-77.5 -67t-98 -24.5q-59 0 -101.5 32.5t-55.5 87.5l-55 -316h-24zM472 303q0 37 -11 68t-31 53t-48 34t-62 12q-35 0 -67 -12.5t-57.5 -35
t-43.5 -53t-24 -66.5l-17 -102q-5 -23 -5 -43q0 -33 10.5 -60t30 -46.5t45.5 -30.5t58 -11q48 0 88.5 22.5t70.5 62t46.5 93t16.5 115.5z" />
    <glyph glyph-name="q" unicode="q" 
d="M374 -208h-24l53 297q-32 -48 -78.5 -74.5t-101.5 -26.5q-38 0 -70 13.5t-54.5 38.5t-35 60t-12.5 77q0 67 18.5 124.5t51 100t77 67t97.5 24.5q60 0 102 -32.5t55 -88.5l23 109h20zM75 178q0 -38 11 -68.5t31 -53t48 -34.5t62 -12q36 0 68 12.5t57.5 34.5t43 53t23.5 68
l17 101q5 25 5 43q0 33 -10.5 60t-30 46.5t-46 30.5t-57.5 11q-48 0 -88.5 -22.5t-70.5 -61.5t-46.5 -92.5t-16.5 -115.5z" />
    <glyph glyph-name="r" unicode="r" horiz-adv-x="363" 
d="M136 481h20l-14 -94q27 49 70 75.5t96 26.5q38 0 72 -14l-9 -21q-15 7 -31.5 10t-33.5 3q-34 0 -64 -13t-53.5 -36.5t-40 -56.5t-23.5 -74l-49 -287h-24z" />
    <glyph glyph-name="s" unicode="s" horiz-adv-x="426" 
d="M82 363q0 28 11 51.5t31.5 41t48.5 27.5t62 10q37 0 78 -9.5t80 -29.5l-10 -19q-37 17 -75 26.5t-72 9.5q-59 0 -94.5 -30t-35.5 -78q0 -32 18 -51.5t45 -34t58 -26.5t58 -28.5t45 -40t18 -60.5q0 -59 -43 -96.5t-114 -37.5q-40 0 -86 11.5t-88 32.5l10 20q42 -20 84 -31
t79 -11q62 0 98 31t36 81q0 33 -18 53.5t-45 35t-58 26.5t-58 28t-45 39t-18 59z" />
    <glyph glyph-name="t" unicode="t" horiz-adv-x="386" 
d="M208 481h173l-4 -22h-173l-59 -336q-2 -8 -3 -17t-1 -18q0 -35 24 -56.5t63 -21.5q17 0 34 2t37 6l3 -22q-20 -5 -39 -6.5t-38 -1.5q-48 0 -78 27t-30 72q0 9 1 18t3 18l59 336h-111l4 22h111l26 144h24z" />
    <glyph glyph-name="u" unicode="u" 
d="M411 0h-20l15 101q-29 -52 -80 -82.5t-107 -30.5q-33 0 -60.5 10t-47 29t-30.5 44.5t-11 57.5q0 12 1.5 25t3.5 27l53 300h24l-53 -299q-2 -14 -3.5 -26.5t-1.5 -24.5q0 -55 35.5 -88t93.5 -33q36 0 68.5 13.5t59 38t44.5 58t25 73.5l51 288h24z" />
    <glyph glyph-name="v" unicode="v" horiz-adv-x="491" 
d="M215 0h-23l-112 481h23l105 -448l261 448h26z" />
    <glyph glyph-name="w" unicode="w" horiz-adv-x="747" 
d="M502 0h-25l-68 445l-223 -445h-25l-73 481h23l68 -446l223 446h25l67 -446l223 446h26z" />
    <glyph glyph-name="x" unicode="x" horiz-adv-x="491" 
d="M232 249l-137 232h28l126 -217l200 217h31l-219 -237l143 -244h-28l-132 229l-210 -229h-31z" />
    <glyph glyph-name="y" unicode="y" horiz-adv-x="491" 
d="M159 -102q-36 -63 -68.5 -90.5t-74.5 -27.5q-24 0 -54 8l6 22q26 -8 48 -8q34 0 62.5 24.5t60.5 81.5l55 96l-114 477h23l108 -448l258 448h26z" />
    <glyph glyph-name="z" unicode="z" horiz-adv-x="458" 
d="M15 16l385 443h-299l4 22h333l-3 -17l-384 -442h315l-4 -22h-350z" />
    <glyph glyph-name="ampersand" unicode="&#x26;" horiz-adv-x="610" 
d="M447 107q-52 -58 -111.5 -88.5t-113.5 -30.5q-42 0 -75.5 12t-57.5 34t-36.5 52t-12.5 66q0 69 53 130.5t149 103.5q-30 38 -46.5 74t-16.5 73q0 33 11.5 60.5t32.5 47.5t49.5 31.5t62.5 11.5q55 0 87.5 -29.5t32.5 -80.5q0 -52 -43 -99.5t-137 -94.5l174 -237
q28 42 47.5 86t27.5 92h22q-9 -52 -30.5 -101.5t-53.5 -94.5l92 -125h-28zM64 154q0 -64 42 -104t117 -40q50 0 106 29.5t105 85.5l-179 244q-91 -40 -141 -96.5t-50 -118.5zM202 534q0 -32 16 -66.5t45 -70.5q169 81 169 176q0 42 -26 65.5t-71 23.5q-29 0 -53.5 -9.5
t-42 -26.5t-27.5 -40.5t-10 -51.5z" />
    <glyph glyph-name="at" unicode="@" horiz-adv-x="945" 
d="M56 153q0 114 37 211.5t102 169t154.5 111.5t193.5 40q81 0 146 -23.5t111 -67t70.5 -105t24.5 -137.5q0 -70 -16 -130t-44 -104.5t-66.5 -70t-82.5 -25.5q-47 0 -69.5 26.5t-23.5 60.5q-27 -42 -67.5 -64.5t-89.5 -22.5q-67 0 -108.5 44.5t-41.5 118.5q0 58 16 108
t44.5 86.5t67 57.5t84.5 21q51 0 87.5 -27t47.5 -75l19 92h20l-55 -316q-1 -5 -1.5 -10t-0.5 -10q0 -32 20.5 -50t52.5 -18q39 0 72.5 23.5t58.5 64.5t39.5 97.5t14.5 121.5q0 71 -23 129t-66 98.5t-104.5 62.5t-137.5 22q-99 0 -184 -38.5t-147 -106.5t-97 -161.5
t-35 -202.5q0 -77 24.5 -139t69.5 -105.5t109.5 -67.5t144.5 -24q65 0 131 16.5t123 48.5l8 -19q-61 -33 -128.5 -50.5t-134.5 -17.5q-84 0 -152.5 25.5t-117 72.5t-74.5 112.5t-26 146.5zM310 186q0 -64 35.5 -103t93.5 -39q31 0 58 10t49 29t36.5 45.5t20.5 58.5l16 88
q1 8 2 18t1 19q0 56 -34 90.5t-88 34.5q-41 0 -76 -19.5t-60.5 -53t-39.5 -79.5t-14 -99z" />
    <glyph glyph-name="exclam" unicode="!" horiz-adv-x="243" 
d="M181 672h26l-86 -478h-21zM54 16q0 14 9 23t23 9q11 0 17.5 -7t6.5 -18q0 -13 -9 -22t-23 -9q-11 0 -17.5 6.5t-6.5 17.5z" />
    <glyph glyph-name="exclamdown" unicode="&#xa1;" horiz-adv-x="243" 
d="M54 -191h-25l86 478h20zM182 465q0 -14 -9 -23t-23 -9q-11 0 -17.5 6.5t-6.5 17.5q0 14 9 23t23 9q11 0 17.5 -6.5t6.5 -17.5z" />
    <glyph glyph-name="question" unicode="?" horiz-adv-x="449" 
d="M186 194l2 13q5 30 24 56t44.5 50t54 47.5t52.5 49t39.5 54t15.5 62.5q0 61 -38 98.5t-100 37.5q-42 0 -81.5 -13t-81.5 -39l-11 20q84 54 176 54q36 0 65.5 -11.5t50.5 -32t32.5 -49.5t11.5 -64q0 -38 -15.5 -69t-40 -57t-53 -49.5t-54.5 -47t-45.5 -48t-25.5 -52.5
l-2 -10h-20zM147 14q0 13 8.5 21.5t21.5 8.5q22 0 22 -23q0 -12 -8.5 -20.5t-20.5 -8.5q-23 0 -23 22z" />
    <glyph glyph-name="questiondown" unicode="&#xbf;" horiz-adv-x="385" 
d="M256 287l-2 -13q-5 -30 -24 -56t-44.5 -50t-54.5 -47.5t-53 -49t-39.5 -54t-15.5 -62.5q0 -62 38 -99t100 -37q43 0 82 12.5t81 38.5l11 -19q-84 -54 -176 -54q-36 0 -65.5 11.5t-50.5 32t-32.5 49t-11.5 63.5q0 38 15.5 69t40 57.5t53 50t54.5 47t45.5 47.5t25.5 53
l2 10h21zM294 467q0 -13 -8.5 -21.5t-20.5 -8.5q-23 0 -23 22q0 13 8.5 21.5t21.5 8.5q22 0 22 -22z" />
    <glyph glyph-name="asterisk" unicode="*" horiz-adv-x="481" 
d="M297 468l55 -170l-19 -7l-57 171l-144 -105l-12 17l144 105l-144 104l12 17l144 -104l57 170l19 -7l-55 -170h179v-21h-179z" />
    <glyph glyph-name="period" unicode="." horiz-adv-x="227" 
d="M46 16q0 14 9 23t23 9q11 0 17.5 -7t6.5 -18q0 -13 -9 -22t-23 -9q-11 0 -17.5 6.5t-6.5 17.5z" />
    <glyph glyph-name="comma" unicode="," horiz-adv-x="227" 
d="M46 16q0 14 9 23t23 9q13 0 20.5 -9.5t7.5 -26.5q0 -48 -31 -95t-85 -77l-10 15q46 29 71 63t28 76q-13 -4 -23 3t-10 19z" />
    <glyph glyph-name="colon" unicode=":" horiz-adv-x="243" 
d="M54 0zM54 16q0 14 9 23t23 9q11 0 17.5 -7t6.5 -18q0 -13 -9 -22t-23 -9q-11 0 -17.5 6.5t-6.5 17.5zM133 457q0 14 9 23t23 9q11 0 17.5 -7t6.5 -18q0 -13 -9 -22t-23 -9q-11 0 -17.5 6.5t-6.5 17.5z" />
    <glyph glyph-name="semicolon" unicode=";" horiz-adv-x="243" 
d="M0 0zM54 16q0 14 9 23t23 9q13 0 20.5 -9.5t7.5 -26.5q0 -48 -31 -95t-85 -77l-10 15q46 29 71 63t28 76q-13 -4 -23 3t-10 19zM133 457q0 14 9 23t23 9q11 0 17.5 -7t6.5 -18q0 -13 -9 -22t-23 -9q-11 0 -17.5 6.5t-6.5 17.5z" />
    <glyph glyph-name="ellipsis" unicode="&#x2026;" horiz-adv-x="960" 
d="M93 0zM93 16q0 14 9 23t23 9q11 0 17.5 -7t6.5 -18q0 -13 -9 -22t-23 -9q-11 0 -17.5 6.5t-6.5 17.5zM413 16q0 14 9 23t23 9q11 0 17.5 -7t6.5 -18q0 -13 -9 -22t-23 -9q-11 0 -17.5 6.5t-6.5 17.5zM733 16q0 14 9 23t23 9q11 0 17.5 -7t6.5 -18q0 -13 -9 -22t-23 -9
q-11 0 -17.5 6.5t-6.5 17.5z" />
    <glyph glyph-name="periodcentered" unicode="&#xb7;" horiz-adv-x="227" 
d="M85 219zM85 243q0 14 9 23t23 9q11 0 17.5 -7t6.5 -18q0 -13 -9 -22t-23 -9q-11 0 -17.5 6.5t-6.5 17.5z" />
    <glyph glyph-name="uni22C5" unicode="&#x22c5;" horiz-adv-x="227" 
d="M85 219zM85 243q0 14 9 23t23 9q11 0 17.5 -7t6.5 -18q0 -13 -9 -22t-23 -9q-11 0 -17.5 6.5t-6.5 17.5z" />
    <glyph glyph-name="bullet" unicode="&#x2022;" horiz-adv-x="480" 
d="M104 288q0 30 11 56t30.5 45.5t46 31t56.5 11.5t56 -11.5t45.5 -31t31 -45.5t11.5 -56t-11.5 -56.5t-31 -46t-45.5 -30.5t-56 -11t-56.5 11t-46 30.5t-30.5 46t-11 56.5z" />
    <glyph glyph-name="slash" unicode="/" horiz-adv-x="384" 
d="M409 708l20 -8l-448 -832l-20 8z" />
    <glyph glyph-name="parenleft" unicode="(" horiz-adv-x="322" 
d="M96 208q5 148 67 277.5t174 229.5l17 -16q-109 -94 -169.5 -221t-65.5 -270q-4 -97 19.5 -181t72.5 -152l-18 -13q-52 72 -76 159t-21 187z" />
    <glyph glyph-name="brokenbar" unicode="&#xa6;" horiz-adv-x="240" 
d="M131 688v-384h-22v384h22zM109 -176v384h22v-384h-22z" />
    <glyph glyph-name="parenright" unicode=")" horiz-adv-x="322" 
d="M244 369q-5 -149 -67 -278.5t-174 -228.5l-16 16q109 93 169 220t65 271q4 97 -19.5 181t-72.5 151l19 14q51 -72 75 -159t21 -187z" />
    <glyph glyph-name="bracketleft" unicode="[" horiz-adv-x="322" 
d="M207 705h151l-4 -22h-128l-138 -790h127l-4 -22h-150z" />
    <glyph glyph-name="backslash" unicode="\" horiz-adv-x="384" 
d="M111 703l22 4l156 -834l-22 -4z" />
    <glyph glyph-name="bracketright" unicode="]" horiz-adv-x="322" 
d="M133 -129h-151l4 22h128l138 790h-127l4 22h150z" />
    <glyph glyph-name="braceleft" unicode="{" horiz-adv-x="322" 
d="M56 299h14q42 0 74 22.5t40 67.5q4 21 4 47.5t-0.5 54t0 54.5t5.5 50q10 51 48 80.5t91 29.5h26l-4 -22h-22q-43 0 -75 -24t-41 -67q-5 -21 -5.5 -47t0 -53.5t0.5 -54.5t-3 -49q-7 -44 -32 -67.5t-60 -34.5q28 -11 42 -35.5t14 -58.5q0 -28 -8.5 -55.5t-19 -55.5t-19 -55
t-8.5 -54q0 -34 22 -56.5t65 -22.5h10l-4 -22h-8q-51 0 -80 28t-29 71q0 28 8.5 56t19 55.5t19.5 55t9 54.5q0 38 -22.5 62t-57.5 24h-17z" />
    <glyph glyph-name="bar" unicode="|" horiz-adv-x="240" 
d="M109 736h22v-960h-22v960z" />
    <glyph glyph-name="braceright" unicode="}" horiz-adv-x="322" 
d="M283 277h-14q-42 0 -74 -22.5t-40 -67.5q-4 -21 -4 -47.5t0.5 -54t-0.5 -55t-5 -49.5q-10 -51 -48 -80.5t-91 -29.5h-26l4 22h22q43 0 75 24t41 67q4 21 5 47t0.5 53.5t-0.5 54t3 49.5q7 44 32 67.5t60 34.5q-28 11 -42 35.5t-14 58.5q0 28 8.5 55.5t19 55.5t19 55
t8.5 54q0 34 -22 56.5t-65 22.5h-10l4 22h8q51 0 80 -28t29 -71q0 -28 -9 -56t-19.5 -55.5t-19 -55t-8.5 -54.5q0 -38 22.5 -62t57.5 -24h17z" />
    <glyph glyph-name="hyphen" unicode="-" horiz-adv-x="320" 
d="M35 257h257l-4 -22h-257z" />
    <glyph glyph-name="uni00AD" unicode="&#xad;" horiz-adv-x="320" 
d="M31 235zM35 257h257l-4 -22h-257z" />
    <glyph glyph-name="endash" unicode="&#x2013;" horiz-adv-x="480" 
d="M35 257h417l-4 -22h-417z" />
    <glyph glyph-name="emdash" unicode="&#x2014;" horiz-adv-x="960" 
d="M35 257h897l-4 -22h-897z" />
    <glyph glyph-name="underscore" unicode="_" horiz-adv-x="480" 
d="M-63 -117h480l-4 -22h-480z" />
    <glyph glyph-name="dagger" unicode="&#x2020;" horiz-adv-x="481" 
d="M270 468h-183l4 21h183l32 183h22l-32 -183h182l-4 -21h-182l-82 -468h-22z" />
    <glyph glyph-name="daggerdbl" unicode="&#x2021;" horiz-adv-x="481" 
d="M220 183h-183l4 21h183l46 264h-183l4 21h183l32 183h22l-32 -183h182l-4 -21h-182l-47 -264h183l-4 -21h-183l-31 -183h-22z" />
    <glyph glyph-name="section" unicode="&#xa7;" horiz-adv-x="506" 
d="M4 -99q51 -26 100 -38.5t94 -12.5q37 0 67 10t52 28t34 43t12 55q0 40 -21.5 64.5t-54 42t-70 32t-70 33t-54 45.5t-21.5 71q0 54 33 93.5t90 53.5q-28 18 -44.5 44t-16.5 65q0 33 13.5 61t38 48.5t58 32.5t74.5 12q44 0 92.5 -10.5t99.5 -34.5l-10 -21q-48 23 -94 33.5
t-88 10.5q-35 0 -64.5 -10t-50.5 -28t-33 -42t-12 -52q0 -39 21.5 -63t54 -41t70.5 -31.5t70.5 -33.5t54 -47t21.5 -72q0 -54 -33 -93t-87 -56q26 -18 42 -43.5t16 -63.5q0 -35 -14 -64t-39 -50t-60 -32.5t-76 -11.5q-47 0 -100 13t-104 39zM96 275q0 -38 21 -62t52.5 -41
t68 -31t68.5 -32q54 11 86.5 46t32.5 86q0 38 -20 62t-50 41t-66 30.5t-68 30.5q-57 -9 -91 -45t-34 -85z" />
    <glyph glyph-name="paragraph" unicode="&#xb6;" horiz-adv-x="555" 
d="M278 284q-42 0 -76.5 12t-59 34.5t-37.5 53.5t-13 70q0 46 19 86t51.5 69t76.5 46t95 17h179l-147 -832h-22l143 810h-112l-64 -366h-33z" />
    <glyph glyph-name="registered" unicode="&#xae;" horiz-adv-x="832" 
d="M64 336q0 81 27 148.5t76 116.5t116.5 76t148.5 27t148.5 -27t116.5 -76t76 -116.5t27 -148.5t-27 -148.5t-76 -116.5t-116.5 -76t-148.5 -27t-148.5 27t-116.5 76t-76 116.5t-27 148.5zM84 336q0 -77 25.5 -141t71.5 -110t110 -71.5t141 -25.5t141 25.5t110 71.5
t71.5 110t25.5 141t-25.5 141t-71.5 110t-110 71.5t-141 25.5t-141 -25.5t-110 -71.5t-71.5 -110t-25.5 -141zM309 544h145q56 0 92 -32.5t36 -86.5q0 -50 -31 -82t-82 -36l127 -179h-26l-124 178h-115v-178h-22v416zM331 326h122q48 0 77.5 26.5t29.5 72.5q0 45 -29.5 72
t-77.5 27h-122v-198z" />
    <glyph glyph-name="copyright" unicode="&#xa9;" horiz-adv-x="832" 
d="M64 336q0 81 27 148.5t76 116.5t116.5 76t148.5 27t148.5 -27t116.5 -76t76 -116.5t27 -148.5t-27 -148.5t-76 -116.5t-116.5 -76t-148.5 -27t-148.5 27t-116.5 76t-76 116.5t-27 148.5zM84 336q0 -77 25.5 -141t71.5 -110t110 -71.5t141 -25.5t141 25.5t110 71.5
t71.5 110t25.5 141t-25.5 141t-71.5 110t-110 71.5t-141 25.5t-141 -25.5t-110 -71.5t-71.5 -110t-25.5 -141zM247 336q0 48 14.5 87.5t40.5 68t62 44.5t80 16q67 0 132 -44l-12 -17q-28 20 -58.5 30t-60.5 10q-39 0 -72 -14.5t-56 -40t-36 -61.5t-13 -79t13 -79t36 -62
t56 -40.5t72 -14.5q30 0 60.5 10.5t58.5 30.5l12 -17q-65 -44 -132 -44q-44 0 -80 16t-62 44.5t-40.5 68t-14.5 87.5z" />
    <glyph glyph-name="trademark" unicode="&#x2122;" horiz-adv-x="930" 
d="M223 652h-156v20h334v-20h-156v-396h-22v396zM509 672h23l167 -225l167 225h23v-416h-21v384l-161 -218h-16l-161 218v-384h-21v416z" />
    <glyph glyph-name="quotedblleft" unicode="&#x201c;" horiz-adv-x="391" 
d="M129 473zM189 504q0 -13 -9 -22t-23 -9q-28 0 -28 35q0 24 8 48t23 47t36.5 43t48.5 35l10 -15q-93 -60 -99 -140q13 5 23 -2t10 -20zM353 504q0 -13 -9 -22t-23 -9q-28 0 -28 35q0 24 8 48t23 47t36.5 43t48.5 35l10 -15q-93 -60 -99 -140q13 5 23 -2t10 -20z" />
    <glyph glyph-name="quotedblright" unicode="&#x201d;" horiz-adv-x="391" 
d="M91 472zM157 648q0 14 9 23t23 9q13 0 20.5 -9.5t7.5 -26.5q0 -48 -31 -95t-85 -77l-10 15q46 29 71 63t28 76q-13 -4 -23 3t-10 19zM321 648q0 14 9 23t23 9q13 0 20.5 -9.5t7.5 -26.5q0 -48 -31 -95t-85 -77l-10 15q46 29 71 63t28 76q-13 -4 -23 3t-10 19z" />
    <glyph glyph-name="quoteleft" unicode="&#x2018;" horiz-adv-x="227" 
d="M189 504q0 -13 -9 -22t-23 -9q-28 0 -28 35q0 24 8 48t23 47t36.5 43t48.5 35l10 -15q-93 -60 -99 -140q13 5 23 -2t10 -20z" />
    <glyph glyph-name="quoteright" unicode="&#x2019;" horiz-adv-x="227" 
d="M91 472zM157 648q0 14 9 23t23 9q13 0 20.5 -9.5t7.5 -26.5q0 -48 -31 -95t-85 -77l-10 15q46 29 71 63t28 76q-13 -4 -23 3t-10 19z" />
    <glyph glyph-name="guillemotleft" unicode="&#xab;" horiz-adv-x="487" 
d="M31 20zM34 255l235 217l14 -14l-225 -213l149 -213l-17 -12l-159 220zM230 255l235 217l14 -14l-225 -213l149 -213l-17 -12l-159 220z" />
    <glyph glyph-name="guillemotright" unicode="&#xbb;" horiz-adv-x="487" 
d="M10 20zM259 238l-235 -218l-14 14l225 214l-149 213l17 11l159 -219zM455 238l-235 -218l-14 14l225 214l-149 213l17 11l159 -219z" />
    <glyph glyph-name="guilsinglleft" unicode="&#x2039;" horiz-adv-x="291" 
d="M34 255l235 217l14 -14l-225 -213l149 -213l-17 -12l-159 220z" />
    <glyph glyph-name="guilsinglright" unicode="&#x203a;" horiz-adv-x="291" 
d="M259 238l-235 -218l-14 14l225 214l-149 213l17 11l159 -219z" />
    <glyph glyph-name="quotesinglbase" unicode="&#x201a;" horiz-adv-x="227" 
d="M0 0zM46 16q0 14 9 23t23 9q13 0 20.5 -9.5t7.5 -26.5q0 -48 -31 -95t-85 -77l-10 15q46 29 71 63t28 76q-13 -4 -23 3t-10 19z" />
    <glyph glyph-name="quotedblbase" unicode="&#x201e;" horiz-adv-x="391" 
d="M0 0zM46 16q0 14 9 23t23 9q13 0 20.5 -9.5t7.5 -26.5q0 -48 -31 -95t-85 -77l-10 15q46 29 71 63t28 76q-13 -4 -23 3t-10 19zM210 16q0 14 9 23t23 9q13 0 20.5 -9.5t7.5 -26.5q0 -48 -31 -95t-85 -77l-10 15q46 29 71 63t28 76q-13 -4 -23 3t-10 19z" />
    <glyph glyph-name="ordfeminine" unicode="&#xaa;" horiz-adv-x="363" 
d="M39 265h303l-3 -19h-303zM102 433q0 -31 21.5 -50.5t57.5 -19.5q56 0 87 35t41 89l5 26q-45 9 -82 9q-60 0 -95 -24t-35 -65zM80 432q0 51 41 80t110 29q20 0 42 -2.5t45 -7.5l7 43q1 5 1.5 10t0.5 9q0 29 -21 48.5t-59 19.5q-49 0 -103 -19l-5 19q57 19 109 19
q47 0 73.5 -24t26.5 -62q0 -5 -0.5 -10.5t-1.5 -10.5l-30 -175q-1 -4 -1 -6.5v-4.5q0 -24 29 -24q10 0 18 2l2 -19q-5 -1 -11 -1.5t-11 -0.5q-22 0 -35.5 11t-12.5 31q0 6 1 11l2 11q-20 -34 -50 -49t-68 -15q-45 0 -72 25t-27 63z" />
    <glyph glyph-name="ordmasculine" unicode="&#xba;" horiz-adv-x="386" 
d="M55 265h292l-4 -19h-291zM91 475q0 44 13 81.5t36 65t54.5 43t69.5 15.5q57 0 92 -36t35 -95q0 -44 -13 -81.5t-36 -65t-54.5 -43t-69.5 -15.5q-57 0 -92 36t-35 95zM218 363q33 0 60.5 14t48 38.5t31.5 58t11 73.5q0 51 -29 82.5t-77 31.5q-33 0 -60.5 -14t-47.5 -38.5
t-31 -58t-11 -73.5q0 -51 28.5 -82.5t76.5 -31.5z" />
    <glyph glyph-name="arrowleft" unicode="&#x2190;" horiz-adv-x="960" 
d="M81 276l282 -277l-17 -17l-306 306l306 306l17 -17l-282 -277h855v-24h-855z" />
    <glyph glyph-name="arrowup" unicode="&#x2191;" horiz-adv-x="960" 
d="M476 694l-277 -281l-17 17l306 306l306 -306l-17 -17l-277 281v-854h-24v854z" />
    <glyph glyph-name="arrowright" unicode="&#x2192;" horiz-adv-x="960" 
d="M894 300l-281 277l17 17l306 -306l-306 -306l-17 17l281 277h-854v24h854z" />
    <glyph glyph-name="arrowdown" unicode="&#x2193;" horiz-adv-x="960" 
d="M500 -118l277 281l17 -17l-306 -306l-306 306l17 17l277 -281v854h24v-854z" />
    <glyph glyph-name="zero" unicode="0" horiz-adv-x="576" 
d="M64 229q0 96 21.5 179t60.5 144.5t92.5 96.5t117.5 35q94 0 142 -64t48 -177q0 -96 -21.5 -179t-60.5 -144.5t-92.5 -96.5t-117.5 -35q-94 0 -142 64t-48 177zM87 229q0 -103 41.5 -161t126.5 -58q58 0 107.5 33.5t84.5 92t55 137.5t20 170q0 102 -41.5 160.5
t-125.5 58.5q-59 0 -108 -33.5t-84.5 -92t-55.5 -137.5t-20 -170z" />
    <glyph glyph-name="one" unicode="1" horiz-adv-x="576" 
d="M402 644l-215 -115l-9 21l231 122h23l-118 -672h-24z" />
    <glyph glyph-name="two" unicode="2" horiz-adv-x="576" 
d="M24 18l342 287q60 49 91.5 102.5t31.5 101.5q0 71 -40.5 112t-115.5 41q-43 0 -85 -13.5t-93 -40.5l-10 20q51 28 98 42t93 14q84 0 130.5 -46.5t46.5 -126.5q0 -54 -33 -111t-96 -109l-322 -269h374l-4 -22h-411z" />
    <glyph glyph-name="three" unicode="3" horiz-adv-x="576" 
d="M227 355h35q48 0 88 13t69.5 35.5t46 54t16.5 68.5q0 61 -41 98.5t-107 37.5q-82 0 -171 -35l-8 21q49 19 93.5 27.5t87.5 8.5q38 0 69 -11.5t53.5 -32t35 -49.5t12.5 -64q0 -37 -14 -68t-37.5 -55t-54.5 -40t-66 -22q59 -11 93 -53.5t34 -103.5q0 -42 -17 -78.5
t-47 -62.5t-70.5 -41t-86.5 -15q-48 0 -100.5 14t-105.5 42l12 21q102 -55 194 -55q42 0 78 13.5t62.5 36.5t41.5 55t15 70q0 69 -48.5 108.5t-136.5 39.5h-29z" />
    <glyph glyph-name="four" unicode="4" horiz-adv-x="576" 
d="M369 174h-342l3 20l427 478h23l-84 -476h117l-3 -22h-117l-31 -174h-23zM372 196l78 437l-390 -437h312z" />
    <glyph glyph-name="five" unicode="5" horiz-adv-x="576" 
d="M537 650h-324l-47 -268q26 4 52.5 6t52.5 2q97 0 153.5 -48.5t56.5 -132.5q0 -47 -18.5 -87.5t-50.5 -70t-76 -46.5t-95 -17t-101.5 17.5t-95.5 46.5l12 20q43 -29 90 -45.5t95 -16.5q46 0 85.5 15t68.5 42t45.5 63.5t16.5 78.5q0 75 -50.5 117.5t-139.5 42.5
q-30 0 -60.5 -2.5t-67.5 -9.5l55 315h347z" />
    <glyph glyph-name="six" unicode="6" horiz-adv-x="576" 
d="M83 217q0 98 24.5 183t67.5 148t101.5 99.5t125.5 36.5q79 0 154 -45l-11 -19q-35 20 -70.5 31t-73.5 11q-55 0 -104.5 -27.5t-88 -78t-64.5 -121t-34 -156.5q34 66 92 102.5t133 36.5q40 0 73 -13t57 -37.5t37 -58.5t13 -76q0 -51 -18.5 -96t-50 -78t-74 -52t-91.5 -19
q-94 0 -146 60t-52 169zM110 193q0 -41 12.5 -74.5t35 -57.5t54 -37.5t70.5 -13.5q43 0 81.5 17t66.5 47t44.5 70.5t16.5 87.5q0 76 -44 120t-115 44q-46 0 -86.5 -16.5t-70.5 -44t-47.5 -64.5t-17.5 -78z" />
    <glyph glyph-name="seven" unicode="7" horiz-adv-x="576" 
d="M518 650h-368l4 22h396l-3 -19l-397 -653h-28z" />
    <glyph glyph-name="eight" unicode="8" horiz-adv-x="576" 
d="M307 355q99 11 153.5 57.5t54.5 117.5q0 61 -43.5 96.5t-118.5 35.5q-43 0 -79 -12.5t-62 -34.5t-40.5 -52t-14.5 -64q0 -56 39 -93.5t111 -50.5zM56 149q0 75 53.5 125.5t154.5 70.5q-61 13 -96 55.5t-35 98.5q0 39 16.5 73t46 59t70 39t88.5 14q85 0 134.5 -41.5
t49.5 -111.5q0 -72 -50 -122.5t-140 -65.5q71 -18 108 -60t37 -102q0 -41 -18 -76.5t-49.5 -61.5t-75 -40.5t-94.5 -14.5q-94 0 -147 43t-53 118zM304 333q-106 -14 -165 -62.5t-59 -120.5q0 -66 47 -103t130 -37q45 0 84 13t67.5 36t44.5 54.5t16 67.5q0 59 -42 97.5
t-123 54.5z" />
    <glyph glyph-name="nine" unicode="9" horiz-adv-x="576" 
d="M532 455q0 -98 -24.5 -183t-67.5 -148t-101 -99.5t-125 -36.5q-81 0 -154 45l11 19q35 -20 70 -31t73 -11q55 0 104.5 27.5t88 78t64.5 121t35 156.5q-35 -66 -93 -102.5t-133 -36.5q-39 0 -72 13t-57 37.5t-37 58.5t-13 76q0 51 18.5 96t50 78t74 52t90.5 19
q94 0 146 -60t52 -169zM505 479q0 41 -12 74.5t-34.5 57.5t-54 37.5t-70.5 13.5q-44 0 -82 -17.5t-66.5 -47.5t-45 -70.5t-16.5 -86.5q0 -76 44 -120t115 -44q46 0 86.5 16.5t70.5 44t47.5 64.5t17.5 78z" />
    <glyph glyph-name="dollar" unicode="$" horiz-adv-x="576" 
d="M241 37q-41 5 -84 17t-85 34l9 21q51 -26 100 -38.5t95 -12.5q36 0 66.5 9.5t52 27.5t34 43t12.5 56q0 40 -21.5 64.5t-54 42t-70.5 31.5t-70.5 33t-54 46t-21.5 71q0 36 15 64.5t41 48t62.5 30.5t79.5 11l29 164h22l-29 -165q37 -4 76 -14.5t80 -29.5l-9 -21
q-48 23 -94 33.5t-89 10.5q-35 0 -64.5 -10t-50.5 -28t-33 -42t-12 -52q0 -39 21.5 -63t54 -41t70.5 -31t70.5 -33t54 -47t21.5 -73q0 -38 -15 -67t-42 -49.5t-64 -31t-81 -10.5l-29 -164h-22z" />
    <glyph glyph-name="cent" unicode="&#xa2;" horiz-adv-x="576" 
d="M111 280q0 65 19 121t53.5 97t82 65t104.5 25l26 148h22l-26 -149q70 -5 128 -45l-13 -19q-62 43 -133 43q-52 0 -95.5 -22t-75.5 -60t-50 -90.5t-18 -112.5q0 -38 12.5 -70.5t35 -55.5t53.5 -36t68 -13t73 10.5t68 29.5l11 -18q-35 -21 -74.5 -32.5t-78.5 -11.5
l-26 -148h-22l26 148q-38 3 -69 19t-53.5 41.5t-35 60t-12.5 75.5z" />
    <glyph glyph-name="Euro" unicode="&#x20ac;" horiz-adv-x="576" 
d="M47 282h77q0 33 4 64t12 60h-72l4 20h73q17 58 46 106t68 81.5t86 52t101 18.5q86 0 169 -52l-11 -19q-76 49 -158 49q-49 0 -92.5 -17t-79 -47.5t-62.5 -74t-43 -97.5h289l-3 -20h-292q-7 -29 -11 -60t-4 -64h285l-3 -20h-282q1 -59 16 -106t42 -79.5t64 -49.5t82 -17
q82 0 148 35l9 -21q-71 -36 -159 -36q-50 0 -91 19t-70.5 54t-46.5 86t-18 115h-81z" />
    <glyph glyph-name="florin" unicode="&#x192;" horiz-adv-x="576" 
d="M189 417h110l30 172q8 45 38.5 70t74.5 25q18 0 39.5 -5t44.5 -13l-8 -21q-40 17 -75 17t-59.5 -20.5t-30.5 -54.5l-30 -170h142l-4 -21h-142l-54 -313q-8 -45 -38 -70t-75 -25q-18 0 -39.5 5t-44.5 13l8 21q40 -17 75 -17t59.5 20.5t30.5 53.5l54 312h-110z" />
    <glyph glyph-name="sterling" unicode="&#xa3;" horiz-adv-x="576" 
d="M41 22h110l55 311h-94l4 22h94l32 178q12 70 60 110.5t120 40.5q37 0 74 -11.5t75 -28.5l-10 -21q-35 17 -69.5 28t-68.5 11q-63 0 -105 -35t-52 -95l-31 -177h205l-4 -22h-205l-56 -311h300l-4 -22h-435z" />
    <glyph glyph-name="yen" unicode="&#xa5;" horiz-adv-x="576" 
d="M315 325l-22 -124h182l-4 -21h-182l-31 -180h-24l31 180h-181l4 21h181l21 124h-181l4 21h176l-167 326h27l158 -314l253 314h30l-264 -326h174l-4 -21h-181z" />
    <glyph glyph-name="numbersign" unicode="#" horiz-adv-x="641" 
d="M13 226h152l80 220h-147l4 22h151l76 207l22 -4l-75 -203h220l76 207l21 -4l-74 -203h147l-4 -22h-152l-80 -220h147l-4 -22h-151l-76 -207l-21 4l74 203h-220l-75 -207l-22 4l75 203h-148zM188 226h219l81 220h-220z" />
    <glyph glyph-name="percent" unicode="%" horiz-adv-x="864" 
d="M486 128q0 47 13.5 87.5t38 70t58 46t73.5 16.5q60 0 96 -38.5t36 -101.5q0 -47 -13.5 -87.5t-38 -70t-58 -46t-73.5 -16.5q-60 0 -96 38.5t-36 101.5zM507 129q0 -54 30.5 -87.5t80.5 -33.5q35 0 65 15t51.5 41.5t33.5 63t12 79.5q0 54 -30.5 87.5t-80.5 33.5
q-35 0 -64.5 -15t-51.5 -41.5t-34 -63t-12 -79.5zM752 681l15 -16l-621 -674l-15 16zM97 464q0 47 13.5 87.5t38 70t58 46t73.5 16.5q59 0 95.5 -38.5t36.5 -101.5q0 -47 -14 -87.5t-38.5 -70t-58 -46t-73.5 -16.5q-59 0 -95 38.5t-36 101.5zM118 465q0 -54 30.5 -87.5
t80.5 -33.5q35 0 64.5 15t51 41.5t33.5 63t12 79.5q0 54 -30 87.5t-80 33.5q-35 0 -65 -15t-51.5 -41.5t-33.5 -63t-12 -79.5z" />
    <glyph glyph-name="perthousand" unicode="&#x2030;" horiz-adv-x="1234" 
d="M856 128q0 47 13.5 87.5t38 70t58.5 46t74 16.5q59 0 95 -38.5t36 -101.5q0 -47 -13.5 -87.5t-38 -70t-58 -46t-73.5 -16.5q-59 0 -95.5 38.5t-36.5 101.5zM988 8q35 0 65 15t51.5 41.5t33.5 63t12 79.5q0 54 -30.5 87.5t-80.5 33.5q-35 0 -64.5 -15t-51 -41.5t-33.5 -63
t-12 -79.5q0 -54 30 -87.5t80 -33.5zM486 128q0 47 13.5 87.5t38 70t58 46t73.5 16.5q60 0 96 -38.5t36 -101.5q0 -47 -13.5 -87.5t-38 -70t-58 -46t-73.5 -16.5q-60 0 -96 38.5t-36 101.5zM618 8q35 0 65 15t51.5 41.5t33.5 63t12 79.5q0 54 -30.5 87.5t-80.5 33.5
q-35 0 -64.5 -15t-51.5 -41.5t-34 -63t-12 -79.5q0 -54 30.5 -87.5t80.5 -33.5zM752 681l15 -16l-621 -674l-15 16zM97 464q0 47 13.5 87.5t38 70t58 46t73.5 16.5q59 0 95.5 -38.5t36.5 -101.5q0 -47 -14 -87.5t-38.5 -70t-58 -46t-73.5 -16.5q-59 0 -95 38.5t-36 101.5z
M229 344q35 0 64.5 15t51 41.5t33.5 63t12 79.5q0 54 -30 87.5t-80 33.5q-35 0 -65 -15t-51.5 -41.5t-33.5 -63t-12 -79.5q0 -54 30.5 -87.5t80.5 -33.5z" />
    <glyph glyph-name="plus" unicode="+" horiz-adv-x="576" 
d="M55 299h230v230h22v-230h230v-22h-230v-230h-22v230h-230v22z" />
    <glyph glyph-name="minus" unicode="&#x2212;" horiz-adv-x="576" 
d="M55 299h482v-22h-482v22z" />
    <glyph glyph-name="multiply" unicode="&#xd7;" horiz-adv-x="576" 
d="M85 92l195 196l-195 196l15 15l196 -195l196 195l15 -15l-196 -196l196 -196l-15 -15l-196 195l-196 -195z" />
    <glyph glyph-name="less" unicode="&#x3c;" horiz-adv-x="576" 
d="M55 299l475 216l9 -21l-453 -206l453 -206l-9 -21l-475 216v22z" />
    <glyph glyph-name="divide" unicode="&#xf7;" horiz-adv-x="576" 
d="M70 299h451v-22h-451v22zM274 480q0 22 22 22q21 0 21 -22t-21 -22q-22 0 -22 22zM274 96q0 22 22 22q21 0 21 -22t-21 -22q-22 0 -22 22z" />
    <glyph glyph-name="equal" unicode="=" horiz-adv-x="576" 
d="M55 397h482v-23h-482v23zM55 202h482v-23h-482v23z" />
    <glyph glyph-name="logicalnot" unicode="&#xac;" horiz-adv-x="576" 
d="M55 299h482v-252h-23v230h-459v22z" />
    <glyph glyph-name="greater" unicode="&#x3e;" horiz-adv-x="576" 
d="M537 277l-475 -216l-9 21l453 206l-453 206l9 21l475 -216v-22z" />
    <glyph glyph-name="notequal" unicode="&#x2260;" horiz-adv-x="576" 
d="M70 396h267l78 155l20 -10l-73 -145h159v-22h-171l-84 -172h255v-22h-267l-77 -155l-20 10l72 145h-159v22h170l86 172h-256v22z" />
    <glyph glyph-name="approxequal" unicode="&#x2248;" horiz-adv-x="576" 
d="M69 175q55 51 130 51q30 0 53.5 -7.5t45 -16.5t44 -16.5t51.5 -7.5q34 0 62 11.5t54 34.5l14 -18q-57 -51 -130 -51q-30 0 -53.5 7.5t-45.5 16.5t-44.5 16.5t-50.5 7.5q-34 0 -62 -11t-54 -34zM69 370q57 51 130 51q30 0 53.5 -7.5t45 -16.5t44 -16.5t51.5 -7.5
q65 0 116 45l14 -17q-56 -51 -130 -51q-30 0 -53.5 7.5t-45.5 16.5t-44.5 16.5t-50.5 7.5q-34 0 -62 -11.5t-54 -34.5z" />
    <glyph glyph-name="plusminus" unicode="&#xb1;" horiz-adv-x="576" 
d="M285 100v230h-230v22h230v230h22v-230h230v-22h-230v-230h-22zM55 22h482v-22h-482v22z" />
    <glyph glyph-name="lessequal" unicode="&#x2264;" horiz-adv-x="576" 
d="M70 22h451v-22h-451v22zM70 352l444 208l10 -21l-423 -198l423 -198l-10 -21l-444 208v22z" />
    <glyph glyph-name="greaterequal" unicode="&#x2265;" horiz-adv-x="576" 
d="M521 330l-444 -208l-9 21l423 198l-423 198l9 21l444 -208v-22zM70 22h451v-22h-451v22z" />
    <glyph glyph-name="asciicircum" unicode="^" horiz-adv-x="576" 
d="M337 672l208 -445l-21 -9l-198 423l-198 -423l-22 9l208 445h23z" />
    <glyph glyph-name="asciitilde" unicode="~" horiz-adv-x="576" 
d="M69 273q56 50 130 50q30 0 53.5 -7.5t45 -16.5t44 -16.5t51.5 -7.5q34 0 62 11.5t54 34.5l14 -18q-56 -50 -130 -50q-30 0 -53.5 7.5t-45.5 16.5t-44.5 16.5t-50.5 7.5q-34 0 -62 -11.5t-54 -34.5z" />
    <glyph glyph-name="lozenge" unicode="&#x25ca;" horiz-adv-x="576" 
d="M78 336l216 336h22l216 -336l-216 -336h-22zM105 336l200 -314l200 314l-200 312z" />
    <glyph glyph-name="degree" unicode="&#xb0;" horiz-adv-x="321" 
d="M114 559q0 26 9 48t25.5 38.5t39 25.5t48.5 9q41 0 65.5 -24.5t24.5 -66.5q0 -26 -9 -48t-25.5 -38.5t-38.5 -25.5t-48 -9q-41 0 -66 25t-25 66zM134 562q0 -34 20.5 -54t53.5 -20q21 0 38.5 7.5t31 21t21 31.5t7.5 39q0 34 -20 53.5t-53 19.5q-21 0 -39 -7.5t-31.5 -21
t-21 -31t-7.5 -38.5z" />
    <glyph glyph-name="quotesingle" unicode="'" horiz-adv-x="195" 
d="M161 672h25l-37 -196h-20z" />
    <glyph glyph-name="quotedbl" unicode="&#x22;" horiz-adv-x="358" 
d="M129 476zM161 672h25l-37 -196h-20zM325 672h25l-37 -196h-20z" />
    <glyph glyph-name="radical" unicode="&#x221a;" horiz-adv-x="643" 
d="M343 -208h-26l-128 375l-176 -56l-6 22l197 62l125 -370l261 882l22 -6z" />
    <glyph glyph-name="currency" unicode="&#xa4;" horiz-adv-x="576" 
d="M92 139l82 83q-20 22 -30.5 50.5t-10.5 63.5q0 34 10.5 63t29.5 51l-81 83l15 15l82 -82q22 20 51 30.5t64 10.5q34 0 63 -10.5t51 -30.5l83 82l15 -15l-82 -83q40 -45 40 -114q0 -35 -10.5 -63.5t-29.5 -50.5l82 -83l-15 -15l-83 82q-22 -19 -51 -29.5t-63 -10.5
q-35 0 -63.5 10.5t-50.5 29.5l-83 -82zM155 336q0 -33 11 -60t31 -46.5t47 -30.5t60 -11t60 11t47 30.5t31 46.5t11 60t-11 60t-31 47t-47 31t-60 11t-60 -11t-47 -31t-31 -47t-11 -60z" />
    <glyph glyph-name="infinity" unicode="&#x221e;" horiz-adv-x="754" 
d="M51 256q0 45 13.5 83.5t37 66.5t55.5 44t70 16q54 0 92.5 -36.5t68.5 -119.5q51 80 98 118t101 38q59 0 95.5 -40t36.5 -106q0 -45 -13.5 -83.5t-37 -66.5t-56 -44t-69.5 -16q-54 0 -92.5 36.5t-68.5 119.5q-51 -80 -98 -118t-101 -38q-59 0 -95.5 40t-36.5 106zM74 257
q0 -57 30.5 -91t80.5 -34q48 0 92 39.5t95 118.5q-29 82 -62.5 118t-81.5 36q-33 0 -61 -14.5t-48.5 -39.5t-32.5 -59.5t-12 -73.5zM696 319q0 57 -30.5 91t-80.5 34q-48 0 -92 -39.5t-95 -118.5q29 -82 62.5 -118t81.5 -36q33 0 61 14.5t48.5 39.5t32.5 59.5t12 73.5z" />
    <glyph glyph-name="mu" unicode="&#xb5;" horiz-adv-x="571" 
d="M431 70q-1 -5 -1.5 -10t-0.5 -10q0 -18 12 -28.5t33 -10.5q14 0 29 3l3 -22q-16 -4 -35 -4q-29 0 -47 16.5t-18 44.5q0 5 0.5 10t1.5 10l6 33q-29 -53 -78.5 -83.5t-106.5 -30.5q-52 0 -89 24.5t-50 67.5l-51 -288h-24l121 689h24l-53 -299q-2 -14 -3.5 -26.5t-1.5 -24.5
q0 -55 35.5 -87.5t93.5 -32.5q36 0 68.5 13.5t59 37.5t44.5 57.5t25 73.5l51 288h24z" />
    <glyph glyph-name="partialdiff" unicode="&#x2202;" 
d="M51 185q0 66 19 122.5t53 98t80 64.5t100 23q36 0 66.5 -10.5t54 -30t38.5 -46.5t20 -60q4 26 5.5 58t1.5 61q0 37 -8 77.5t-27.5 74t-52.5 55.5t-82 22q-30 0 -63 -7t-68 -23l-8 20q71 32 139 32q57 0 94.5 -23.5t59.5 -60.5t30.5 -82t8.5 -87q0 -121 -22 -210.5
t-59.5 -148t-88 -87.5t-107.5 -29q-41 0 -75 14.5t-58 40.5t-37.5 62t-13.5 80zM74 186q0 -39 12 -71.5t33.5 -56t51 -36t65.5 -12.5q49 0 91 24t73 65t48.5 95.5t17.5 115.5q0 36 -12 65.5t-33 50.5t-51 32.5t-66 11.5q-49 0 -91 -21.5t-73 -59t-48.5 -90t-17.5 -113.5z
" />
    <glyph glyph-name="summation" unicode="&#x2211;" horiz-adv-x="625" 
d="M-22 -191l428 449l-258 427l4 19h508l-4 -22h-477l252 -418l-3 -16l-413 -434h504l-4 -22h-540z" />
    <glyph glyph-name="product" unicode="&#x220f;" horiz-adv-x="770" 
d="M199 704h536l-161 -912h-25l157 890h-486l-157 -890h-25z" />
    <glyph glyph-name="pi" unicode="&#x3c0;" horiz-adv-x="611" 
d="M602 459h-107l-66 -379q-3 -14 -3 -23q0 -22 14 -34.5t38 -12.5q9 0 17.5 1.5t17.5 3.5l3 -22q-23 -5 -41 -5q-32 0 -52.5 18t-20.5 49q0 10 3 24l67 380h-273l-80 -459h-23l80 459h-107l4 22h533z" />
    <glyph glyph-name="integral" unicode="&#x222b;" horiz-adv-x="386" 
d="M183 525q0 -65 7.5 -135t16.5 -141.5t16.5 -141.5t7.5 -136q0 -90 -38 -140.5t-101 -50.5q-34 0 -68 14l8 21q31 -13 59 -13q52 0 84 45t32 124q0 65 -7.5 135t-16.5 141t-16.5 141.5t-7.5 136.5q0 90 38 140.5t101 50.5q34 0 68 -14l-8 -21q-31 13 -59 13q-52 0 -84 -45
t-32 -124z" />
    <glyph glyph-name="Omega" unicode="&#x2126;" horiz-adv-x="746" 
d="M24 22h205q-63 49 -100.5 122.5t-37.5 153.5q0 85 26 156t71.5 122t107.5 79.5t135 28.5q58 0 107.5 -18t85.5 -52t56.5 -82t20.5 -108q0 -131 -69 -235t-195 -167h208l-4 -22h-247l3 19q137 67 208 171t71 232q0 55 -18.5 99.5t-51 76t-77.5 48t-99 16.5
q-67 0 -124.5 -27t-99.5 -75t-66.5 -115t-24.5 -147q0 -81 39.5 -153.5t108.5 -125.5l-3 -19h-240z" />
    <glyph glyph-name="Delta" unicode="&#x2206;" horiz-adv-x="650" 
d="M3 16l386 656h24l155 -657l-3 -15h-564zM33 22h509l-145 618z" />
    <glyph glyph-name="litre" unicode="&#x2113;" horiz-adv-x="356" 
d="M383 606q0 -47 -18.5 -93.5t-52.5 -90.5t-82 -83t-108 -69l-26 -147q-1 -8 -2 -17t-1 -18q0 -35 24 -56.5t62 -21.5q17 0 34.5 2t37.5 6l3 -22q-21 -5 -39.5 -6.5t-37.5 -1.5q-48 0 -78 27t-30 72q0 9 1 18t3 18l81 456q12 64 46 100.5t85 36.5q45 0 71.5 -30t26.5 -80z
M361 605q0 41 -20.5 65t-55.5 24q-42 0 -70 -30.5t-38 -85.5l-50 -281q55 29 98.5 65t73.5 76t46 82.5t16 84.5z" />
    <glyph glyph-name="estimated" unicode="&#x212e;" horiz-adv-x="960" 
d="M496 16q73 0 135.5 30t107.5 82h66q-53 -66 -133 -105t-176 -39q-80 0 -149.5 27.5t-122 75.5t-82.5 112t-30 137t30 137t82.5 112t122 75.5t149.5 27.5q79 0 149 -27.5t122.5 -75.5t82.5 -112t30 -137q0 -11 -1 -16h-623v-196q44 -51 106 -79.5t134 -28.5zM256 352h480
v196q-45 50 -106.5 79t-133.5 29t-134 -29t-106 -79v-196z" />
    <glyph glyph-name="numero" unicode="&#x2116;" horiz-adv-x="1116" 
d="M785 265h292l-4 -19h-291zM821 475q0 44 13 81.5t36 65t55 43t70 15.5q57 0 91.5 -36t34.5 -95q0 -44 -13 -81.5t-36 -65t-55 -43t-70 -15.5q-57 0 -91.5 36t-34.5 95zM948 363q33 0 60.5 14t48 38.5t31.5 58.5t11 73q0 51 -29 82.5t-77 31.5q-32 0 -60 -14t-48 -38.5
t-31.5 -58.5t-11.5 -73q0 -51 29 -82.5t77 -31.5zM193 672h24l336 -635l112 635h23l-118 -672h-24l-335 635l-112 -635h-24z" />
    <glyph glyph-name="fraction" unicode="&#x2044;" horiz-adv-x="192" 
d="M416 681l15 -16l-621 -674l-15 16z" />
    <glyph glyph-name="onesuperior" unicode="&#xb9;" horiz-adv-x="261" 
d="M248 776l-130 -69l-7 17l143 76h19l-73 -416h-20z" />
    <glyph glyph-name="twosuperior" unicode="&#xb2;" horiz-adv-x="338" 
d="M55 400l208 176q36 30 55.5 60.5t19.5 61.5q0 42 -23.5 65.5t-68.5 23.5q-26 0 -52.5 -8t-56.5 -23l-9 18q65 34 120 34q53 0 82 -29t29 -80q0 -68 -80 -136l-188 -159h223l-4 -20h-258z" />
    <glyph glyph-name="threesuperior" unicode="&#xb3;" horiz-adv-x="338" 
d="M181 607h23q58 0 95 28t37 73q0 37 -24.5 58.5t-64.5 21.5q-50 0 -104 -22l-7 19q31 11 58.5 17t54.5 6q48 0 78 -27.5t30 -70.5q0 -46 -31 -76t-74 -38q36 -8 57 -34t21 -63q0 -27 -11 -49.5t-29.5 -39t-44 -25.5t-54.5 -9q-30 0 -63.5 9t-65.5 26l9 19
q32 -17 61.5 -25.5t58.5 -8.5q25 0 46 7.5t37 21.5t25 32.5t9 41.5q0 40 -29.5 64t-81.5 24h-19z" />
    <glyph glyph-name="onehalf" unicode="&#xbd;" horiz-adv-x="960" 
d="M149 0zM286 648l-130 -69l-7 17l143 76h19l-73 -416h-20zM800 681l15 -16l-621 -674l-15 16zM586 16l208 176q36 30 55.5 60.5t19.5 61.5q0 42 -23.5 65.5t-68.5 23.5q-26 0 -52.5 -8t-56.5 -23l-9 18q65 34 120 34q53 0 82 -29t29 -80q0 -68 -80 -136l-188 -159h223
l-4 -20h-258z" />
    <glyph glyph-name="onequarter" unicode="&#xbc;" horiz-adv-x="960" 
d="M800 105h-210l3 18l261 293h21l-51 -292h70l-3 -19h-71l-18 -105h-21zM803 124l47 260l-231 -260h184zM286 648l-130 -69l-7 17l143 76h19l-73 -416h-20zM800 681l15 -16l-621 -674l-15 16z" />
    <glyph glyph-name="threequarters" unicode="&#xbe;" horiz-adv-x="960" 
d="M800 105h-210l3 18l261 293h21l-51 -292h70l-3 -19h-71l-18 -105h-21zM803 124l47 260l-231 -260h184zM181 479h23q58 0 95 28t37 73q0 37 -24.5 58.5t-64.5 21.5q-50 0 -104 -22l-7 19q31 11 58.5 17t54.5 6q48 0 78 -27.5t30 -70.5q0 -46 -31 -76t-74 -38q36 -8 57 -34
t21 -63q0 -27 -11 -49.5t-29.5 -39t-44 -25.5t-54.5 -9q-30 0 -63.5 9t-65.5 26l9 19q32 -17 61.5 -25.5t58.5 -8.5q25 0 46 7.5t37 21.5t25 32.5t9 41.5q0 40 -29.5 64t-81.5 24h-19zM800 681l15 -16l-621 -674l-15 16z" />
    <glyph glyph-name="grave" unicode="`" horiz-adv-x="240" 
d="M225 586l-11 -15l-146 101l13 19z" />
    <glyph glyph-name="acute" unicode="&#xb4;" horiz-adv-x="240" 
d="M149 571l-10 16l164 103l12 -20z" />
    <glyph glyph-name="dieresis" unicode="&#xa8;" horiz-adv-x="240" 
d="M260 636q0 12 8 20.5t20 8.5q10 0 16 -6.5t6 -15.5q0 -12 -8 -20.5t-21 -8.5q-9 0 -15 6t-6 16zM65 636q0 12 8.5 20.5t20.5 8.5q10 0 16 -6.5t6 -15.5q0 -12 -8.5 -20.5t-20.5 -8.5q-9 0 -15.5 6t-6.5 16z" />
    <glyph glyph-name="circumflex" unicode="&#x2c6;" horiz-adv-x="240" 
d="M187 705h20l98 -120l-14 -12l-96 110l-139 -110l-11 15z" />
    <glyph glyph-name="tilde" unicode="&#x2dc;" horiz-adv-x="240" 
d="M125 670q18 0 34 -6.5t31 -14t30 -13.5t31 -6q17 0 31 10.5t22 29.5l19 -8q-10 -23 -29 -38t-43 -15q-18 0 -34 6t-31 13.5t-30 14t-31 6.5q-17 0 -30.5 -10.5t-21.5 -29.5l-19 7q9 23 28.5 38.5t42.5 15.5z" />
    <glyph glyph-name="macron" unicode="&#xaf;" horiz-adv-x="240" 
d="M53 650h275l-4 -21h-275z" />
    <glyph glyph-name="breve" unicode="&#x2d8;" horiz-adv-x="240" 
d="M90 689q-8 -45 17.5 -73.5t74.5 -28.5q46 0 81 27.5t45 74.5h21q-11 -56 -51 -89.5t-96 -33.5q-52 0 -83.5 27t-31.5 72q0 7 0.5 13t1.5 11h21z" />
    <glyph glyph-name="dotaccent" unicode="&#x2d9;" horiz-adv-x="240" 
d="M162 636q0 12 8.5 20.5t20.5 8.5q10 0 16.5 -6t6.5 -16q0 -13 -8.5 -21t-21.5 -8q-22 0 -22 22z" />
    <glyph glyph-name="ring" unicode="&#x2da;" horiz-adv-x="240" 
d="M118 629q0 -28 16 -44t43 -16q35 0 58 23t23 58q0 27 -16 43t-43 16q-35 0 -58 -23t-23 -57zM98 626q0 44 29.5 73t73.5 29q34 0 55 -21t21 -55q0 -43 -29 -72.5t-73 -29.5q-34 0 -55.5 21.5t-21.5 54.5z" />
    <glyph glyph-name="cedilla" unicode="&#xb8;" horiz-adv-x="240" 
d="M73 -71q29 -4 46.5 -22.5t17.5 -45.5q0 -34 -27 -56t-69 -22q-39 0 -85 22l9 18q20 -9 39 -14.5t37 -5.5q32 0 52.5 16.5t20.5 41.5q0 23 -18 37t-44 14h-7l30 88h21z" />
    <glyph glyph-name="hungarumlaut" unicode="&#x2dd;" horiz-adv-x="240" 
d="M249 569l-12 15l146 129l14 -17zM85 569l-13 15l146 129l15 -17z" />
    <glyph glyph-name="ogonek" unicode="&#x2db;" horiz-adv-x="240" 
d="M90 0q-61 -40 -93.5 -78.5t-32.5 -71.5q0 -21 13 -34t36 -13q13 0 24.5 2.5t22.5 6.5l6 -19q-12 -5 -26.5 -7.5t-29.5 -2.5q-30 0 -49 18.5t-19 47.5q0 38 34.5 79.5t97.5 81.5z" />
    <glyph glyph-name="caron" unicode="&#x2c7;" horiz-adv-x="240" 
d="M188 574h-20l-99 119l15 12l95 -109l139 110l12 -15z" />
    <glyph glyph-name="commaaccent" unicode="&#x326;" horiz-adv-x="240" 
d="M33 -123q0 12 8 20t20 8q26 0 26 -34q0 -39 -28 -79t-75 -67l-9 15q37 23 59.5 52.5t27.5 64.5q-12 -3 -20.5 2.5t-8.5 17.5z" />
    <glyph glyph-name="grave.cap" unicode="&#xe840;" horiz-adv-x="240" 
d="M102 762zM259 777l-11 -15l-146 101l13 19z" />
    <glyph glyph-name="acute.cap" unicode="&#xe841;" horiz-adv-x="240" 
d="M173 762zM183 762l-10 16l164 103l12 -20z" />
    <glyph glyph-name="dieresis.cap" unicode="&#xe845;" horiz-adv-x="240" 
d="M99 805zM294 827q0 12 8 20.5t20 8.5q10 0 16 -6.5t6 -15.5q0 -12 -8 -20.5t-21 -8.5q-9 0 -15 6t-6 16zM99 827q0 12 8.5 20.5t20.5 8.5q10 0 16 -6.5t6 -15.5q0 -12 -8.5 -20.5t-20.5 -8.5q-9 0 -15.5 6t-6.5 16z" />
    <glyph glyph-name="circumflex.cap" unicode="&#xe842;" horiz-adv-x="240" 
d="M79 764zM221 896h20l98 -120l-14 -12l-96 110l-139 -110l-11 15z" />
    <glyph glyph-name="tilde.cap" unicode="&#xe844;" horiz-adv-x="240" 
d="M88 800zM159 861q18 0 34 -6.5t31 -14t30 -13.5t31 -6q17 0 31 10.5t22 29.5l19 -8q-10 -23 -29 -38t-43 -15q-18 0 -34 6t-31 13.5t-30 14t-31 6.5q-17 0 -30.5 -10.5t-21.5 -29.5l-19 7q9 23 28.5 38.5t42.5 15.5z" />
    <glyph glyph-name="macron.cap" unicode="&#xe846;" horiz-adv-x="240" 
d="M83 820zM87 841h275l-4 -21h-275z" />
    <glyph glyph-name="breve.cap" unicode="&#xe847;" horiz-adv-x="240" 
d="M101 757zM124 880q-8 -45 17.5 -73.5t74.5 -28.5q46 0 81 27.5t45 74.5h21q-11 -56 -51 -89.5t-96 -33.5q-52 0 -83.5 27t-31.5 72q0 7 0.5 13t1.5 11h21z" />
    <glyph glyph-name="dotaccent.cap" unicode="&#xe84a;" horiz-adv-x="240" 
d="M196 805zM196 827q0 12 8.5 20.5t20.5 8.5q10 0 16.5 -6t6.5 -16q0 -13 -8.5 -21t-21.5 -8q-22 0 -22 22z" />
    <glyph glyph-name="ring.cap" unicode="&#xe848;" horiz-adv-x="240" 
d="M132 741zM152 820q0 -28 16 -44t43 -16q35 0 58 23t23 58q0 27 -16 43t-43 16q-35 0 -58 -23t-23 -57zM132 817q0 44 29.5 73t73.5 29q34 0 55 -21t21 -55q0 -43 -29 -72.5t-73 -29.5q-34 0 -55.5 21.5t-21.5 54.5z" />
    <glyph glyph-name="hungarumlaut.cap" unicode="&#xe849;" horiz-adv-x="240" 
d="M106 760zM283 760l-12 15l146 129l14 -17zM119 760l-13 15l146 129l15 -17z" />
    <glyph glyph-name="caron.cap" unicode="&#xe843;" horiz-adv-x="240" 
d="M103 765zM222 765h-20l-99 119l15 12l95 -109l139 110l12 -15z" />
    <glyph glyph-name="Agrave" unicode="&#xc0;" horiz-adv-x="650" 
d="M0 0zM389 672h24l155 -672h-24l-49 212h-348l-124 -212h-28zM159 234h331l-93 406zM460 777l-11 -15l-146 101l13 19z" />
    <glyph glyph-name="Aacute" unicode="&#xc1;" horiz-adv-x="650" 
d="M0 0zM389 672h24l155 -672h-24l-49 212h-348l-124 -212h-28zM159 234h331l-93 406zM384 762l-10 16l164 103l12 -20z" />
    <glyph glyph-name="Acircumflex" unicode="&#xc2;" horiz-adv-x="650" 
d="M0 0zM389 672h24l155 -672h-24l-49 212h-348l-124 -212h-28zM159 234h331l-93 406zM422 896h20l98 -120l-14 -12l-96 110l-139 -110l-11 15z" />
    <glyph glyph-name="Atilde" unicode="&#xc3;" horiz-adv-x="650" 
d="M0 0zM389 672h24l155 -672h-24l-49 212h-348l-124 -212h-28zM159 234h331l-93 406zM360 861q18 0 34 -6.5t31 -14t30 -13.5t31 -6q17 0 31 10.5t22 29.5l19 -8q-10 -23 -29 -38t-43 -15q-18 0 -34 6t-31 13.5t-30 14t-31 6.5q-17 0 -30.5 -10.5t-21.5 -29.5l-19 7
q9 23 28.5 38.5t42.5 15.5z" />
    <glyph glyph-name="Adieresis" unicode="&#xc4;" horiz-adv-x="650" 
d="M0 0zM389 672h24l155 -672h-24l-49 212h-348l-124 -212h-28zM159 234h331l-93 406zM495 827q0 12 8 20.5t20 8.5q10 0 16 -6.5t6 -15.5q0 -12 -8 -20.5t-21 -8.5q-9 0 -15 6t-6 16zM300 827q0 12 8.5 20.5t20.5 8.5q10 0 16 -6.5t6 -15.5q0 -12 -8.5 -20.5t-20.5 -8.5
q-9 0 -15.5 6t-6.5 16z" />
    <glyph glyph-name="Amacron" unicode="&#x100;" horiz-adv-x="650" 
d="M0 0zM389 672h24l155 -672h-24l-49 212h-348l-124 -212h-28zM159 234h331l-93 406zM288 841h275l-4 -21h-275z" />
    <glyph glyph-name="Abreve" unicode="&#x102;" horiz-adv-x="650" 
d="M0 0zM389 672h24l155 -672h-24l-49 212h-348l-124 -212h-28zM159 234h331l-93 406zM325 880q-8 -45 17.5 -73.5t74.5 -28.5q46 0 81 27.5t45 74.5h21q-11 -56 -51 -89.5t-96 -33.5q-52 0 -83.5 27t-31.5 72q0 7 0.5 13t1.5 11h21z" />
    <glyph glyph-name="Acaron" unicode="&#x1cd;" horiz-adv-x="650" 
d="M0 0zM389 672h24l155 -672h-24l-49 212h-348l-124 -212h-28zM159 234h331l-93 406zM423 765h-20l-99 119l15 12l95 -109l139 110l12 -15z" />
    <glyph glyph-name="Aring" unicode="&#xc5;" horiz-adv-x="650" 
d="M0 0zM389 672h24l155 -672h-24l-49 212h-348l-124 -212h-28zM159 234h331l-93 406zM353 820q0 -28 16 -44t43 -16q35 0 58 23t23 58q0 27 -16 43t-43 16q-35 0 -58 -23t-23 -57zM333 817q0 44 29.5 73t73.5 29q34 0 55 -21t21 -55q0 -43 -29 -72.5t-73 -29.5
q-34 0 -55.5 21.5t-21.5 54.5z" />
    <glyph glyph-name="Aringacute" unicode="&#x1fa;" horiz-adv-x="650" 
d="M333 817q0 61 58 94l170 97l10 -19l-125 -71q30 -3 48 -23.5t18 -51.5q0 -43 -29 -72.5t-73 -29.5q-34 0 -55.5 21.5t-21.5 54.5zM353 820q0 -28 16 -44t43 -16q35 0 58 23t23 58q0 27 -16 43t-43 16q-35 0 -58 -23t-23 -57zM389 672h24l155 -672h-24l-49 212h-348
l-124 -212h-28zM159 234h331l-93 406z" />
    <glyph glyph-name="Aogonek" unicode="&#x104;" horiz-adv-x="650" 
d="M389 672h24l155 -672q-61 -40 -93.5 -78.5t-32.5 -71.5q0 -21 13 -34t36 -13q13 0 24.5 2.5t22.5 6.5l6 -19q-12 -5 -26.5 -7.5t-29.5 -2.5q-30 0 -49 18.5t-19 47.5q0 36 31.5 76.5t91.5 78.5l-48 208h-348l-124 -212h-28zM159 234h331l-93 406z" />
    <glyph glyph-name="AE" unicode="&#xc6;" horiz-adv-x="945" 
d="M473 212h-291l-180 -212h-31l569 672h403l-4 -22h-365l-51 -295h332l-4 -22h-332l-55 -311h381l-4 -22h-405zM199 234h278l73 415z" />
    <glyph glyph-name="AEacute" unicode="&#x1fc;" horiz-adv-x="945" 
d="M0 0zM473 212h-291l-180 -212h-31l569 672h403l-4 -22h-365l-51 -295h332l-4 -22h-332l-55 -311h381l-4 -22h-405zM199 234h278l73 415zM624 762l-10 16l164 103l12 -20z" />
    <glyph glyph-name="Cacute" unicode="&#x106;" horiz-adv-x="633" 
d="M74 0zM74 256q0 92 25.5 170.5t72.5 135.5t113.5 89.5t147.5 32.5q54 0 107.5 -17.5t99.5 -50.5l-13 -19q-92 65 -193 65q-77 0 -138.5 -30.5t-105.5 -85t-67.5 -128.5t-23.5 -161q0 -55 18 -100.5t50 -78t76 -50.5t97 -18t102.5 14t94.5 43l11 -18q-48 -31 -101 -46
t-108 -15q-58 0 -106.5 19.5t-84 55t-55 84.5t-19.5 109zM427 762l-10 16l164 103l12 -20z" />
    <glyph glyph-name="Ccedilla" unicode="&#xc7;" horiz-adv-x="633" 
d="M74 256q0 92 25.5 170.5t72.5 135.5t113.5 89.5t147.5 32.5q54 0 107.5 -17.5t99.5 -50.5l-13 -19q-92 65 -193 65q-77 0 -138.5 -30.5t-105.5 -85t-67.5 -128.5t-23.5 -161q0 -55 18 -100.5t50 -78t76 -50.5t97 -18t102.5 14t94.5 43l11 -18q-97 -61 -211 -61l-20 -59
q29 -4 46.5 -22.5t17.5 -45.5q0 -34 -26.5 -56t-68.5 -22q-39 0 -86 22l10 18q19 -9 38 -14.5t37 -5.5q32 0 53 16.5t21 41.5q0 23 -18.5 37t-44.5 14h-6l26 77q-54 4 -98.5 25t-76.5 56t-49.5 82t-17.5 104z" />
    <glyph glyph-name="Ccircumflex" unicode="&#x108;" horiz-adv-x="633" 
d="M74 0zM74 256q0 92 25.5 170.5t72.5 135.5t113.5 89.5t147.5 32.5q54 0 107.5 -17.5t99.5 -50.5l-13 -19q-92 65 -193 65q-77 0 -138.5 -30.5t-105.5 -85t-67.5 -128.5t-23.5 -161q0 -55 18 -100.5t50 -78t76 -50.5t97 -18t102.5 14t94.5 43l11 -18q-48 -31 -101 -46
t-108 -15q-58 0 -106.5 19.5t-84 55t-55 84.5t-19.5 109zM465 896h20l98 -120l-14 -12l-96 110l-139 -110l-11 15z" />
    <glyph glyph-name="Ccaron" unicode="&#x10c;" horiz-adv-x="633" 
d="M74 0zM74 256q0 92 25.5 170.5t72.5 135.5t113.5 89.5t147.5 32.5q54 0 107.5 -17.5t99.5 -50.5l-13 -19q-92 65 -193 65q-77 0 -138.5 -30.5t-105.5 -85t-67.5 -128.5t-23.5 -161q0 -55 18 -100.5t50 -78t76 -50.5t97 -18t102.5 14t94.5 43l11 -18q-48 -31 -101 -46
t-108 -15q-58 0 -106.5 19.5t-84 55t-55 84.5t-19.5 109zM466 765h-20l-99 119l15 12l95 -109l139 110l12 -15z" />
    <glyph glyph-name="Cdotaccent" unicode="&#x10a;" horiz-adv-x="633" 
d="M74 0zM74 256q0 92 25.5 170.5t72.5 135.5t113.5 89.5t147.5 32.5q54 0 107.5 -17.5t99.5 -50.5l-13 -19q-92 65 -193 65q-77 0 -138.5 -30.5t-105.5 -85t-67.5 -128.5t-23.5 -161q0 -55 18 -100.5t50 -78t76 -50.5t97 -18t102.5 14t94.5 43l11 -18q-48 -31 -101 -46
t-108 -15q-58 0 -106.5 19.5t-84 55t-55 84.5t-19.5 109zM440 827q0 12 8.5 20.5t20.5 8.5q10 0 16.5 -6t6.5 -16q0 -13 -8.5 -21t-21.5 -8q-22 0 -22 22z" />
    <glyph glyph-name="Dcaron" unicode="&#x10e;" horiz-adv-x="690" 
d="M75 0zM193 672h167q140 0 215 -70.5t75 -198.5q0 -90 -28 -164t-78 -127t-119.5 -82.5t-152.5 -29.5h-197zM625 403q0 118 -68.5 182.5t-198.5 64.5h-144l-110 -628h168q78 0 143 27.5t111.5 78t72.5 120.5t26 155zM397 765h-20l-99 119l15 12l95 -109l139 110l12 -15z
" />
    <glyph glyph-name="Dcroat" unicode="&#x110;" horiz-adv-x="706" 
d="M48 0zM150 333h-102l4 22h102l55 317h159q143 0 220.5 -70t77.5 -198q0 -90 -28.5 -164.5t-79.5 -127.5t-121.5 -82.5t-155.5 -29.5h-190zM641 403q0 118 -70.5 182.5t-203.5 64.5h-137l-52 -295h189l-4 -22h-189l-55 -311h162q79 0 145.5 27.5t114 78t74 120.5t26.5 155
z" />
    <glyph glyph-name="Eth" unicode="&#xd0;" horiz-adv-x="706" 
d="M150 333h-102l4 22h102l55 317h159q143 0 220.5 -70t77.5 -198q0 -90 -28.5 -164.5t-79.5 -127.5t-121.5 -82.5t-155.5 -29.5h-190zM641 403q0 118 -70.5 182.5t-203.5 64.5h-137l-52 -295h189l-4 -22h-189l-55 -311h162q79 0 145.5 27.5t114 78t74 120.5t26.5 155z" />
    <glyph glyph-name="Egrave" unicode="&#xc8;" horiz-adv-x="585" 
d="M75 0zM193 672h389l-4 -22h-364l-52 -295h333l-4 -22h-333l-54 -311h380l-4 -22h-405zM439 777l-11 -15l-146 101l13 19z" />
    <glyph glyph-name="Eacute" unicode="&#xc9;" horiz-adv-x="585" 
d="M75 0zM193 672h389l-4 -22h-364l-52 -295h333l-4 -22h-333l-54 -311h380l-4 -22h-405zM363 762l-10 16l164 103l12 -20z" />
    <glyph glyph-name="Ecircumflex" unicode="&#xca;" horiz-adv-x="585" 
d="M75 0zM193 672h389l-4 -22h-364l-52 -295h333l-4 -22h-333l-54 -311h380l-4 -22h-405zM401 896h20l98 -120l-14 -12l-96 110l-139 -110l-11 15z" />
    <glyph glyph-name="Ecaron" unicode="&#x11a;" horiz-adv-x="585" 
d="M75 0zM193 672h389l-4 -22h-364l-52 -295h333l-4 -22h-333l-54 -311h380l-4 -22h-405zM402 765h-20l-99 119l15 12l95 -109l139 110l12 -15z" />
    <glyph glyph-name="Edieresis" unicode="&#xcb;" horiz-adv-x="585" 
d="M75 0zM193 672h389l-4 -22h-364l-52 -295h333l-4 -22h-333l-54 -311h380l-4 -22h-405zM474 827q0 12 8 20.5t20 8.5q10 0 16 -6.5t6 -15.5q0 -12 -8 -20.5t-21 -8.5q-9 0 -15 6t-6 16zM279 827q0 12 8.5 20.5t20.5 8.5q10 0 16 -6.5t6 -15.5q0 -12 -8.5 -20.5t-20.5 -8.5
q-9 0 -15.5 6t-6.5 16z" />
    <glyph glyph-name="Emacron" unicode="&#x112;" horiz-adv-x="585" 
d="M75 0zM193 672h389l-4 -22h-364l-52 -295h333l-4 -22h-333l-54 -311h380l-4 -22h-405zM267 841h275l-4 -21h-275z" />
    <glyph glyph-name="Ebreve" unicode="&#x114;" horiz-adv-x="585" 
d="M75 0zM193 672h389l-4 -22h-364l-52 -295h333l-4 -22h-333l-54 -311h380l-4 -22h-405zM304 880q-8 -45 17.5 -73.5t74.5 -28.5q46 0 81 27.5t45 74.5h21q-11 -56 -51 -89.5t-96 -33.5q-52 0 -83.5 27t-31.5 72q0 7 0.5 13t1.5 11h21z" />
    <glyph glyph-name="Edotaccent" unicode="&#x116;" horiz-adv-x="585" 
d="M75 0zM193 672h389l-4 -22h-364l-52 -295h333l-4 -22h-333l-54 -311h380l-4 -22h-405zM376 827q0 12 8.5 20.5t20.5 8.5q10 0 16.5 -6t6.5 -16q0 -13 -8.5 -21t-21.5 -8q-22 0 -22 22z" />
    <glyph glyph-name="Eogonek" unicode="&#x118;" horiz-adv-x="585" 
d="M193 672h389l-4 -22h-364l-52 -295h333l-4 -22h-333l-54 -311h380l-4 -22q-61 -40 -93.5 -78.5t-32.5 -71.5q0 -21 13 -34t36 -13q13 0 24.5 2.5t22.5 6.5l6 -19q-12 -5 -26.5 -7.5t-29.5 -2.5q-30 0 -49 18.5t-19 47.5q0 35 30 74t86 77h-373z" />
    <glyph glyph-name="Gcircumflex" unicode="&#x11c;" horiz-adv-x="682" 
d="M74 0zM558 32q-48 -21 -98.5 -32.5t-105.5 -11.5q-63 0 -114.5 19t-88 54.5t-57 85t-20.5 110.5q0 91 26 169.5t74 135.5t115 89.5t149 32.5q55 0 109 -16t106 -46l-12 -20q-50 29 -100.5 44.5t-101.5 15.5q-77 0 -140 -30.5t-107.5 -84.5t-69 -128t-24.5 -161
q0 -56 18.5 -101.5t52.5 -78t81.5 -50.5t105.5 -18q51 0 96.5 10.5t84.5 27.5l45 254h-181l4 22h205zM470 896h20l98 -120l-14 -12l-96 110l-139 -110l-11 15z" />
    <glyph glyph-name="Gbreve" unicode="&#x11e;" horiz-adv-x="682" 
d="M74 0zM558 32q-48 -21 -98.5 -32.5t-105.5 -11.5q-63 0 -114.5 19t-88 54.5t-57 85t-20.5 110.5q0 91 26 169.5t74 135.5t115 89.5t149 32.5q55 0 109 -16t106 -46l-12 -20q-50 29 -100.5 44.5t-101.5 15.5q-77 0 -140 -30.5t-107.5 -84.5t-69 -128t-24.5 -161
q0 -56 18.5 -101.5t52.5 -78t81.5 -50.5t105.5 -18q51 0 96.5 10.5t84.5 27.5l45 254h-181l4 22h205zM373 880q-8 -45 17.5 -73.5t74.5 -28.5q46 0 81 27.5t45 74.5h21q-11 -56 -51 -89.5t-96 -33.5q-52 0 -83.5 27t-31.5 72q0 7 0.5 13t1.5 11h21z" />
    <glyph glyph-name="Gdotaccent" unicode="&#x120;" horiz-adv-x="682" 
d="M74 0zM558 32q-48 -21 -98.5 -32.5t-105.5 -11.5q-63 0 -114.5 19t-88 54.5t-57 85t-20.5 110.5q0 91 26 169.5t74 135.5t115 89.5t149 32.5q55 0 109 -16t106 -46l-12 -20q-50 29 -100.5 44.5t-101.5 15.5q-77 0 -140 -30.5t-107.5 -84.5t-69 -128t-24.5 -161
q0 -56 18.5 -101.5t52.5 -78t81.5 -50.5t105.5 -18q51 0 96.5 10.5t84.5 27.5l45 254h-181l4 22h205zM445 827q0 12 8.5 20.5t20.5 8.5q10 0 16.5 -6t6.5 -16q0 -13 -8.5 -21t-21.5 -8q-22 0 -22 22z" />
    <glyph glyph-name="Gcommaaccent" unicode="&#x122;" horiz-adv-x="682" 
d="M74 0zM558 32q-48 -21 -98.5 -32.5t-105.5 -11.5q-63 0 -114.5 19t-88 54.5t-57 85t-20.5 110.5q0 91 26 169.5t74 135.5t115 89.5t149 32.5q55 0 109 -16t106 -46l-12 -20q-50 29 -100.5 44.5t-101.5 15.5q-77 0 -140 -30.5t-107.5 -84.5t-69 -128t-24.5 -161
q0 -56 18.5 -101.5t52.5 -78t81.5 -50.5t105.5 -18q51 0 96.5 10.5t84.5 27.5l45 254h-181l4 22h205zM282 -123q0 12 8 20t20 8q26 0 26 -34q0 -39 -28 -79t-75 -67l-9 15q37 23 59.5 52.5t27.5 64.5q-12 -3 -20.5 2.5t-8.5 17.5z" />
    <glyph glyph-name="Hcircumflex" unicode="&#x124;" horiz-adv-x="730" 
d="M75 0zM193 672h25l-56 -317h446l56 317h24l-118 -672h-24l58 333h-446l-58 -333h-25zM466 896h20l98 -120l-14 -12l-96 110l-139 -110l-11 15z" />
    <glyph glyph-name="Hbar" unicode="&#x126;" horiz-adv-x="730" 
d="M665 541l-95 -541h-24l58 333h-446l-58 -333h-25l95 541h-86l4 21h86l19 110h25l-20 -110h446l20 110h24l-19 -110h86l-4 -21h-86zM608 355l32 186h-446l-32 -186h446z" />
    <glyph glyph-name="Igrave" unicode="&#xcc;" horiz-adv-x="259" 
d="M75 0zM193 672h25l-118 -672h-25zM268 777l-11 -15l-146 101l13 19z" />
    <glyph glyph-name="Iacute" unicode="&#xcd;" horiz-adv-x="259" 
d="M75 0zM193 672h25l-118 -672h-25zM192 762l-10 16l164 103l12 -20z" />
    <glyph glyph-name="Icircumflex" unicode="&#xce;" horiz-adv-x="259" 
d="M75 0zM193 672h25l-118 -672h-25zM230 896h20l98 -120l-14 -12l-96 110l-139 -110l-11 15z" />
    <glyph glyph-name="Itilde" unicode="&#x128;" horiz-adv-x="259" 
d="M75 0zM193 672h25l-118 -672h-25zM168 861q18 0 34 -6.5t31 -14t30 -13.5t31 -6q17 0 31 10.5t22 29.5l19 -8q-10 -23 -29 -38t-43 -15q-18 0 -34 6t-31 13.5t-30 14t-31 6.5q-17 0 -30.5 -10.5t-21.5 -29.5l-19 7q9 23 28.5 38.5t42.5 15.5z" />
    <glyph glyph-name="Idieresis" unicode="&#xcf;" horiz-adv-x="259" 
d="M75 0zM193 672h25l-118 -672h-25zM303 827q0 12 8 20.5t20 8.5q10 0 16 -6.5t6 -15.5q0 -12 -8 -20.5t-21 -8.5q-9 0 -15 6t-6 16zM108 827q0 12 8.5 20.5t20.5 8.5q10 0 16 -6.5t6 -15.5q0 -12 -8.5 -20.5t-20.5 -8.5q-9 0 -15.5 6t-6.5 16z" />
    <glyph glyph-name="Imacron" unicode="&#x12a;" horiz-adv-x="259" 
d="M75 0zM193 672h25l-118 -672h-25zM96 841h275l-4 -21h-275z" />
    <glyph glyph-name="Ibreve" unicode="&#x12c;" horiz-adv-x="259" 
d="M75 0zM193 672h25l-118 -672h-25zM133 880q-8 -45 17.5 -73.5t74.5 -28.5q46 0 81 27.5t45 74.5h21q-11 -56 -51 -89.5t-96 -33.5q-52 0 -83.5 27t-31.5 72q0 7 0.5 13t1.5 11h21z" />
    <glyph glyph-name="Idotaccent" unicode="&#x130;" horiz-adv-x="259" 
d="M75 0zM193 672h25l-118 -672h-25zM205 827q0 12 8.5 20.5t20.5 8.5q10 0 16.5 -6t6.5 -16q0 -13 -8.5 -21t-21.5 -8q-22 0 -22 22z" />
    <glyph glyph-name="Iogonek" unicode="&#x12e;" horiz-adv-x="259" 
d="M100 0q-61 -40 -93.5 -78.5t-32.5 -71.5q0 -21 13 -34t36 -13q13 0 24.5 2.5t22.5 6.5l6 -19q-12 -5 -26.5 -7.5t-29.5 -2.5q-30 0 -49 18.5t-19 47.5q0 37 32 77.5t92 78.5l117 667h25z" />
    <glyph glyph-name="IJ" unicode="&#x132;" horiz-adv-x="693" 
d="M75 0zM193 672h25l-118 -672h-25zM557 139q-12 -70 -58 -110.5t-114 -40.5q-56 0 -129 28l8 21q33 -13 64.5 -20t55.5 -7q60 0 99.5 35t49.5 95l94 532h24z" />
    <glyph glyph-name="Jcircumflex" unicode="&#x134;" horiz-adv-x="433" 
d="M0 0zM298 139q-12 -70 -58 -110.5t-114 -40.5q-56 0 -129 28l8 21q33 -13 64.5 -20t55.5 -7q60 0 99.5 35t49.5 95l94 532h24zM405 896h20l98 -120l-14 -12l-96 110l-139 -110l-11 15z" />
    <glyph glyph-name="Kcommaaccent" unicode="&#x136;" horiz-adv-x="635" 
d="M75 0zM193 672h24l-68 -386l461 386h35l-373 -312l268 -360h-29l-257 345l-110 -92l-45 -253h-24zM238 -123q0 12 8 20t20 8q26 0 26 -34q0 -39 -28 -79t-75 -67l-9 15q37 23 59.5 52.5t27.5 64.5q-12 -3 -20.5 2.5t-8.5 17.5z" />
    <glyph glyph-name="Lacute" unicode="&#x139;" horiz-adv-x="521" 
d="M75 0zM193 672h25l-114 -650h347l-4 -22h-372zM192 762l-10 16l164 103l12 -20z" />
    <glyph glyph-name="Lcaron" unicode="&#x13d;" horiz-adv-x="521" 
d="M321 526l-17 8l87 158l20 -10zM193 672h25l-114 -650h347l-4 -22h-372z" />
    <glyph glyph-name="Lcommaaccent" unicode="&#x13b;" horiz-adv-x="521" 
d="M75 0zM193 672h25l-114 -650h347l-4 -22h-372zM205 -123q0 12 8 20t20 8q26 0 26 -34q0 -39 -28 -79t-75 -67l-9 15q37 23 59.5 52.5t27.5 64.5q-12 -3 -20.5 2.5t-8.5 17.5z" />
    <glyph glyph-name="Lslash" unicode="&#x141;" horiz-adv-x="537" 
d="M147 315l-101 -46l-8 20l113 52l58 331h25l-56 -319l177 82l8 -20l-190 -88l-53 -305h347l-4 -22h-372z" />
    <glyph glyph-name="Ldot" unicode="&#x13f;" horiz-adv-x="537" 
d="M75 0zM193 672h25l-114 -650h347l-4 -22h-372zM392 349q0 12 8.5 20.5t20.5 8.5q10 0 16.5 -6t6.5 -16q0 -13 -8.5 -21t-21.5 -8q-22 0 -22 22z" />
    <glyph glyph-name="Nacute" unicode="&#x143;" horiz-adv-x="730" 
d="M75 0zM193 672h24l336 -635l112 635h23l-118 -672h-24l-335 635l-112 -635h-24zM428 762l-10 16l164 103l12 -20z" />
    <glyph glyph-name="Ncaron" unicode="&#x147;" horiz-adv-x="730" 
d="M75 0zM193 672h24l336 -635l112 635h23l-118 -672h-24l-335 635l-112 -635h-24zM467 765h-20l-99 119l15 12l95 -109l139 110l12 -15z" />
    <glyph glyph-name="Ntilde" unicode="&#xd1;" horiz-adv-x="730" 
d="M75 0zM193 672h24l336 -635l112 635h23l-118 -672h-24l-335 635l-112 -635h-24zM404 861q18 0 34 -6.5t31 -14t30 -13.5t31 -6q17 0 31 10.5t22 29.5l19 -8q-10 -23 -29 -38t-43 -15q-18 0 -34 6t-31 13.5t-30 14t-31 6.5q-17 0 -30.5 -10.5t-21.5 -29.5l-19 7
q9 23 28.5 38.5t42.5 15.5z" />
    <glyph glyph-name="Ncommaaccent" unicode="&#x145;" horiz-adv-x="730" 
d="M75 0zM193 672h24l336 -635l112 635h23l-118 -672h-24l-335 635l-112 -635h-24zM278 -123q0 12 8 20t20 8q26 0 26 -34q0 -39 -28 -79t-75 -67l-9 15q37 23 59.5 52.5t27.5 64.5q-12 -3 -20.5 2.5t-8.5 17.5z" />
    <glyph glyph-name="Eng" unicode="&#x14a;" horiz-adv-x="730" 
d="M193 672h24l337 -635l111 635h23l-118 -672l-12 -69q-13 -70 -59 -110.5t-113 -40.5q-28 0 -61 7t-69 21l8 21q34 -13 65 -20t56 -7q59 0 98 35t51 94l13 68l-337 636l-111 -635h-24z" />
    <glyph glyph-name="Ograve" unicode="&#xd2;" horiz-adv-x="730" 
d="M74 0zM74 256q0 92 27 170.5t74.5 135.5t112.5 89.5t142 32.5q57 0 104.5 -19t82 -54t54 -84.5t19.5 -110.5q0 -92 -27 -170.5t-74.5 -135.5t-113 -89.5t-141.5 -32.5q-57 0 -105 19t-82.5 54t-53.5 84.5t-19 110.5zM99 257q0 -57 17.5 -102.5t48.5 -77.5t74.5 -49.5
t95.5 -17.5q71 0 131.5 30.5t104.5 84.5t69 128.5t25 161.5q0 57 -17.5 102.5t-49 77.5t-74.5 49.5t-95 17.5q-71 0 -131.5 -30.5t-104.5 -84.5t-69 -128.5t-25 -161.5zM504 777l-11 -15l-146 101l13 19z" />
    <glyph glyph-name="Oacute" unicode="&#xd3;" horiz-adv-x="730" 
d="M74 0zM74 256q0 92 27 170.5t74.5 135.5t112.5 89.5t142 32.5q57 0 104.5 -19t82 -54t54 -84.5t19.5 -110.5q0 -92 -27 -170.5t-74.5 -135.5t-113 -89.5t-141.5 -32.5q-57 0 -105 19t-82.5 54t-53.5 84.5t-19 110.5zM99 257q0 -57 17.5 -102.5t48.5 -77.5t74.5 -49.5
t95.5 -17.5q71 0 131.5 30.5t104.5 84.5t69 128.5t25 161.5q0 57 -17.5 102.5t-49 77.5t-74.5 49.5t-95 17.5q-71 0 -131.5 -30.5t-104.5 -84.5t-69 -128.5t-25 -161.5zM428 762l-10 16l164 103l12 -20z" />
    <glyph glyph-name="Ocircumflex" unicode="&#xd4;" horiz-adv-x="730" 
d="M74 0zM74 256q0 92 27 170.5t74.5 135.5t112.5 89.5t142 32.5q57 0 104.5 -19t82 -54t54 -84.5t19.5 -110.5q0 -92 -27 -170.5t-74.5 -135.5t-113 -89.5t-141.5 -32.5q-57 0 -105 19t-82.5 54t-53.5 84.5t-19 110.5zM99 257q0 -57 17.5 -102.5t48.5 -77.5t74.5 -49.5
t95.5 -17.5q71 0 131.5 30.5t104.5 84.5t69 128.5t25 161.5q0 57 -17.5 102.5t-49 77.5t-74.5 49.5t-95 17.5q-71 0 -131.5 -30.5t-104.5 -84.5t-69 -128.5t-25 -161.5zM466 896h20l98 -120l-14 -12l-96 110l-139 -110l-11 15z" />
    <glyph glyph-name="Otilde" unicode="&#xd5;" horiz-adv-x="730" 
d="M74 0zM74 256q0 92 27 170.5t74.5 135.5t112.5 89.5t142 32.5q57 0 104.5 -19t82 -54t54 -84.5t19.5 -110.5q0 -92 -27 -170.5t-74.5 -135.5t-113 -89.5t-141.5 -32.5q-57 0 -105 19t-82.5 54t-53.5 84.5t-19 110.5zM99 257q0 -57 17.5 -102.5t48.5 -77.5t74.5 -49.5
t95.5 -17.5q71 0 131.5 30.5t104.5 84.5t69 128.5t25 161.5q0 57 -17.5 102.5t-49 77.5t-74.5 49.5t-95 17.5q-71 0 -131.5 -30.5t-104.5 -84.5t-69 -128.5t-25 -161.5zM404 861q18 0 34 -6.5t31 -14t30 -13.5t31 -6q17 0 31 10.5t22 29.5l19 -8q-10 -23 -29 -38t-43 -15
q-18 0 -34 6t-31 13.5t-30 14t-31 6.5q-17 0 -30.5 -10.5t-21.5 -29.5l-19 7q9 23 28.5 38.5t42.5 15.5z" />
    <glyph glyph-name="Odieresis" unicode="&#xd6;" horiz-adv-x="730" 
d="M74 0zM74 256q0 92 27 170.5t74.5 135.5t112.5 89.5t142 32.5q57 0 104.5 -19t82 -54t54 -84.5t19.5 -110.5q0 -92 -27 -170.5t-74.5 -135.5t-113 -89.5t-141.5 -32.5q-57 0 -105 19t-82.5 54t-53.5 84.5t-19 110.5zM99 257q0 -57 17.5 -102.5t48.5 -77.5t74.5 -49.5
t95.5 -17.5q71 0 131.5 30.5t104.5 84.5t69 128.5t25 161.5q0 57 -17.5 102.5t-49 77.5t-74.5 49.5t-95 17.5q-71 0 -131.5 -30.5t-104.5 -84.5t-69 -128.5t-25 -161.5zM539 827q0 12 8 20.5t20 8.5q10 0 16 -6.5t6 -15.5q0 -12 -8 -20.5t-21 -8.5q-9 0 -15 6t-6 16z
M344 827q0 12 8.5 20.5t20.5 8.5q10 0 16 -6.5t6 -15.5q0 -12 -8.5 -20.5t-20.5 -8.5q-9 0 -15.5 6t-6.5 16z" />
    <glyph glyph-name="Omacron" unicode="&#x14c;" horiz-adv-x="730" 
d="M74 0zM74 256q0 92 27 170.5t74.5 135.5t112.5 89.5t142 32.5q57 0 104.5 -19t82 -54t54 -84.5t19.5 -110.5q0 -92 -27 -170.5t-74.5 -135.5t-113 -89.5t-141.5 -32.5q-57 0 -105 19t-82.5 54t-53.5 84.5t-19 110.5zM99 257q0 -57 17.5 -102.5t48.5 -77.5t74.5 -49.5
t95.5 -17.5q71 0 131.5 30.5t104.5 84.5t69 128.5t25 161.5q0 57 -17.5 102.5t-49 77.5t-74.5 49.5t-95 17.5q-71 0 -131.5 -30.5t-104.5 -84.5t-69 -128.5t-25 -161.5zM332 841h275l-4 -21h-275z" />
    <glyph glyph-name="Obreve" unicode="&#x14e;" horiz-adv-x="730" 
d="M74 0zM74 256q0 92 27 170.5t74.5 135.5t112.5 89.5t142 32.5q57 0 104.5 -19t82 -54t54 -84.5t19.5 -110.5q0 -92 -27 -170.5t-74.5 -135.5t-113 -89.5t-141.5 -32.5q-57 0 -105 19t-82.5 54t-53.5 84.5t-19 110.5zM99 257q0 -57 17.5 -102.5t48.5 -77.5t74.5 -49.5
t95.5 -17.5q71 0 131.5 30.5t104.5 84.5t69 128.5t25 161.5q0 57 -17.5 102.5t-49 77.5t-74.5 49.5t-95 17.5q-71 0 -131.5 -30.5t-104.5 -84.5t-69 -128.5t-25 -161.5zM369 880q-8 -45 17.5 -73.5t74.5 -28.5q46 0 81 27.5t45 74.5h21q-11 -56 -51 -89.5t-96 -33.5
q-52 0 -83.5 27t-31.5 72q0 7 0.5 13t1.5 11h21z" />
    <glyph glyph-name="Ohungarumlaut" unicode="&#x150;" horiz-adv-x="730" 
d="M74 0zM74 256q0 92 27 170.5t74.5 135.5t112.5 89.5t142 32.5q57 0 104.5 -19t82 -54t54 -84.5t19.5 -110.5q0 -92 -27 -170.5t-74.5 -135.5t-113 -89.5t-141.5 -32.5q-57 0 -105 19t-82.5 54t-53.5 84.5t-19 110.5zM99 257q0 -57 17.5 -102.5t48.5 -77.5t74.5 -49.5
t95.5 -17.5q71 0 131.5 30.5t104.5 84.5t69 128.5t25 161.5q0 57 -17.5 102.5t-49 77.5t-74.5 49.5t-95 17.5q-71 0 -131.5 -30.5t-104.5 -84.5t-69 -128.5t-25 -161.5zM528 760l-12 15l146 129l14 -17zM364 760l-13 15l146 129l15 -17z" />
    <glyph glyph-name="Oslash" unicode="&#xd8;" horiz-adv-x="730" 
d="M74 256q0 92 27 170.5t74.5 135.5t112.5 89.5t142 32.5q58 0 106 -20t83 -57l66 73l16 -14l-69 -73q27 -34 42.5 -78.5t15.5 -98.5q0 -92 -27 -170.5t-74.5 -135.5t-112.5 -89.5t-142 -32.5q-59 0 -107 19.5t-82 56.5l-67 -72l-15 14l67 73q-27 34 -41.5 78.5t-14.5 98.5
zM98 257q0 -49 13 -89t37 -71l455 493q-32 35 -76 53.5t-98 18.5q-72 0 -132.5 -30.5t-104.5 -84.5t-69 -128.5t-25 -161.5zM335 12q71 0 131.5 30t105 84t69.5 128t25 161q0 48 -13 88t-37 72l-455 -493q32 -34 76 -52t98 -18z" />
    <glyph glyph-name="Oslashacute" unicode="&#x1fe;" horiz-adv-x="730" 
d="M63 0zM74 256q0 92 27 170.5t74.5 135.5t112.5 89.5t142 32.5q58 0 106 -20t83 -57l66 73l16 -14l-69 -73q27 -34 42.5 -78.5t15.5 -98.5q0 -92 -27 -170.5t-74.5 -135.5t-112.5 -89.5t-142 -32.5q-59 0 -107 19.5t-82 56.5l-67 -72l-15 14l67 73q-27 34 -41.5 78.5
t-14.5 98.5zM98 257q0 -49 13 -89t37 -71l455 493q-32 35 -76 53.5t-98 18.5q-72 0 -132.5 -30.5t-104.5 -84.5t-69 -128.5t-25 -161.5zM335 12q71 0 131.5 30t105 84t69.5 128t25 161q0 48 -13 88t-37 72l-455 -493q32 -34 76 -52t98 -18zM428 762l-10 16l164 103l12 -20z
" />
    <glyph glyph-name="OE" unicode="&#x152;" horiz-adv-x="992" 
d="M74 269q0 90 28 164t78 127t119 82.5t152 29.5h538l-4 -22h-364l-52 -295h333l-4 -22h-333l-54 -311h380l-4 -22h-524q-139 0 -214 70.5t-75 198.5zM99 269q0 -118 68.5 -182.5t197.5 -64.5h122l110 628h-146q-78 0 -142.5 -27.5t-111 -78t-72.5 -120.5t-26 -155z" />
    <glyph glyph-name="Thorn" unicode="&#xde;" horiz-adv-x="601" 
d="M193 672h24l-22 -130h185q86 0 136 -48t50 -130q0 -48 -17.5 -88t-48.5 -69t-74 -45t-94 -16h-207l-26 -146h-24zM542 364q0 72 -44 114t-120 42h-187l-62 -352h202q46 0 85 14.5t67 40t43.5 61.5t15.5 80z" />
    <glyph glyph-name="Racute" unicode="&#x154;" horiz-adv-x="633" 
d="M75 0zM193 672h220q81 0 128.5 -45.5t47.5 -123.5q0 -45 -16 -83.5t-45 -66t-69 -43.5t-87 -17l158 -293h-27l-157 292h-195l-52 -292h-24zM155 315h209q44 0 81 13.5t63.5 38.5t41.5 59.5t15 75.5q0 69 -41 108.5t-113 39.5h-198zM354 762l-10 16l164 103l12 -20z" />
    <glyph glyph-name="Rcaron" unicode="&#x158;" horiz-adv-x="633" 
d="M75 0zM193 672h220q81 0 128.5 -45.5t47.5 -123.5q0 -45 -16 -83.5t-45 -66t-69 -43.5t-87 -17l158 -293h-27l-157 292h-195l-52 -292h-24zM155 315h209q44 0 81 13.5t63.5 38.5t41.5 59.5t15 75.5q0 69 -41 108.5t-113 39.5h-198zM393 765h-20l-99 119l15 12l95 -109
l139 110l12 -15z" />
    <glyph glyph-name="Rcommaaccent" unicode="&#x156;" horiz-adv-x="633" 
d="M75 0zM193 672h220q81 0 128.5 -45.5t47.5 -123.5q0 -45 -16 -83.5t-45 -66t-69 -43.5t-87 -17l158 -293h-27l-157 292h-195l-52 -292h-24zM155 315h209q44 0 81 13.5t63.5 38.5t41.5 59.5t15 75.5q0 69 -41 108.5t-113 39.5h-198zM238 -123q0 12 8 20t20 8q26 0 26 -34
q0 -39 -28 -79t-75 -67l-9 15q37 23 59.5 52.5t27.5 64.5q-12 -3 -20.5 2.5t-8.5 17.5z" />
    <glyph glyph-name="Sacute" unicode="&#x15a;" horiz-adv-x="561" 
d="M28 0zM118 508q0 37 16 69.5t44 56t67 37t86 13.5q51 0 106.5 -13t115.5 -41l-10 -21q-112 53 -212 53q-41 0 -76 -11.5t-60 -32.5t-39 -49t-14 -61q0 -46 25.5 -74.5t63 -49t82 -37.5t82 -39.5t63 -55t25.5 -84.5q0 -40 -16 -73t-44.5 -57t-68.5 -37t-87 -13
q-54 0 -116.5 14.5t-122.5 45.5l10 21q59 -29 117 -44t111 -15q43 0 78.5 11.5t61 32t39.5 49.5t14 65q0 47 -25.5 76t-63 50t-82 38t-82 39t-63 54t-25.5 83zM344 762l-10 16l164 103l12 -20z" />
    <glyph glyph-name="Scircumflex" unicode="&#x15c;" horiz-adv-x="561" 
d="M28 0zM118 508q0 37 16 69.5t44 56t67 37t86 13.5q51 0 106.5 -13t115.5 -41l-10 -21q-112 53 -212 53q-41 0 -76 -11.5t-60 -32.5t-39 -49t-14 -61q0 -46 25.5 -74.5t63 -49t82 -37.5t82 -39.5t63 -55t25.5 -84.5q0 -40 -16 -73t-44.5 -57t-68.5 -37t-87 -13
q-54 0 -116.5 14.5t-122.5 45.5l10 21q59 -29 117 -44t111 -15q43 0 78.5 11.5t61 32t39.5 49.5t14 65q0 47 -25.5 76t-63 50t-82 38t-82 39t-63 54t-25.5 83zM382 896h20l98 -120l-14 -12l-96 110l-139 -110l-11 15z" />
    <glyph glyph-name="Scaron" unicode="&#x160;" horiz-adv-x="561" 
d="M28 0zM118 508q0 37 16 69.5t44 56t67 37t86 13.5q51 0 106.5 -13t115.5 -41l-10 -21q-112 53 -212 53q-41 0 -76 -11.5t-60 -32.5t-39 -49t-14 -61q0 -46 25.5 -74.5t63 -49t82 -37.5t82 -39.5t63 -55t25.5 -84.5q0 -40 -16 -73t-44.5 -57t-68.5 -37t-87 -13
q-54 0 -116.5 14.5t-122.5 45.5l10 21q59 -29 117 -44t111 -15q43 0 78.5 11.5t61 32t39.5 49.5t14 65q0 47 -25.5 76t-63 50t-82 38t-82 39t-63 54t-25.5 83zM383 765h-20l-99 119l15 12l95 -109l139 110l12 -15z" />
    <glyph glyph-name="Scedilla" unicode="&#x15e;" horiz-adv-x="561" 
d="M118 508q0 37 16 69.5t44 56t67 37t86 13.5q51 0 106.5 -13t115.5 -41l-10 -21q-112 53 -212 53q-41 0 -76 -11.5t-60 -32.5t-39 -49t-14 -61q0 -46 25.5 -74.5t63 -49t82 -37.5t82 -39.5t63 -55t25.5 -84.5q0 -43 -17 -76.5t-47.5 -56.5t-73 -35t-92.5 -12l-19 -59
q29 -4 46 -22.5t17 -45.5q0 -34 -26.5 -56t-68.5 -22q-39 0 -86 22l10 18q20 -9 39 -14.5t36 -5.5q32 0 53 16.5t21 41.5q0 23 -18 37t-45 14h-6l26 78q-48 3 -100.5 17.5t-103.5 40.5l10 21q59 -29 117 -44t111 -15q43 0 78.5 11.5t61 32t39.5 49.5t14 65q0 47 -25.5 76
t-63 50t-82 38t-82 39t-63 54t-25.5 83z" />
    <glyph glyph-name="Scommaaccent" unicode="&#x218;" horiz-adv-x="561" 
d="M28 0zM118 508q0 37 16 69.5t44 56t67 37t86 13.5q51 0 106.5 -13t115.5 -41l-10 -21q-112 53 -212 53q-41 0 -76 -11.5t-60 -32.5t-39 -49t-14 -61q0 -46 25.5 -74.5t63 -49t82 -37.5t82 -39.5t63 -55t25.5 -84.5q0 -40 -16 -73t-44.5 -57t-68.5 -37t-87 -13
q-54 0 -116.5 14.5t-122.5 45.5l10 21q59 -29 117 -44t111 -15q43 0 78.5 11.5t61 32t39.5 49.5t14 65q0 47 -25.5 76t-63 50t-82 38t-82 39t-63 54t-25.5 83zM194 -123q0 12 8 20t20 8q26 0 26 -34q0 -39 -28 -79t-75 -67l-9 15q37 23 59.5 52.5t27.5 64.5
q-12 -3 -20.5 2.5t-8.5 17.5z" />
    <glyph glyph-name="Tcaron" unicode="&#x164;" horiz-adv-x="585" 
d="M103 0zM352 650h-249l4 22h522l-4 -22h-249l-114 -650h-24zM394 765h-20l-99 119l15 12l95 -109l139 110l12 -15z" />
    <glyph glyph-name="Tcommaaccent" unicode="&#x162;" horiz-adv-x="585" 
d="M103 0zM352 650h-249l4 22h522l-4 -22h-249l-114 -650h-24zM205 -123q0 12 8 20t20 8q26 0 26 -34q0 -39 -28 -79t-75 -67l-9 15q37 23 59.5 52.5t27.5 64.5q-12 -3 -20.5 2.5t-8.5 17.5z" />
    <glyph glyph-name="uni021A" unicode="&#x21a;" horiz-adv-x="585" 
d="M103 0zM352 650h-249l4 22h522l-4 -22h-249l-114 -650h-24zM205 -123q0 12 8 20t20 8q26 0 26 -34q0 -39 -28 -79t-75 -67l-9 15q37 23 59.5 52.5t27.5 64.5q-12 -3 -20.5 2.5t-8.5 17.5z" />
    <glyph glyph-name="Tbar" unicode="&#x166;" horiz-adv-x="585" 
d="M292 309h-153l4 22h153l56 319h-249l4 22h522l-4 -22h-249l-56 -319h155l-4 -22h-155l-54 -309h-24z" />
    <glyph glyph-name="Ugrave" unicode="&#xd9;" horiz-adv-x="730" 
d="M108 0zM620 240q-10 -58 -35 -104.5t-62 -79.5t-85 -50.5t-103 -17.5q-51 0 -93 15.5t-71.5 43.5t-46 67t-16.5 87q0 12 1.5 26.5t3.5 29.5l72 415h25l-73 -415q-3 -15 -4 -29t-1 -26q0 -43 14.5 -78.5t41.5 -60.5t64.5 -39t83.5 -14q50 0 93.5 16.5t77.5 46.5t57 72.5
t32 95.5l76 431h24zM504 777l-11 -15l-146 101l13 19z" />
    <glyph glyph-name="Uacute" unicode="&#xda;" horiz-adv-x="730" 
d="M108 0zM620 240q-10 -58 -35 -104.5t-62 -79.5t-85 -50.5t-103 -17.5q-51 0 -93 15.5t-71.5 43.5t-46 67t-16.5 87q0 12 1.5 26.5t3.5 29.5l72 415h25l-73 -415q-3 -15 -4 -29t-1 -26q0 -43 14.5 -78.5t41.5 -60.5t64.5 -39t83.5 -14q50 0 93.5 16.5t77.5 46.5t57 72.5
t32 95.5l76 431h24zM428 762l-10 16l164 103l12 -20z" />
    <glyph glyph-name="Ucircumflex" unicode="&#xdb;" horiz-adv-x="730" 
d="M108 0zM620 240q-10 -58 -35 -104.5t-62 -79.5t-85 -50.5t-103 -17.5q-51 0 -93 15.5t-71.5 43.5t-46 67t-16.5 87q0 12 1.5 26.5t3.5 29.5l72 415h25l-73 -415q-3 -15 -4 -29t-1 -26q0 -43 14.5 -78.5t41.5 -60.5t64.5 -39t83.5 -14q50 0 93.5 16.5t77.5 46.5t57 72.5
t32 95.5l76 431h24zM466 896h20l98 -120l-14 -12l-96 110l-139 -110l-11 15z" />
    <glyph glyph-name="Utilde" unicode="&#x168;" horiz-adv-x="730" 
d="M108 0zM620 240q-10 -58 -35 -104.5t-62 -79.5t-85 -50.5t-103 -17.5q-51 0 -93 15.5t-71.5 43.5t-46 67t-16.5 87q0 12 1.5 26.5t3.5 29.5l72 415h25l-73 -415q-3 -15 -4 -29t-1 -26q0 -43 14.5 -78.5t41.5 -60.5t64.5 -39t83.5 -14q50 0 93.5 16.5t77.5 46.5t57 72.5
t32 95.5l76 431h24zM404 861q18 0 34 -6.5t31 -14t30 -13.5t31 -6q17 0 31 10.5t22 29.5l19 -8q-10 -23 -29 -38t-43 -15q-18 0 -34 6t-31 13.5t-30 14t-31 6.5q-17 0 -30.5 -10.5t-21.5 -29.5l-19 7q9 23 28.5 38.5t42.5 15.5z" />
    <glyph glyph-name="Udieresis" unicode="&#xdc;" horiz-adv-x="730" 
d="M108 0zM620 240q-10 -58 -35 -104.5t-62 -79.5t-85 -50.5t-103 -17.5q-51 0 -93 15.5t-71.5 43.5t-46 67t-16.5 87q0 12 1.5 26.5t3.5 29.5l72 415h25l-73 -415q-3 -15 -4 -29t-1 -26q0 -43 14.5 -78.5t41.5 -60.5t64.5 -39t83.5 -14q50 0 93.5 16.5t77.5 46.5t57 72.5
t32 95.5l76 431h24zM539 827q0 12 8 20.5t20 8.5q10 0 16 -6.5t6 -15.5q0 -12 -8 -20.5t-21 -8.5q-9 0 -15 6t-6 16zM344 827q0 12 8.5 20.5t20.5 8.5q10 0 16 -6.5t6 -15.5q0 -12 -8.5 -20.5t-20.5 -8.5q-9 0 -15.5 6t-6.5 16z" />
    <glyph glyph-name="Umacron" unicode="&#x16a;" horiz-adv-x="730" 
d="M108 0zM620 240q-10 -58 -35 -104.5t-62 -79.5t-85 -50.5t-103 -17.5q-51 0 -93 15.5t-71.5 43.5t-46 67t-16.5 87q0 12 1.5 26.5t3.5 29.5l72 415h25l-73 -415q-3 -15 -4 -29t-1 -26q0 -43 14.5 -78.5t41.5 -60.5t64.5 -39t83.5 -14q50 0 93.5 16.5t77.5 46.5t57 72.5
t32 95.5l76 431h24zM332 841h275l-4 -21h-275z" />
    <glyph glyph-name="Ubreve" unicode="&#x16c;" horiz-adv-x="730" 
d="M108 0zM620 240q-10 -58 -35 -104.5t-62 -79.5t-85 -50.5t-103 -17.5q-51 0 -93 15.5t-71.5 43.5t-46 67t-16.5 87q0 12 1.5 26.5t3.5 29.5l72 415h25l-73 -415q-3 -15 -4 -29t-1 -26q0 -43 14.5 -78.5t41.5 -60.5t64.5 -39t83.5 -14q50 0 93.5 16.5t77.5 46.5t57 72.5
t32 95.5l76 431h24zM369 880q-8 -45 17.5 -73.5t74.5 -28.5q46 0 81 27.5t45 74.5h21q-11 -56 -51 -89.5t-96 -33.5q-52 0 -83.5 27t-31.5 72q0 7 0.5 13t1.5 11h21z" />
    <glyph glyph-name="Uring" unicode="&#x16e;" horiz-adv-x="730" 
d="M108 0zM620 240q-10 -58 -35 -104.5t-62 -79.5t-85 -50.5t-103 -17.5q-51 0 -93 15.5t-71.5 43.5t-46 67t-16.5 87q0 12 1.5 26.5t3.5 29.5l72 415h25l-73 -415q-3 -15 -4 -29t-1 -26q0 -43 14.5 -78.5t41.5 -60.5t64.5 -39t83.5 -14q50 0 93.5 16.5t77.5 46.5t57 72.5
t32 95.5l76 431h24zM397 820q0 -28 16 -44t43 -16q35 0 58 23t23 58q0 27 -16 43t-43 16q-35 0 -58 -23t-23 -57zM377 817q0 44 29.5 73t73.5 29q34 0 55 -21t21 -55q0 -43 -29 -72.5t-73 -29.5q-34 0 -55.5 21.5t-21.5 54.5z" />
    <glyph glyph-name="Uhungarumlaut" unicode="&#x170;" horiz-adv-x="730" 
d="M108 0zM620 240q-10 -58 -35 -104.5t-62 -79.5t-85 -50.5t-103 -17.5q-51 0 -93 15.5t-71.5 43.5t-46 67t-16.5 87q0 12 1.5 26.5t3.5 29.5l72 415h25l-73 -415q-3 -15 -4 -29t-1 -26q0 -43 14.5 -78.5t41.5 -60.5t64.5 -39t83.5 -14q50 0 93.5 16.5t77.5 46.5t57 72.5
t32 95.5l76 431h24zM528 760l-12 15l146 129l14 -17zM364 760l-13 15l146 129l15 -17z" />
    <glyph glyph-name="Uogonek" unicode="&#x172;" horiz-adv-x="730" 
d="M620 240q-9 -50 -25.5 -87t-40 -65t-53.5 -48t-64 -36q-89 -42 -129.5 -84t-40.5 -70q0 -21 13 -34t36 -13q13 0 24.5 2.5t22.5 6.5l6 -19q-28 -10 -56 -10q-30 0 -49 18t-19 47q0 35 36 73t96 71q-12 -2 -23.5 -3t-22.5 -1q-50 1 -91.5 16.5t-70.5 43.5t-45 67t-16 86
q0 12 1.5 26.5t3.5 29.5l72 415h25l-73 -415q-3 -15 -4 -29t-1 -26q0 -43 14.5 -78.5t41.5 -60.5t64.5 -39t83.5 -14q50 0 93.5 16.5t77.5 46.5t57 72.5t32 95.5l76 431h24z" />
    <glyph glyph-name="Wgrave" unicode="&#x1e80;" horiz-adv-x="978" 
d="M127 0zM679 0h-25l-96 636l-306 -636h-26l-99 672h24l93 -636l307 636h25l96 -636l306 636h26zM628 777l-11 -15l-146 101l13 19z" />
    <glyph glyph-name="Wacute" unicode="&#x1e82;" horiz-adv-x="978" 
d="M127 0zM679 0h-25l-96 636l-306 -636h-26l-99 672h24l93 -636l307 636h25l96 -636l306 636h26zM552 762l-10 16l164 103l12 -20z" />
    <glyph glyph-name="Wcircumflex" unicode="&#x174;" horiz-adv-x="978" 
d="M127 0zM679 0h-25l-96 636l-306 -636h-26l-99 672h24l93 -636l307 636h25l96 -636l306 636h26zM590 896h20l98 -120l-14 -12l-96 110l-139 -110l-11 15z" />
    <glyph glyph-name="Wdieresis" unicode="&#x1e84;" horiz-adv-x="978" 
d="M127 0zM679 0h-25l-96 636l-306 -636h-26l-99 672h24l93 -636l307 636h25l96 -636l306 636h26zM663 827q0 12 8 20.5t20 8.5q10 0 16 -6.5t6 -15.5q0 -12 -8 -20.5t-21 -8.5q-9 0 -15 6t-6 16zM468 827q0 12 8.5 20.5t20.5 8.5q10 0 16 -6.5t6 -15.5q0 -12 -8.5 -20.5
t-20.5 -8.5q-9 0 -15.5 6t-6.5 16z" />
    <glyph glyph-name="Ygrave" unicode="&#x1ef2;" horiz-adv-x="571" 
d="M94 0zM284 304l-190 368h27l178 -345l277 345h30l-298 -371l-53 -301h-24zM416 777l-11 -15l-146 101l13 19z" />
    <glyph glyph-name="Yacute" unicode="&#xdd;" horiz-adv-x="571" 
d="M94 0zM284 304l-190 368h27l178 -345l277 345h30l-298 -371l-53 -301h-24zM340 762l-10 16l164 103l12 -20z" />
    <glyph glyph-name="Ycircumflex" unicode="&#x176;" horiz-adv-x="571" 
d="M94 0zM284 304l-190 368h27l178 -345l277 345h30l-298 -371l-53 -301h-24zM378 896h20l98 -120l-14 -12l-96 110l-139 -110l-11 15z" />
    <glyph glyph-name="Ydieresis" unicode="&#x178;" horiz-adv-x="571" 
d="M94 0zM284 304l-190 368h27l178 -345l277 345h30l-298 -371l-53 -301h-24zM451 827q0 12 8 20.5t20 8.5q10 0 16 -6.5t6 -15.5q0 -12 -8 -20.5t-21 -8.5q-9 0 -15 6t-6 16zM256 827q0 12 8.5 20.5t20.5 8.5q10 0 16 -6.5t6 -15.5q0 -12 -8.5 -20.5t-20.5 -8.5
q-9 0 -15.5 6t-6.5 16z" />
    <glyph glyph-name="Zacute" unicode="&#x179;" horiz-adv-x="609" 
d="M20 0zM23 17l549 633h-426l4 22h461l-3 -17l-549 -633h450l-4 -22h-485zM368 762l-10 16l164 103l12 -20z" />
    <glyph glyph-name="Zcaron" unicode="&#x17d;" horiz-adv-x="609" 
d="M20 0zM23 17l549 633h-426l4 22h461l-3 -17l-549 -633h450l-4 -22h-485zM407 765h-20l-99 119l15 12l95 -109l139 110l12 -15z" />
    <glyph glyph-name="Zdotaccent" unicode="&#x17b;" horiz-adv-x="609" 
d="M20 0zM23 17l549 633h-426l4 22h461l-3 -17l-549 -633h450l-4 -22h-485zM381 827q0 12 8.5 20.5t20.5 8.5q10 0 16.5 -6t6.5 -16q0 -13 -8.5 -21t-21.5 -8q-22 0 -22 22z" />
    <glyph glyph-name="agrave" unicode="&#xe0;" horiz-adv-x="530" 
d="M36 0zM36 121q0 75 60.5 118t165.5 43q29 0 62.5 -4t68.5 -12l12 69q3 15 3 32q0 45 -32.5 74.5t-90.5 29.5q-73 0 -156 -28l-5 21q44 15 85 22t78 7q68 0 106 -35t38 -90q0 -18 -3 -34l-47 -270q-1 -5 -1.5 -8.5t-0.5 -7.5q0 -18 13 -28t34 -10q8 0 14.5 1t13.5 3l3 -22
q-8 -2 -17 -3t-17 -1q-31 0 -49 15.5t-18 42.5q0 7 2 17l6 29q-33 -54 -78 -79t-104 -25q-68 0 -107 36.5t-39 96.5zM60 122q0 -51 33 -82t92 -31q37 0 69.5 12.5t58 36t43 55.5t23.5 71l11 62q-68 16 -128 16q-94 0 -148 -38t-54 -102zM358 586l-11 -15l-146 101l13 19z
" />
    <glyph glyph-name="aacute" unicode="&#xe1;" horiz-adv-x="530" 
d="M36 0zM36 121q0 75 60.5 118t165.5 43q29 0 62.5 -4t68.5 -12l12 69q3 15 3 32q0 45 -32.5 74.5t-90.5 29.5q-73 0 -156 -28l-5 21q44 15 85 22t78 7q68 0 106 -35t38 -90q0 -18 -3 -34l-47 -270q-1 -5 -1.5 -8.5t-0.5 -7.5q0 -18 13 -28t34 -10q8 0 14.5 1t13.5 3l3 -22
q-8 -2 -17 -3t-17 -1q-31 0 -49 15.5t-18 42.5q0 7 2 17l6 29q-33 -54 -78 -79t-104 -25q-68 0 -107 36.5t-39 96.5zM60 122q0 -51 33 -82t92 -31q37 0 69.5 12.5t58 36t43 55.5t23.5 71l11 62q-68 16 -128 16q-94 0 -148 -38t-54 -102zM282 571l-10 16l164 103l12 -20z" />
    <glyph glyph-name="acircumflex" unicode="&#xe2;" horiz-adv-x="530" 
d="M36 0zM36 121q0 75 60.5 118t165.5 43q29 0 62.5 -4t68.5 -12l12 69q3 15 3 32q0 45 -32.5 74.5t-90.5 29.5q-73 0 -156 -28l-5 21q44 15 85 22t78 7q68 0 106 -35t38 -90q0 -18 -3 -34l-47 -270q-1 -5 -1.5 -8.5t-0.5 -7.5q0 -18 13 -28t34 -10q8 0 14.5 1t13.5 3l3 -22
q-8 -2 -17 -3t-17 -1q-31 0 -49 15.5t-18 42.5q0 7 2 17l6 29q-33 -54 -78 -79t-104 -25q-68 0 -107 36.5t-39 96.5zM60 122q0 -51 33 -82t92 -31q37 0 69.5 12.5t58 36t43 55.5t23.5 71l11 62q-68 16 -128 16q-94 0 -148 -38t-54 -102zM320 705h20l98 -120l-14 -12l-96 110
l-139 -110l-11 15z" />
    <glyph glyph-name="atilde" unicode="&#xe3;" horiz-adv-x="530" 
d="M36 0zM36 121q0 75 60.5 118t165.5 43q29 0 62.5 -4t68.5 -12l12 69q3 15 3 32q0 45 -32.5 74.5t-90.5 29.5q-73 0 -156 -28l-5 21q44 15 85 22t78 7q68 0 106 -35t38 -90q0 -18 -3 -34l-47 -270q-1 -5 -1.5 -8.5t-0.5 -7.5q0 -18 13 -28t34 -10q8 0 14.5 1t13.5 3l3 -22
q-8 -2 -17 -3t-17 -1q-31 0 -49 15.5t-18 42.5q0 7 2 17l6 29q-33 -54 -78 -79t-104 -25q-68 0 -107 36.5t-39 96.5zM60 122q0 -51 33 -82t92 -31q37 0 69.5 12.5t58 36t43 55.5t23.5 71l11 62q-68 16 -128 16q-94 0 -148 -38t-54 -102zM258 670q18 0 34 -6.5t31 -14
t30 -13.5t31 -6q17 0 31 10.5t22 29.5l19 -8q-10 -23 -29 -38t-43 -15q-18 0 -34 6t-31 13.5t-30 14t-31 6.5q-17 0 -30.5 -10.5t-21.5 -29.5l-19 7q9 23 28.5 38.5t42.5 15.5z" />
    <glyph glyph-name="adieresis" unicode="&#xe4;" horiz-adv-x="530" 
d="M36 0zM36 121q0 75 60.5 118t165.5 43q29 0 62.5 -4t68.5 -12l12 69q3 15 3 32q0 45 -32.5 74.5t-90.5 29.5q-73 0 -156 -28l-5 21q44 15 85 22t78 7q68 0 106 -35t38 -90q0 -18 -3 -34l-47 -270q-1 -5 -1.5 -8.5t-0.5 -7.5q0 -18 13 -28t34 -10q8 0 14.5 1t13.5 3l3 -22
q-8 -2 -17 -3t-17 -1q-31 0 -49 15.5t-18 42.5q0 7 2 17l6 29q-33 -54 -78 -79t-104 -25q-68 0 -107 36.5t-39 96.5zM60 122q0 -51 33 -82t92 -31q37 0 69.5 12.5t58 36t43 55.5t23.5 71l11 62q-68 16 -128 16q-94 0 -148 -38t-54 -102zM393 636q0 12 8 20.5t20 8.5
q10 0 16 -6.5t6 -15.5q0 -12 -8 -20.5t-21 -8.5q-9 0 -15 6t-6 16zM198 636q0 12 8.5 20.5t20.5 8.5q10 0 16 -6.5t6 -15.5q0 -12 -8.5 -20.5t-20.5 -8.5q-9 0 -15.5 6t-6.5 16z" />
    <glyph glyph-name="amacron" unicode="&#x101;" horiz-adv-x="530" 
d="M36 0zM36 121q0 75 60.5 118t165.5 43q29 0 62.5 -4t68.5 -12l12 69q3 15 3 32q0 45 -32.5 74.5t-90.5 29.5q-73 0 -156 -28l-5 21q44 15 85 22t78 7q68 0 106 -35t38 -90q0 -18 -3 -34l-47 -270q-1 -5 -1.5 -8.5t-0.5 -7.5q0 -18 13 -28t34 -10q8 0 14.5 1t13.5 3l3 -22
q-8 -2 -17 -3t-17 -1q-31 0 -49 15.5t-18 42.5q0 7 2 17l6 29q-33 -54 -78 -79t-104 -25q-68 0 -107 36.5t-39 96.5zM60 122q0 -51 33 -82t92 -31q37 0 69.5 12.5t58 36t43 55.5t23.5 71l11 62q-68 16 -128 16q-94 0 -148 -38t-54 -102zM186 650h275l-4 -21h-275z" />
    <glyph glyph-name="abreve" unicode="&#x103;" horiz-adv-x="530" 
d="M36 0zM36 121q0 75 60.5 118t165.5 43q29 0 62.5 -4t68.5 -12l12 69q3 15 3 32q0 45 -32.5 74.5t-90.5 29.5q-73 0 -156 -28l-5 21q44 15 85 22t78 7q68 0 106 -35t38 -90q0 -18 -3 -34l-47 -270q-1 -5 -1.5 -8.5t-0.5 -7.5q0 -18 13 -28t34 -10q8 0 14.5 1t13.5 3l3 -22
q-8 -2 -17 -3t-17 -1q-31 0 -49 15.5t-18 42.5q0 7 2 17l6 29q-33 -54 -78 -79t-104 -25q-68 0 -107 36.5t-39 96.5zM60 122q0 -51 33 -82t92 -31q37 0 69.5 12.5t58 36t43 55.5t23.5 71l11 62q-68 16 -128 16q-94 0 -148 -38t-54 -102zM223 689q-8 -45 17.5 -73.5
t74.5 -28.5q46 0 81 27.5t45 74.5h21q-11 -56 -51 -89.5t-96 -33.5q-52 0 -83.5 27t-31.5 72q0 7 0.5 13t1.5 11h21z" />
    <glyph glyph-name="acaron" unicode="&#x1ce;" horiz-adv-x="514" 
d="M36 0zM36 121q0 75 60.5 118t165.5 43q29 0 62.5 -4t68.5 -12l12 69q3 15 3 32q0 45 -32.5 74.5t-90.5 29.5q-73 0 -156 -28l-5 21q44 15 85 22t78 7q68 0 106 -35t38 -90q0 -18 -3 -34l-47 -270q-1 -5 -1.5 -8.5t-0.5 -7.5q0 -18 13 -28t34 -10q8 0 14.5 1t13.5 3l3 -22
q-8 -2 -17 -3t-17 -1q-31 0 -49 15.5t-18 42.5q0 7 2 17l6 29q-33 -54 -78 -79t-104 -25q-68 0 -107 36.5t-39 96.5zM60 122q0 -51 33 -82t92 -31q37 0 69.5 12.5t58 36t43 55.5t23.5 71l11 62q-68 16 -128 16q-94 0 -148 -38t-54 -102zM325 574h-20l-99 119l15 12l95 -109
l139 110l12 -15z" />
    <glyph glyph-name="aring" unicode="&#xe5;" horiz-adv-x="530" 
d="M36 0zM36 121q0 75 60.5 118t165.5 43q29 0 62.5 -4t68.5 -12l12 69q3 15 3 32q0 45 -32.5 74.5t-90.5 29.5q-73 0 -156 -28l-5 21q44 15 85 22t78 7q68 0 106 -35t38 -90q0 -18 -3 -34l-47 -270q-1 -5 -1.5 -8.5t-0.5 -7.5q0 -18 13 -28t34 -10q8 0 14.5 1t13.5 3l3 -22
q-8 -2 -17 -3t-17 -1q-31 0 -49 15.5t-18 42.5q0 7 2 17l6 29q-33 -54 -78 -79t-104 -25q-68 0 -107 36.5t-39 96.5zM60 122q0 -51 33 -82t92 -31q37 0 69.5 12.5t58 36t43 55.5t23.5 71l11 62q-68 16 -128 16q-94 0 -148 -38t-54 -102zM251 629q0 -28 16 -44t43 -16
q35 0 58 23t23 58q0 27 -16 43t-43 16q-35 0 -58 -23t-23 -57zM231 626q0 44 29.5 73t73.5 29q34 0 55 -21t21 -55q0 -43 -29 -72.5t-73 -29.5q-34 0 -55.5 21.5t-21.5 54.5z" />
    <glyph glyph-name="aringacute" unicode="&#x1fb;" horiz-adv-x="514" 
d="M231 626q0 61 58 94l170 97l10 -19l-125 -71q30 -3 48 -23.5t18 -51.5q0 -43 -29 -72.5t-73 -29.5q-34 0 -55.5 21.5t-21.5 54.5zM251 629q0 -28 16 -44t43 -16q35 0 58 23t23 58q0 27 -16 43t-43 16q-35 0 -58 -23t-23 -57zM36 121q0 75 60.5 118t165.5 43q29 0 62.5 -4
t68.5 -12l12 69q3 15 3 32q0 45 -32.5 74.5t-90.5 29.5q-73 0 -156 -28l-5 21q44 15 85 22t78 7q68 0 106 -35t38 -90q0 -18 -3 -34l-47 -270q-1 -5 -1.5 -8.5t-0.5 -7.5q0 -18 13 -28t34 -10q8 0 14.5 1t13.5 3l3 -22q-8 -2 -17 -3t-17 -1q-31 0 -49 15.5t-18 42.5
q0 7 2 17l6 29q-33 -54 -78 -79t-104 -25q-68 0 -107 36.5t-39 96.5zM60 122q0 -51 33 -82t92 -31q37 0 69.5 12.5t58 36t43 55.5t23.5 71l11 62q-68 16 -128 16q-94 0 -148 -38t-54 -102z" />
    <glyph glyph-name="aogonek" unicode="&#x105;" horiz-adv-x="530" 
d="M36 121q0 75 60.5 118t165.5 43q29 0 62.5 -4t68.5 -12l12 69q3 15 3 32q0 45 -32.5 74.5t-90.5 29.5q-73 0 -156 -28l-5 21q44 15 85 22t78 7q68 0 106 -35t38 -90q0 -18 -3 -34l-47 -270q-1 -5 -1.5 -8.5t-0.5 -7.5q0 -18 13 -28t34 -10q8 0 14.5 1t13.5 3l3 -22
q-61 -38 -93.5 -74t-32.5 -68q0 -21 13.5 -34t35.5 -13q14 0 25 2.5t22 7.5l6 -19q-25 -11 -56 -11q-30 0 -49 18.5t-19 47.5q0 33 28 68.5t80 70.5q-29 2 -45 17t-16 41q0 7 2 17l6 29q-33 -54 -78 -79t-104 -25q-68 0 -107 36.5t-39 96.5zM60 122q0 -51 33 -82t92 -31
q37 0 69.5 12.5t58 36t43 55.5t23.5 71l11 62q-68 16 -128 16q-94 0 -148 -38t-54 -102z" />
    <glyph glyph-name="ae" unicode="&#xe6;" horiz-adv-x="848" 
d="M36 121q0 75 60.5 118t165.5 43q29 0 62.5 -4t68.5 -12l12 69q3 16 3 31q0 45 -32.5 75t-90.5 30q-73 0 -156 -28l-5 21q44 15 85 22t78 7q66 0 105 -31.5t42 -90.5q33 58 85 90t116 32q38 0 69.5 -13.5t54 -38.5t34.5 -60t12 -77q0 -15 -1.5 -32t-5.5 -36h-386
q-2 -13 -3 -26t-1 -26q0 -39 13 -71t35.5 -55t54.5 -35.5t70 -12.5q75 0 150 45l11 -19q-42 -23 -82.5 -35.5t-80.5 -12.5q-75 0 -126.5 42t-63.5 114q-11 -35 -31.5 -64t-47.5 -49.5t-59.5 -31.5t-67.5 -11q-67 0 -107 36.5t-40 96.5zM634 471q-40 0 -76 -15.5t-64.5 -44
t-49 -68t-29.5 -87.5h363q2 12 3 24t1 25q0 75 -40 120.5t-108 45.5zM60 122q0 -51 33 -82t92 -31q37 0 69.5 12.5t58 36t43 55.5t23.5 71l11 62q-68 16 -128 16q-94 0 -148 -38t-54 -102z" />
    <glyph glyph-name="aeacute" unicode="&#x1fd;" horiz-adv-x="848" 
d="M36 0zM36 121q0 75 60.5 118t165.5 43q29 0 62.5 -4t68.5 -12l12 69q3 16 3 31q0 45 -32.5 75t-90.5 30q-73 0 -156 -28l-5 21q44 15 85 22t78 7q66 0 105 -31.5t42 -90.5q33 58 85 90t116 32q38 0 69.5 -13.5t54 -38.5t34.5 -60t12 -77q0 -15 -1.5 -32t-5.5 -36h-386
q-2 -13 -3 -26t-1 -26q0 -39 13 -71t35.5 -55t54.5 -35.5t70 -12.5q75 0 150 45l11 -19q-42 -23 -82.5 -35.5t-80.5 -12.5q-75 0 -126.5 42t-63.5 114q-11 -35 -31.5 -64t-47.5 -49.5t-59.5 -31.5t-67.5 -11q-67 0 -107 36.5t-40 96.5zM634 471q-40 0 -76 -15.5t-64.5 -44
t-49 -68t-29.5 -87.5h363q2 12 3 24t1 25q0 75 -40 120.5t-108 45.5zM60 122q0 -51 33 -82t92 -31q37 0 69.5 12.5t58 36t43 55.5t23.5 71l11 62q-68 16 -128 16q-94 0 -148 -38t-54 -102zM453 571l-10 16l164 103l12 -20z" />
    <glyph glyph-name="cacute" unicode="&#x107;" horiz-adv-x="473" 
d="M51 0zM51 185q0 65 19.5 121.5t54 98t83 65t105.5 23.5q38 0 76 -12t70 -35l-13 -18q-62 43 -133 43q-52 0 -95.5 -22t-75 -60t-49.5 -90.5t-18 -112.5q0 -39 12.5 -71.5t35 -56t53 -36t67.5 -12.5t73 10.5t68 30.5l12 -18q-74 -45 -155 -45q-41 0 -76 14.5t-60.5 40.5
t-39.5 62t-14 80zM298 571l-10 16l164 103l12 -20z" />
    <glyph glyph-name="ccedilla" unicode="&#xe7;" horiz-adv-x="473" 
d="M51 185q0 65 19.5 121.5t54 98t83 65t105.5 23.5q38 0 76 -12t70 -35l-13 -18q-62 43 -133 43q-52 0 -95.5 -22t-75 -60t-49.5 -90.5t-18 -112.5q0 -40 12.5 -72.5t34.5 -55.5t53 -35.5t68 -12.5t73 10.5t68 30.5l12 -18q-37 -22 -76 -33.5t-79 -11.5l-19 -59
q29 -4 46 -22.5t17 -45.5q0 -34 -26.5 -56t-68.5 -22q-39 0 -86 22l10 18q20 -9 39 -14.5t36 -5.5q32 0 53 16.5t21 41.5q0 23 -18 37t-45 14h-6l26 77q-38 3 -69 19t-53 41.5t-34.5 60t-12.5 75.5z" />
    <glyph glyph-name="ccircumflex" unicode="&#x109;" horiz-adv-x="473" 
d="M51 0zM51 185q0 65 19.5 121.5t54 98t83 65t105.5 23.5q38 0 76 -12t70 -35l-13 -18q-62 43 -133 43q-52 0 -95.5 -22t-75 -60t-49.5 -90.5t-18 -112.5q0 -39 12.5 -71.5t35 -56t53 -36t67.5 -12.5t73 10.5t68 30.5l12 -18q-74 -45 -155 -45q-41 0 -76 14.5t-60.5 40.5
t-39.5 62t-14 80zM336 705h20l98 -120l-14 -12l-96 110l-139 -110l-11 15z" />
    <glyph glyph-name="ccaron" unicode="&#x10d;" horiz-adv-x="473" 
d="M51 0zM51 185q0 65 19.5 121.5t54 98t83 65t105.5 23.5q38 0 76 -12t70 -35l-13 -18q-62 43 -133 43q-52 0 -95.5 -22t-75 -60t-49.5 -90.5t-18 -112.5q0 -39 12.5 -71.5t35 -56t53 -36t67.5 -12.5t73 10.5t68 30.5l12 -18q-74 -45 -155 -45q-41 0 -76 14.5t-60.5 40.5
t-39.5 62t-14 80zM337 574h-20l-99 119l15 12l95 -109l139 110l12 -15z" />
    <glyph glyph-name="cdotaccent" unicode="&#x10b;" horiz-adv-x="473" 
d="M51 0zM51 185q0 65 19.5 121.5t54 98t83 65t105.5 23.5q38 0 76 -12t70 -35l-13 -18q-62 43 -133 43q-52 0 -95.5 -22t-75 -60t-49.5 -90.5t-18 -112.5q0 -39 12.5 -71.5t35 -56t53 -36t67.5 -12.5t73 10.5t68 30.5l12 -18q-74 -45 -155 -45q-41 0 -76 14.5t-60.5 40.5
t-39.5 62t-14 80zM311 636q0 12 8.5 20.5t20.5 8.5q10 0 16.5 -6t6.5 -16q0 -13 -8.5 -21t-21.5 -8q-22 0 -22 22z" />
    <glyph glyph-name="dcaron" unicode="&#x10f;" horiz-adv-x="613" 
d="M614 558l-17 8l87 158l20 -10zM411 0h-20l13 90q-34 -49 -80.5 -75.5t-100.5 -26.5q-38 0 -70 13.5t-54.5 38.5t-35 60t-12.5 77q0 67 18.5 124.5t51 100t77 67t97.5 24.5q60 0 102.5 -32.5t55.5 -88.5l58 332h24zM75 178q0 -38 11 -68.5t31 -53t48 -34.5t62 -12
q35 0 67 12.5t57.5 35t43.5 53.5t24 67l17 101q5 25 5 43q0 33 -10.5 60t-30 46.5t-46 30.5t-57.5 11q-48 0 -88.5 -22.5t-70.5 -61.5t-46.5 -92.5t-16.5 -115.5z" />
    <glyph glyph-name="dcroat" unicode="&#x111;" 
d="M518 610h79l-4 -21h-79l-103 -589h-20l13 90q-34 -49 -80.5 -75.5t-100.5 -26.5q-38 0 -70 13.5t-54.5 38.5t-35 60t-12.5 77q0 67 18.5 124.5t51 100t77 67t97.5 24.5q60 0 102.5 -32.5t55.5 -88.5l38 217h-190l4 21h189l17 94h24zM75 178q0 -38 11 -68.5t31 -53
t48 -34.5t62 -12q35 0 67 12.5t57.5 35t43.5 53.5t24 67l17 101q5 25 5 43q0 33 -10.5 60t-30 46.5t-46 30.5t-57.5 11q-48 0 -88.5 -22.5t-70.5 -61.5t-46.5 -92.5t-16.5 -115.5z" />
    <glyph glyph-name="eth" unicode="&#xf0;" 
d="M199 586l131 57q-40 31 -86 51l8 19q57 -23 102 -60l127 57l7 -19l-117 -52q64 -57 96 -139t32 -187q0 -73 -19.5 -133t-54.5 -102.5t-83 -66t-105 -23.5q-42 0 -76 14.5t-58.5 40.5t-38 62t-13.5 79q0 66 19 122.5t53 98t81.5 64.5t103.5 23q54 0 95 -24.5t66 -71.5
q-26 153 -120 234l-143 -63zM74 185q0 -39 12 -71t33.5 -55.5t51.5 -36t67 -12.5q51 0 93.5 21.5t74 59.5t49 90t17.5 114q0 39 -12 71t-33.5 55.5t-51.5 36t-67 12.5q-51 0 -93.5 -21.5t-74 -59.5t-49 -90.5t-17.5 -113.5z" />
    <glyph glyph-name="egrave" unicode="&#xe8;" horiz-adv-x="514" 
d="M51 0zM78 236q-2 -13 -3 -26t-1 -26q0 -39 13 -71t35.5 -55t54.5 -35.5t70 -12.5q74 0 151 45l10 -19q-42 -23 -82.5 -35.5t-80.5 -12.5q-43 0 -79 14.5t-61.5 40.5t-39.5 62t-14 80q0 65 19 121t52.5 97.5t79.5 65.5t99 24q38 0 69.5 -13.5t54 -38.5t35 -60t12.5 -77
q0 -28 -8 -68h-386zM300 471q-40 0 -75.5 -15.5t-64.5 -44t-49 -68t-29 -87.5h362q2 12 3 24t1 25q0 75 -40 120.5t-108 45.5zM374 586l-11 -15l-146 101l13 19z" />
    <glyph glyph-name="eacute" unicode="&#xe9;" horiz-adv-x="514" 
d="M51 0zM78 236q-2 -13 -3 -26t-1 -26q0 -39 13 -71t35.5 -55t54.5 -35.5t70 -12.5q74 0 151 45l10 -19q-42 -23 -82.5 -35.5t-80.5 -12.5q-43 0 -79 14.5t-61.5 40.5t-39.5 62t-14 80q0 65 19 121t52.5 97.5t79.5 65.5t99 24q38 0 69.5 -13.5t54 -38.5t35 -60t12.5 -77
q0 -28 -8 -68h-386zM300 471q-40 0 -75.5 -15.5t-64.5 -44t-49 -68t-29 -87.5h362q2 12 3 24t1 25q0 75 -40 120.5t-108 45.5zM298 571l-10 16l164 103l12 -20z" />
    <glyph glyph-name="ecircumflex" unicode="&#xea;" horiz-adv-x="514" 
d="M51 0zM78 236q-2 -13 -3 -26t-1 -26q0 -39 13 -71t35.5 -55t54.5 -35.5t70 -12.5q74 0 151 45l10 -19q-42 -23 -82.5 -35.5t-80.5 -12.5q-43 0 -79 14.5t-61.5 40.5t-39.5 62t-14 80q0 65 19 121t52.5 97.5t79.5 65.5t99 24q38 0 69.5 -13.5t54 -38.5t35 -60t12.5 -77
q0 -28 -8 -68h-386zM300 471q-40 0 -75.5 -15.5t-64.5 -44t-49 -68t-29 -87.5h362q2 12 3 24t1 25q0 75 -40 120.5t-108 45.5zM336 705h20l98 -120l-14 -12l-96 110l-139 -110l-11 15z" />
    <glyph glyph-name="ecaron" unicode="&#x11b;" horiz-adv-x="514" 
d="M51 0zM78 236q-2 -13 -3 -26t-1 -26q0 -39 13 -71t35.5 -55t54.5 -35.5t70 -12.5q74 0 151 45l10 -19q-42 -23 -82.5 -35.5t-80.5 -12.5q-43 0 -79 14.5t-61.5 40.5t-39.5 62t-14 80q0 65 19 121t52.5 97.5t79.5 65.5t99 24q38 0 69.5 -13.5t54 -38.5t35 -60t12.5 -77
q0 -28 -8 -68h-386zM300 471q-40 0 -75.5 -15.5t-64.5 -44t-49 -68t-29 -87.5h362q2 12 3 24t1 25q0 75 -40 120.5t-108 45.5zM337 574h-20l-99 119l15 12l95 -109l139 110l12 -15z" />
    <glyph glyph-name="edieresis" unicode="&#xeb;" horiz-adv-x="514" 
d="M51 0zM78 236q-2 -13 -3 -26t-1 -26q0 -39 13 -71t35.5 -55t54.5 -35.5t70 -12.5q74 0 151 45l10 -19q-42 -23 -82.5 -35.5t-80.5 -12.5q-43 0 -79 14.5t-61.5 40.5t-39.5 62t-14 80q0 65 19 121t52.5 97.5t79.5 65.5t99 24q38 0 69.5 -13.5t54 -38.5t35 -60t12.5 -77
q0 -28 -8 -68h-386zM300 471q-40 0 -75.5 -15.5t-64.5 -44t-49 -68t-29 -87.5h362q2 12 3 24t1 25q0 75 -40 120.5t-108 45.5zM409 636q0 12 8 20.5t20 8.5q10 0 16 -6.5t6 -15.5q0 -12 -8 -20.5t-21 -8.5q-9 0 -15 6t-6 16zM214 636q0 12 8.5 20.5t20.5 8.5q10 0 16 -6.5
t6 -15.5q0 -12 -8.5 -20.5t-20.5 -8.5q-9 0 -15.5 6t-6.5 16z" />
    <glyph glyph-name="emacron" unicode="&#x113;" horiz-adv-x="514" 
d="M51 0zM78 236q-2 -13 -3 -26t-1 -26q0 -39 13 -71t35.5 -55t54.5 -35.5t70 -12.5q74 0 151 45l10 -19q-42 -23 -82.5 -35.5t-80.5 -12.5q-43 0 -79 14.5t-61.5 40.5t-39.5 62t-14 80q0 65 19 121t52.5 97.5t79.5 65.5t99 24q38 0 69.5 -13.5t54 -38.5t35 -60t12.5 -77
q0 -28 -8 -68h-386zM300 471q-40 0 -75.5 -15.5t-64.5 -44t-49 -68t-29 -87.5h362q2 12 3 24t1 25q0 75 -40 120.5t-108 45.5zM202 650h275l-4 -21h-275z" />
    <glyph glyph-name="ebreve" unicode="&#x115;" horiz-adv-x="514" 
d="M51 0zM78 236q-2 -13 -3 -26t-1 -26q0 -39 13 -71t35.5 -55t54.5 -35.5t70 -12.5q74 0 151 45l10 -19q-42 -23 -82.5 -35.5t-80.5 -12.5q-43 0 -79 14.5t-61.5 40.5t-39.5 62t-14 80q0 65 19 121t52.5 97.5t79.5 65.5t99 24q38 0 69.5 -13.5t54 -38.5t35 -60t12.5 -77
q0 -28 -8 -68h-386zM300 471q-40 0 -75.5 -15.5t-64.5 -44t-49 -68t-29 -87.5h362q2 12 3 24t1 25q0 75 -40 120.5t-108 45.5zM239 689q-8 -45 17.5 -73.5t74.5 -28.5q46 0 81 27.5t45 74.5h21q-11 -56 -51 -89.5t-96 -33.5q-52 0 -83.5 27t-31.5 72q0 7 0.5 13t1.5 11h21z
" />
    <glyph glyph-name="edotaccent" unicode="&#x117;" horiz-adv-x="514" 
d="M51 0zM78 236q-2 -13 -3 -26t-1 -26q0 -39 13 -71t35.5 -55t54.5 -35.5t70 -12.5q74 0 151 45l10 -19q-42 -23 -82.5 -35.5t-80.5 -12.5q-43 0 -79 14.5t-61.5 40.5t-39.5 62t-14 80q0 65 19 121t52.5 97.5t79.5 65.5t99 24q38 0 69.5 -13.5t54 -38.5t35 -60t12.5 -77
q0 -28 -8 -68h-386zM300 471q-40 0 -75.5 -15.5t-64.5 -44t-49 -68t-29 -87.5h362q2 12 3 24t1 25q0 75 -40 120.5t-108 45.5zM311 636q0 12 8.5 20.5t20.5 8.5q10 0 16.5 -6t6.5 -16q0 -13 -8.5 -21t-21.5 -8q-22 0 -22 22z" />
    <glyph glyph-name="eogonek" unicode="&#x119;" horiz-adv-x="514" 
d="M78 236q-2 -13 -3 -26t-1 -26q0 -39 13 -71t35.5 -55t54.5 -35.5t70 -12.5q74 0 151 45l10 -19q-32 -20 -58 -43.5t-44 -47.5t-28 -47t-10 -42q0 -24 13.5 -38.5t37.5 -14.5q13 0 24 2.5t21 6.5l6 -19q-12 -5 -25.5 -7.5t-28.5 -2.5q-32 0 -51 19.5t-19 51.5
q0 33 22.5 73t63.5 75q-45 -14 -87 -14q-43 0 -79 14.5t-61.5 40.5t-39.5 62t-14 80q0 65 19 121t52.5 97.5t79.5 65.5t99 24q38 0 69.5 -13.5t54 -38.5t35 -60t12.5 -77q0 -28 -8 -68h-386zM300 471q-40 0 -75.5 -15.5t-64.5 -44t-49 -68t-29 -87.5h362q2 12 3 24t1 25
q0 75 -40 120.5t-108 45.5z" />
    <glyph glyph-name="gcircumflex" unicode="&#x11d;" 
d="M12 0zM75 178q0 -38 11 -68.5t31 -53t48 -34.5t62 -12q36 0 68 12.5t57.5 34.5t43 53t23.5 68l17 101q5 25 5 43q0 33 -10.5 60t-30 46.5t-46 30.5t-57.5 11q-48 0 -88.5 -22.5t-70.5 -61.5t-46.5 -92.5t-16.5 -115.5zM403 -45q-15 -85 -74 -130t-145 -45
q-37 0 -81.5 10.5t-90.5 33.5l9 21q43 -21 85 -32t77 -11q76 0 130 39t67 114l23 134q-32 -48 -78.5 -74.5t-101.5 -26.5q-38 0 -70 13.5t-54.5 38.5t-35 60t-12.5 77q0 67 18.5 124.5t51 100t77 67t97.5 24.5q60 0 102 -32.5t55 -88.5l23 109h20zM340 705h20l98 -120
l-14 -12l-96 110l-139 -110l-11 15z" />
    <glyph glyph-name="gbreve" unicode="&#x11f;" 
d="M12 0zM75 178q0 -38 11 -68.5t31 -53t48 -34.5t62 -12q36 0 68 12.5t57.5 34.5t43 53t23.5 68l17 101q5 25 5 43q0 33 -10.5 60t-30 46.5t-46 30.5t-57.5 11q-48 0 -88.5 -22.5t-70.5 -61.5t-46.5 -92.5t-16.5 -115.5zM403 -45q-15 -85 -74 -130t-145 -45
q-37 0 -81.5 10.5t-90.5 33.5l9 21q43 -21 85 -32t77 -11q76 0 130 39t67 114l23 134q-32 -48 -78.5 -74.5t-101.5 -26.5q-38 0 -70 13.5t-54.5 38.5t-35 60t-12.5 77q0 67 18.5 124.5t51 100t77 67t97.5 24.5q60 0 102 -32.5t55 -88.5l23 109h20zM243 689
q-8 -45 17.5 -73.5t74.5 -28.5q46 0 81 27.5t45 74.5h21q-11 -56 -51 -89.5t-96 -33.5q-52 0 -83.5 27t-31.5 72q0 7 0.5 13t1.5 11h21z" />
    <glyph glyph-name="gdotaccent" unicode="&#x121;" 
d="M12 0zM75 178q0 -38 11 -68.5t31 -53t48 -34.5t62 -12q36 0 68 12.5t57.5 34.5t43 53t23.5 68l17 101q5 25 5 43q0 33 -10.5 60t-30 46.5t-46 30.5t-57.5 11q-48 0 -88.5 -22.5t-70.5 -61.5t-46.5 -92.5t-16.5 -115.5zM403 -45q-15 -85 -74 -130t-145 -45
q-37 0 -81.5 10.5t-90.5 33.5l9 21q43 -21 85 -32t77 -11q76 0 130 39t67 114l23 134q-32 -48 -78.5 -74.5t-101.5 -26.5q-38 0 -70 13.5t-54.5 38.5t-35 60t-12.5 77q0 67 18.5 124.5t51 100t77 67t97.5 24.5q60 0 102 -32.5t55 -88.5l23 109h20zM315 636q0 12 8.5 20.5
t20.5 8.5q10 0 16.5 -6t6.5 -16q0 -13 -8.5 -21t-21.5 -8q-22 0 -22 22z" />
    <glyph glyph-name="gcommaaccent" unicode="&#x123;" 
d="M360 604q0 -12 -8 -20.5t-20 -8.5t-19 9.5t-7 25.5q0 39 28 78.5t75 66.5l9 -14q-37 -24 -60 -53.5t-27 -64.5q12 4 20.5 -2t8.5 -17zM75 178q0 -38 11 -68.5t31 -53t48 -34.5t62 -12q36 0 68 12.5t57.5 34.5t43 53t23.5 68l17 101q5 25 5 43q0 33 -10.5 60t-30 46.5
t-46 30.5t-57.5 11q-48 0 -88.5 -22.5t-70.5 -61.5t-46.5 -92.5t-16.5 -115.5zM403 -45q-15 -85 -74 -130t-145 -45q-37 0 -81.5 10.5t-90.5 33.5l9 21q43 -21 85 -32t77 -11q76 0 130 39t67 114l23 134q-32 -48 -78.5 -74.5t-101.5 -26.5q-38 0 -70 13.5t-54.5 38.5t-35 60
t-12.5 77q0 67 18.5 124.5t51 100t77 67t97.5 24.5q60 0 102 -32.5t55 -88.5l23 109h20z" />
    <glyph glyph-name="hcircumflex" unicode="&#x125;" horiz-adv-x="563" 
d="M52 0zM176 704h24l-58 -324q29 52 79 82.5t107 30.5q33 0 60.5 -10t47 -29t30.5 -45t11 -57q0 -12 -1.5 -25.5t-3.5 -27.5l-53 -299h-24l53 299q5 28 5 51q0 55 -35.5 87.5t-93.5 32.5q-36 0 -69 -13.5t-59 -38t-44 -58t-25 -73.5l-51 -287h-24zM213 928h20l98 -120
l-14 -12l-96 110l-139 -110l-11 15z" />
    <glyph glyph-name="hbar" unicode="&#x127;" 
d="M155 589h-78l4 21h78l17 94h24l-17 -94h190l-4 -21h-190l-37 -209q29 52 79 82.5t107 30.5q33 0 60.5 -10t47 -29t30.5 -45t11 -57q0 -12 -1.5 -25.5t-3.5 -27.5l-53 -299h-24l53 299q5 28 5 51q0 55 -35.5 87.5t-93.5 32.5q-36 0 -69 -13.5t-59 -38t-44 -58t-25 -73.5
l-51 -287h-24z" />
    <glyph glyph-name="dotlessi" unicode="&#x131;" horiz-adv-x="212" 
d="M136 481h24l-84 -481h-24z" />
    <glyph glyph-name="igrave" unicode="&#xec;" horiz-adv-x="212" 
d="M52 0zM136 481h24l-84 -481h-24zM211 586l-11 -15l-146 101l13 19z" />
    <glyph glyph-name="iacute" unicode="&#xed;" horiz-adv-x="212" 
d="M52 0zM136 481h24l-84 -481h-24zM135 571l-10 16l164 103l12 -20z" />
    <glyph glyph-name="icircumflex" unicode="&#xee;" horiz-adv-x="212" 
d="M31 0zM136 481h24l-84 -481h-24zM173 705h20l98 -120l-14 -12l-96 110l-139 -110l-11 15z" />
    <glyph glyph-name="itilde" unicode="&#x129;" horiz-adv-x="212" 
d="M40 0zM136 481h24l-84 -481h-24zM111 670q18 0 34 -6.5t31 -14t30 -13.5t31 -6q17 0 31 10.5t22 29.5l19 -8q-10 -23 -29 -38t-43 -15q-18 0 -34 6t-31 13.5t-30 14t-31 6.5q-17 0 -30.5 -10.5t-21.5 -29.5l-19 7q9 23 28.5 38.5t42.5 15.5z" />
    <glyph glyph-name="idieresis" unicode="&#xef;" horiz-adv-x="212" 
d="M51 0zM136 481h24l-84 -481h-24zM246 636q0 12 8 20.5t20 8.5q10 0 16 -6.5t6 -15.5q0 -12 -8 -20.5t-21 -8.5q-9 0 -15 6t-6 16zM51 636q0 12 8.5 20.5t20.5 8.5q10 0 16 -6.5t6 -15.5q0 -12 -8.5 -20.5t-20.5 -8.5q-9 0 -15.5 6t-6.5 16z" />
    <glyph glyph-name="imacron" unicode="&#x12b;" horiz-adv-x="212" 
d="M35 0zM136 481h24l-84 -481h-24zM39 650h275l-4 -21h-275z" />
    <glyph glyph-name="ibreve" unicode="&#x12d;" horiz-adv-x="212" 
d="M52 0zM136 481h24l-84 -481h-24zM76 689q-8 -45 17.5 -73.5t74.5 -28.5q46 0 81 27.5t45 74.5h21q-11 -56 -51 -89.5t-96 -33.5q-52 0 -83.5 27t-31.5 72q0 7 0.5 13t1.5 11h21z" />
    <glyph glyph-name="iogonek" unicode="&#x12f;" horiz-adv-x="212" 
d="M76 0q-61 -40 -93.5 -78.5t-32.5 -71.5q0 -21 13 -34t36 -13q13 0 24.5 2.5t22.5 6.5l6 -19q-12 -5 -26.5 -7.5t-29.5 -2.5q-30 0 -49 18.5t-19 47.5q0 37 32.5 77.5t92.5 78.5l83 476h24zM148 636q0 12 8.5 20.5t20.5 8.5q22 0 22 -22q0 -13 -8 -21.5t-21 -8.5
q-10 0 -16 6.5t-6 16.5z" />
    <glyph glyph-name="ij" unicode="&#x133;" horiz-adv-x="431" 
d="M52 0zM136 481h24l-84 -481h-24zM148 636q0 12 8.5 20.5t20.5 8.5q22 0 22 -22q0 -13 -8 -21.5t-21 -8.5q-10 0 -16 6.5t-6 16.5zM276 -109q-8 -51 -42.5 -81t-84.5 -30q-20 0 -44 5.5t-50 14.5l8 21q24 -8 45.5 -13.5t39.5 -5.5q42 0 69.5 24t34.5 66l104 589h24z
M368 636q0 12 8.5 20.5t20.5 8.5q22 0 22 -22q0 -13 -8 -21.5t-21 -8.5q-10 0 -16 6.5t-6 16.5z" />
    <glyph glyph-name="jcircumflex" unicode="&#x135;" horiz-adv-x="220" 
d="M64 -109q-8 -51 -42.5 -81t-84.5 -30q-20 0 -44 5.5t-50 14.5l8 21q24 -8 45.5 -13.5t39.5 -5.5q42 0 69.5 24t34.5 66l104 589h24zM181 705h20l98 -120l-14 -12l-96 110l-139 -110l-11 15z" />
    <glyph glyph-name="kcommaaccent" unicode="&#x137;" horiz-adv-x="476" 
d="M52 0zM176 704h23l-87 -494l319 271h34l-265 -225l189 -256h-29l-178 241l-75 -63l-32 -178h-23zM151 -123q0 12 8 20t20 8q26 0 26 -34q0 -39 -28 -79t-75 -67l-9 15q37 23 59.5 52.5t27.5 64.5q-12 -3 -20.5 2.5t-8.5 17.5z" />
    <glyph glyph-name="kgreenlandic" unicode="&#x138;" horiz-adv-x="476" 
d="M136 481h23l-47 -271l319 271h34l-265 -225l189 -256h-29l-178 241l-75 -63l-32 -178h-23z" />
    <glyph glyph-name="lacute" unicode="&#x13a;" horiz-adv-x="260" 
d="M64 0zM91 94q-3 -17 -3 -29q0 -26 17 -40.5t44 -14.5q12 0 23 2t20 4l3 -22l-24 -4t-25 -2q-36 0 -59 20t-23 55q0 13 3 31l109 610h24zM175 794l-10 16l164 103l12 -20z" />
    <glyph glyph-name="lcaron" unicode="&#x13e;" horiz-adv-x="259" 
d="M287 558l-17 8l87 158l20 -10zM91 94q-3 -17 -3 -29q0 -26 17 -40.5t44 -14.5q12 0 23 2t20 4l3 -22l-24 -4t-25 -2q-36 0 -59 20t-23 55q0 13 3 31l109 610h24z" />
    <glyph glyph-name="lcommaaccent" unicode="&#x13c;" horiz-adv-x="260" 
d="M16 0zM91 94q-3 -17 -3 -29q0 -26 17 -40.5t44 -14.5q12 0 23 2t20 4l3 -22l-24 -4t-25 -2q-36 0 -59 20t-23 55q0 13 3 31l109 610h24zM74 -123q0 12 8 20t20 8q26 0 26 -34q0 -39 -28 -79t-75 -67l-9 15q37 23 59.5 52.5t27.5 64.5q-12 -3 -20.5 2.5t-8.5 17.5z" />
    <glyph glyph-name="lslash" unicode="&#x142;" horiz-adv-x="292" 
d="M149 374l131 61l8 -20l-144 -66l-45 -255q-3 -17 -3 -29q0 -26 17 -40.5t44 -14.5q12 0 23 2t20 4l3 -22l-24 -4t-25 -2q-36 0 -59 20t-23 55q0 13 3 31l44 243l-114 -52l-7 20l125 57l61 342h24z" />
    <glyph glyph-name="ldot" unicode="&#x140;" horiz-adv-x="295" 
d="M64 0zM245 341q0 12 8.5 20.5t20.5 8.5q10 0 16.5 -6t6.5 -16q0 -13 -8.5 -21t-21.5 -8q-22 0 -22 22zM91 94q-3 -17 -3 -29q0 -26 17 -40.5t44 -14.5q12 0 23 2t20 4l3 -22l-24 -4t-25 -2q-36 0 -59 20t-23 55q0 13 3 31l109 610h24z" />
    <glyph glyph-name="nacute" unicode="&#x144;" 
d="M52 0zM136 481h20l-15 -102q29 53 79.5 83.5t107.5 30.5q33 0 60.5 -10t47 -29t30.5 -45t11 -57q0 -12 -1.5 -25.5t-3.5 -27.5l-53 -299h-24l53 299q5 28 5 51q0 55 -35.5 87.5t-93.5 32.5q-36 0 -69 -13.5t-59 -38t-44 -58t-25 -73.5l-51 -287h-24zM302 571l-10 16
l164 103l12 -20z" />
    <glyph glyph-name="ncaron" unicode="&#x148;" 
d="M52 0zM136 481h20l-15 -102q29 53 79.5 83.5t107.5 30.5q33 0 60.5 -10t47 -29t30.5 -45t11 -57q0 -12 -1.5 -25.5t-3.5 -27.5l-53 -299h-24l53 299q5 28 5 51q0 55 -35.5 87.5t-93.5 32.5q-36 0 -69 -13.5t-59 -38t-44 -58t-25 -73.5l-51 -287h-24zM341 574h-20l-99 119
l15 12l95 -109l139 110l12 -15z" />
    <glyph glyph-name="ntilde" unicode="&#xf1;" 
d="M52 0zM136 481h20l-15 -102q29 53 79.5 83.5t107.5 30.5q33 0 60.5 -10t47 -29t30.5 -45t11 -57q0 -12 -1.5 -25.5t-3.5 -27.5l-53 -299h-24l53 299q5 28 5 51q0 55 -35.5 87.5t-93.5 32.5q-36 0 -69 -13.5t-59 -38t-44 -58t-25 -73.5l-51 -287h-24zM278 670
q18 0 34 -6.5t31 -14t30 -13.5t31 -6q17 0 31 10.5t22 29.5l19 -8q-10 -23 -29 -38t-43 -15q-18 0 -34 6t-31 13.5t-30 14t-31 6.5q-17 0 -30.5 -10.5t-21.5 -29.5l-19 7q9 23 28.5 38.5t42.5 15.5z" />
    <glyph glyph-name="ncommaaccent" unicode="&#x146;" 
d="M52 0zM136 481h20l-15 -102q29 53 79.5 83.5t107.5 30.5q33 0 60.5 -10t47 -29t30.5 -45t11 -57q0 -12 -1.5 -25.5t-3.5 -27.5l-53 -299h-24l53 299q5 28 5 51q0 55 -35.5 87.5t-93.5 32.5q-36 0 -69 -13.5t-59 -38t-44 -58t-25 -73.5l-51 -287h-24zM190 -123q0 12 8 20
t20 8q26 0 26 -34q0 -39 -28 -79t-75 -67l-9 15q37 23 59.5 52.5t27.5 64.5q-12 -3 -20.5 2.5t-8.5 17.5z" />
    <glyph glyph-name="napostrophe" unicode="&#x149;" horiz-adv-x="678" 
d="M95 0zM267 481h20l-15 -102q29 53 79.5 83.5t107.5 30.5q33 0 60.5 -10t47 -29t30.5 -45t11 -57q0 -12 -1.5 -25.5t-3.5 -27.5l-53 -299h-24l53 299q5 28 5 51q0 55 -35.5 87.5t-93.5 32.5q-36 0 -69 -13.5t-59 -38t-44 -58t-25 -73.5l-51 -287h-24zM153 650q0 12 8 20
t20 8q26 0 26 -34q0 -39 -28 -79t-75 -67l-9 15q37 23 59.5 52.5t27.5 64.5q-12 -3 -20.5 2.5t-8.5 17.5z" />
    <glyph glyph-name="eng" unicode="&#x14b;" 
d="M399 -109q-9 -51 -42.5 -81t-84.5 -30q-20 0 -43.5 5.5t-49.5 14.5l8 21q23 -8 45 -13.5t39 -5.5q42 0 69.5 24t35.5 66l72 407q5 28 5 51q0 55 -35.5 87.5t-93.5 32.5q-36 0 -69 -13.5t-59 -38t-44 -58t-25 -73.5l-51 -287h-24l84 481h20l-15 -102q29 53 79.5 83.5
t107.5 30.5q33 0 60.5 -10t47 -29t30.5 -45t11 -57q0 -12 -1.5 -25.5t-3.5 -27.5z" />
    <glyph glyph-name="ograve" unicode="&#xf2;" 
d="M51 0zM51 185q0 66 19.5 122.5t54 98t81.5 64.5t103 23q42 0 76 -14.5t59 -40.5t38.5 -62t13.5 -80q0 -66 -19.5 -122.5t-54 -98t-82 -64.5t-103.5 -23q-41 0 -75.5 14.5t-59 40.5t-38 62t-13.5 80zM75 185q0 -39 12 -71t33.5 -55.5t51.5 -36t66 -12.5q51 0 94 21.5
t74 59.5t48.5 90t17.5 114q0 39 -12 71.5t-33.5 56t-51.5 36t-66 12.5q-51 0 -94 -21.5t-74 -59.5t-48.5 -90.5t-17.5 -114.5zM378 586l-11 -15l-146 101l13 19z" />
    <glyph glyph-name="oacute" unicode="&#xf3;" 
d="M51 0zM51 185q0 66 19.5 122.5t54 98t81.5 64.5t103 23q42 0 76 -14.5t59 -40.5t38.5 -62t13.5 -80q0 -66 -19.5 -122.5t-54 -98t-82 -64.5t-103.5 -23q-41 0 -75.5 14.5t-59 40.5t-38 62t-13.5 80zM75 185q0 -39 12 -71t33.5 -55.5t51.5 -36t66 -12.5q51 0 94 21.5
t74 59.5t48.5 90t17.5 114q0 39 -12 71.5t-33.5 56t-51.5 36t-66 12.5q-51 0 -94 -21.5t-74 -59.5t-48.5 -90.5t-17.5 -114.5zM302 571l-10 16l164 103l12 -20z" />
    <glyph glyph-name="ocircumflex" unicode="&#xf4;" 
d="M51 0zM51 185q0 66 19.5 122.5t54 98t81.5 64.5t103 23q42 0 76 -14.5t59 -40.5t38.5 -62t13.5 -80q0 -66 -19.5 -122.5t-54 -98t-82 -64.5t-103.5 -23q-41 0 -75.5 14.5t-59 40.5t-38 62t-13.5 80zM75 185q0 -39 12 -71t33.5 -55.5t51.5 -36t66 -12.5q51 0 94 21.5
t74 59.5t48.5 90t17.5 114q0 39 -12 71.5t-33.5 56t-51.5 36t-66 12.5q-51 0 -94 -21.5t-74 -59.5t-48.5 -90.5t-17.5 -114.5zM340 705h20l98 -120l-14 -12l-96 110l-139 -110l-11 15z" />
    <glyph glyph-name="otilde" unicode="&#xf5;" 
d="M51 0zM51 185q0 66 19.5 122.5t54 98t81.5 64.5t103 23q42 0 76 -14.5t59 -40.5t38.5 -62t13.5 -80q0 -66 -19.5 -122.5t-54 -98t-82 -64.5t-103.5 -23q-41 0 -75.5 14.5t-59 40.5t-38 62t-13.5 80zM75 185q0 -39 12 -71t33.5 -55.5t51.5 -36t66 -12.5q51 0 94 21.5
t74 59.5t48.5 90t17.5 114q0 39 -12 71.5t-33.5 56t-51.5 36t-66 12.5q-51 0 -94 -21.5t-74 -59.5t-48.5 -90.5t-17.5 -114.5zM278 670q18 0 34 -6.5t31 -14t30 -13.5t31 -6q17 0 31 10.5t22 29.5l19 -8q-10 -23 -29 -38t-43 -15q-18 0 -34 6t-31 13.5t-30 14t-31 6.5
q-17 0 -30.5 -10.5t-21.5 -29.5l-19 7q9 23 28.5 38.5t42.5 15.5z" />
    <glyph glyph-name="odieresis" unicode="&#xf6;" 
d="M51 0zM51 185q0 66 19.5 122.5t54 98t81.5 64.5t103 23q42 0 76 -14.5t59 -40.5t38.5 -62t13.5 -80q0 -66 -19.5 -122.5t-54 -98t-82 -64.5t-103.5 -23q-41 0 -75.5 14.5t-59 40.5t-38 62t-13.5 80zM75 185q0 -39 12 -71t33.5 -55.5t51.5 -36t66 -12.5q51 0 94 21.5
t74 59.5t48.5 90t17.5 114q0 39 -12 71.5t-33.5 56t-51.5 36t-66 12.5q-51 0 -94 -21.5t-74 -59.5t-48.5 -90.5t-17.5 -114.5zM413 636q0 12 8 20.5t20 8.5q10 0 16 -6.5t6 -15.5q0 -12 -8 -20.5t-21 -8.5q-9 0 -15 6t-6 16zM218 636q0 12 8.5 20.5t20.5 8.5q10 0 16 -6.5
t6 -15.5q0 -12 -8.5 -20.5t-20.5 -8.5q-9 0 -15.5 6t-6.5 16z" />
    <glyph glyph-name="omacron" unicode="&#x14d;" 
d="M51 0zM51 185q0 66 19.5 122.5t54 98t81.5 64.5t103 23q42 0 76 -14.5t59 -40.5t38.5 -62t13.5 -80q0 -66 -19.5 -122.5t-54 -98t-82 -64.5t-103.5 -23q-41 0 -75.5 14.5t-59 40.5t-38 62t-13.5 80zM75 185q0 -39 12 -71t33.5 -55.5t51.5 -36t66 -12.5q51 0 94 21.5
t74 59.5t48.5 90t17.5 114q0 39 -12 71.5t-33.5 56t-51.5 36t-66 12.5q-51 0 -94 -21.5t-74 -59.5t-48.5 -90.5t-17.5 -114.5zM206 650h275l-4 -21h-275z" />
    <glyph glyph-name="obreve" unicode="&#x14f;" 
d="M51 0zM51 185q0 66 19.5 122.5t54 98t81.5 64.5t103 23q42 0 76 -14.5t59 -40.5t38.5 -62t13.5 -80q0 -66 -19.5 -122.5t-54 -98t-82 -64.5t-103.5 -23q-41 0 -75.5 14.5t-59 40.5t-38 62t-13.5 80zM75 185q0 -39 12 -71t33.5 -55.5t51.5 -36t66 -12.5q51 0 94 21.5
t74 59.5t48.5 90t17.5 114q0 39 -12 71.5t-33.5 56t-51.5 36t-66 12.5q-51 0 -94 -21.5t-74 -59.5t-48.5 -90.5t-17.5 -114.5zM243 689q-8 -45 17.5 -73.5t74.5 -28.5q46 0 81 27.5t45 74.5h21q-11 -56 -51 -89.5t-96 -33.5q-52 0 -83.5 27t-31.5 72q0 7 0.5 13t1.5 11h21z
" />
    <glyph glyph-name="ohungarumlaut" unicode="&#x151;" 
d="M51 0zM51 185q0 66 19.5 122.5t54 98t81.5 64.5t103 23q42 0 76 -14.5t59 -40.5t38.5 -62t13.5 -80q0 -66 -19.5 -122.5t-54 -98t-82 -64.5t-103.5 -23q-41 0 -75.5 14.5t-59 40.5t-38 62t-13.5 80zM75 185q0 -39 12 -71t33.5 -55.5t51.5 -36t66 -12.5q51 0 94 21.5
t74 59.5t48.5 90t17.5 114q0 39 -12 71.5t-33.5 56t-51.5 36t-66 12.5q-51 0 -94 -21.5t-74 -59.5t-48.5 -90.5t-17.5 -114.5zM402 569l-12 15l146 129l14 -17zM238 569l-13 15l146 129l15 -17z" />
    <glyph glyph-name="oslash" unicode="&#xf8;" 
d="M51 185q0 66 19.5 122.5t54 98t81.5 64.5t103 23q42 0 75.5 -14.5t58.5 -40.5l46 51l15 -14l-48 -52q19 -25 29.5 -57t10.5 -70q0 -66 -19.5 -122.5t-54 -98t-82 -64.5t-103.5 -23q-41 0 -75 14t-58 40l-46 -50l-15 13l47 51q-39 51 -39 129zM238 10q51 0 94 21.5
t74.5 59.5t49 90t17.5 114q0 66 -34 111l-320 -348q45 -48 119 -48zM74 185q0 -65 32 -111l321 347q-45 50 -118 50q-51 0 -94 -21.5t-74.5 -59.5t-49 -90.5t-17.5 -114.5z" />
    <glyph glyph-name="oslashacute" unicode="&#x1ff;" 
d="M43 0zM51 185q0 66 19.5 122.5t54 98t81.5 64.5t103 23q42 0 75.5 -14.5t58.5 -40.5l46 51l15 -14l-48 -52q19 -25 29.5 -57t10.5 -70q0 -66 -19.5 -122.5t-54 -98t-82 -64.5t-103.5 -23q-41 0 -75 14t-58 40l-46 -50l-15 13l47 51q-39 51 -39 129zM238 10q51 0 94 21.5
t74.5 59.5t49 90t17.5 114q0 66 -34 111l-320 -348q45 -48 119 -48zM74 185q0 -65 32 -111l321 347q-45 50 -118 50q-51 0 -94 -21.5t-74.5 -59.5t-49 -90.5t-17.5 -114.5zM302 571l-10 16l164 103l12 -20z" />
    <glyph glyph-name="oe" unicode="&#x153;" horiz-adv-x="928" 
d="M492 236q-2 -13 -3 -26t-1 -26q0 -39 13 -71t35.5 -55t54.5 -35.5t70 -12.5q75 0 150 45l11 -19q-42 -23 -82.5 -35.5t-80.5 -12.5q-39 0 -72.5 12t-58 34.5t-40 53.5t-19.5 69q-31 -78 -91.5 -123.5t-140.5 -45.5q-41 0 -75.5 14.5t-59 40.5t-38 62t-13.5 80
q0 66 19.5 122.5t54 98t81.5 64.5t103 23q38 0 70 -12.5t56 -35t39 -53.5t18 -69q15 38 37.5 69t51.5 53.5t62.5 35t71.5 12.5t69.5 -14t54 -38.5t34.5 -59.5t12 -77q0 -15 -1.5 -32t-5.5 -36h-386zM238 10q51 0 94 21.5t74 59.5t48.5 90t17.5 114q0 39 -12 71.5t-33.5 56
t-51.5 36t-66 12.5q-51 0 -94 -21.5t-74 -59.5t-48.5 -90.5t-17.5 -114.5q0 -39 12 -71t33.5 -55.5t51.5 -36t66 -12.5zM714 471q-40 0 -76 -15.5t-64.5 -44t-49 -68t-29.5 -87.5h363q2 12 3 24t1 25q0 75 -40 120.5t-108 45.5z" />
    <glyph glyph-name="thorn" unicode="&#xfe;" 
d="M176 704h22l-54 -312q34 48 80 74.5t99 26.5q39 0 70.5 -13.5t54.5 -38.5t35.5 -60t12.5 -77q0 -67 -18.5 -124.5t-51 -100t-77.5 -67t-98 -24.5q-59 0 -101.5 32.5t-55.5 87.5l-55 -316h-24zM472 303q0 37 -11 68t-31 53t-48 34t-62 12q-35 0 -67 -12.5t-57.5 -35
t-43.5 -53t-24 -66.5l-17 -102q-5 -23 -5 -43q0 -33 10.5 -60t30 -46.5t45.5 -30.5t58 -11q48 0 88.5 22.5t70.5 62t46.5 93t16.5 115.5z" />
    <glyph glyph-name="racute" unicode="&#x155;" horiz-adv-x="363" 
d="M52 0zM136 481h20l-14 -94q27 49 70 75.5t96 26.5q38 0 72 -14l-9 -21q-15 7 -31.5 10t-33.5 3q-34 0 -64 -13t-53.5 -36.5t-40 -56.5t-23.5 -74l-49 -287h-24zM230 571l-10 16l164 103l12 -20z" />
    <glyph glyph-name="rcaron" unicode="&#x159;" horiz-adv-x="363" 
d="M52 0zM136 481h20l-14 -94q27 49 70 75.5t96 26.5q38 0 72 -14l-9 -21q-15 7 -31.5 10t-33.5 3q-34 0 -64 -13t-53.5 -36.5t-40 -56.5t-23.5 -74l-49 -287h-24zM269 574h-20l-99 119l15 12l95 -109l139 110l12 -15z" />
    <glyph glyph-name="rcommaaccent" unicode="&#x157;" horiz-adv-x="363" 
d="M0 0zM136 481h20l-14 -94q27 49 70 75.5t96 26.5q38 0 72 -14l-9 -21q-15 7 -31.5 10t-33.5 3q-34 0 -64 -13t-53.5 -36.5t-40 -56.5t-23.5 -74l-49 -287h-24zM19 -123q0 12 8 20t20 8q26 0 26 -34q0 -39 -28 -79t-75 -67l-9 15q37 23 59.5 52.5t27.5 64.5
q-12 -3 -20.5 2.5t-8.5 17.5z" />
    <glyph glyph-name="sacute" unicode="&#x15b;" horiz-adv-x="426" 
d="M17 0zM82 363q0 28 11 51.5t31.5 41t48.5 27.5t62 10q37 0 78 -9.5t80 -29.5l-10 -19q-37 17 -75 26.5t-72 9.5q-59 0 -94.5 -30t-35.5 -78q0 -32 18 -51.5t45 -34t58 -26.5t58 -28.5t45 -40t18 -60.5q0 -59 -43 -96.5t-114 -37.5q-40 0 -86 11.5t-88 32.5l10 20
q42 -20 84 -31t79 -11q62 0 98 31t36 81q0 33 -18 53.5t-45 35t-58 26.5t-58 28t-45 39t-18 59zM234 571l-10 16l164 103l12 -20z" />
    <glyph glyph-name="scircumflex" unicode="&#x15d;" horiz-adv-x="426" 
d="M17 0zM82 363q0 28 11 51.5t31.5 41t48.5 27.5t62 10q37 0 78 -9.5t80 -29.5l-10 -19q-37 17 -75 26.5t-72 9.5q-59 0 -94.5 -30t-35.5 -78q0 -32 18 -51.5t45 -34t58 -26.5t58 -28.5t45 -40t18 -60.5q0 -59 -43 -96.5t-114 -37.5q-40 0 -86 11.5t-88 32.5l10 20
q42 -20 84 -31t79 -11q62 0 98 31t36 81q0 33 -18 53.5t-45 35t-58 26.5t-58 28t-45 39t-18 59zM272 705h20l98 -120l-14 -12l-96 110l-139 -110l-11 15z" />
    <glyph glyph-name="scaron" unicode="&#x161;" horiz-adv-x="426" 
d="M17 0zM82 363q0 28 11 51.5t31.5 41t48.5 27.5t62 10q37 0 78 -9.5t80 -29.5l-10 -19q-37 17 -75 26.5t-72 9.5q-59 0 -94.5 -30t-35.5 -78q0 -32 18 -51.5t45 -34t58 -26.5t58 -28.5t45 -40t18 -60.5q0 -59 -43 -96.5t-114 -37.5q-40 0 -86 11.5t-88 32.5l10 20
q42 -20 84 -31t79 -11q62 0 98 31t36 81q0 33 -18 53.5t-45 35t-58 26.5t-58 28t-45 39t-18 59zM273 574h-20l-99 119l15 12l95 -109l139 110l12 -15z" />
    <glyph glyph-name="scedilla" unicode="&#x15f;" horiz-adv-x="426" 
d="M82 363q0 28 11 51.5t31.5 41t48.5 27.5t62 10q37 0 78 -9.5t80 -29.5l-10 -19q-37 17 -75 26.5t-72 9.5q-58 0 -94 -29t-36 -79q0 -32 18 -51.5t45 -34t58 -26.5t58 -28.5t45 -40t18 -60.5q0 -62 -44.5 -97.5t-117.5 -36.5l-20 -59q29 -4 46.5 -22.5t17.5 -45.5
q0 -34 -27 -56t-69 -22q-39 0 -85 22l9 18q20 -9 39 -14.5t37 -5.5q32 0 53 16.5t21 41.5q0 23 -18.5 37t-44.5 14h-7l27 77q-36 3 -74.5 14t-73.5 29l10 20q42 -20 84 -31t79 -11q60 0 97 30t37 82q0 33 -18 53.5t-45 35t-58 26.5t-58 28t-45 39t-18 59z" />
    <glyph glyph-name="scommaaccent" unicode="&#x219;" horiz-adv-x="426" 
d="M17 0zM82 363q0 28 11 51.5t31.5 41t48.5 27.5t62 10q37 0 78 -9.5t80 -29.5l-10 -19q-37 17 -75 26.5t-72 9.5q-59 0 -94.5 -30t-35.5 -78q0 -32 18 -51.5t45 -34t58 -26.5t58 -28.5t45 -40t18 -60.5q0 -59 -43 -96.5t-114 -37.5q-40 0 -86 11.5t-88 32.5l10 20
q42 -20 84 -31t79 -11q62 0 98 31t36 81q0 33 -18 53.5t-45 35t-58 26.5t-58 28t-45 39t-18 59zM126 -123q0 12 8 20t20 8q26 0 26 -34q0 -39 -28 -79t-75 -67l-9 15q37 23 59.5 52.5t27.5 64.5q-12 -3 -20.5 2.5t-8.5 17.5z" />
    <glyph glyph-name="germandbls" unicode="&#xdf;" horiz-adv-x="587" 
d="M325 336q0 39 22 67.5t48.5 55.5t48.5 55.5t22 66.5q0 53 -34.5 83t-97.5 30q-64 0 -107 -38t-55 -106l-97 -550h-23l97 551q14 77 62.5 121t123.5 44q73 0 114 -36t41 -98q0 -42 -22 -72t-48.5 -57t-48.5 -54t-22 -62q0 -28 12.5 -46.5t31 -32t40.5 -25.5t40.5 -27
t31 -36.5t12.5 -54.5q0 -27 -12 -50.5t-33 -40.5t-50 -26.5t-63 -9.5q-33 0 -69.5 8t-72.5 28l10 21q33 -19 67 -27t65 -8q29 0 53.5 8t42.5 21.5t28 32.5t10 42q0 29 -12.5 48t-31 33t-40.5 26t-40.5 26.5t-31 35.5t-12.5 53z" />
    <glyph glyph-name="tcaron" unicode="&#x165;" horiz-adv-x="386" 
d="M327 558l-17 8l87 158l20 -10zM208 481h173l-4 -22h-173l-59 -336q-2 -8 -3 -17t-1 -18q0 -35 24 -56.5t63 -21.5q17 0 34 2t37 6l3 -22q-20 -5 -39 -6.5t-38 -1.5q-48 0 -78 27t-30 72q0 9 1 18t3 18l59 336h-111l4 22h111l26 144h24z" />
    <glyph glyph-name="tcommaaccent" unicode="&#x163;" horiz-adv-x="386" 
d="M69 0zM208 481h173l-4 -22h-173l-59 -336q-2 -8 -3 -17t-1 -18q0 -35 24 -56.5t63 -21.5q17 0 34 2t37 6l3 -22q-20 -5 -39 -6.5t-38 -1.5q-48 0 -78 27t-30 72q0 9 1 18t3 18l59 336h-111l4 22h111l26 144h24zM146 -123q0 12 8 20t20 8q26 0 26 -34q0 -39 -28 -79
t-75 -67l-9 15q37 23 59.5 52.5t27.5 64.5q-12 -3 -20.5 2.5t-8.5 17.5z" />
    <glyph glyph-name="uni021B" unicode="&#x21b;" horiz-adv-x="386" 
d="M69 0zM208 481h173l-4 -22h-173l-59 -336q-2 -8 -3 -17t-1 -18q0 -35 24 -56.5t63 -21.5q17 0 34 2t37 6l3 -22q-20 -5 -39 -6.5t-38 -1.5q-48 0 -78 27t-30 72q0 9 1 18t3 18l59 336h-111l4 22h111l26 144h24zM146 -123q0 12 8 20t20 8q26 0 26 -34q0 -39 -28 -79
t-75 -67l-9 15q37 23 59.5 52.5t27.5 64.5q-12 -3 -20.5 2.5t-8.5 17.5z" />
    <glyph glyph-name="tbar" unicode="&#x167;" horiz-adv-x="386" 
d="M208 481h173l-4 -22h-173l-36 -202h157l-4 -21h-157l-19 -113q-2 -9 -3 -17.5t-1 -17.5q0 -35 24 -56.5t63 -21.5q17 0 34 2t37 6l3 -22q-20 -5 -39 -6.5t-38 -1.5q-48 0 -78 27t-30 72q0 9 1 18t3 18l19 113h-102l4 21h102l36 202h-111l4 22h111l26 144h24z" />
    <glyph glyph-name="ugrave" unicode="&#xf9;" 
d="M70 0zM411 0h-20l15 101q-29 -52 -80 -82.5t-107 -30.5q-33 0 -60.5 10t-47 29t-30.5 44.5t-11 57.5q0 12 1.5 25t3.5 27l53 300h24l-53 -299q-2 -14 -3.5 -26.5t-1.5 -24.5q0 -55 35.5 -88t93.5 -33q36 0 68.5 13.5t59 38t44.5 58t25 73.5l51 288h24zM378 586l-11 -15
l-146 101l13 19z" />
    <glyph glyph-name="uacute" unicode="&#xfa;" 
d="M70 0zM411 0h-20l15 101q-29 -52 -80 -82.5t-107 -30.5q-33 0 -60.5 10t-47 29t-30.5 44.5t-11 57.5q0 12 1.5 25t3.5 27l53 300h24l-53 -299q-2 -14 -3.5 -26.5t-1.5 -24.5q0 -55 35.5 -88t93.5 -33q36 0 68.5 13.5t59 38t44.5 58t25 73.5l51 288h24zM302 571l-10 16
l164 103l12 -20z" />
    <glyph glyph-name="ucircumflex" unicode="&#xfb;" 
d="M70 0zM411 0h-20l15 101q-29 -52 -80 -82.5t-107 -30.5q-33 0 -60.5 10t-47 29t-30.5 44.5t-11 57.5q0 12 1.5 25t3.5 27l53 300h24l-53 -299q-2 -14 -3.5 -26.5t-1.5 -24.5q0 -55 35.5 -88t93.5 -33q36 0 68.5 13.5t59 38t44.5 58t25 73.5l51 288h24zM340 705h20
l98 -120l-14 -12l-96 110l-139 -110l-11 15z" />
    <glyph glyph-name="utilde" unicode="&#x169;" 
d="M70 0zM411 0h-20l15 101q-29 -52 -80 -82.5t-107 -30.5q-33 0 -60.5 10t-47 29t-30.5 44.5t-11 57.5q0 12 1.5 25t3.5 27l53 300h24l-53 -299q-2 -14 -3.5 -26.5t-1.5 -24.5q0 -55 35.5 -88t93.5 -33q36 0 68.5 13.5t59 38t44.5 58t25 73.5l51 288h24zM278 670
q18 0 34 -6.5t31 -14t30 -13.5t31 -6q17 0 31 10.5t22 29.5l19 -8q-10 -23 -29 -38t-43 -15q-18 0 -34 6t-31 13.5t-30 14t-31 6.5q-17 0 -30.5 -10.5t-21.5 -29.5l-19 7q9 23 28.5 38.5t42.5 15.5z" />
    <glyph glyph-name="udieresis" unicode="&#xfc;" 
d="M70 0zM411 0h-20l15 101q-29 -52 -80 -82.5t-107 -30.5q-33 0 -60.5 10t-47 29t-30.5 44.5t-11 57.5q0 12 1.5 25t3.5 27l53 300h24l-53 -299q-2 -14 -3.5 -26.5t-1.5 -24.5q0 -55 35.5 -88t93.5 -33q36 0 68.5 13.5t59 38t44.5 58t25 73.5l51 288h24zM413 636
q0 12 8 20.5t20 8.5q10 0 16 -6.5t6 -15.5q0 -12 -8 -20.5t-21 -8.5q-9 0 -15 6t-6 16zM218 636q0 12 8.5 20.5t20.5 8.5q10 0 16 -6.5t6 -15.5q0 -12 -8.5 -20.5t-20.5 -8.5q-9 0 -15.5 6t-6.5 16z" />
    <glyph glyph-name="umacron" unicode="&#x16b;" 
d="M70 0zM411 0h-20l15 101q-29 -52 -80 -82.5t-107 -30.5q-33 0 -60.5 10t-47 29t-30.5 44.5t-11 57.5q0 12 1.5 25t3.5 27l53 300h24l-53 -299q-2 -14 -3.5 -26.5t-1.5 -24.5q0 -55 35.5 -88t93.5 -33q36 0 68.5 13.5t59 38t44.5 58t25 73.5l51 288h24zM206 650h275
l-4 -21h-275z" />
    <glyph glyph-name="ubreve" unicode="&#x16d;" 
d="M70 0zM411 0h-20l15 101q-29 -52 -80 -82.5t-107 -30.5q-33 0 -60.5 10t-47 29t-30.5 44.5t-11 57.5q0 12 1.5 25t3.5 27l53 300h24l-53 -299q-2 -14 -3.5 -26.5t-1.5 -24.5q0 -55 35.5 -88t93.5 -33q36 0 68.5 13.5t59 38t44.5 58t25 73.5l51 288h24zM243 689
q-8 -45 17.5 -73.5t74.5 -28.5q46 0 81 27.5t45 74.5h21q-11 -56 -51 -89.5t-96 -33.5q-52 0 -83.5 27t-31.5 72q0 7 0.5 13t1.5 11h21z" />
    <glyph glyph-name="uring" unicode="&#x16f;" 
d="M70 0zM411 0h-20l15 101q-29 -52 -80 -82.5t-107 -30.5q-33 0 -60.5 10t-47 29t-30.5 44.5t-11 57.5q0 12 1.5 25t3.5 27l53 300h24l-53 -299q-2 -14 -3.5 -26.5t-1.5 -24.5q0 -55 35.5 -88t93.5 -33q36 0 68.5 13.5t59 38t44.5 58t25 73.5l51 288h24zM271 629
q0 -28 16 -44t43 -16q35 0 58 23t23 58q0 27 -16 43t-43 16q-35 0 -58 -23t-23 -57zM251 626q0 44 29.5 73t73.5 29q34 0 55 -21t21 -55q0 -43 -29 -72.5t-73 -29.5q-34 0 -55.5 21.5t-21.5 54.5z" />
    <glyph glyph-name="uhungarumlaut" unicode="&#x171;" 
d="M70 0zM411 0h-20l15 101q-29 -52 -80 -82.5t-107 -30.5q-33 0 -60.5 10t-47 29t-30.5 44.5t-11 57.5q0 12 1.5 25t3.5 27l53 300h24l-53 -299q-2 -14 -3.5 -26.5t-1.5 -24.5q0 -55 35.5 -88t93.5 -33q36 0 68.5 13.5t59 38t44.5 58t25 73.5l51 288h24zM402 569l-12 15
l146 129l14 -17zM238 569l-13 15l146 129l15 -17z" />
    <glyph glyph-name="uogonek" unicode="&#x173;" horiz-adv-x="563" 
d="M411 0q-61 -40 -93.5 -78.5t-32.5 -71.5q0 -21 13 -34t36 -13q13 0 24.5 2.5t22.5 6.5l6 -19q-12 -5 -26.5 -7.5t-29.5 -2.5q-30 0 -49 18.5t-19 47.5q0 38 33.5 79t95.5 80l14 93q-29 -52 -80 -82.5t-107 -30.5q-33 0 -60.5 10t-47 29t-30.5 44.5t-11 57.5q0 12 1.5 25
t3.5 27l53 300h24l-53 -299q-2 -14 -3.5 -26.5t-1.5 -24.5q0 -55 35.5 -88t93.5 -33q36 0 68.5 13.5t59 38t44.5 58t25 73.5l51 288h24z" />
    <glyph glyph-name="wgrave" unicode="&#x1e81;" horiz-adv-x="747" 
d="M88 0zM502 0h-25l-68 445l-223 -445h-25l-73 481h23l68 -446l223 446h25l67 -446l223 446h26zM470 586l-11 -15l-146 101l13 19z" />
    <glyph glyph-name="wacute" unicode="&#x1e83;" horiz-adv-x="747" 
d="M88 0zM502 0h-25l-68 445l-223 -445h-25l-73 481h23l68 -446l223 446h25l67 -446l223 446h26zM394 571l-10 16l164 103l12 -20z" />
    <glyph glyph-name="wcircumflex" unicode="&#x175;" horiz-adv-x="747" 
d="M88 0zM502 0h-25l-68 445l-223 -445h-25l-73 481h23l68 -446l223 446h25l67 -446l223 446h26zM432 705h20l98 -120l-14 -12l-96 110l-139 -110l-11 15z" />
    <glyph glyph-name="wdieresis" unicode="&#x1e85;" horiz-adv-x="747" 
d="M88 0zM502 0h-25l-68 445l-223 -445h-25l-73 481h23l68 -446l223 446h25l67 -446l223 446h26zM505 636q0 12 8 20.5t20 8.5q10 0 16 -6.5t6 -15.5q0 -12 -8 -20.5t-21 -8.5q-9 0 -15 6t-6 16zM310 636q0 12 8.5 20.5t20.5 8.5q10 0 16 -6.5t6 -15.5q0 -12 -8.5 -20.5
t-20.5 -8.5q-9 0 -15.5 6t-6.5 16z" />
    <glyph glyph-name="ygrave" unicode="&#x1ef3;" horiz-adv-x="491" 
d="M0 0zM159 -102q-36 -63 -68.5 -90.5t-74.5 -27.5q-24 0 -54 8l6 22q26 -8 48 -8q34 0 62.5 24.5t60.5 81.5l55 96l-114 477h23l108 -448l258 448h26zM342 586l-11 -15l-146 101l13 19z" />
    <glyph glyph-name="yacute" unicode="&#xfd;" horiz-adv-x="491" 
d="M0 0zM159 -102q-36 -63 -68.5 -90.5t-74.5 -27.5q-24 0 -54 8l6 22q26 -8 48 -8q34 0 62.5 24.5t60.5 81.5l55 96l-114 477h23l108 -448l258 448h26zM266 571l-10 16l164 103l12 -20z" />
    <glyph glyph-name="ycircumflex" unicode="&#x177;" horiz-adv-x="491" 
d="M0 0zM159 -102q-36 -63 -68.5 -90.5t-74.5 -27.5q-24 0 -54 8l6 22q26 -8 48 -8q34 0 62.5 24.5t60.5 81.5l55 96l-114 477h23l108 -448l258 448h26zM304 705h20l98 -120l-14 -12l-96 110l-139 -110l-11 15z" />
    <glyph glyph-name="ydieresis" unicode="&#xff;" horiz-adv-x="491" 
d="M0 0zM159 -102q-36 -63 -68.5 -90.5t-74.5 -27.5q-24 0 -54 8l6 22q26 -8 48 -8q34 0 62.5 24.5t60.5 81.5l55 96l-114 477h23l108 -448l258 448h26zM377 636q0 12 8 20.5t20 8.5q10 0 16 -6.5t6 -15.5q0 -12 -8 -20.5t-21 -8.5q-9 0 -15 6t-6 16zM182 636q0 12 8.5 20.5
t20.5 8.5q10 0 16 -6.5t6 -15.5q0 -12 -8.5 -20.5t-20.5 -8.5q-9 0 -15.5 6t-6.5 16z" />
    <glyph glyph-name="zacute" unicode="&#x17a;" horiz-adv-x="458" 
d="M12 0zM15 16l385 443h-299l4 22h333l-3 -17l-384 -442h315l-4 -22h-350zM258 571l-10 16l164 103l12 -20z" />
    <glyph glyph-name="zcaron" unicode="&#x17e;" horiz-adv-x="458" 
d="M12 0zM15 16l385 443h-299l4 22h333l-3 -17l-384 -442h315l-4 -22h-350zM297 574h-20l-99 119l15 12l95 -109l139 110l12 -15z" />
    <glyph glyph-name="zdotaccent" unicode="&#x17c;" horiz-adv-x="458" 
d="M12 0zM15 16l385 443h-299l4 22h333l-3 -17l-384 -442h315l-4 -22h-350zM271 636q0 12 8.5 20.5t20.5 8.5q10 0 16.5 -6t6.5 -16q0 -13 -8.5 -21t-21.5 -8q-22 0 -22 22z" />
    <glyph glyph-name="apple" unicode="&#xf8ff;" horiz-adv-x="591" 
d="M230 202v65h196v66h-196v195h261v-65h-196v-65h196v-196h-261zM165 594v-529h73v-65h-138v659h391v-65h-326z" />
    <glyph glyph-name=".ttfautohint" horiz-adv-x="591" 
d="M0 0z" />
    </font>
</defs>
</svg>
