<?xml version="1.0" standalone="no"?>
<!DOCTYPE svg PUBLIC "-//W3C//DTD SVG 1.1//EN" "http://www.w3.org/Graphics/SVG/1.1/DTD/svg11.dtd" >
<svg>
<metadata></metadata>
<defs>
<font id="FSElliotWeb-LightItalic" horiz-adv-x="556" >
  <font-face 
    font-family="FS Elliot Web Light"
    font-weight="300"
    font-style="italic"
    font-stretch="normal"
    units-per-em="1000"
    panose-1="2 0 5 3 4 0 0 9 0 4"
    ascent="750"
    descent="-250"
    x-height="483"
    cap-height="672"
    bbox="-210 -282 1182 1008"
    underline-thickness="50"
    underline-position="-50"
    slope="-12"
    unicode-range="U+000D-FB04"
  />
<missing-glyph horiz-adv-x="500" 
d="M28 672h476v-672h-476v672zM266 380l162 244h-324zM76 92l162 244l-162 244v-488zM294 336l162 -244v488zM266 292l-162 -244h324z" />
    <glyph glyph-name="fi" unicode="fi" horiz-adv-x="554" 
d="M171 444h-107l7 39h107l17 97q12 63 57 99.5t113 36.5q35 0 74 -10.5t77 -27.5l-18 -37q-33 15 -66 25t-64 10q-49 0 -83.5 -26.5t-42.5 -71.5l-16 -95h283l-85 -483h-47l77 444h-235l-78 -444h-48z" />
    <glyph glyph-name="fl" unicode="fl" horiz-adv-x="602" 
d="M171 444h-107l7 39h107l17 97q12 64 57 100t114 36q42 0 86.5 -10t92.5 -25l-103 -575q-3 -15 -3 -27q0 -24 15.5 -37t40.5 -13q11 0 22 1.5t20 3.5l4 -39q-14 -3 -29 -5t-29 -2q-42 0 -67 23t-25 61q0 15 3 32l98 548q-30 10 -61.5 17t-63.5 7q-50 0 -83.5 -26.5
t-41.5 -71.5l-16 -95h148l-7 -39h-149l-77 -444h-48z" />
    <glyph glyph-name="f_f" unicode="ff" horiz-adv-x="660" 
d="M171 444h-107l7 39h107l20 115q10 54 47.5 86t91.5 32q42 0 100 -22l-15 -38q-23 9 -43.5 14t-37.5 5q-38 0 -63.5 -22t-32.5 -60l-19 -110h251l21 115q9 54 46.5 86t92.5 32q42 0 100 -22l-15 -38q-23 9 -43.5 14t-37.5 5q-38 0 -63.5 -22t-32.5 -60l-20 -110h149
l-8 -39h-148l-78 -444h-47l77 444h-252l-77 -444h-48z" />
    <glyph glyph-name="f_f_i" unicode="ffi" horiz-adv-x="854" 
d="M171 444h-107l7 39h107l20 115q10 54 47.5 86t91.5 32q42 0 100 -22l-15 -38q-23 9 -43.5 14t-37.5 5q-38 0 -63.5 -22t-32.5 -60l-19 -110h251l18 97q11 63 56.5 99.5t112.5 36.5q36 0 74.5 -10.5t76.5 -27.5l-17 -37q-33 15 -66 25t-65 10q-48 0 -82.5 -26.5
t-42.5 -71.5l-17 -95h284l-85 -483h-48l78 444h-236l-78 -444h-47l77 444h-252l-77 -444h-48z" />
    <glyph glyph-name="f_f_l" unicode="ffl" horiz-adv-x="902" 
d="M171 444h-107l7 39h107l20 115q10 54 47.5 86t91.5 32q42 0 100 -22l-15 -38q-23 9 -43.5 14t-37.5 5q-38 0 -63.5 -22t-32.5 -60l-19 -110h251l18 97q11 64 56 100t115 36q42 0 86 -10t92 -25l-102 -575q-3 -15 -3 -27q0 -24 15.5 -37t40.5 -13q11 0 21.5 1.5t19.5 3.5
l4 -39q-14 -3 -28.5 -5t-28.5 -2q-42 0 -67 23t-25 61q0 15 3 32l97 548q-30 10 -61 17t-63 7q-50 0 -83.5 -26.5t-41.5 -71.5l-17 -95h149l-8 -39h-148l-78 -444h-47l77 444h-252l-77 -444h-48z" />
    <glyph glyph-name=".notdef" horiz-adv-x="500" 
d="M28 672h476v-672h-476v672zM266 380l162 244h-324zM76 92l162 244l-162 244v-488zM294 336l162 -244v488zM266 292l-162 -244h324z" />
    <glyph glyph-name=".null" horiz-adv-x="0" 
 />
    <glyph glyph-name=".null" horiz-adv-x="0" 
 />
    <glyph glyph-name="nonmarkingreturn" unicode="&#xd;" horiz-adv-x="240" 
 />
    <glyph glyph-name="space" unicode=" " horiz-adv-x="240" 
 />
    <glyph glyph-name="nonbreakingspace" unicode="&#xa0;" horiz-adv-x="240" 
 />
    <glyph glyph-name="A" unicode="A" horiz-adv-x="655" 
d="M380 672h47l155 -672h-48l-45 200h-333l-117 -200h-52zM177 239h304l-85 376z" />
    <glyph glyph-name="B" unicode="B" horiz-adv-x="638" 
d="M186 672h240q80 0 124 -41t44 -111q0 -64 -34 -111t-94 -64q45 -14 70.5 -53t25.5 -94q0 -43 -16 -79.5t-45 -62.5t-68.5 -41t-86.5 -15h-278zM123 39h219q37 0 69 12t54.5 33.5t35.5 51t13 65.5q0 56 -33.5 90.5t-99.5 34.5h-208zM179 362h206q36 0 65.5 11t50.5 31.5
t33 48.5t12 62q0 54 -33.5 86t-94.5 32h-192z" />
    <glyph glyph-name="C" unicode="C" horiz-adv-x="635" 
d="M68 257q0 92 26.5 170t74.5 135t115.5 89.5t150.5 32.5q55 0 110 -17.5t103 -51.5l-25 -36q-89 63 -187 63q-72 0 -131 -28.5t-100.5 -79.5t-64 -120.5t-22.5 -151.5q0 -52 17 -95t47.5 -73.5t73 -47t92.5 -16.5q102 0 191 55l18 -35q-50 -31 -105 -46.5t-112 -15.5
q-59 0 -109 19.5t-86 55t-56.5 85t-20.5 109.5z" />
    <glyph glyph-name="D" unicode="D" horiz-adv-x="695" 
d="M186 672h182q139 0 215.5 -71t76.5 -199q0 -90 -28 -164t-78 -127t-120 -82t-154 -29h-212zM610 399q0 111 -64.5 171.5t-185.5 60.5h-133l-103 -590h155q73 0 134 26t104.5 73t68 113t24.5 146z" />
    <glyph glyph-name="E" unicode="E" horiz-adv-x="587" 
d="M186 672h402l-7 -40h-353l-47 -268h321l-7 -40h-321l-50 -284h369l-7 -40h-418z" />
    <glyph glyph-name="F" unicode="F" horiz-adv-x="571" 
d="M186 672h402l-7 -41h-354l-50 -291h321l-7 -41h-322l-52 -299h-49z" />
    <glyph glyph-name="G" unicode="G" horiz-adv-x="679" 
d="M568 34q-51 -23 -103 -34.5t-109 -11.5q-65 0 -118 19.5t-91 55t-58.5 85t-20.5 110.5q0 91 27 169t76 135t117.5 89.5t151.5 32.5q57 0 111.5 -16t108.5 -47l-21 -36q-49 28 -99 43t-99 15q-73 0 -133 -28.5t-102.5 -79.5t-65.5 -121t-23 -152q0 -53 17.5 -96t50 -73.5
t77.5 -47.5t100 -17q46 0 87.5 9t77.5 25l41 233h-172l7 39h218z" />
    <glyph glyph-name="H" unicode="H" horiz-adv-x="735" 
d="M186 672h49l-54 -308h417l54 308h49l-118 -672h-49l57 324h-417l-57 -324h-49z" />
    <glyph glyph-name="I" unicode="I" horiz-adv-x="269" 
d="M186 672h49l-118 -672h-49z" />
    <glyph glyph-name="J" unicode="J" horiz-adv-x="438" 
d="M311 146q-13 -73 -62 -115.5t-121 -42.5q-60 0 -135 29l15 39q32 -12 62 -19t53 -7q56 0 93 33t47 88l91 521h50z" />
    <glyph glyph-name="K" unicode="K" horiz-adv-x="644" 
d="M186 672h47l-64 -367l434 367h62l-367 -312l262 -360h-56l-242 331l-103 -87l-43 -244h-48z" />
    <glyph glyph-name="L" unicode="L" horiz-adv-x="523" 
d="M186 672h49l-111 -631h335l-8 -41h-383z" />
    <glyph glyph-name="M" unicode="M" horiz-adv-x="823" 
d="M186 672h47l188 -358l316 358h52l-118 -672h-46l106 603l-301 -343h-30l-180 343l-106 -603h-46z" />
    <glyph glyph-name="N" unicode="N" horiz-adv-x="735" 
d="M186 672h47l316 -600l106 600h46l-118 -672h-47l-316 600l-106 -600h-46z" />
    <glyph glyph-name="O" unicode="O" horiz-adv-x="735" 
d="M68 257q0 92 27.5 170.5t76 135.5t115.5 89t145 32q59 0 108.5 -19t85 -54.5t55 -85t19.5 -110.5q0 -92 -27.5 -170.5t-76 -135.5t-115 -89t-145.5 -32q-59 0 -108 19t-84.5 54.5t-55.5 85t-20 110.5zM118 261q0 -53 16.5 -96t46 -73t70 -46.5t89.5 -16.5
q67 0 123.5 28.5t98 79.5t65 121t23.5 153q0 53 -16.5 96t-45.5 73t-69.5 46.5t-89.5 16.5q-67 0 -124 -29t-98.5 -80t-65 -121t-23.5 -152z" />
    <glyph glyph-name="P" unicode="P" horiz-adv-x="606" 
d="M186 672h220q88 0 139.5 -49t51.5 -133q0 -49 -18 -90t-50 -71t-76.5 -46.5t-97.5 -16.5h-193l-47 -266h-47zM169 306h183q43 0 79.5 13t62.5 37t40.5 57.5t14.5 73.5q0 67 -41 105.5t-112 38.5h-170z" />
    <glyph glyph-name="Q" unicode="Q" horiz-adv-x="735" 
d="M68 257q0 92 27.5 170.5t76 135.5t115.5 89t145 32q59 0 108.5 -19t85 -54.5t55 -85t19.5 -110.5q0 -66 -14.5 -125.5t-40.5 -109t-63.5 -88t-82.5 -63.5l155 -129l-28 -31l-168 143q-29 -11 -59 -17.5t-63 -6.5q-59 0 -108 19t-84.5 54.5t-55.5 85t-20 110.5zM118 261
q0 -53 16.5 -96t46 -73t70 -46.5t89.5 -16.5q67 0 123.5 28.5t98 79.5t65 121t23.5 153q0 53 -16.5 96t-45.5 73t-69.5 46.5t-89.5 16.5q-67 0 -124 -29t-98.5 -80t-65 -121t-23.5 -152z" />
    <glyph glyph-name="R" unicode="R" horiz-adv-x="638" 
d="M186 672h231q84 0 133 -47t49 -127q0 -45 -15.5 -82.5t-43.5 -65.5t-66.5 -45t-84.5 -20l151 -285h-51l-148 282h-176l-50 -282h-47zM172 322h192q41 0 75 12.5t59 35.5t38.5 55t13.5 70q0 63 -38 99.5t-105 36.5h-181z" />
    <glyph glyph-name="S" unicode="S" horiz-adv-x="566" 
d="M112 501q0 39 16.5 72.5t45.5 58t70 38.5t89 14q53 0 110.5 -13t117.5 -41l-17 -39q-113 52 -210 52q-38 0 -70 -10.5t-55 -29.5t-36 -44.5t-13 -55.5q0 -42 24.5 -68.5t61.5 -45.5t80.5 -35.5t80.5 -38.5t61.5 -55t24.5 -85q0 -42 -16.5 -76t-46.5 -59t-71.5 -38.5
t-90.5 -13.5q-56 0 -119.5 14.5t-124.5 46.5l17 39q59 -29 117 -44t109 -15q39 0 72 10.5t57 29.5t37 45.5t13 58.5q0 43 -24.5 70t-62 46.5t-80.5 36t-80.5 38.5t-62 54t-24.5 83z" />
    <glyph glyph-name="T" unicode="T" horiz-adv-x="587" 
d="M337 631h-240l8 41h528l-7 -41h-240l-110 -631h-50z" />
    <glyph glyph-name="U" unicode="U" horiz-adv-x="735" 
d="M633 241q-10 -59 -36 -105.5t-64.5 -79.5t-88 -50.5t-107.5 -17.5q-53 0 -96.5 15.5t-74.5 44t-48.5 68.5t-17.5 88q0 13 1.5 27.5t3.5 28.5l73 412h49l-72 -412q-3 -14 -4 -27.5t-1 -24.5q0 -41 13.5 -74t38.5 -56t60 -36t78 -13q47 0 88 15t73 43t53.5 68t29.5 89
l76 428h49z" />
    <glyph glyph-name="V" unicode="V" horiz-adv-x="655" 
d="M308 0h-46l-155 672h49l138 -610l354 610h54z" />
    <glyph glyph-name="W" unicode="W" horiz-adv-x="983" 
d="M691 0h-48l-87 607l-291 -607h-48l-98 672h47l86 -607l290 607h47l88 -607l290 607h51z" />
    <glyph glyph-name="X" unicode="X" horiz-adv-x="655" 
d="M317 347l-188 325h53l170 -294l266 294h60l-302 -331l198 -341h-54l-179 310l-281 -310h-60z" />
    <glyph glyph-name="Y" unicode="Y" horiz-adv-x="580" 
d="M275 298l-188 374h53l166 -330l259 330h58l-300 -379l-51 -293h-49z" />
    <glyph glyph-name="Z" unicode="Z" horiz-adv-x="614" 
d="M21 31l525 600h-408l7 41h475l-5 -31l-525 -600h431l-7 -41h-499z" />
    <glyph glyph-name="a" unicode="a" horiz-adv-x="521" 
d="M31 123q0 38 16 68.5t46 51.5t72 32.5t95 11.5q56 0 123 -14l10 58q1 6 2 13t1 15q0 42 -30 69.5t-83 27.5q-72 0 -156 -28l-9 37q93 30 172 30q71 0 112 -37t41 -95q0 -18 -3 -34l-44 -252q-2 -10 -2 -17q0 -16 11.5 -25t30.5 -9q8 0 14.5 1t12.5 3l4 -37q-23 -5 -42 -5
q-33 0 -53.5 18t-20.5 48q0 4 0.5 8.5t1.5 9.5q-65 -84 -173 -84q-68 0 -108.5 37.5t-40.5 97.5zM79 128q0 -47 30 -75t83 -28q33 0 62.5 11.5t53 32.5t39 50.5t21.5 65.5l9 55q-62 15 -115 15q-85 0 -134 -34.5t-49 -92.5z" />
    <glyph glyph-name="b" unicode="b" 
d="M169 704h48l-53 -301q31 45 74.5 68.5t95.5 23.5q39 0 71.5 -13.5t55.5 -38.5t35.5 -60.5t12.5 -78.5q0 -67 -18.5 -125t-51.5 -100.5t-78.5 -66.5t-98.5 -24q-57 0 -98 30t-55 81l-24 -99h-40zM461 300q0 34 -10 62.5t-28.5 49t-44.5 31.5t-57 11q-32 0 -61.5 -11.5
t-53 -32.5t-40 -49.5t-22.5 -62.5l-16 -92q-2 -11 -3 -21t-1 -20q0 -30 10 -55t27.5 -43t41.5 -28t53 -10q44 0 81.5 20.5t65 57t43 86t15.5 107.5z" />
    <glyph glyph-name="c" unicode="c" horiz-adv-x="478" 
d="M46 187q0 65 20 121.5t56 98t85.5 65t108.5 23.5q40 0 79.5 -12t74.5 -36l-24 -35q-62 42 -129 42q-48 0 -89 -20t-70.5 -55.5t-46 -83.5t-16.5 -104q0 -36 11.5 -66t32.5 -51.5t49.5 -33t63.5 -11.5t70 10.5t67 29.5l17 -35q-38 -22 -79 -34t-83 -12q-43 0 -79.5 14.5
t-62.5 40.5t-41 63t-15 81z" />
    <glyph glyph-name="d" unicode="d" 
d="M426 0h-38l9 83q-34 -46 -79 -70.5t-96 -24.5q-39 0 -71.5 13.5t-56 38.5t-36 60.5t-12.5 78.5q0 67 18.5 125t51.5 100.5t78.5 66.5t99.5 24q56 0 97 -29.5t55 -80.5l56 319h48zM95 183q0 -69 38.5 -111.5t101.5 -42.5q32 0 61.5 11.5t53 32.5t39.5 49.5t22 62.5l16 92
q5 23 5 40q0 61 -37 99t-95 38q-44 0 -81.5 -21t-65 -57.5t-43 -86t-15.5 -106.5z" />
    <glyph glyph-name="e" unicode="e" horiz-adv-x="521" 
d="M96 230q-3 -25 -2 -47q2 -70 46 -113.5t115 -43.5q36 0 73 11.5t74 33.5l17 -34q-87 -49 -170 -49q-45 0 -82.5 14.5t-64 40.5t-41.5 63t-15 81q0 66 20 122t54.5 97.5t82 65t102.5 23.5q40 0 72.5 -14t55.5 -39t36 -60t13 -78q0 -17 -1.5 -35.5t-6.5 -38.5h-378z
M301 456q-36 0 -68.5 -14t-59 -39.5t-45 -60.5t-26.5 -78h332q3 21 3 43q-1 68 -37.5 108.5t-98.5 40.5z" />
    <glyph glyph-name="f" unicode="f" horiz-adv-x="361" 
d="M171 444h-107l7 39h107l20 115q10 54 47.5 86t91.5 32q42 0 100 -22l-15 -38q-23 9 -43.5 14t-37.5 5q-38 0 -63.5 -22t-32.5 -60l-19 -110h148l-7 -39h-149l-77 -444h-48z" />
    <glyph glyph-name="g" unicode="g" 
d="M95 183q0 -69 38.5 -111.5t101.5 -42.5q33 0 62.5 11.5t53 32t39 49t21.5 63.5l16 92q5 23 5 40q0 61 -37 99t-95 38q-44 0 -81.5 -21t-65 -57.5t-43 -86t-15.5 -106.5zM420 -36q-16 -88 -78 -136t-153 -48q-39 0 -86 11t-95 34l16 38q44 -21 86 -32t77 -11
q72 0 122.5 37t62.5 107l20 116q-31 -45 -75 -68.5t-95 -23.5q-39 0 -71.5 13.5t-56 38.5t-36 60.5t-12.5 78.5q0 67 18.5 125t51.5 100.5t78.5 66.5t99.5 24q56 0 97.5 -30t55.5 -81l23 99h41z" />
    <glyph glyph-name="h" unicode="h" 
d="M169 704h48l-55 -311q29 48 76.5 75t100.5 27q69 0 111 -39.5t42 -104.5q0 -13 -1.5 -26t-3.5 -27l-53 -298h-48l53 296q5 25 5 46q0 51 -32.5 81.5t-86.5 30.5q-33 0 -63.5 -12.5t-54.5 -35t-41 -53.5t-23 -68l-50 -285h-48z" />
    <glyph glyph-name="i" unicode="i" horiz-adv-x="222" 
d="M130 483h48l-85 -483h-48zM141 632q0 18 12.5 30.5t30.5 12.5q14 0 23 -9.5t9 -23.5q0 -18 -12.5 -30t-30.5 -12q-14 0 -23 9t-9 23z" />
    <glyph glyph-name="j" unicode="j" horiz-adv-x="230" 
d="M83 -102q-10 -54 -47.5 -86t-91.5 -32q-22 0 -47.5 5.5t-52.5 15.5l15 37q23 -8 43.5 -12.5t37.5 -4.5q38 0 63.5 22t32.5 60l102 580h48zM149 632q0 18 12.5 30.5t30.5 12.5q14 0 23 -9.5t9 -23.5q0 -18 -12.5 -30t-30.5 -12q-14 0 -23 9t-9 23z" />
    <glyph glyph-name="k" unicode="k" horiz-adv-x="486" 
d="M169 704h46l-83 -476l295 255h60l-262 -226l184 -257h-54l-164 230l-69 -60l-31 -170h-46z" />
    <glyph glyph-name="l" unicode="l" horiz-adv-x="270" 
d="M111 106q-3 -15 -3 -27q0 -24 15 -37t41 -13q11 0 21.5 1.5t19.5 3.5l4 -39q-14 -3 -28.5 -5t-28.5 -2q-42 0 -67.5 23t-25.5 61q0 15 3 32l107 600h48z" />
    <glyph glyph-name="m" unicode="m" horiz-adv-x="865" 
d="M130 483h37l-10 -90q32 49 76.5 75.5t97.5 26.5q58 0 96 -31.5t45 -82.5q31 54 79.5 84t104.5 30q32 0 59 -10t46.5 -28t30 -43.5t10.5 -55.5q0 -12 -1 -24t-3 -24l-55 -310h-48l54 308q4 19 4 42q0 48 -30.5 76t-80.5 28q-32 0 -60.5 -12.5t-51.5 -34t-39 -51.5t-22 -66
l-51 -290h-48l54 308q4 19 4 42q0 48 -30.5 76t-80.5 28q-32 0 -60.5 -12.5t-51.5 -34t-39 -51.5t-22 -66l-51 -290h-48z" />
    <glyph glyph-name="n" unicode="n" 
d="M130 483h37l-10 -94q30 49 78.5 77.5t103.5 28.5q69 0 111 -39.5t42 -104.5q0 -13 -1.5 -26t-3.5 -27l-53 -298h-48l53 296q5 25 5 46q0 51 -32.5 81.5t-86.5 30.5q-33 0 -63.5 -12.5t-54.5 -35t-41 -53.5t-23 -68l-50 -285h-48z" />
    <glyph glyph-name="o" unicode="o" 
d="M46 187q0 66 20 122.5t56 98t85 64.5t107 23q43 0 79 -14.5t62 -41t40 -63t14 -80.5q0 -66 -20 -122.5t-55.5 -98t-84.5 -64.5t-107 -23q-44 0 -80 14.5t-62 40.5t-40 63t-14 81zM95 190q0 -73 41 -117.5t109 -44.5q47 0 86.5 20t68.5 55.5t45 84t16 105.5
q0 73 -41.5 117.5t-109.5 44.5q-47 0 -86 -20t-68 -55.5t-45 -84t-16 -105.5z" />
    <glyph glyph-name="p" unicode="p" 
d="M130 483h37l-8 -83q33 46 78 70.5t97 24.5q39 0 71.5 -13.5t55.5 -38.5t35.5 -60.5t12.5 -78.5q0 -67 -18.5 -125t-51.5 -100.5t-78.5 -66.5t-98.5 -24q-56 0 -97.5 29.5t-55.5 80.5l-53 -306h-48zM461 300q0 34 -10 62.5t-28.5 49t-44.5 31.5t-57 11q-32 0 -61.5 -11.5
t-53 -32.5t-40 -49.5t-22.5 -62.5l-16 -92q-2 -11 -3 -21t-1 -20q0 -30 10 -55t27.5 -43t41.5 -28t53 -10q44 0 81.5 20.5t65 57t43 86t15.5 107.5z" />
    <glyph glyph-name="q" unicode="q" 
d="M389 -208h-48l51 288q-31 -45 -75 -68.5t-95 -23.5q-39 0 -71.5 13.5t-56 38.5t-36 60.5t-12.5 78.5q0 67 18.5 125t51.5 100.5t78.5 66.5t99.5 24q56 0 97.5 -30t55.5 -81l23 99h41zM95 183q0 -69 38.5 -111.5t101.5 -42.5q33 0 62.5 11.5t53 32t39 49t21.5 63.5l16 92
q5 23 5 40q0 61 -37 99t-95 38q-44 0 -81.5 -21t-65 -57.5t-43 -86t-15.5 -106.5z" />
    <glyph glyph-name="r" unicode="r" horiz-adv-x="372" 
d="M130 483h37l-10 -89q28 47 70 72t93 25q17 0 35.5 -3t35.5 -10l-14 -40q-30 12 -64 12q-66 0 -112 -45t-59 -121l-49 -284h-48z" />
    <glyph glyph-name="s" unicode="s" horiz-adv-x="433" 
d="M77 358q0 29 12 54t33.5 43.5t51 29t65.5 10.5q38 0 80 -10t84 -29l-18 -37q-37 18 -74.5 27.5t-70.5 9.5q-52 0 -84 -27t-32 -69q0 -29 17.5 -46.5t43.5 -31t56.5 -24.5t56.5 -27.5t43.5 -40t17.5 -61.5q0 -31 -12 -57t-34 -44.5t-52.5 -29t-67.5 -10.5q-42 0 -89 11.5
t-91 33.5l18 36q42 -20 83.5 -31t77.5 -11q55 0 87.5 27.5t32.5 72.5q0 30 -17.5 48.5t-43.5 32t-56.5 24.5t-56.5 27t-43.5 39t-17.5 60z" />
    <glyph glyph-name="t" unicode="t" horiz-adv-x="393" 
d="M226 483h164l-7 -39h-165l-54 -311q-2 -8 -3 -16t-1 -16q0 -32 22.5 -52t57.5 -20q34 0 68 7l5 -39q-23 -5 -44 -7t-41 -2q-52 0 -84 29.5t-32 77.5q0 9 1 18t3 18l55 313h-107l7 39h107l25 144h48z" />
    <glyph glyph-name="u" unicode="u" 
d="M426 0h-38l11 94q-30 -49 -79 -77.5t-104 -28.5q-68 0 -110 39.5t-42 104.5q0 13 1.5 26t3.5 27l53 298h48l-53 -296q-2 -12 -3 -23.5t-1 -22.5q0 -51 32 -81.5t86 -30.5q33 0 63 12.5t54 35t41 53.5t23 68l51 285h48z" />
    <glyph glyph-name="v" unicode="v" horiz-adv-x="500" 
d="M230 0h-45l-112 483h47l96 -423l244 423h51z" />
    <glyph glyph-name="w" unicode="w" horiz-adv-x="756" 
d="M516 0h-47l-61 420l-207 -420h-45l-75 483h46l61 -420l207 420h45l62 -420l207 420h50z" />
    <glyph glyph-name="x" unicode="x" horiz-adv-x="500" 
d="M222 250l-135 233h52l117 -204l186 204h56l-218 -238l141 -245h-53l-122 215l-196 -215h-57z" />
    <glyph glyph-name="y" unicode="y" horiz-adv-x="500" 
d="M178 -95q-38 -66 -74 -95.5t-82 -29.5q-29 0 -60 9l11 40q26 -8 48 -8q33 0 60 22.5t57 74.5l49 87l-114 478h47l98 -423l242 423h51z" />
    <glyph glyph-name="z" unicode="z" horiz-adv-x="465" 
d="M13 30l364 414h-284l8 39h348l-5 -30l-364 -414h299l-7 -39h-364z" />
    <glyph glyph-name="ampersand" unicode="&#x26;" horiz-adv-x="617" 
d="M441 97q-51 -54 -109 -81.5t-112 -27.5q-42 0 -76.5 12.5t-58.5 34t-37 52t-13 66.5q0 69 51.5 129t145.5 102q-29 37 -45 72t-16 70q0 34 12.5 63t35 50t53 33t67.5 12q60 0 95 -31.5t35 -85.5q0 -53 -43 -100.5t-134 -92.5l157 -215q26 38 43.5 79t25.5 85h42
q-10 -53 -32.5 -102.5t-54.5 -94.5l93 -126h-53zM81 159q0 -58 38.5 -95t107.5 -37q45 0 96 26.5t96 75.5l-165 225q-82 -36 -127.5 -87t-45.5 -108zM215 527q0 -29 14.5 -60.5t40.5 -64.5q156 73 156 161q0 38 -24 60t-66 22q-26 0 -48.5 -9t-38.5 -24.5t-25 -37.5t-9 -47z
" />
    <glyph glyph-name="at" unicode="@" horiz-adv-x="950" 
d="M51 156q0 114 37.5 211t103.5 168.5t156.5 111.5t197.5 40q82 0 148.5 -24t113 -68t72 -106t25.5 -138q0 -69 -17 -129t-46 -104t-69 -69.5t-86 -25.5q-47 0 -71.5 25t-29.5 57q-27 -39 -66.5 -60.5t-87.5 -21.5q-35 0 -63 11.5t-48.5 33t-31.5 52t-11 67.5q0 58 16 108
t44.5 86.5t68 57t85.5 20.5q48 0 82.5 -24.5t47.5 -67.5l21 82h40l-54 -306q-1 -5 -1.5 -10t-0.5 -10q0 -29 19 -45.5t48 -16.5q35 0 66 22t54 60t36.5 90.5t13.5 112.5q0 69 -22.5 125t-64 95.5t-101 60.5t-133.5 21q-97 0 -179.5 -37t-143 -102t-94.5 -154.5t-34 -195.5
q0 -74 23.5 -134t68 -102.5t107 -65.5t140.5 -23q63 0 127.5 16.5t123.5 48.5l15 -34q-64 -34 -133 -51.5t-136 -17.5q-86 0 -155.5 25.5t-119 73t-76 114t-26.5 147.5zM326 192q0 -59 32.5 -94t84.5 -35q56 0 97 35t51 95l14 81q2 8 3 16.5t1 16.5q0 51 -31 82t-80 31
q-37 0 -68.5 -17.5t-54.5 -48t-36 -72.5t-13 -90z" />
    <glyph glyph-name="exclam" unicode="!" horiz-adv-x="252" 
d="M174 672h49l-87 -471h-40zM48 26q0 19 13 32t32 13q15 0 25 -9.5t10 -24.5q0 -20 -13 -33t-32 -13q-16 0 -25.5 10t-9.5 25z" />
    <glyph glyph-name="exclamdown" unicode="&#xa1;" horiz-adv-x="252" 
d="M71 -189h-50l87 471h41zM197 457q0 -19 -13 -32t-33 -13q-15 0 -24.5 9.5t-9.5 24.5q0 20 13 33t32 13q15 0 25 -10t10 -25z" />
    <glyph glyph-name="question" unicode="?" horiz-adv-x="454" 
d="M179 201l2 15q5 30 23 55.5t42.5 48.5t51.5 45.5t49.5 46t37.5 49.5t15 58q0 56 -34 89.5t-90 33.5q-41 0 -78 -12.5t-78 -36.5l-19 37q88 54 183 54q75 0 120 -43.5t45 -115.5q0 -38 -15.5 -69t-38.5 -57t-51 -48.5t-53.5 -45t-44.5 -45.5t-24 -50l-2 -9h-41zM140 23
q0 19 12 31t30 12q15 0 24 -8.5t9 -23.5q0 -18 -12.5 -30.5t-30.5 -12.5q-15 0 -23.5 9t-8.5 23z" />
    <glyph glyph-name="questiondown" unicode="&#xbf;" horiz-adv-x="390" 
d="M267 282l-3 -15q-5 -30 -23 -55.5t-42.5 -49t-51.5 -45.5t-49.5 -45.5t-37.5 -50t-15 -57.5q0 -56 34.5 -89.5t90.5 -33.5q40 0 77.5 12t78.5 37l18 -37q-87 -54 -182 -54q-75 0 -120.5 43.5t-45.5 115.5q0 38 15.5 69t38.5 57t51 48.5t53.5 45t44.5 45.5t25 50l2 9h41z
M306 459q0 -18 -12.5 -30.5t-30.5 -12.5q-15 0 -23.5 9t-8.5 24q0 18 12.5 30.5t30.5 12.5q15 0 23.5 -9t8.5 -24z" />
    <glyph glyph-name="asterisk" unicode="*" horiz-adv-x="486" 
d="M309 456l53 -164l-34 -11l-54 165l-140 -102l-21 29l141 101l-141 102l21 29l140 -102l54 165l34 -11l-53 -165h173v-36h-173z" />
    <glyph glyph-name="period" unicode="." horiz-adv-x="236" 
d="M40 26q0 19 13 32t32 13q15 0 25 -9.5t10 -24.5q0 -20 -13 -33t-32 -13q-16 0 -25.5 10t-9.5 25z" />
    <glyph glyph-name="comma" unicode="," horiz-adv-x="236" 
d="M40 26q0 19 13 32t32 13q18 0 28 -12.5t10 -33.5q0 -51 -33.5 -102t-93.5 -83l-15 23q88 56 97 131q-16 -2 -27 7t-11 25z" />
    <glyph glyph-name="colon" unicode=":" horiz-adv-x="252" 
d="M48 0zM48 26q0 19 13 32t32 13q15 0 25 -9.5t10 -24.5q0 -20 -13 -33t-32 -13q-16 0 -25.5 10t-9.5 25zM124 446q0 19 13 32t32 13q15 0 25 -9.5t10 -24.5q0 -20 -13 -33t-32 -13q-16 0 -25.5 10t-9.5 25z" />
    <glyph glyph-name="semicolon" unicode=";" horiz-adv-x="252" 
d="M0 0zM48 26q0 19 13 32t32 13q18 0 28 -12.5t10 -33.5q0 -51 -33.5 -102t-93.5 -83l-15 23q88 56 97 131q-16 -2 -27 7t-11 25zM124 446q0 19 13 32t32 13q15 0 25 -9.5t10 -24.5q0 -20 -13 -33t-32 -13q-16 0 -25.5 10t-9.5 25z" />
    <glyph glyph-name="ellipsis" unicode="&#x2026;" horiz-adv-x="960" 
d="M83 0zM83 26q0 19 13 32t32 13q15 0 25 -9.5t10 -24.5q0 -20 -13 -33t-32 -13q-16 0 -25.5 10t-9.5 25zM403 26q0 19 13 32t32 13q15 0 25 -9.5t10 -24.5q0 -20 -13 -33t-32 -13q-16 0 -25.5 10t-9.5 25zM723 26q0 19 13 32t32 13q15 0 25 -9.5t10 -24.5q0 -20 -13 -33
t-32 -13q-16 0 -25.5 10t-9.5 25z" />
    <glyph glyph-name="periodcentered" unicode="&#xb7;" horiz-adv-x="236" 
d="M78 207zM78 242q0 19 13 32t32 13q15 0 25 -9.5t10 -24.5q0 -20 -13 -33t-32 -13q-16 0 -25.5 10t-9.5 25z" />
    <glyph glyph-name="uni22C5" unicode="&#x22c5;" horiz-adv-x="236" 
d="M78 207zM78 242q0 19 13 32t32 13q15 0 25 -9.5t10 -24.5q0 -20 -13 -33t-32 -13q-16 0 -25.5 10t-9.5 25z" />
    <glyph glyph-name="bullet" unicode="&#x2022;" horiz-adv-x="480" 
d="M104 288q0 30 11 56t30.5 45.5t46 31t56.5 11.5t56 -11.5t45.5 -31t31 -45.5t11.5 -56t-11.5 -56.5t-31 -46t-45.5 -30.5t-56 -11t-56.5 11t-46 30.5t-30.5 46t-11 56.5z" />
    <glyph glyph-name="slash" unicode="/" horiz-adv-x="384" 
d="M402 713l36 -15l-448 -835l-36 15z" />
    <glyph glyph-name="parenleft" unicode="(" horiz-adv-x="329" 
d="M89 207q4 149 66.5 281t177.5 234l31 -26q-107 -95 -166 -221.5t-64 -267.5q-3 -94 19.5 -177t70.5 -151l-36 -23q-52 74 -76.5 162.5t-22.5 188.5z" />
    <glyph glyph-name="brokenbar" unicode="&#xa6;" horiz-adv-x="240" 
d="M141 688v-384h-42v384h42zM99 -176v384h42v-384h-42z" />
    <glyph glyph-name="parenright" unicode=")" horiz-adv-x="329" 
d="M257 372q-4 -150 -66.5 -282t-176.5 -234l-32 27q107 94 166 220.5t64 267.5q3 94 -19.5 177t-70.5 151l36 23q52 -73 76.5 -161.5t22.5 -188.5z" />
    <glyph glyph-name="bracketleft" unicode="[" horiz-adv-x="329" 
d="M199 707h170l-8 -41h-125l-132 -756h125l-7 -41h-170z" />
    <glyph glyph-name="backslash" unicode="\" horiz-adv-x="384" 
d="M102 702l41 7l154 -835l-41 -7z" />
    <glyph glyph-name="bracketright" unicode="]" horiz-adv-x="329" 
d="M147 -131h-170l7 41h126l132 756h-125l7 41h170z" />
    <glyph glyph-name="braceleft" unicode="{" horiz-adv-x="329" 
d="M51 308h14q40 0 70 21.5t38 63.5q4 21 4.5 46t0.5 51.5t0.5 52t5.5 47.5q10 54 51.5 85.5t101.5 31.5h31l-7 -41h-22q-42 0 -73 -22.5t-39 -64.5q-4 -20 -5 -44t-1 -49.5v-50.5t-3 -46q-7 -44 -32 -68t-61 -35q57 -23 57 -94q0 -26 -8 -52.5t-17 -52t-17 -51t-8 -50.5
q0 -34 21.5 -55t62.5 -21h12l-7 -41h-15q-57 0 -89.5 30t-32.5 77q0 27 8.5 53.5t18 52.5t18 52t8.5 53q0 35 -21 58t-54 23h-18z" />
    <glyph glyph-name="bar" unicode="|" horiz-adv-x="240" 
d="M99 736h42v-960h-42v960z" />
    <glyph glyph-name="braceright" unicode="}" horiz-adv-x="329" 
d="M294 268h-14q-40 0 -70 -21.5t-38 -63.5q-4 -21 -4.5 -46t-0.5 -51.5t-1 -52t-5 -47.5q-10 -54 -51.5 -85.5t-101.5 -31.5h-32l8 41h22q42 0 72.5 22.5t39.5 64.5q4 19 5 43.5t1 50v50.5t3 46q7 44 32 68t60 35q-56 23 -56 94q0 26 8 52.5t17 52t17 51t8 50.5
q0 34 -21.5 55t-62.5 21h-12l7 41h15q57 0 89.5 -30t32.5 -77q0 -27 -8.5 -53.5t-18 -52.5t-18 -52t-8.5 -53q0 -35 21 -58t54 -23h18z" />
    <glyph glyph-name="hyphen" unicode="-" horiz-adv-x="320" 
d="M34 267h262l-7 -39h-262z" />
    <glyph glyph-name="uni00AD" unicode="&#xad;" horiz-adv-x="320" 
d="M27 228zM34 267h262l-7 -39h-262z" />
    <glyph glyph-name="endash" unicode="&#x2013;" horiz-adv-x="480" 
d="M34 267h422l-7 -39h-422z" />
    <glyph glyph-name="emdash" unicode="&#x2014;" horiz-adv-x="960" 
d="M34 267h902l-7 -39h-902z" />
    <glyph glyph-name="underscore" unicode="_" horiz-adv-x="480" 
d="M-61 -108h480l-8 -40h-480z" />
    <glyph glyph-name="dagger" unicode="&#x2020;" horiz-adv-x="486" 
d="M261 455h-178l7 39h178l31 178h39l-31 -178h178l-7 -39h-178l-80 -455h-39z" />
    <glyph glyph-name="daggerdbl" unicode="&#x2021;" horiz-adv-x="486" 
d="M212 178h-178l7 39h178l42 238h-178l7 39h178l31 178h39l-31 -178h178l-7 -39h-178l-42 -238h178l-7 -39h-178l-31 -178h-39z" />
    <glyph glyph-name="section" unicode="&#xa7;" horiz-adv-x="513" 
d="M7 -81q103 -50 192 -50q67 0 109 33.5t42 88.5q0 36 -21 58.5t-53 39t-68.5 30.5t-68.5 33t-53 46.5t-21 71.5q0 53 32 92t86 55q-26 18 -41 43t-15 63q0 34 14.5 63.5t40 51.5t61 34t77.5 12q46 0 96.5 -11t102.5 -35l-18 -39q-48 23 -93.5 33.5t-86.5 10.5
q-32 0 -59 -9t-46 -25t-29.5 -37.5t-10.5 -46.5q0 -35 21 -57t52.5 -38t68.5 -29.5t68.5 -33t52.5 -48t21 -73.5q0 -54 -31 -93t-83 -56q23 -18 37.5 -43.5t14.5 -60.5q0 -36 -14.5 -66.5t-40.5 -52.5t-62.5 -34t-79.5 -12q-48 0 -103 13t-108 40zM114 274q0 -35 18.5 -57
t47 -37.5t62.5 -28t64 -28.5q48 11 76.5 42.5t28.5 76.5q0 35 -18 57t-45.5 38t-60 28t-62.5 27q-51 -9 -81 -41.5t-30 -76.5z" />
    <glyph glyph-name="paragraph" unicode="&#xb6;" horiz-adv-x="564" 
d="M278 274q-89 0 -140.5 47t-51.5 128q0 47 19 88t52.5 71t79 47t97.5 17h195l-146 -832h-43l140 790h-109l-63 -356h-30z" />
    <glyph glyph-name="registered" unicode="&#xae;" horiz-adv-x="832" 
d="M64 336q0 81 27 148.5t76 116.5t116.5 76t148.5 27t148.5 -27t116.5 -76t76 -116.5t27 -148.5t-27 -148.5t-76 -116.5t-116.5 -76t-148.5 -27t-148.5 27t-116.5 76t-76 116.5t-27 148.5zM94 336q0 -74 25 -136t70 -107t107 -70t136 -25t136 25t107 70t70 107t25 136
t-25 136t-70 107t-107 70t-136 25t-136 -25t-107 -70t-70 -107t-25 -136zM302 544h153q28 0 52.5 -9t42 -25t27.5 -38.5t10 -49.5q0 -49 -30 -81.5t-78 -37.5l122 -175h-44l-115 171h-103v-171h-37v416zM339 330h112q44 0 71 24.5t27 66.5q0 41 -27 66t-71 25h-112v-182z
" />
    <glyph glyph-name="copyright" unicode="&#xa9;" horiz-adv-x="832" 
d="M64 336q0 81 27 148.5t76 116.5t116.5 76t148.5 27t148.5 -27t116.5 -76t76 -116.5t27 -148.5t-27 -148.5t-76 -116.5t-116.5 -76t-148.5 -27t-148.5 27t-116.5 76t-76 116.5t-27 148.5zM94 336q0 -74 25 -136t70 -107t107 -70t136 -25t136 25t107 70t70 107t25 136
t-25 136t-70 107t-107 70t-136 25t-136 -25t-107 -70t-70 -107t-25 -136zM242 336q0 48 14.5 87.5t41.5 68t64 44.5t82 16q34 0 69 -11t68 -34l-19 -28q-54 39 -114 39q-37 0 -67.5 -13.5t-52.5 -37.5t-34 -57.5t-12 -73.5q0 -41 12 -74.5t34 -57.5t52.5 -37t67.5 -13
q60 0 114 39l19 -28q-33 -23 -68 -34t-69 -11q-45 0 -82 16t-64 44.5t-41.5 68t-14.5 87.5z" />
    <glyph glyph-name="trademark" unicode="&#x2122;" horiz-adv-x="935" 
d="M215 639h-149v33h337v-33h-149v-383h-39v383zM505 672h39l158 -214l158 214h39v-416h-36v362l-149 -202h-24l-149 202v-362h-36v416z" />
    <glyph glyph-name="quotedblleft" unicode="&#x201c;" horiz-adv-x="413" 
d="M120 451zM203 496q0 -19 -13 -32t-32 -13q-18 0 -28 12.5t-10 34.5q0 51 33.5 101.5t93.5 82.5l15 -23q-88 -56 -97 -131q16 2 27 -6.5t11 -25.5zM380 496q0 -19 -13 -32t-32 -13q-18 0 -28 12.5t-10 34.5q0 51 33.5 101.5t93.5 82.5l15 -23q-88 -56 -97 -131
q16 2 27 -6.5t11 -25.5z" />
    <glyph glyph-name="quotedblright" unicode="&#x201d;" horiz-adv-x="413" 
d="M88 450zM147 636q0 19 13 32t32 13q18 0 28 -12.5t10 -33.5q0 -51 -33.5 -102t-93.5 -83l-15 23q88 56 97 131q-16 -2 -27 7t-11 25zM324 636q0 19 13 32t32 13q18 0 28 -12.5t10 -33.5q0 -51 -33.5 -102t-93.5 -83l-15 23q88 56 97 131q-16 -2 -27 7t-11 25z" />
    <glyph glyph-name="quoteleft" unicode="&#x2018;" horiz-adv-x="236" 
d="M203 496q0 -19 -13 -32t-32 -13q-18 0 -28 12.5t-10 34.5q0 51 33.5 101.5t93.5 82.5l15 -23q-88 -56 -97 -131q16 2 27 -6.5t11 -25.5z" />
    <glyph glyph-name="quoteright" unicode="&#x2019;" horiz-adv-x="236" 
d="M88 450zM147 636q0 19 13 32t32 13q18 0 28 -12.5t10 -33.5q0 -51 -33.5 -102t-93.5 -83l-15 23q88 56 97 131q-16 -2 -27 7t-11 25z" />
    <glyph glyph-name="guillemotleft" unicode="&#xab;" horiz-adv-x="509" 
d="M29 16zM34 262l235 218l26 -27l-216 -209l141 -207l-32 -21l-159 219zM243 262l235 218l26 -27l-216 -209l141 -207l-32 -21l-159 219z" />
    <glyph glyph-name="guillemotright" unicode="&#xbb;" horiz-adv-x="509" 
d="M7 15zM268 233l-235 -218l-26 26l216 210l-142 207l32 21l159 -219zM477 233l-235 -218l-26 26l216 210l-142 207l32 21l159 -219z" />
    <glyph glyph-name="guilsinglleft" unicode="&#x2039;" horiz-adv-x="300" 
d="M34 262l235 218l26 -27l-216 -209l141 -207l-32 -21l-159 219z" />
    <glyph glyph-name="guilsinglright" unicode="&#x203a;" horiz-adv-x="300" 
d="M268 233l-235 -218l-26 26l216 210l-142 207l32 21l159 -219z" />
    <glyph glyph-name="quotesinglbase" unicode="&#x201a;" horiz-adv-x="236" 
d="M0 0zM40 26q0 19 13 32t32 13q18 0 28 -12.5t10 -33.5q0 -51 -33.5 -102t-93.5 -83l-15 23q88 56 97 131q-16 -2 -27 7t-11 25z" />
    <glyph glyph-name="quotedblbase" unicode="&#x201e;" horiz-adv-x="413" 
d="M0 0zM40 26q0 19 13 32t32 13q18 0 28 -12.5t10 -33.5q0 -51 -33.5 -102t-93.5 -83l-15 23q88 56 97 131q-16 -2 -27 7t-11 25zM217 26q0 19 13 32t32 13q18 0 28 -12.5t10 -33.5q0 -51 -33.5 -102t-93.5 -83l-15 23q88 56 97 131q-16 -2 -27 7t-11 25z" />
    <glyph glyph-name="ordfeminine" unicode="&#xaa;" horiz-adv-x="367" 
d="M38 270h311l-6 -31h-311zM79 434q0 51 41 80.5t111 29.5q19 0 39.5 -2.5t42.5 -6.5l6 36q1 5 1.5 9.5t0.5 9.5q0 26 -20 43.5t-55 17.5q-23 0 -48.5 -4.5t-53.5 -14.5l-8 29q59 20 116 20q49 0 77.5 -23.5t28.5 -63.5q0 -5 -0.5 -11.5t-1.5 -12.5l-29 -163q-1 -3 -1 -10
q0 -22 26 -22q8 0 18 2l2 -30q-14 -3 -28 -3q-24 0 -38.5 13t-14.5 36v4q-20 -27 -48.5 -40t-63.5 -13q-45 0 -72.5 25.5t-27.5 64.5zM117 437q0 -28 19 -45.5t52 -17.5q50 0 78 31t37 80l5 24q-21 5 -39 6.5t-35 1.5q-54 0 -85.5 -21.5t-31.5 -58.5z" />
    <glyph glyph-name="ordmasculine" unicode="&#xba;" horiz-adv-x="391" 
d="M54 270h301l-5 -31h-302zM87 477q0 44 13.5 81.5t37.5 64.5t57 42.5t72 15.5q60 0 96.5 -36t36.5 -96q0 -44 -13.5 -81.5t-37.5 -65t-57 -43t-72 -15.5q-60 0 -96.5 36.5t-36.5 96.5zM223 376q30 0 55 13t43.5 35.5t28.5 53.5t10 68q0 46 -26 75t-70 29q-30 0 -55 -13
t-43.5 -35.5t-28.5 -54t-10 -67.5q0 -47 26 -75.5t70 -28.5z" />
    <glyph glyph-name="arrowleft" unicode="&#x2190;" horiz-adv-x="960" 
d="M122 266l263 -259l-33 -32l-313 313l313 313l33 -32l-263 -259h813v-44h-813z" />
    <glyph glyph-name="arrowup" unicode="&#x2191;" horiz-adv-x="960" 
d="M466 654l-259 -264l-32 33l313 313l313 -313l-32 -33l-259 264v-814h-44v814z" />
    <glyph glyph-name="arrowright" unicode="&#x2192;" horiz-adv-x="960" 
d="M854 310l-264 259l33 32l313 -313l-313 -313l-33 32l264 259h-814v44h814z" />
    <glyph glyph-name="arrowdown" unicode="&#x2193;" horiz-adv-x="960" 
d="M510 -78l259 264l32 -33l-313 -313l-313 313l32 33l259 -264v814h44v-814z" />
    <glyph glyph-name="zero" unicode="0" horiz-adv-x="576" 
d="M58 232q0 95 22 177.5t62 143.5t94 96t119 35q97 0 146.5 -64.5t49.5 -179.5q0 -95 -22 -177.5t-61.5 -143.5t-94 -96t-119.5 -35q-97 0 -146.5 64.5t-49.5 179.5zM104 234q0 -97 38 -151t115 -54q54 0 99.5 31.5t79 87t52 130t18.5 160.5q0 97 -38.5 151t-115.5 54
q-54 0 -99.5 -31.5t-78.5 -87t-51.5 -130t-18.5 -160.5z" />
    <glyph glyph-name="one" unicode="1" horiz-adv-x="576" 
d="M385 621l-203 -108l-17 36l234 123h43l-118 -672h-48z" />
    <glyph glyph-name="two" unicode="2" horiz-adv-x="576" 
d="M23 34l328 275q57 48 88 97t31 96q0 65 -38 102.5t-107 37.5q-40 0 -82 -13t-90 -39l-17 37q106 57 200 57q85 0 133.5 -47.5t48.5 -128.5q0 -55 -33.5 -112t-97.5 -110l-294 -245h351l-7 -41h-420z" />
    <glyph glyph-name="three" unicode="3" horiz-adv-x="576" 
d="M222 363h38q44 0 81.5 11.5t64.5 32.5t42.5 49.5t15.5 62.5q0 57 -38 90.5t-99 33.5q-39 0 -80.5 -8t-87.5 -26l-13 38q102 37 191 37q39 0 71.5 -11.5t55.5 -32.5t35.5 -50t12.5 -65t-13 -66.5t-35.5 -54t-52.5 -39.5t-64 -23q57 -12 89 -53.5t32 -101.5
q0 -42 -17.5 -78.5t-48 -63.5t-72 -42t-89.5 -15q-51 0 -105 14.5t-108 42.5l20 37q101 -53 191 -53q38 0 71 12t57 33.5t38 50.5t14 63q0 63 -45.5 100t-125.5 37h-33z" />
    <glyph glyph-name="four" unicode="4" horiz-adv-x="576" 
d="M358 167h-335l6 37l418 468h45l-83 -466h112l-7 -39h-111l-29 -167h-45zM365 206l70 399l-355 -399h285z" />
    <glyph glyph-name="five" unicode="5" horiz-adv-x="576" 
d="M538 631h-313l-42 -242q45 6 92 6q98 0 154 -49t56 -134q0 -48 -19 -89t-52 -71t-78 -47t-98 -17q-52 0 -103 17.5t-97 47.5l22 37q42 -29 87.5 -45t90.5 -16q43 0 79.5 14t63.5 38t42 57t15 72q0 69 -47 108.5t-131 39.5q-30 0 -61 -2.5t-67 -8.5l56 325h357z" />
    <glyph glyph-name="six" unicode="6" horiz-adv-x="576" 
d="M76 220q0 98 25 182.5t68.5 147t103 98.5t128.5 36q80 0 160 -46l-20 -36q-34 20 -69 31t-73 11q-51 0 -96.5 -25t-81.5 -70t-60.5 -108.5t-32.5 -141.5q33 59 87 91.5t123 32.5q40 0 73.5 -13.5t58 -38t38 -59t13.5 -76.5q0 -52 -19 -97t-52 -78.5t-77 -53t-94 -19.5
q-97 0 -150 60.5t-53 171.5zM124 197q0 -38 11 -69t32 -53.5t50 -34.5t64 -12q40 0 75.5 16t62 43.5t41.5 64.5t15 80q0 70 -41 110.5t-107 40.5q-42 0 -79 -15t-64.5 -40.5t-43.5 -59.5t-16 -71z" />
    <glyph glyph-name="seven" unicode="7" horiz-adv-x="576" 
d="M495 631h-354l7 41h408l-6 -36l-386 -636h-54z" />
    <glyph glyph-name="eight" unicode="8" horiz-adv-x="576" 
d="M309 363q90 11 139.5 53.5t49.5 106.5q0 56 -39.5 89t-107.5 33q-39 0 -72 -11.5t-57 -31.5t-37.5 -47.5t-13.5 -58.5q0 -51 36 -86t102 -47zM48 152q0 72 51 122.5t147 71.5q-57 14 -89 55t-32 95q0 40 17 74.5t47.5 59.5t72.5 39.5t92 14.5q43 0 78.5 -11t60.5 -31.5
t38.5 -49.5t13.5 -64q0 -70 -47.5 -119.5t-132.5 -66.5q66 -19 101 -60t35 -98q0 -42 -18.5 -78t-51 -62t-77.5 -41t-98 -15q-97 0 -152.5 44t-55.5 120zM302 325q-97 -14 -151 -58t-54 -110q-1 -60 42.5 -95t119.5 -35q42 0 77.5 12t61.5 33t40.5 50t14.5 62
q0 109 -151 141z" />
    <glyph glyph-name="nine" unicode="9" horiz-adv-x="576" 
d="M538 452q0 -98 -25 -182.5t-68.5 -147t-103 -98.5t-128.5 -36q-80 0 -160 46l20 36q34 -20 69 -31t73 -11q51 0 96.5 25t81.5 70t60.5 108.5t32.5 141.5q-33 -59 -87.5 -91.5t-123.5 -32.5q-40 0 -73.5 13.5t-57.5 38t-37.5 59t-13.5 76.5q0 52 19 97t51.5 78.5t76.5 53
t95 19.5q97 0 150 -60.5t53 -171.5zM490 475q0 38 -11 69t-32 53.5t-50 34.5t-64 12q-41 0 -76 -16t-61.5 -43.5t-41.5 -64.5t-15 -80q0 -70 40.5 -110.5t106.5 -40.5q43 0 80 15t64.5 40.5t43.5 59t16 71.5z" />
    <glyph glyph-name="dollar" unicode="$" horiz-adv-x="576" 
d="M231 38q-40 5 -82.5 17.5t-83.5 33.5l17 38q51 -26 99.5 -38t92.5 -12q33 0 60.5 8.5t48 24.5t31.5 38.5t11 50.5q0 36 -21 58.5t-53 38.5t-68.5 29.5t-68.5 32t-53 46t-21 71.5q0 36 14.5 65t40.5 49.5t62 32t79 13.5l30 165h42l-30 -167q76 -6 154 -43l-17 -38
q-49 23 -94.5 33t-86.5 10q-32 0 -59 -9t-46 -25t-29.5 -37.5t-10.5 -46.5q0 -35 21 -57t52.5 -37.5t68.5 -29t68.5 -32.5t52.5 -47t21 -73q0 -38 -15 -68t-41.5 -51t-63.5 -32.5t-80 -12.5l-29 -165h-42z" />
    <glyph glyph-name="cent" unicode="&#xa2;" horiz-adv-x="576" 
d="M106 281q0 64 18.5 119t52.5 95.5t80 65t102 26.5l27 149h42l-26 -149q33 -3 65 -14.5t61 -31.5l-23 -34q-62 42 -129 42q-48 0 -88.5 -20.5t-70.5 -56t-46.5 -83.5t-16.5 -104q0 -36 11.5 -65.5t32.5 -51t49.5 -33.5t63.5 -12q36 0 70.5 10.5t66.5 29.5l18 -34
q-74 -43 -154 -46l-25 -147h-42l26 150q-36 4 -66.5 20.5t-52.5 42t-34 59t-12 73.5z" />
    <glyph glyph-name="Euro" unicode="&#x20ac;" horiz-adv-x="576" 
d="M45 289h73q2 59 15 110h-69l6 34h72q18 57 47.5 103t68.5 79t86.5 51t101.5 18q44 0 88 -13.5t85 -39.5l-21 -35q-72 48 -152 48q-45 0 -84.5 -15t-72 -42.5t-57.5 -66.5t-41 -87h275l-6 -34h-281q-14 -53 -14 -110h276l-6 -34h-269q4 -107 55.5 -167t135.5 -60
q77 0 143 33l15 -36q-37 -19 -78.5 -28t-86.5 -9q-51 0 -92.5 18.5t-72 53t-48 84t-19.5 111.5h-79z" />
    <glyph glyph-name="florin" unicode="&#x192;" horiz-adv-x="576" 
d="M183 422h105l27 157q9 49 43 77t83 28q40 0 92 -19l-15 -38q-38 16 -70 16q-33 0 -56 -18.5t-28 -50.5l-27 -152h133l-8 -39h-132l-51 -290q-8 -49 -42.5 -77t-82.5 -28q-20 0 -44 5t-48 14l14 38q40 -16 71 -16q33 0 56 18.5t28 50.5l50 285h-105z" />
    <glyph glyph-name="sterling" unicode="&#xa3;" horiz-adv-x="576" 
d="M39 40h106l51 284h-90l7 40h90l28 162q13 73 64.5 115.5t127.5 42.5q38 0 76.5 -11.5t78.5 -29.5l-19 -37q-34 16 -67.5 26.5t-65.5 10.5q-58 0 -97 -32.5t-49 -88.5l-28 -158h198l-7 -40h-198l-50 -284h288l-8 -40h-443z" />
    <glyph glyph-name="yen" unicode="&#xa5;" horiz-adv-x="576" 
d="M325 315l-19 -111h173l-6 -36h-173l-30 -168h-49l29 168h-173l7 36h173l19 111h-173l6 36h163l-162 321h53l146 -301l238 301h57l-260 -321h161l-7 -36h-173z" />
    <glyph glyph-name="numbersign" unicode="#" horiz-adv-x="646" 
d="M14 233h144l76 206h-137l7 39h144l73 199l38 -7l-70 -192h206l72 199l38 -7l-70 -192h137l-7 -39h-144l-76 -206h137l-7 -39h-144l-73 -199l-38 7l70 192h-206l-73 -199l-38 7l71 192h-137zM198 233h207l75 206h-206z" />
    <glyph glyph-name="percent" unicode="%" horiz-adv-x="864" 
d="M479 129q0 47 14 87t39 69.5t60 46t76 16.5q62 0 99.5 -39t37.5 -102q0 -47 -14 -87.5t-39 -69.5t-59.5 -45.5t-75.5 -16.5q-31 0 -56.5 10t-43.5 29t-28 44.5t-10 57.5zM518 131q0 -50 27.5 -80t73.5 -30q32 0 59 14t47 38.5t31 58t11 73.5q0 50 -28 80t-73 30
q-32 0 -59.5 -14t-47 -38.5t-30.5 -58t-11 -73.5zM747 685l25 -24l-622 -674l-24 24zM92 465q0 47 14 87t39 69.5t60 46t76 16.5q62 0 99.5 -39t37.5 -102q0 -47 -14 -87.5t-39 -69.5t-60 -45.5t-76 -16.5q-61 0 -99 39t-38 102zM131 467q0 -50 27.5 -80t73.5 -30
q32 0 59 14t47 38.5t31 58t11 73.5q0 50 -28 80t-73 30q-32 0 -59.5 -14t-47 -38.5t-30.5 -58t-11 -73.5z" />
    <glyph glyph-name="perthousand" unicode="&#x2030;" horiz-adv-x="1241" 
d="M856 129q0 47 14 87t39 69.5t60 46t76 16.5q61 0 99 -39t38 -102q0 -47 -14 -87.5t-39 -69.5t-60 -45.5t-76 -16.5q-62 0 -99.5 39t-37.5 102zM995 21q32 0 59.5 14t47 38.5t30.5 58t11 73.5q0 50 -27.5 80t-73.5 30q-32 0 -59 -14t-47 -38.5t-31 -58t-11 -73.5
q0 -50 28 -80t73 -30zM479 129q0 47 14 87t39 69.5t60 46t76 16.5q62 0 99.5 -39t37.5 -102q0 -47 -14 -87.5t-39 -69.5t-59.5 -45.5t-75.5 -16.5q-31 0 -56.5 10t-43.5 29t-28 44.5t-10 57.5zM619 21q32 0 59 14t47 38.5t31 58t11 73.5q0 50 -28 80t-73 30q-32 0 -59.5 -14
t-47 -38.5t-30.5 -58t-11 -73.5q0 -50 27.5 -80t73.5 -30zM747 685l25 -24l-622 -674l-24 24zM92 465q0 47 14 87t39 69.5t60 46t76 16.5q62 0 99.5 -39t37.5 -102q0 -47 -14 -87.5t-39 -69.5t-60 -45.5t-76 -16.5q-61 0 -99 39t-38 102zM232 357q32 0 59 14t47 38.5t31 58
t11 73.5q0 50 -28 80t-73 30q-32 0 -59.5 -14t-47 -38.5t-30.5 -58t-11 -73.5q0 -50 27.5 -80t73.5 -30z" />
    <glyph glyph-name="plus" unicode="+" horiz-adv-x="576" 
d="M53 309h222v222h42v-222h222v-42h-222v-222h-42v222h-222v42z" />
    <glyph glyph-name="minus" unicode="&#x2212;" horiz-adv-x="576" 
d="M53 309h486v-42h-486v42z" />
    <glyph glyph-name="multiply" unicode="&#xd7;" horiz-adv-x="576" 
d="M77 99l189 189l-189 189l30 29l189 -189l188 189l30 -29l-189 -189l189 -189l-30 -29l-188 189l-189 -189z" />
    <glyph glyph-name="less" unicode="&#x3c;" horiz-adv-x="576" 
d="M53 309l473 215l17 -40l-433 -196l433 -196l-17 -40l-473 215v42z" />
    <glyph glyph-name="divide" unicode="&#xf7;" horiz-adv-x="576" 
d="M66 308h459v-40h-459v40zM264 480q0 14 8.5 23t23.5 9q14 0 23 -8.5t9 -23.5q0 -14 -9 -23t-23 -9q-15 0 -23.5 9t-8.5 23zM264 96q0 14 8.5 23t23.5 9q14 0 23 -9t9 -23t-9 -23t-23 -9q-15 0 -23.5 9t-8.5 23z" />
    <glyph glyph-name="equal" unicode="=" horiz-adv-x="576" 
d="M53 411h486v-42h-486v42zM53 207h486v-42h-486v42z" />
    <glyph glyph-name="logicalnot" unicode="&#xac;" horiz-adv-x="576" 
d="M53 309h486v-264h-43v222h-443v42z" />
    <glyph glyph-name="greater" unicode="&#x3e;" horiz-adv-x="576" 
d="M539 267l-473 -215l-18 40l433 196l-433 196l18 40l473 -215v-42z" />
    <glyph glyph-name="notequal" unicode="&#x2260;" horiz-adv-x="576" 
d="M66 409h267l75 151l37 -19l-66 -132h146v-42h-167l-79 -158h246v-42h-267l-74 -150l-38 18l65 132h-145v42h166l80 158h-246v42z" />
    <glyph glyph-name="approxequal" unicode="&#x2248;" horiz-adv-x="576" 
d="M60 179q61 52 137 52q31 0 55 -7.5t46 -16.5t45 -16.5t52 -7.5q32 0 59 11t53 34l24 -34q-61 -53 -136 -53q-32 0 -56 7.5t-46 16.5t-45 16.5t-51 7.5q-33 0 -60 -11t-53 -34zM60 382q61 53 137 53q31 0 55 -7.5t46 -16.5t45 -16.5t52 -7.5q32 0 59 11t53 34l24 -35
q-61 -52 -136 -52q-32 0 -56 7.5t-46 16.5t-45 16.5t-51 7.5q-33 0 -60 -11t-53 -34z" />
    <glyph glyph-name="plusminus" unicode="&#xb1;" horiz-adv-x="576" 
d="M275 113v222h-222v42h222v222h42v-222h222v-42h-222v-222h-42zM53 42h486v-42h-486v42z" />
    <glyph glyph-name="lessequal" unicode="&#x2264;" horiz-adv-x="576" 
d="M66 42h459v-42h-459v42zM66 377l447 208l17 -39l-407 -190l407 -189l-17 -40l-447 208v42z" />
    <glyph glyph-name="greaterequal" unicode="&#x2265;" horiz-adv-x="576" 
d="M525 335l-446 -208l-18 40l407 189l-407 190l18 39l446 -208v-42zM66 42h459v-42h-459v42z" />
    <glyph glyph-name="asciicircum" unicode="^" horiz-adv-x="576" 
d="M346 672l208 -450l-40 -16l-189 409l-190 -409l-39 16l208 450h42z" />
    <glyph glyph-name="asciitilde" unicode="~" horiz-adv-x="576" 
d="M60 280q61 53 137 53q31 0 55 -7.5t46 -16.5t45 -16.5t52 -7.5q32 0 59 11t53 34l24 -34q-61 -53 -136 -53q-32 0 -56 7.5t-46 16.5t-45 16.5t-51 7.5q-33 0 -60 -11t-53 -34z" />
    <glyph glyph-name="lozenge" unicode="&#x25ca;" horiz-adv-x="576" 
d="M69 336l215 336h42l214 -336l-214 -336h-42zM119 336l186 -292l185 292l-185 290z" />
    <glyph glyph-name="degree" unicode="&#xb0;" horiz-adv-x="326" 
d="M109 553q0 27 9.5 50.5t27 41t41 27t50.5 9.5q43 0 69.5 -26t26.5 -70q0 -27 -9.5 -50.5t-27 -41t-41 -27t-50.5 -9.5q-43 0 -69.5 26.5t-26.5 69.5zM140 557q0 -31 19 -50t50 -19q40 0 66.5 26.5t26.5 65.5q0 32 -19 51t-50 19q-39 0 -66 -27t-27 -66z" />
    <glyph glyph-name="quotesingle" unicode="'" horiz-adv-x="204" 
d="M154 672h47l-41 -206h-38z" />
    <glyph glyph-name="quotedbl" unicode="&#x22;" horiz-adv-x="378" 
d="M122 466zM154 672h47l-41 -206h-38zM328 672h47l-41 -206h-38z" />
    <glyph glyph-name="radical" unicode="&#x221a;" horiz-adv-x="652" 
d="M360 -208h-50l-123 359l-170 -54l-12 40l209 67l120 -352l250 858l41 -11z" />
    <glyph glyph-name="currency" unicode="&#xa4;" horiz-adv-x="576" 
d="M81 143l82 82q-37 45 -37 111t36 111l-81 82l30 29l81 -82q43 38 112 38q67 0 111 -38l82 82l29 -29l-82 -82q18 -22 28 -50t10 -61q0 -34 -10 -61.5t-28 -49.5l82 -82l-29 -29l-82 81q-45 -36 -111 -36q-67 0 -112 36l-81 -81zM165 336q0 -61 38.5 -99.5t100.5 -38.5
q30 0 55.5 10t44 28.5t29 44t10.5 55.5t-10.5 55.5t-29 44t-44 29t-55.5 10.5q-31 0 -56.5 -10.5t-44 -29t-28.5 -44t-10 -55.5z" />
    <glyph glyph-name="infinity" unicode="&#x221e;" horiz-adv-x="761" 
d="M47 256q0 45 14 84.5t38.5 69t58.5 46t74 16.5q54 0 92 -34.5t68 -112.5q51 75 97 111t101 36q62 0 100.5 -42t38.5 -110q0 -45 -14 -84.5t-39 -69t-58.5 -46t-73.5 -16.5q-54 0 -92 34.5t-68 112.5q-51 -75 -97 -111t-101 -36q-62 0 -100.5 42t-38.5 110zM92 260
q0 -54 28 -85t74 -31q45 0 85 36t86 110q-26 75 -56.5 108.5t-75.5 33.5q-30 0 -55.5 -13t-44.5 -36.5t-30 -55t-11 -67.5zM684 316q0 54 -28 85t-74 31q-45 0 -85 -36t-86 -110q26 -75 56.5 -108.5t75.5 -33.5q30 0 55.5 13t44.5 36.5t30 55t11 67.5z" />
    <glyph glyph-name="mu" unicode="&#xb5;" horiz-adv-x="580" 
d="M130 483h48l-52 -296q-2 -12 -3 -23.5t-1 -22.5q0 -51 31.5 -81.5t85.5 -30.5q33 0 63.5 12.5t54.5 35t41 53.5t23 68l50 285h48l-70 -398q-1 -5 -1.5 -9.5t-0.5 -9.5q0 -37 40 -37q8 0 15 1t12 2l4 -39q-20 -5 -40 -5q-33 0 -54.5 19.5t-21.5 49.5q0 7 1 15t3 16
q-30 -46 -77 -73t-96 -27q-48 0 -82 20.5t-47 55.5l-48 -272h-48z" />
    <glyph glyph-name="partialdiff" unicode="&#x2202;" 
d="M47 190q0 65 19.5 121t53 97t80 64t100.5 23q68 0 114.5 -36.5t58.5 -96.5q3 24 4.5 52t0.5 54q-1 34 -9 71t-26.5 67.5t-49 50t-75.5 19.5q-30 0 -62 -7t-67 -23l-14 37q78 33 147 33q58 0 97 -23t62.5 -59.5t33.5 -81.5t10 -90q0 -118 -22.5 -207t-61.5 -148t-91.5 -89
t-112.5 -30q-43 0 -78 14.5t-60 41t-38.5 64t-13.5 82.5zM93 193q0 -37 11 -67t31 -51.5t47.5 -33.5t60.5 -12q45 0 83.5 22t67 59.5t44.5 88t16 106.5q0 33 -11 60.5t-30.5 47t-47 30.5t-60.5 11q-45 0 -84 -20t-67.5 -55t-44.5 -82.5t-16 -103.5z" />
    <glyph glyph-name="summation" unicode="&#x2211;" horiz-adv-x="627" 
d="M-25 -178l416 437l-251 411l6 34h519l-7 -41h-457l239 -394l-4 -27l-390 -409h481l-7 -41h-550z" />
    <glyph glyph-name="product" unicode="&#x220f;" horiz-adv-x="777" 
d="M192 704h556l-161 -912h-49l154 871h-459l-153 -871h-49z" />
    <glyph glyph-name="pi" unicode="&#x3c0;" horiz-adv-x="620" 
d="M610 444h-103l-61 -351q-3 -14 -3 -23q0 -20 12.5 -30.5t34.5 -10.5q18 0 33 4l3 -39q-26 -6 -49 -6q-36 0 -58.5 20.5t-22.5 55.5q0 11 3 26l62 354h-248l-78 -444h-46l78 444h-103l7 39h546z" />
    <glyph glyph-name="integral" unicode="&#x222b;" horiz-adv-x="393" 
d="M198 518q0 -63 7.5 -130.5t17 -136.5t17 -137.5t7.5 -133.5q0 -93 -43 -146.5t-112 -53.5q-18 0 -37.5 3.5t-38.5 11.5l14 39q14 -6 28.5 -9.5t29.5 -3.5q49 0 79.5 42t30.5 115q0 63 -7.5 130.5t-17 136.5t-17 137.5t-7.5 133.5q0 93 43 146.5t112 53.5q38 0 76 -15
l-14 -39q-14 6 -28.5 9.5t-29.5 3.5q-49 0 -79.5 -42t-30.5 -115z" />
    <glyph glyph-name="Omega" unicode="&#x2126;" horiz-adv-x="753" 
d="M22 41h192q-58 48 -91.5 117t-33.5 145q0 84 26 154.5t72 120.5t109 78t138 28q60 0 110 -18.5t87 -52t57.5 -82t20.5 -108.5q0 -122 -63.5 -221t-180.5 -161h193l-6 -41h-259l6 35q128 65 194.5 163.5t66.5 218.5q0 52 -17 94t-47.5 71t-72.5 45t-92 16
q-63 0 -116.5 -25t-92.5 -70t-61.5 -107.5t-22.5 -137.5q-1 -76 35 -146.5t99 -121.5l-6 -35h-251z" />
    <glyph glyph-name="Delta" unicode="&#x2206;" horiz-adv-x="655" 
d="M2 30l378 642h47l152 -643l-5 -29h-577zM57 41h473l-134 574z" />
    <glyph glyph-name="litre" unicode="&#x2113;" horiz-adv-x="366" 
d="M395 601q0 -46 -18 -92.5t-52 -90.5t-81.5 -83t-107.5 -70l-23 -132q-2 -8 -3 -16.5t-1 -16.5q0 -32 22.5 -51.5t58.5 -19.5q34 0 69 7l4 -39q-22 -5 -42.5 -7t-40.5 -2q-52 0 -84 29.5t-32 77.5q0 9 1 18t3 18l79 443q11 66 48 104t92 38q48 0 78 -32t30 -83zM356 594
q0 38 -18.5 59.5t-50.5 21.5q-37 0 -62.5 -27.5t-33.5 -76.5l-46 -258q99 55 155 129.5t56 151.5z" />
    <glyph glyph-name="estimated" unicode="&#x212e;" horiz-adv-x="960" 
d="M496 16q73 0 135.5 30t107.5 82h66q-53 -66 -133 -105t-176 -39q-80 0 -149.5 27.5t-122 75.5t-82.5 112t-30 137t30 137t82.5 112t122 75.5t149.5 27.5q79 0 149 -27.5t122.5 -75.5t82.5 -112t30 -137q0 -11 -1 -16h-623v-196q44 -51 106 -79.5t134 -28.5zM256 352h480
v196q-45 50 -106.5 79t-133.5 29t-134 -29t-106 -79v-196z" />
    <glyph glyph-name="numero" unicode="&#x2116;" horiz-adv-x="1127" 
d="M789 270h301l-5 -31h-301zM823 477q0 44 13.5 81.5t37.5 64.5t57 42.5t72 15.5q60 0 96 -36t36 -96q0 -44 -13.5 -81.5t-37.5 -65t-57 -43t-72 -15.5q-60 0 -96 36.5t-36 96.5zM958 376q30 0 55.5 13t43.5 35.5t28.5 54t10.5 67.5q0 46 -26.5 75t-70.5 29q-30 0 -55 -13
t-43 -35.5t-28.5 -54t-10.5 -67.5q0 -47 26 -75.5t70 -28.5zM186 672h47l316 -600l106 600h46l-118 -672h-47l-316 600l-106 -600h-46z" />
    <glyph glyph-name="fraction" unicode="&#x2044;" horiz-adv-x="192" 
d="M411 685l25 -24l-622 -674l-24 24z" />
    <glyph glyph-name="onesuperior" unicode="&#xb9;" horiz-adv-x="266" 
d="M238 760l-121 -65l-13 28l146 77h33l-73 -416h-37z" />
    <glyph glyph-name="twosuperior" unicode="&#xb2;" horiz-adv-x="340" 
d="M55 410l198 168q35 29 53.5 57.5t18.5 57.5q0 38 -22 59.5t-62 21.5q-24 0 -50 -8.5t-55 -22.5l-13 30q67 35 126 35q54 0 84 -30t30 -81q0 -68 -81 -138l-169 -142h208l-6 -33h-264z" />
    <glyph glyph-name="threesuperior" unicode="&#xb3;" horiz-adv-x="340" 
d="M179 612h25q53 0 86.5 25.5t33.5 66.5q0 33 -22.5 52.5t-58.5 19.5q-47 0 -102 -21l-10 29q33 11 62 17.5t57 6.5q51 0 81.5 -27.5t30.5 -72.5q0 -44 -29 -73.5t-71 -38.5q35 -8 54 -33.5t19 -62.5q0 -27 -11 -49.5t-30 -39t-45 -26t-56 -9.5q-32 0 -66.5 9.5t-68.5 26.5
l15 29q32 -16 60.5 -24.5t56.5 -8.5q45 0 75.5 26t30.5 67q0 37 -26.5 59t-74.5 22h-21z" />
    <glyph glyph-name="onehalf" unicode="&#xbd;" horiz-adv-x="960" 
d="M140 0zM274 632l-121 -65l-13 28l146 77h33l-73 -416h-37zM795 685l25 -24l-622 -674l-24 24zM585 26l198 168q35 29 53.5 57.5t18.5 57.5q0 38 -22 59.5t-62 21.5q-24 0 -50 -8.5t-55 -22.5l-13 30q67 35 126 35q54 0 84 -30t30 -81q0 -68 -81 -138l-169 -142h208
l-6 -33h-264z" />
    <glyph glyph-name="onequarter" unicode="&#xbc;" horiz-adv-x="960" 
d="M793 100h-207l5 30l256 286h36l-51 -285h66l-4 -31h-67l-17 -100h-35zM797 131l43 236l-210 -236h167zM274 632l-121 -65l-13 28l146 77h33l-73 -416h-37zM795 685l25 -24l-622 -674l-24 24z" />
    <glyph glyph-name="threequarters" unicode="&#xbe;" horiz-adv-x="960" 
d="M793 100h-207l5 30l256 286h36l-51 -285h66l-4 -31h-67l-17 -100h-35zM797 131l43 236l-210 -236h167zM178 484h25q53 0 86.5 25.5t33.5 66.5q0 33 -22.5 52.5t-58.5 19.5q-47 0 -102 -21l-10 29q33 11 62 17.5t57 6.5q51 0 81.5 -27.5t30.5 -72.5q0 -44 -29 -73.5
t-71 -38.5q35 -8 54 -33.5t19 -62.5q0 -27 -11 -49.5t-30 -39t-45 -26t-56 -9.5q-32 0 -66.5 9.5t-68.5 26.5l15 29q32 -16 60.5 -24.5t56.5 -8.5q45 0 75.5 26t30.5 67q0 37 -26.5 59t-74.5 22h-21zM795 685l25 -24l-622 -674l-24 24z" />
    <glyph glyph-name="grave" unicode="`" horiz-adv-x="240" 
d="M235 591l-20 -28l-155 105l24 32z" />
    <glyph glyph-name="acute" unicode="&#xb4;" horiz-adv-x="240" 
d="M148 563l-17 28l171 109l20 -35z" />
    <glyph glyph-name="dieresis" unicode="&#xa8;" horiz-adv-x="240" 
d="M252 632q0 17 12 28.5t29 11.5q13 0 21.5 -8t8.5 -22q0 -17 -11.5 -28.5t-28.5 -11.5q-14 0 -22.5 8t-8.5 22zM52 632q0 17 11.5 28.5t28.5 11.5q14 0 22 -8t8 -22q0 -17 -11.5 -28.5t-28.5 -11.5q-14 0 -22 8t-8 22z" />
    <glyph glyph-name="circumflex" unicode="&#x2c6;" horiz-adv-x="240" 
d="M180 707h33l100 -120l-25 -22l-95 105l-136 -106l-20 27z" />
    <glyph glyph-name="tilde" unicode="&#x2dc;" horiz-adv-x="240" 
d="M126 675q19 0 34.5 -6t30.5 -13.5t29 -13.5t30 -6t29.5 10.5t20.5 28.5l32 -12q-11 -28 -33 -45.5t-50 -17.5q-18 0 -34 6t-30.5 13t-29 13t-29.5 6q-35 0 -51 -38l-31 11q11 29 32.5 46.5t49.5 17.5z" />
    <glyph glyph-name="macron" unicode="&#xaf;" horiz-adv-x="240" 
d="M49 655h284l-7 -36h-283z" />
    <glyph glyph-name="breve" unicode="&#x2d8;" horiz-adv-x="240" 
d="M96 691q-7 -42 17 -68.5t69 -26.5q44 0 77 25.5t42 69.5h35q-11 -60 -53.5 -96t-102.5 -36q-54 0 -87 29.5t-33 77.5q0 7 0.5 13.5t1.5 11.5h34z" />
    <glyph glyph-name="dotaccent" unicode="&#x2d9;" horiz-adv-x="240" 
d="M150 632q0 18 12.5 30t29.5 12q14 0 23 -9t9 -23q0 -17 -12 -29.5t-30 -12.5q-14 0 -23 9t-9 23z" />
    <glyph glyph-name="ring" unicode="&#x2da;" horiz-adv-x="240" 
d="M123 627q0 -25 14.5 -40t39.5 -15q32 0 53.5 21.5t21.5 53.5q0 25 -15 40t-40 15q-32 0 -53 -21.5t-21 -53.5zM93 624q0 22 8.5 41t23 33.5t34 22.5t42.5 8q35 0 57.5 -21.5t22.5 -56.5q0 -23 -8.5 -42t-22.5 -33.5t-34 -22.5t-42 -8q-36 0 -58.5 22t-22.5 57z" />
    <glyph glyph-name="cedilla" unicode="&#xb8;" horiz-adv-x="240" 
d="M82 -65q29 -5 45.5 -23.5t16.5 -46.5q0 -37 -29.5 -61t-75.5 -24q-41 0 -90 22l14 30q40 -19 74 -19q29 0 48 15t19 38q0 20 -17 33t-42 13h-7l30 88h36z" />
    <glyph glyph-name="hungarumlaut" unicode="&#x2dd;" horiz-adv-x="240" 
d="M255 562l-22 27l152 134l26 -31zM77 562l-22 27l152 134l26 -31z" />
    <glyph glyph-name="ogonek" unicode="&#x2db;" horiz-adv-x="240" 
d="M102 0q-58 -38 -89.5 -74.5t-31.5 -68.5q0 -20 13 -32t34 -12q22 0 43 8l8 -31q-14 -5 -30 -7.5t-32 -2.5q-34 0 -54.5 19t-20.5 51q0 39 34 81t97 80z" />
    <glyph glyph-name="caron" unicode="&#x2c7;" horiz-adv-x="240" 
d="M194 567h-33l-100 120l25 22l94 -105l137 106l19 -27z" />
    <glyph glyph-name="commaaccent" unicode="&#x326;" horiz-adv-x="240" 
d="M22 -125q0 17 12 28.5t29 11.5q15 0 24 -11.5t9 -31.5q0 -42 -29.5 -83.5t-80.5 -70.5l-14 21q35 23 57 50.5t27 59.5q-14 -3 -24 4.5t-10 21.5z" />
    <glyph glyph-name="grave.cap" unicode="&#xe840;" horiz-adv-x="240" 
d="M93 752zM268 780l-20 -28l-155 105l24 32z" />
    <glyph glyph-name="acute.cap" unicode="&#xe841;" horiz-adv-x="240" 
d="M164 752zM181 752l-17 28l171 109l20 -35z" />
    <glyph glyph-name="dieresis.cap" unicode="&#xe845;" horiz-adv-x="240" 
d="M85 791zM285 821q0 17 12 28.5t29 11.5q13 0 21.5 -8t8.5 -22q0 -17 -11.5 -28.5t-28.5 -11.5q-14 0 -22.5 8t-8.5 22zM85 821q0 17 11.5 28.5t28.5 11.5q14 0 22 -8t8 -22q0 -17 -11.5 -28.5t-28.5 -11.5q-14 0 -22 8t-8 22z" />
    <glyph glyph-name="circumflex.cap" unicode="&#xe842;" horiz-adv-x="240" 
d="M70 753zM213 896h33l100 -120l-25 -22l-95 105l-136 -106l-20 27z" />
    <glyph glyph-name="tilde.cap" unicode="&#xe844;" horiz-adv-x="240" 
d="M77 789zM159 864q19 0 34.5 -6t30.5 -13.5t29 -13.5t30 -6t29.5 10.5t20.5 28.5l32 -12q-11 -28 -33 -45.5t-50 -17.5q-18 0 -34 6t-30.5 13t-29 13t-29.5 6q-35 0 -51 -38l-31 11q11 29 32.5 46.5t49.5 17.5z" />
    <glyph glyph-name="macron.cap" unicode="&#xe846;" horiz-adv-x="240" 
d="M76 808zM82 844h284l-7 -36h-283z" />
    <glyph glyph-name="breve.cap" unicode="&#xe847;" horiz-adv-x="240" 
d="M93 748zM129 880q-7 -42 17 -68.5t69 -26.5q44 0 77 25.5t42 69.5h35q-11 -60 -53.5 -96t-102.5 -36q-54 0 -87 29.5t-33 77.5q0 7 0.5 13.5t1.5 11.5h34z" />
    <glyph glyph-name="dotaccent.cap" unicode="&#xe84a;" horiz-adv-x="240" 
d="M183 789zM183 821q0 18 12.5 30t29.5 12q14 0 23 -9t9 -23q0 -17 -12 -29.5t-30 -12.5q-14 0 -23 9t-9 23z" />
    <glyph glyph-name="ring.cap" unicode="&#xe848;" horiz-adv-x="240" 
d="M126 734zM156 816q0 -25 14.5 -40t39.5 -15q32 0 53.5 21.5t21.5 53.5q0 25 -15 40t-40 15q-32 0 -53 -21.5t-21 -53.5zM126 813q0 22 8.5 41t23 33.5t34 22.5t42.5 8q35 0 57.5 -21.5t22.5 -56.5q0 -23 -8.5 -42t-22.5 -33.5t-34 -22.5t-42 -8q-36 0 -58.5 22t-22.5 57z
" />
    <glyph glyph-name="hungarumlaut.cap" unicode="&#xe849;" horiz-adv-x="240" 
d="M88 751zM288 751l-22 27l152 134l26 -31zM110 751l-22 27l152 134l26 -31z" />
    <glyph glyph-name="caron.cap" unicode="&#xe843;" horiz-adv-x="240" 
d="M94 756zM227 756h-33l-100 120l25 22l94 -105l137 106l19 -27z" />
    <glyph glyph-name="Agrave" unicode="&#xc0;" horiz-adv-x="655" 
d="M0 0zM380 672h47l155 -672h-48l-45 200h-333l-117 -200h-52zM177 239h304l-85 376zM472 780l-20 -28l-155 105l24 32z" />
    <glyph glyph-name="Aacute" unicode="&#xc1;" horiz-adv-x="655" 
d="M0 0zM380 672h47l155 -672h-48l-45 200h-333l-117 -200h-52zM177 239h304l-85 376zM385 752l-17 28l171 109l20 -35z" />
    <glyph glyph-name="Acircumflex" unicode="&#xc2;" horiz-adv-x="655" 
d="M0 0zM380 672h47l155 -672h-48l-45 200h-333l-117 -200h-52zM177 239h304l-85 376zM417 896h33l100 -120l-25 -22l-95 105l-136 -106l-20 27z" />
    <glyph glyph-name="Atilde" unicode="&#xc3;" horiz-adv-x="655" 
d="M0 0zM380 672h47l155 -672h-48l-45 200h-333l-117 -200h-52zM177 239h304l-85 376zM363 864q19 0 34.5 -6t30.5 -13.5t29 -13.5t30 -6t29.5 10.5t20.5 28.5l32 -12q-11 -28 -33 -45.5t-50 -17.5q-18 0 -34 6t-30.5 13t-29 13t-29.5 6q-35 0 -51 -38l-31 11
q11 29 32.5 46.5t49.5 17.5z" />
    <glyph glyph-name="Adieresis" unicode="&#xc4;" horiz-adv-x="655" 
d="M0 0zM380 672h47l155 -672h-48l-45 200h-333l-117 -200h-52zM177 239h304l-85 376zM489 821q0 17 12 28.5t29 11.5q13 0 21.5 -8t8.5 -22q0 -17 -11.5 -28.5t-28.5 -11.5q-14 0 -22.5 8t-8.5 22zM289 821q0 17 11.5 28.5t28.5 11.5q14 0 22 -8t8 -22q0 -17 -11.5 -28.5
t-28.5 -11.5q-14 0 -22 8t-8 22z" />
    <glyph glyph-name="Amacron" unicode="&#x100;" horiz-adv-x="655" 
d="M0 0zM380 672h47l155 -672h-48l-45 200h-333l-117 -200h-52zM177 239h304l-85 376zM286 844h284l-7 -36h-283z" />
    <glyph glyph-name="Abreve" unicode="&#x102;" horiz-adv-x="655" 
d="M0 0zM380 672h47l155 -672h-48l-45 200h-333l-117 -200h-52zM177 239h304l-85 376zM333 880q-7 -42 17 -68.5t69 -26.5q44 0 77 25.5t42 69.5h35q-11 -60 -53.5 -96t-102.5 -36q-54 0 -87 29.5t-33 77.5q0 7 0.5 13.5t1.5 11.5h34z" />
    <glyph glyph-name="Acaron" unicode="&#x1cd;" horiz-adv-x="655" 
d="M0 0zM380 672h47l155 -672h-48l-45 200h-333l-117 -200h-52zM177 239h304l-85 376zM431 756h-33l-100 120l25 22l94 -105l137 106l19 -27z" />
    <glyph glyph-name="Aring" unicode="&#xc5;" horiz-adv-x="655" 
d="M0 0zM380 672h47l155 -672h-48l-45 200h-333l-117 -200h-52zM177 239h304l-85 376zM360 816q0 -25 14.5 -40t39.5 -15q32 0 53.5 21.5t21.5 53.5q0 25 -15 40t-40 15q-32 0 -53 -21.5t-21 -53.5zM330 813q0 22 8.5 41t23 33.5t34 22.5t42.5 8q35 0 57.5 -21.5t22.5 -56.5
q0 -23 -8.5 -42t-22.5 -33.5t-34 -22.5t-42 -8q-36 0 -58.5 22t-22.5 57z" />
    <glyph glyph-name="Aringacute" unicode="&#x1fa;" horiz-adv-x="655" 
d="M360 816q0 -25 14.5 -40t39.5 -15q32 0 53.5 21.5t21.5 53.5q0 25 -15 40t-40 15q-32 0 -53 -21.5t-21 -53.5zM330 813q0 31 15 55t48 43l170 97l18 -32l-115 -63q24 -8 38 -27.5t14 -45.5q0 -45 -30.5 -75t-76.5 -30q-36 0 -58.5 21.5t-22.5 56.5zM380 672h47l155 -672
h-48l-45 200h-333l-117 -200h-52zM177 239h304l-85 376z" />
    <glyph glyph-name="Aogonek" unicode="&#x104;" horiz-adv-x="655" 
d="M380 672h47l155 -672q-58 -38 -89.5 -74.5t-31.5 -68.5q0 -20 13 -32t34 -12q22 0 43 8l8 -31q-14 -5 -30 -7.5t-32 -2.5q-34 0 -54.5 19t-20.5 51q0 36 29 75t83 75l-45 200h-333l-117 -200h-52zM177 239h304l-85 376z" />
    <glyph glyph-name="AE" unicode="&#xc6;" horiz-adv-x="950" 
d="M466 200h-277l-168 -200h-60l562 672h428l-7 -40h-353l-47 -268h321l-7 -40h-321l-50 -284h369l-7 -40h-417zM218 239h255l69 388z" />
    <glyph glyph-name="AEacute" unicode="&#x1fc;" horiz-adv-x="950" 
d="M0 0zM466 200h-277l-168 -200h-60l562 672h428l-7 -40h-353l-47 -268h321l-7 -40h-321l-50 -284h369l-7 -40h-417zM218 239h255l69 388zM624 752l-17 28l171 109l20 -35z" />
    <glyph glyph-name="Cacute" unicode="&#x106;" horiz-adv-x="635" 
d="M68 0zM68 257q0 92 26.5 170t74.5 135t115.5 89.5t150.5 32.5q55 0 110 -17.5t103 -51.5l-25 -36q-89 63 -187 63q-72 0 -131 -28.5t-100.5 -79.5t-64 -120.5t-22.5 -151.5q0 -52 17 -95t47.5 -73.5t73 -47t92.5 -16.5q102 0 191 55l18 -35q-50 -31 -105 -46.5
t-112 -15.5q-59 0 -109 19.5t-86 55t-56.5 85t-20.5 109.5zM427 752l-17 28l171 109l20 -35z" />
    <glyph glyph-name="Ccedilla" unicode="&#xc7;" horiz-adv-x="635" 
d="M68 257q0 92 26.5 170t74.5 135t115.5 89.5t150.5 32.5q55 0 110 -17.5t103 -51.5l-25 -36q-89 63 -187 63q-72 0 -131 -28.5t-100.5 -79.5t-64 -120.5t-22.5 -151.5q0 -52 17 -95t47.5 -73.5t73 -47t92.5 -16.5q102 0 191 55l18 -35q-49 -31 -102.5 -46t-109.5 -16
l-17 -53q29 -5 45.5 -23.5t16.5 -46.5q0 -37 -30 -61t-75 -24q-41 0 -91 22l14 30q41 -19 74 -19q29 0 48 15t19 38q0 20 -16.5 33t-42.5 13h-7l26 78q-53 4 -97.5 25.5t-76.5 56.5t-49.5 82t-17.5 103z" />
    <glyph glyph-name="Ccircumflex" unicode="&#x108;" horiz-adv-x="635" 
d="M68 0zM68 257q0 92 26.5 170t74.5 135t115.5 89.5t150.5 32.5q55 0 110 -17.5t103 -51.5l-25 -36q-89 63 -187 63q-72 0 -131 -28.5t-100.5 -79.5t-64 -120.5t-22.5 -151.5q0 -52 17 -95t47.5 -73.5t73 -47t92.5 -16.5q102 0 191 55l18 -35q-50 -31 -105 -46.5
t-112 -15.5q-59 0 -109 19.5t-86 55t-56.5 85t-20.5 109.5zM459 896h33l100 -120l-25 -22l-95 105l-136 -106l-20 27z" />
    <glyph glyph-name="Ccaron" unicode="&#x10c;" horiz-adv-x="635" 
d="M68 0zM68 257q0 92 26.5 170t74.5 135t115.5 89.5t150.5 32.5q55 0 110 -17.5t103 -51.5l-25 -36q-89 63 -187 63q-72 0 -131 -28.5t-100.5 -79.5t-64 -120.5t-22.5 -151.5q0 -52 17 -95t47.5 -73.5t73 -47t92.5 -16.5q102 0 191 55l18 -35q-50 -31 -105 -46.5
t-112 -15.5q-59 0 -109 19.5t-86 55t-56.5 85t-20.5 109.5zM473 756h-33l-100 120l25 22l94 -105l137 106l19 -27z" />
    <glyph glyph-name="Cdotaccent" unicode="&#x10a;" horiz-adv-x="635" 
d="M68 0zM68 257q0 92 26.5 170t74.5 135t115.5 89.5t150.5 32.5q55 0 110 -17.5t103 -51.5l-25 -36q-89 63 -187 63q-72 0 -131 -28.5t-100.5 -79.5t-64 -120.5t-22.5 -151.5q0 -52 17 -95t47.5 -73.5t73 -47t92.5 -16.5q102 0 191 55l18 -35q-50 -31 -105 -46.5
t-112 -15.5q-59 0 -109 19.5t-86 55t-56.5 85t-20.5 109.5zM429 821q0 18 12.5 30t29.5 12q14 0 23 -9t9 -23q0 -17 -12 -29.5t-30 -12.5q-14 0 -23 9t-9 23z" />
    <glyph glyph-name="Dcaron" unicode="&#x10e;" horiz-adv-x="695" 
d="M68 0zM186 672h182q139 0 215.5 -71t76.5 -199q0 -90 -28 -164t-78 -127t-120 -82t-154 -29h-212zM610 399q0 111 -64.5 171.5t-185.5 60.5h-133l-103 -590h155q73 0 134 26t104.5 73t68 113t24.5 146zM406 756h-33l-100 120l25 22l94 -105l137 106l19 -27z" />
    <glyph glyph-name="Dcroat" unicode="&#x110;" horiz-adv-x="711" 
d="M44 0zM140 324h-96l7 40h96l55 308h174q143 0 221.5 -70.5t78.5 -198.5q0 -90 -28.5 -164t-80 -127t-122.5 -82.5t-156 -29.5h-205zM626 399q0 112 -66 172t-191 60h-126l-46 -267h177l-7 -40h-177l-51 -283h149q75 0 137 26t106.5 73t69.5 113t25 146z" />
    <glyph glyph-name="Eth" unicode="&#xd0;" horiz-adv-x="711" 
d="M140 324h-96l7 40h96l55 308h174q143 0 221.5 -70.5t78.5 -198.5q0 -90 -28.5 -164t-80 -127t-122.5 -82.5t-156 -29.5h-205zM626 399q0 112 -66 172t-191 60h-126l-46 -267h177l-7 -40h-177l-51 -283h149q75 0 137 26t106.5 73t69.5 113t25 146z" />
    <glyph glyph-name="Egrave" unicode="&#xc8;" horiz-adv-x="587" 
d="M68 0zM186 672h402l-7 -40h-353l-47 -268h321l-7 -40h-321l-50 -284h369l-7 -40h-418zM450 780l-20 -28l-155 105l24 32z" />
    <glyph glyph-name="Eacute" unicode="&#xc9;" horiz-adv-x="587" 
d="M68 0zM186 672h402l-7 -40h-353l-47 -268h321l-7 -40h-321l-50 -284h369l-7 -40h-418zM363 752l-17 28l171 109l20 -35z" />
    <glyph glyph-name="Ecircumflex" unicode="&#xca;" horiz-adv-x="587" 
d="M68 0zM186 672h402l-7 -40h-353l-47 -268h321l-7 -40h-321l-50 -284h369l-7 -40h-418zM395 896h33l100 -120l-25 -22l-95 105l-136 -106l-20 27z" />
    <glyph glyph-name="Ecaron" unicode="&#x11a;" horiz-adv-x="587" 
d="M68 0zM186 672h402l-7 -40h-353l-47 -268h321l-7 -40h-321l-50 -284h369l-7 -40h-418zM409 756h-33l-100 120l25 22l94 -105l137 106l19 -27z" />
    <glyph glyph-name="Edieresis" unicode="&#xcb;" horiz-adv-x="587" 
d="M68 0zM186 672h402l-7 -40h-353l-47 -268h321l-7 -40h-321l-50 -284h369l-7 -40h-418zM467 821q0 17 12 28.5t29 11.5q13 0 21.5 -8t8.5 -22q0 -17 -11.5 -28.5t-28.5 -11.5q-14 0 -22.5 8t-8.5 22zM267 821q0 17 11.5 28.5t28.5 11.5q14 0 22 -8t8 -22
q0 -17 -11.5 -28.5t-28.5 -11.5q-14 0 -22 8t-8 22z" />
    <glyph glyph-name="Emacron" unicode="&#x112;" horiz-adv-x="587" 
d="M68 0zM186 672h402l-7 -40h-353l-47 -268h321l-7 -40h-321l-50 -284h369l-7 -40h-418zM264 844h284l-7 -36h-283z" />
    <glyph glyph-name="Ebreve" unicode="&#x114;" horiz-adv-x="587" 
d="M68 0zM186 672h402l-7 -40h-353l-47 -268h321l-7 -40h-321l-50 -284h369l-7 -40h-418zM311 880q-7 -42 17 -68.5t69 -26.5q44 0 77 25.5t42 69.5h35q-11 -60 -53.5 -96t-102.5 -36q-54 0 -87 29.5t-33 77.5q0 7 0.5 13.5t1.5 11.5h34z" />
    <glyph glyph-name="Edotaccent" unicode="&#x116;" horiz-adv-x="587" 
d="M68 0zM186 672h402l-7 -40h-353l-47 -268h321l-7 -40h-321l-50 -284h369l-7 -40h-418zM365 821q0 18 12.5 30t29.5 12q14 0 23 -9t9 -23q0 -17 -12 -29.5t-30 -12.5q-14 0 -23 9t-9 23z" />
    <glyph glyph-name="Eogonek" unicode="&#x118;" horiz-adv-x="587" 
d="M186 672h402l-7 -40h-353l-47 -268h321l-7 -40h-321l-50 -284h369l-7 -40q-58 -38 -89.5 -74.5t-31.5 -68.5q0 -20 13 -32t34 -12q22 0 43 8l8 -31q-14 -5 -30 -7.5t-32 -2.5q-34 0 -54.5 19t-20.5 51q0 36 29.5 75t83.5 75h-371z" />
    <glyph glyph-name="Gcircumflex" unicode="&#x11c;" horiz-adv-x="687" 
d="M68 0zM568 34q-51 -23 -103 -34.5t-109 -11.5q-65 0 -118 19.5t-91 55t-58.5 85t-20.5 110.5q0 91 27 169t76 135t117.5 89.5t151.5 32.5q57 0 111.5 -16t108.5 -47l-21 -36q-49 28 -99 43t-99 15q-73 0 -133 -28.5t-102.5 -79.5t-65.5 -121t-23 -152q0 -53 17.5 -96
t50 -73.5t77.5 -47.5t100 -17q46 0 87.5 9t77.5 25l41 233h-172l7 39h218zM464 896h33l100 -120l-25 -22l-95 105l-136 -106l-20 27z" />
    <glyph glyph-name="Gbreve" unicode="&#x11e;" horiz-adv-x="687" 
d="M68 0zM568 34q-51 -23 -103 -34.5t-109 -11.5q-65 0 -118 19.5t-91 55t-58.5 85t-20.5 110.5q0 91 27 169t76 135t117.5 89.5t151.5 32.5q57 0 111.5 -16t108.5 -47l-21 -36q-49 28 -99 43t-99 15q-73 0 -133 -28.5t-102.5 -79.5t-65.5 -121t-23 -152q0 -53 17.5 -96
t50 -73.5t77.5 -47.5t100 -17q46 0 87.5 9t77.5 25l41 233h-172l7 39h218zM380 880q-7 -42 17 -68.5t69 -26.5q44 0 77 25.5t42 69.5h35q-11 -60 -53.5 -96t-102.5 -36q-54 0 -87 29.5t-33 77.5q0 7 0.5 13.5t1.5 11.5h34z" />
    <glyph glyph-name="Gdotaccent" unicode="&#x120;" horiz-adv-x="687" 
d="M68 0zM568 34q-51 -23 -103 -34.5t-109 -11.5q-65 0 -118 19.5t-91 55t-58.5 85t-20.5 110.5q0 91 27 169t76 135t117.5 89.5t151.5 32.5q57 0 111.5 -16t108.5 -47l-21 -36q-49 28 -99 43t-99 15q-73 0 -133 -28.5t-102.5 -79.5t-65.5 -121t-23 -152q0 -53 17.5 -96
t50 -73.5t77.5 -47.5t100 -17q46 0 87.5 9t77.5 25l41 233h-172l7 39h218zM434 821q0 18 12.5 30t29.5 12q14 0 23 -9t9 -23q0 -17 -12 -29.5t-30 -12.5q-14 0 -23 9t-9 23z" />
    <glyph glyph-name="Gcommaaccent" unicode="&#x122;" horiz-adv-x="687" 
d="M68 0zM568 34q-51 -23 -103 -34.5t-109 -11.5q-65 0 -118 19.5t-91 55t-58.5 85t-20.5 110.5q0 91 27 169t76 135t117.5 89.5t151.5 32.5q57 0 111.5 -16t108.5 -47l-21 -36q-49 28 -99 43t-99 15q-73 0 -133 -28.5t-102.5 -79.5t-65.5 -121t-23 -152q0 -53 17.5 -96
t50 -73.5t77.5 -47.5t100 -17q46 0 87.5 9t77.5 25l41 233h-172l7 39h218zM273 -125q0 17 12 28.5t29 11.5q15 0 24 -11.5t9 -31.5q0 -42 -29.5 -83.5t-80.5 -70.5l-14 21q35 23 57 50.5t27 59.5q-14 -3 -24 4.5t-10 21.5z" />
    <glyph glyph-name="Hcircumflex" unicode="&#x124;" horiz-adv-x="735" 
d="M68 0zM186 672h49l-54 -308h417l54 308h49l-118 -672h-49l57 324h-417l-57 -324h-49zM461 896h33l100 -120l-25 -22l-95 105l-136 -106l-20 27z" />
    <glyph glyph-name="Hbar" unicode="&#x126;" horiz-adv-x="735" 
d="M676 532l-93 -532h-49l57 324h-417l-57 -324h-49l93 532h-81l6 37h81l19 103h49l-19 -103h417l19 103h49l-18 -103h80l-6 -37h-81zM598 364l29 168h-417l-29 -168h417z" />
    <glyph glyph-name="Igrave" unicode="&#xcc;" horiz-adv-x="269" 
d="M68 0zM186 672h49l-118 -672h-49zM283 780l-20 -28l-155 105l24 32z" />
    <glyph glyph-name="Iacute" unicode="&#xcd;" horiz-adv-x="269" 
d="M68 0zM186 672h49l-118 -672h-49zM196 752l-17 28l171 109l20 -35z" />
    <glyph glyph-name="Icircumflex" unicode="&#xce;" horiz-adv-x="269" 
d="M68 0zM186 672h49l-118 -672h-49zM228 896h33l100 -120l-25 -22l-95 105l-136 -106l-20 27z" />
    <glyph glyph-name="Itilde" unicode="&#x128;" horiz-adv-x="269" 
d="M68 0zM186 672h49l-118 -672h-49zM174 864q19 0 34.5 -6t30.5 -13.5t29 -13.5t30 -6t29.5 10.5t20.5 28.5l32 -12q-11 -28 -33 -45.5t-50 -17.5q-18 0 -34 6t-30.5 13t-29 13t-29.5 6q-35 0 -51 -38l-31 11q11 29 32.5 46.5t49.5 17.5z" />
    <glyph glyph-name="Idieresis" unicode="&#xcf;" horiz-adv-x="269" 
d="M68 0zM186 672h49l-118 -672h-49zM300 821q0 17 12 28.5t29 11.5q13 0 21.5 -8t8.5 -22q0 -17 -11.5 -28.5t-28.5 -11.5q-14 0 -22.5 8t-8.5 22zM100 821q0 17 11.5 28.5t28.5 11.5q14 0 22 -8t8 -22q0 -17 -11.5 -28.5t-28.5 -11.5q-14 0 -22 8t-8 22z" />
    <glyph glyph-name="Imacron" unicode="&#x12a;" horiz-adv-x="269" 
d="M68 0zM186 672h49l-118 -672h-49zM97 844h284l-7 -36h-283z" />
    <glyph glyph-name="Ibreve" unicode="&#x12c;" horiz-adv-x="269" 
d="M68 0zM186 672h49l-118 -672h-49zM144 880q-7 -42 17 -68.5t69 -26.5q44 0 77 25.5t42 69.5h35q-11 -60 -53.5 -96t-102.5 -36q-54 0 -87 29.5t-33 77.5q0 7 0.5 13.5t1.5 11.5h34z" />
    <glyph glyph-name="Idotaccent" unicode="&#x130;" horiz-adv-x="269" 
d="M68 0zM186 672h49l-118 -672h-49zM198 821q0 18 12.5 30t29.5 12q14 0 23 -9t9 -23q0 -17 -12 -29.5t-30 -12.5q-14 0 -23 9t-9 23z" />
    <glyph glyph-name="Iogonek" unicode="&#x12e;" horiz-adv-x="269" 
d="M117 0q-58 -38 -89.5 -74.5t-31.5 -68.5q0 -20 13 -32t34 -12q22 0 43 8l8 -31q-14 -5 -30 -7.5t-32 -2.5q-34 0 -54.5 19t-20.5 51q0 36 28.5 75t82.5 75l118 672h49z" />
    <glyph glyph-name="IJ" unicode="&#x132;" horiz-adv-x="707" 
d="M68 0zM186 672h49l-118 -672h-49zM580 146q-13 -73 -62 -115.5t-121 -42.5q-60 0 -135 29l15 39q32 -12 62 -19t53 -7q56 0 93 33t47 88l91 521h50z" />
    <glyph glyph-name="Jcircumflex" unicode="&#x134;" horiz-adv-x="438" 
d="M0 0zM311 146q-13 -73 -62 -115.5t-121 -42.5q-60 0 -135 29l15 39q32 -12 62 -19t53 -7q56 0 93 33t47 88l91 521h50zM397 896h33l100 -120l-25 -22l-95 105l-136 -106l-20 27z" />
    <glyph glyph-name="Kcommaaccent" unicode="&#x136;" horiz-adv-x="644" 
d="M68 0zM186 672h47l-64 -367l434 367h62l-367 -312l262 -360h-56l-242 331l-103 -87l-43 -244h-48zM232 -125q0 17 12 28.5t29 11.5q15 0 24 -11.5t9 -31.5q0 -42 -29.5 -83.5t-80.5 -70.5l-14 21q35 23 57 50.5t27 59.5q-14 -3 -24 4.5t-10 21.5z" />
    <glyph glyph-name="Lacute" unicode="&#x139;" horiz-adv-x="523" 
d="M68 0zM186 672h49l-111 -631h335l-8 -41h-383zM196 752l-17 28l171 109l20 -35z" />
    <glyph glyph-name="Lcaron" unicode="&#x13d;" horiz-adv-x="523" 
d="M341 520l-31 14l88 163l36 -16zM186 672h49l-111 -631h335l-8 -41h-383z" />
    <glyph glyph-name="Lcommaaccent" unicode="&#x13b;" horiz-adv-x="523" 
d="M68 0zM186 672h49l-111 -631h335l-8 -41h-383zM195 -125q0 17 12 28.5t29 11.5q15 0 24 -11.5t9 -31.5q0 -42 -29.5 -83.5t-80.5 -70.5l-14 21q35 23 57 50.5t27 59.5q-14 -3 -24 4.5t-10 21.5z" />
    <glyph glyph-name="Lslash" unicode="&#x141;" horiz-adv-x="539" 
d="M136 301l-91 -41l-12 34l110 51l59 327h49l-54 -303l165 75l12 -34l-185 -85l-49 -284h335l-8 -41h-383z" />
    <glyph glyph-name="Ldot" unicode="&#x13f;" horiz-adv-x="539" 
d="M68 0zM186 672h49l-111 -631h335l-8 -41h-383zM387 348q0 18 12.5 30t29.5 12q14 0 23 -9t9 -23q0 -17 -12 -29.5t-30 -12.5q-14 0 -23 9t-9 23z" />
    <glyph glyph-name="Nacute" unicode="&#x143;" horiz-adv-x="735" 
d="M68 0zM186 672h47l316 -600l106 600h46l-118 -672h-47l-316 600l-106 -600h-46zM429 752l-17 28l171 109l20 -35z" />
    <glyph glyph-name="Ncaron" unicode="&#x147;" horiz-adv-x="735" 
d="M68 0zM186 672h47l316 -600l106 600h46l-118 -672h-47l-316 600l-106 -600h-46zM475 756h-33l-100 120l25 22l94 -105l137 106l19 -27z" />
    <glyph glyph-name="Ntilde" unicode="&#xd1;" horiz-adv-x="735" 
d="M68 0zM186 672h47l316 -600l106 600h46l-118 -672h-47l-316 600l-106 -600h-46zM407 864q19 0 34.5 -6t30.5 -13.5t29 -13.5t30 -6t29.5 10.5t20.5 28.5l32 -12q-11 -28 -33 -45.5t-50 -17.5q-18 0 -34 6t-30.5 13t-29 13t-29.5 6q-35 0 -51 -38l-31 11q11 29 32.5 46.5
t49.5 17.5z" />
    <glyph glyph-name="Ncommaaccent" unicode="&#x145;" horiz-adv-x="735" 
d="M68 0zM186 672h47l316 -600l106 600h46l-118 -672h-47l-316 600l-106 -600h-46zM270 -125q0 17 12 28.5t29 11.5q15 0 24 -11.5t9 -31.5q0 -42 -29.5 -83.5t-80.5 -70.5l-14 21q35 23 57 50.5t27 59.5q-14 -3 -24 4.5t-10 21.5z" />
    <glyph glyph-name="Eng" unicode="&#x14a;" horiz-adv-x="735" 
d="M186 672h47l317 -600l105 600h46l-118 -672l-11 -62q-13 -73 -62.5 -115.5t-121.5 -42.5q-29 0 -63.5 7.5t-71.5 21.5l15 39q32 -12 62.5 -19t54.5 -7q55 0 92 32t48 86l11 60l-317 600l-105 -600h-46z" />
    <glyph glyph-name="Ograve" unicode="&#xd2;" horiz-adv-x="735" 
d="M68 0zM68 257q0 92 27.5 170.5t76 135.5t115.5 89t145 32q59 0 108.5 -19t85 -54.5t55 -85t19.5 -110.5q0 -92 -27.5 -170.5t-76 -135.5t-115 -89t-145.5 -32q-59 0 -108 19t-84.5 54.5t-55.5 85t-20 110.5zM118 261q0 -53 16.5 -96t46 -73t70 -46.5t89.5 -16.5
q67 0 123.5 28.5t98 79.5t65 121t23.5 153q0 53 -16.5 96t-45.5 73t-69.5 46.5t-89.5 16.5q-67 0 -124 -29t-98.5 -80t-65 -121t-23.5 -152zM516 780l-20 -28l-155 105l24 32z" />
    <glyph glyph-name="Oacute" unicode="&#xd3;" horiz-adv-x="735" 
d="M68 0zM68 257q0 92 27.5 170.5t76 135.5t115.5 89t145 32q59 0 108.5 -19t85 -54.5t55 -85t19.5 -110.5q0 -92 -27.5 -170.5t-76 -135.5t-115 -89t-145.5 -32q-59 0 -108 19t-84.5 54.5t-55.5 85t-20 110.5zM118 261q0 -53 16.5 -96t46 -73t70 -46.5t89.5 -16.5
q67 0 123.5 28.5t98 79.5t65 121t23.5 153q0 53 -16.5 96t-45.5 73t-69.5 46.5t-89.5 16.5q-67 0 -124 -29t-98.5 -80t-65 -121t-23.5 -152zM429 752l-17 28l171 109l20 -35z" />
    <glyph glyph-name="Ocircumflex" unicode="&#xd4;" horiz-adv-x="735" 
d="M68 0zM68 257q0 92 27.5 170.5t76 135.5t115.5 89t145 32q59 0 108.5 -19t85 -54.5t55 -85t19.5 -110.5q0 -92 -27.5 -170.5t-76 -135.5t-115 -89t-145.5 -32q-59 0 -108 19t-84.5 54.5t-55.5 85t-20 110.5zM118 261q0 -53 16.5 -96t46 -73t70 -46.5t89.5 -16.5
q67 0 123.5 28.5t98 79.5t65 121t23.5 153q0 53 -16.5 96t-45.5 73t-69.5 46.5t-89.5 16.5q-67 0 -124 -29t-98.5 -80t-65 -121t-23.5 -152zM461 896h33l100 -120l-25 -22l-95 105l-136 -106l-20 27z" />
    <glyph glyph-name="Otilde" unicode="&#xd5;" horiz-adv-x="735" 
d="M68 0zM68 257q0 92 27.5 170.5t76 135.5t115.5 89t145 32q59 0 108.5 -19t85 -54.5t55 -85t19.5 -110.5q0 -92 -27.5 -170.5t-76 -135.5t-115 -89t-145.5 -32q-59 0 -108 19t-84.5 54.5t-55.5 85t-20 110.5zM118 261q0 -53 16.5 -96t46 -73t70 -46.5t89.5 -16.5
q67 0 123.5 28.5t98 79.5t65 121t23.5 153q0 53 -16.5 96t-45.5 73t-69.5 46.5t-89.5 16.5q-67 0 -124 -29t-98.5 -80t-65 -121t-23.5 -152zM407 864q19 0 34.5 -6t30.5 -13.5t29 -13.5t30 -6t29.5 10.5t20.5 28.5l32 -12q-11 -28 -33 -45.5t-50 -17.5q-18 0 -34 6t-30.5 13
t-29 13t-29.5 6q-35 0 -51 -38l-31 11q11 29 32.5 46.5t49.5 17.5z" />
    <glyph glyph-name="Odieresis" unicode="&#xd6;" horiz-adv-x="735" 
d="M68 0zM68 257q0 92 27.5 170.5t76 135.5t115.5 89t145 32q59 0 108.5 -19t85 -54.5t55 -85t19.5 -110.5q0 -92 -27.5 -170.5t-76 -135.5t-115 -89t-145.5 -32q-59 0 -108 19t-84.5 54.5t-55.5 85t-20 110.5zM118 261q0 -53 16.5 -96t46 -73t70 -46.5t89.5 -16.5
q67 0 123.5 28.5t98 79.5t65 121t23.5 153q0 53 -16.5 96t-45.5 73t-69.5 46.5t-89.5 16.5q-67 0 -124 -29t-98.5 -80t-65 -121t-23.5 -152zM533 821q0 17 12 28.5t29 11.5q13 0 21.5 -8t8.5 -22q0 -17 -11.5 -28.5t-28.5 -11.5q-14 0 -22.5 8t-8.5 22zM333 821
q0 17 11.5 28.5t28.5 11.5q14 0 22 -8t8 -22q0 -17 -11.5 -28.5t-28.5 -11.5q-14 0 -22 8t-8 22z" />
    <glyph glyph-name="Omacron" unicode="&#x14c;" horiz-adv-x="735" 
d="M68 0zM68 257q0 92 27.5 170.5t76 135.5t115.5 89t145 32q59 0 108.5 -19t85 -54.5t55 -85t19.5 -110.5q0 -92 -27.5 -170.5t-76 -135.5t-115 -89t-145.5 -32q-59 0 -108 19t-84.5 54.5t-55.5 85t-20 110.5zM118 261q0 -53 16.5 -96t46 -73t70 -46.5t89.5 -16.5
q67 0 123.5 28.5t98 79.5t65 121t23.5 153q0 53 -16.5 96t-45.5 73t-69.5 46.5t-89.5 16.5q-67 0 -124 -29t-98.5 -80t-65 -121t-23.5 -152zM330 844h284l-7 -36h-283z" />
    <glyph glyph-name="Obreve" unicode="&#x14e;" horiz-adv-x="735" 
d="M68 0zM68 257q0 92 27.5 170.5t76 135.5t115.5 89t145 32q59 0 108.5 -19t85 -54.5t55 -85t19.5 -110.5q0 -92 -27.5 -170.5t-76 -135.5t-115 -89t-145.5 -32q-59 0 -108 19t-84.5 54.5t-55.5 85t-20 110.5zM118 261q0 -53 16.5 -96t46 -73t70 -46.5t89.5 -16.5
q67 0 123.5 28.5t98 79.5t65 121t23.5 153q0 53 -16.5 96t-45.5 73t-69.5 46.5t-89.5 16.5q-67 0 -124 -29t-98.5 -80t-65 -121t-23.5 -152zM377 880q-7 -42 17 -68.5t69 -26.5q44 0 77 25.5t42 69.5h35q-11 -60 -53.5 -96t-102.5 -36q-54 0 -87 29.5t-33 77.5q0 7 0.5 13.5
t1.5 11.5h34z" />
    <glyph glyph-name="Ohungarumlaut" unicode="&#x150;" horiz-adv-x="735" 
d="M68 0zM68 257q0 92 27.5 170.5t76 135.5t115.5 89t145 32q59 0 108.5 -19t85 -54.5t55 -85t19.5 -110.5q0 -92 -27.5 -170.5t-76 -135.5t-115 -89t-145.5 -32q-59 0 -108 19t-84.5 54.5t-55.5 85t-20 110.5zM118 261q0 -53 16.5 -96t46 -73t70 -46.5t89.5 -16.5
q67 0 123.5 28.5t98 79.5t65 121t23.5 153q0 53 -16.5 96t-45.5 73t-69.5 46.5t-89.5 16.5q-67 0 -124 -29t-98.5 -80t-65 -121t-23.5 -152zM536 751l-22 27l152 134l26 -31zM358 751l-22 27l152 134l26 -31z" />
    <glyph glyph-name="Oslash" unicode="&#xd8;" horiz-adv-x="735" 
d="M68 257q0 92 27.5 170.5t76 135.5t115 89t145.5 32q57 0 104 -18.5t82 -52.5l66 72l25 -22l-67 -72q28 -34 43 -78.5t15 -97.5q0 -92 -27.5 -170.5t-76 -135.5t-115 -89t-145.5 -32q-57 0 -104 18t-82 52l-65 -71l-26 22l66 72q-27 34 -42 78t-15 98zM116 261
q0 -87 43 -144l429 463q-29 31 -69.5 47.5t-89.5 16.5q-68 0 -125.5 -29t-99 -80t-65 -121.5t-23.5 -152.5zM340 30q67 0 124.5 28.5t99.5 79.5t65.5 120.5t23.5 152.5q0 43 -11.5 79t-32.5 65l-428 -463q60 -62 159 -62z" />
    <glyph glyph-name="Oslashacute" unicode="&#x1fe;" horiz-adv-x="735" 
d="M59 0zM68 257q0 92 27.5 170.5t76 135.5t115 89t145.5 32q57 0 104 -18.5t82 -52.5l66 72l25 -22l-67 -72q28 -34 43 -78.5t15 -97.5q0 -92 -27.5 -170.5t-76 -135.5t-115 -89t-145.5 -32q-57 0 -104 18t-82 52l-65 -71l-26 22l66 72q-27 34 -42 78t-15 98zM116 261
q0 -87 43 -144l429 463q-29 31 -69.5 47.5t-89.5 16.5q-68 0 -125.5 -29t-99 -80t-65 -121.5t-23.5 -152.5zM340 30q67 0 124.5 28.5t99.5 79.5t65.5 120.5t23.5 152.5q0 43 -11.5 79t-32.5 65l-428 -463q60 -62 159 -62zM429 752l-17 28l171 109l20 -35z" />
    <glyph glyph-name="OE" unicode="&#x152;" horiz-adv-x="992" 
d="M69 270q0 90 28 164t78 127t120 82t154 29h544l-7 -40h-353l-47 -268h321l-7 -40h-321l-50 -284h370l-8 -40h-530q-140 0 -216 71t-76 199zM119 273q0 -111 64.5 -171.5t185.5 -60.5h111l103 590h-133q-73 0 -134 -26t-104.5 -73t-68 -113t-24.5 -146z" />
    <glyph glyph-name="Thorn" unicode="&#xde;" horiz-adv-x="606" 
d="M186 672h47l-21 -125h172q88 0 139.5 -48.5t51.5 -133.5q0 -49 -18 -90t-50 -71t-76.5 -46.5t-97.5 -16.5h-193l-25 -141h-47zM527 363q0 67 -40.5 105.5t-112.5 38.5h-170l-57 -326h183q43 0 79.5 13.5t62.5 37.5t40.5 57.5t14.5 73.5z" />
    <glyph glyph-name="Racute" unicode="&#x154;" horiz-adv-x="638" 
d="M68 0zM186 672h231q84 0 133 -47t49 -127q0 -45 -15.5 -82.5t-43.5 -65.5t-66.5 -45t-84.5 -20l151 -285h-51l-148 282h-176l-50 -282h-47zM172 322h192q41 0 75 12.5t59 35.5t38.5 55t13.5 70q0 63 -38 99.5t-105 36.5h-181zM355 752l-17 28l171 109l20 -35z" />
    <glyph glyph-name="Rcaron" unicode="&#x158;" horiz-adv-x="638" 
d="M68 0zM186 672h231q84 0 133 -47t49 -127q0 -45 -15.5 -82.5t-43.5 -65.5t-66.5 -45t-84.5 -20l151 -285h-51l-148 282h-176l-50 -282h-47zM172 322h192q41 0 75 12.5t59 35.5t38.5 55t13.5 70q0 63 -38 99.5t-105 36.5h-181zM401 756h-33l-100 120l25 22l94 -105
l137 106l19 -27z" />
    <glyph glyph-name="Rcommaaccent" unicode="&#x156;" horiz-adv-x="638" 
d="M68 0zM186 672h231q84 0 133 -47t49 -127q0 -45 -15.5 -82.5t-43.5 -65.5t-66.5 -45t-84.5 -20l151 -285h-51l-148 282h-176l-50 -282h-47zM172 322h192q41 0 75 12.5t59 35.5t38.5 55t13.5 70q0 63 -38 99.5t-105 36.5h-181zM229 -125q0 17 12 28.5t29 11.5
q15 0 24 -11.5t9 -31.5q0 -42 -29.5 -83.5t-80.5 -70.5l-14 21q35 23 57 50.5t27 59.5q-14 -3 -24 4.5t-10 21.5z" />
    <glyph glyph-name="Sacute" unicode="&#x15a;" horiz-adv-x="566" 
d="M24 0zM112 501q0 39 16.5 72.5t45.5 58t70 38.5t89 14q53 0 110.5 -13t117.5 -41l-17 -39q-113 52 -210 52q-38 0 -70 -10.5t-55 -29.5t-36 -44.5t-13 -55.5q0 -42 24.5 -68.5t61.5 -45.5t80.5 -35.5t80.5 -38.5t61.5 -55t24.5 -85q0 -42 -16.5 -76t-46.5 -59
t-71.5 -38.5t-90.5 -13.5q-56 0 -119.5 14.5t-124.5 46.5l17 39q59 -29 117 -44t109 -15q39 0 72 10.5t57 29.5t37 45.5t13 58.5q0 43 -24.5 70t-62 46.5t-80.5 36t-80.5 38.5t-62 54t-24.5 83zM344 752l-17 28l171 109l20 -35z" />
    <glyph glyph-name="Scircumflex" unicode="&#x15c;" horiz-adv-x="566" 
d="M24 0zM112 501q0 39 16.5 72.5t45.5 58t70 38.5t89 14q53 0 110.5 -13t117.5 -41l-17 -39q-113 52 -210 52q-38 0 -70 -10.5t-55 -29.5t-36 -44.5t-13 -55.5q0 -42 24.5 -68.5t61.5 -45.5t80.5 -35.5t80.5 -38.5t61.5 -55t24.5 -85q0 -42 -16.5 -76t-46.5 -59
t-71.5 -38.5t-90.5 -13.5q-56 0 -119.5 14.5t-124.5 46.5l17 39q59 -29 117 -44t109 -15q39 0 72 10.5t57 29.5t37 45.5t13 58.5q0 43 -24.5 70t-62 46.5t-80.5 36t-80.5 38.5t-62 54t-24.5 83zM376 896h33l100 -120l-25 -22l-95 105l-136 -106l-20 27z" />
    <glyph glyph-name="Scaron" unicode="&#x160;" horiz-adv-x="566" 
d="M24 0zM112 501q0 39 16.5 72.5t45.5 58t70 38.5t89 14q53 0 110.5 -13t117.5 -41l-17 -39q-113 52 -210 52q-38 0 -70 -10.5t-55 -29.5t-36 -44.5t-13 -55.5q0 -42 24.5 -68.5t61.5 -45.5t80.5 -35.5t80.5 -38.5t61.5 -55t24.5 -85q0 -42 -16.5 -76t-46.5 -59
t-71.5 -38.5t-90.5 -13.5q-56 0 -119.5 14.5t-124.5 46.5l17 39q59 -29 117 -44t109 -15q39 0 72 10.5t57 29.5t37 45.5t13 58.5q0 43 -24.5 70t-62 46.5t-80.5 36t-80.5 38.5t-62 54t-24.5 83zM390 756h-33l-100 120l25 22l94 -105l137 106l19 -27z" />
    <glyph glyph-name="Scedilla" unicode="&#x15e;" horiz-adv-x="566" 
d="M112 501q0 39 16.5 72.5t45.5 58t70 38.5t89 14q53 0 110.5 -13t117.5 -41l-17 -39q-113 52 -210 52q-38 0 -70 -10.5t-55 -29.5t-36 -44.5t-13 -55.5q0 -42 24.5 -68.5t61.5 -45.5t80.5 -35.5t80.5 -38.5t61.5 -55t24.5 -85q0 -44 -17 -78t-47.5 -58t-73 -37t-92.5 -14
l-18 -53q29 -5 45.5 -23.5t16.5 -46.5q0 -37 -29.5 -61t-75.5 -24q-41 0 -90 22l14 30q40 -19 73 -19q30 0 49 15t19 38q0 20 -17 33t-43 13h-7l27 79q-49 3 -101 17.5t-102 40.5l17 39q59 -29 117 -44t109 -15q39 0 72 10.5t57 29.5t37 45.5t13 58.5q0 43 -24.5 70
t-62 46.5t-80.5 36t-80.5 38.5t-62 54t-24.5 83z" />
    <glyph glyph-name="Scommaaccent" unicode="&#x218;" horiz-adv-x="566" 
d="M24 0zM112 501q0 39 16.5 72.5t45.5 58t70 38.5t89 14q53 0 110.5 -13t117.5 -41l-17 -39q-113 52 -210 52q-38 0 -70 -10.5t-55 -29.5t-36 -44.5t-13 -55.5q0 -42 24.5 -68.5t61.5 -45.5t80.5 -35.5t80.5 -38.5t61.5 -55t24.5 -85q0 -42 -16.5 -76t-46.5 -59
t-71.5 -38.5t-90.5 -13.5q-56 0 -119.5 14.5t-124.5 46.5l17 39q59 -29 117 -44t109 -15q39 0 72 10.5t57 29.5t37 45.5t13 58.5q0 43 -24.5 70t-62 46.5t-80.5 36t-80.5 38.5t-62 54t-24.5 83zM185 -125q0 17 12 28.5t29 11.5q15 0 24 -11.5t9 -31.5q0 -42 -29.5 -83.5
t-80.5 -70.5l-14 21q35 23 57 50.5t27 59.5q-14 -3 -24 4.5t-10 21.5z" />
    <glyph glyph-name="Tcaron" unicode="&#x164;" horiz-adv-x="587" 
d="M97 0zM337 631h-240l8 41h528l-7 -41h-240l-110 -631h-50zM401 756h-33l-100 120l25 22l94 -105l137 106l19 -27z" />
    <glyph glyph-name="Tcommaaccent" unicode="&#x162;" horiz-adv-x="587" 
d="M97 0zM337 631h-240l8 41h528l-7 -41h-240l-110 -631h-50zM195 -125q0 17 12 28.5t29 11.5q15 0 24 -11.5t9 -31.5q0 -42 -29.5 -83.5t-80.5 -70.5l-14 21q35 23 57 50.5t27 59.5q-14 -3 -24 4.5t-10 21.5z" />
    <glyph glyph-name="uni021A" unicode="&#x21a;" horiz-adv-x="587" 
d="M97 0zM337 631h-240l8 41h528l-7 -41h-240l-110 -631h-50zM195 -125q0 17 12 28.5t29 11.5q15 0 24 -11.5t9 -31.5q0 -42 -29.5 -83.5t-80.5 -70.5l-14 21q35 23 57 50.5t27 59.5q-14 -3 -24 4.5t-10 21.5z" />
    <glyph glyph-name="Tbar" unicode="&#x166;" horiz-adv-x="587" 
d="M278 300h-145l7 39h145l52 292h-240l8 41h528l-7 -41h-240l-51 -292h147l-7 -39h-147l-52 -300h-50z" />
    <glyph glyph-name="Ugrave" unicode="&#xd9;" horiz-adv-x="735" 
d="M100 0zM633 241q-10 -59 -36 -105.5t-64.5 -79.5t-88 -50.5t-107.5 -17.5q-53 0 -96.5 15.5t-74.5 44t-48.5 68.5t-17.5 88q0 13 1.5 27.5t3.5 28.5l73 412h49l-72 -412q-3 -14 -4 -27.5t-1 -24.5q0 -41 13.5 -74t38.5 -56t60 -36t78 -13q47 0 88 15t73 43t53.5 68
t29.5 89l76 428h49zM516 780l-20 -28l-155 105l24 32z" />
    <glyph glyph-name="Uacute" unicode="&#xda;" horiz-adv-x="735" 
d="M100 0zM633 241q-10 -59 -36 -105.5t-64.5 -79.5t-88 -50.5t-107.5 -17.5q-53 0 -96.5 15.5t-74.5 44t-48.5 68.5t-17.5 88q0 13 1.5 27.5t3.5 28.5l73 412h49l-72 -412q-3 -14 -4 -27.5t-1 -24.5q0 -41 13.5 -74t38.5 -56t60 -36t78 -13q47 0 88 15t73 43t53.5 68
t29.5 89l76 428h49zM429 752l-17 28l171 109l20 -35z" />
    <glyph glyph-name="Ucircumflex" unicode="&#xdb;" horiz-adv-x="735" 
d="M100 0zM633 241q-10 -59 -36 -105.5t-64.5 -79.5t-88 -50.5t-107.5 -17.5q-53 0 -96.5 15.5t-74.5 44t-48.5 68.5t-17.5 88q0 13 1.5 27.5t3.5 28.5l73 412h49l-72 -412q-3 -14 -4 -27.5t-1 -24.5q0 -41 13.5 -74t38.5 -56t60 -36t78 -13q47 0 88 15t73 43t53.5 68
t29.5 89l76 428h49zM461 896h33l100 -120l-25 -22l-95 105l-136 -106l-20 27z" />
    <glyph glyph-name="Utilde" unicode="&#x168;" horiz-adv-x="735" 
d="M100 0zM633 241q-10 -59 -36 -105.5t-64.5 -79.5t-88 -50.5t-107.5 -17.5q-53 0 -96.5 15.5t-74.5 44t-48.5 68.5t-17.5 88q0 13 1.5 27.5t3.5 28.5l73 412h49l-72 -412q-3 -14 -4 -27.5t-1 -24.5q0 -41 13.5 -74t38.5 -56t60 -36t78 -13q47 0 88 15t73 43t53.5 68
t29.5 89l76 428h49zM407 864q19 0 34.5 -6t30.5 -13.5t29 -13.5t30 -6t29.5 10.5t20.5 28.5l32 -12q-11 -28 -33 -45.5t-50 -17.5q-18 0 -34 6t-30.5 13t-29 13t-29.5 6q-35 0 -51 -38l-31 11q11 29 32.5 46.5t49.5 17.5z" />
    <glyph glyph-name="Udieresis" unicode="&#xdc;" horiz-adv-x="735" 
d="M100 0zM633 241q-10 -59 -36 -105.5t-64.5 -79.5t-88 -50.5t-107.5 -17.5q-53 0 -96.5 15.5t-74.5 44t-48.5 68.5t-17.5 88q0 13 1.5 27.5t3.5 28.5l73 412h49l-72 -412q-3 -14 -4 -27.5t-1 -24.5q0 -41 13.5 -74t38.5 -56t60 -36t78 -13q47 0 88 15t73 43t53.5 68
t29.5 89l76 428h49zM533 821q0 17 12 28.5t29 11.5q13 0 21.5 -8t8.5 -22q0 -17 -11.5 -28.5t-28.5 -11.5q-14 0 -22.5 8t-8.5 22zM333 821q0 17 11.5 28.5t28.5 11.5q14 0 22 -8t8 -22q0 -17 -11.5 -28.5t-28.5 -11.5q-14 0 -22 8t-8 22z" />
    <glyph glyph-name="Umacron" unicode="&#x16a;" horiz-adv-x="735" 
d="M100 0zM633 241q-10 -59 -36 -105.5t-64.5 -79.5t-88 -50.5t-107.5 -17.5q-53 0 -96.5 15.5t-74.5 44t-48.5 68.5t-17.5 88q0 13 1.5 27.5t3.5 28.5l73 412h49l-72 -412q-3 -14 -4 -27.5t-1 -24.5q0 -41 13.5 -74t38.5 -56t60 -36t78 -13q47 0 88 15t73 43t53.5 68
t29.5 89l76 428h49zM330 844h284l-7 -36h-283z" />
    <glyph glyph-name="Ubreve" unicode="&#x16c;" horiz-adv-x="735" 
d="M100 0zM633 241q-10 -59 -36 -105.5t-64.5 -79.5t-88 -50.5t-107.5 -17.5q-53 0 -96.5 15.5t-74.5 44t-48.5 68.5t-17.5 88q0 13 1.5 27.5t3.5 28.5l73 412h49l-72 -412q-3 -14 -4 -27.5t-1 -24.5q0 -41 13.5 -74t38.5 -56t60 -36t78 -13q47 0 88 15t73 43t53.5 68
t29.5 89l76 428h49zM377 880q-7 -42 17 -68.5t69 -26.5q44 0 77 25.5t42 69.5h35q-11 -60 -53.5 -96t-102.5 -36q-54 0 -87 29.5t-33 77.5q0 7 0.5 13.5t1.5 11.5h34z" />
    <glyph glyph-name="Uring" unicode="&#x16e;" horiz-adv-x="735" 
d="M100 0zM633 241q-10 -59 -36 -105.5t-64.5 -79.5t-88 -50.5t-107.5 -17.5q-53 0 -96.5 15.5t-74.5 44t-48.5 68.5t-17.5 88q0 13 1.5 27.5t3.5 28.5l73 412h49l-72 -412q-3 -14 -4 -27.5t-1 -24.5q0 -41 13.5 -74t38.5 -56t60 -36t78 -13q47 0 88 15t73 43t53.5 68
t29.5 89l76 428h49zM404 816q0 -25 14.5 -40t39.5 -15q32 0 53.5 21.5t21.5 53.5q0 25 -15 40t-40 15q-32 0 -53 -21.5t-21 -53.5zM374 813q0 22 8.5 41t23 33.5t34 22.5t42.5 8q35 0 57.5 -21.5t22.5 -56.5q0 -23 -8.5 -42t-22.5 -33.5t-34 -22.5t-42 -8q-36 0 -58.5 22
t-22.5 57z" />
    <glyph glyph-name="Uhungarumlaut" unicode="&#x170;" horiz-adv-x="735" 
d="M100 0zM633 241q-10 -59 -36 -105.5t-64.5 -79.5t-88 -50.5t-107.5 -17.5q-53 0 -96.5 15.5t-74.5 44t-48.5 68.5t-17.5 88q0 13 1.5 27.5t3.5 28.5l73 412h49l-72 -412q-3 -14 -4 -27.5t-1 -24.5q0 -41 13.5 -74t38.5 -56t60 -36t78 -13q47 0 88 15t73 43t53.5 68
t29.5 89l76 428h49zM536 751l-22 27l152 134l26 -31zM358 751l-22 27l152 134l26 -31z" />
    <glyph glyph-name="Uogonek" unicode="&#x172;" horiz-adv-x="735" 
d="M633 241q-9 -48 -25.5 -84.5t-40.5 -64.5t-54.5 -49t-66.5 -38q-87 -41 -126.5 -81t-39.5 -67q0 -20 13 -32t33 -12q23 0 44 8l8 -31q-14 -5 -30 -7.5t-32 -2.5q-34 0 -54.5 19t-20.5 50q0 35 34.5 73t91.5 70q-11 -2 -23 -2.5t-23 0.5q-49 2 -89.5 18t-70 44t-45.5 66.5
t-16 85.5q0 13 1.5 27.5t3.5 28.5l73 412h49l-72 -412q-3 -14 -4 -27.5t-1 -24.5q0 -41 13.5 -74t38.5 -56t60 -36t78 -13q47 0 88 15t73 43t53.5 68t29.5 89l76 428h49z" />
    <glyph glyph-name="Wgrave" unicode="&#x1e80;" horiz-adv-x="983" 
d="M119 0zM691 0h-48l-87 607l-291 -607h-48l-98 672h47l86 -607l290 607h47l88 -607l290 607h51zM640 780l-20 -28l-155 105l24 32z" />
    <glyph glyph-name="Wacute" unicode="&#x1e82;" horiz-adv-x="983" 
d="M119 0zM691 0h-48l-87 607l-291 -607h-48l-98 672h47l86 -607l290 607h47l88 -607l290 607h51zM553 752l-17 28l171 109l20 -35z" />
    <glyph glyph-name="Wcircumflex" unicode="&#x174;" horiz-adv-x="983" 
d="M119 0zM691 0h-48l-87 607l-291 -607h-48l-98 672h47l86 -607l290 607h47l88 -607l290 607h51zM585 896h33l100 -120l-25 -22l-95 105l-136 -106l-20 27z" />
    <glyph glyph-name="Wdieresis" unicode="&#x1e84;" horiz-adv-x="983" 
d="M119 0zM691 0h-48l-87 607l-291 -607h-48l-98 672h47l86 -607l290 607h47l88 -607l290 607h51zM657 821q0 17 12 28.5t29 11.5q13 0 21.5 -8t8.5 -22q0 -17 -11.5 -28.5t-28.5 -11.5q-14 0 -22.5 8t-8.5 22zM457 821q0 17 11.5 28.5t28.5 11.5q14 0 22 -8t8 -22
q0 -17 -11.5 -28.5t-28.5 -11.5q-14 0 -22 8t-8 22z" />
    <glyph glyph-name="Ygrave" unicode="&#x1ef2;" horiz-adv-x="580" 
d="M87 0zM275 298l-188 374h53l166 -330l259 330h58l-300 -379l-51 -293h-49zM430 780l-20 -28l-155 105l24 32z" />
    <glyph glyph-name="Yacute" unicode="&#xdd;" horiz-adv-x="580" 
d="M87 0zM275 298l-188 374h53l166 -330l259 330h58l-300 -379l-51 -293h-49zM343 752l-17 28l171 109l20 -35z" />
    <glyph glyph-name="Ycircumflex" unicode="&#x176;" horiz-adv-x="580" 
d="M87 0zM275 298l-188 374h53l166 -330l259 330h58l-300 -379l-51 -293h-49zM375 896h33l100 -120l-25 -22l-95 105l-136 -106l-20 27z" />
    <glyph glyph-name="Ydieresis" unicode="&#x178;" horiz-adv-x="580" 
d="M87 0zM275 298l-188 374h53l166 -330l259 330h58l-300 -379l-51 -293h-49zM447 821q0 17 12 28.5t29 11.5q13 0 21.5 -8t8.5 -22q0 -17 -11.5 -28.5t-28.5 -11.5q-14 0 -22.5 8t-8.5 22zM247 821q0 17 11.5 28.5t28.5 11.5q14 0 22 -8t8 -22q0 -17 -11.5 -28.5
t-28.5 -11.5q-14 0 -22 8t-8 22z" />
    <glyph glyph-name="Zacute" unicode="&#x179;" horiz-adv-x="614" 
d="M15 0zM21 31l525 600h-408l7 41h475l-5 -31l-525 -600h431l-7 -41h-499zM368 752l-17 28l171 109l20 -35z" />
    <glyph glyph-name="Zcaron" unicode="&#x17d;" horiz-adv-x="614" 
d="M15 0zM21 31l525 600h-408l7 41h475l-5 -31l-525 -600h431l-7 -41h-499zM414 756h-33l-100 120l25 22l94 -105l137 106l19 -27z" />
    <glyph glyph-name="Zdotaccent" unicode="&#x17b;" horiz-adv-x="614" 
d="M15 0zM21 31l525 600h-408l7 41h475l-5 -31l-525 -600h431l-7 -41h-499zM370 821q0 18 12.5 30t29.5 12q14 0 23 -9t9 -23q0 -17 -12 -29.5t-30 -12.5q-14 0 -23 9t-9 23z" />
    <glyph glyph-name="agrave" unicode="&#xe0;" horiz-adv-x="537" 
d="M31 0zM31 123q0 38 16 68.5t46 51.5t72 32.5t95 11.5q56 0 123 -14l10 58q1 6 2 13t1 15q0 42 -30 69.5t-83 27.5q-72 0 -156 -28l-9 37q93 30 172 30q71 0 112 -37t41 -95q0 -18 -3 -34l-44 -252q-2 -10 -2 -17q0 -16 11.5 -25t30.5 -9q8 0 14.5 1t12.5 3l4 -37
q-23 -5 -42 -5q-33 0 -53.5 18t-20.5 48q0 4 0.5 8.5t1.5 9.5q-65 -84 -173 -84q-68 0 -108.5 37.5t-40.5 97.5zM79 128q0 -47 30 -75t83 -28q33 0 62.5 11.5t53 32.5t39 50.5t21.5 65.5l9 55q-62 15 -115 15q-85 0 -134 -34.5t-49 -92.5zM371 591l-20 -28l-155 105l24 32z
" />
    <glyph glyph-name="aacute" unicode="&#xe1;" horiz-adv-x="537" 
d="M31 0zM31 123q0 38 16 68.5t46 51.5t72 32.5t95 11.5q56 0 123 -14l10 58q1 6 2 13t1 15q0 42 -30 69.5t-83 27.5q-72 0 -156 -28l-9 37q93 30 172 30q71 0 112 -37t41 -95q0 -18 -3 -34l-44 -252q-2 -10 -2 -17q0 -16 11.5 -25t30.5 -9q8 0 14.5 1t12.5 3l4 -37
q-23 -5 -42 -5q-33 0 -53.5 18t-20.5 48q0 4 0.5 8.5t1.5 9.5q-65 -84 -173 -84q-68 0 -108.5 37.5t-40.5 97.5zM79 128q0 -47 30 -75t83 -28q33 0 62.5 11.5t53 32.5t39 50.5t21.5 65.5l9 55q-62 15 -115 15q-85 0 -134 -34.5t-49 -92.5zM284 563l-17 28l171 109l20 -35z
" />
    <glyph glyph-name="acircumflex" unicode="&#xe2;" horiz-adv-x="537" 
d="M31 0zM31 123q0 38 16 68.5t46 51.5t72 32.5t95 11.5q56 0 123 -14l10 58q1 6 2 13t1 15q0 42 -30 69.5t-83 27.5q-72 0 -156 -28l-9 37q93 30 172 30q71 0 112 -37t41 -95q0 -18 -3 -34l-44 -252q-2 -10 -2 -17q0 -16 11.5 -25t30.5 -9q8 0 14.5 1t12.5 3l4 -37
q-23 -5 -42 -5q-33 0 -53.5 18t-20.5 48q0 4 0.5 8.5t1.5 9.5q-65 -84 -173 -84q-68 0 -108.5 37.5t-40.5 97.5zM79 128q0 -47 30 -75t83 -28q33 0 62.5 11.5t53 32.5t39 50.5t21.5 65.5l9 55q-62 15 -115 15q-85 0 -134 -34.5t-49 -92.5zM316 707h33l100 -120l-25 -22
l-95 105l-136 -106l-20 27z" />
    <glyph glyph-name="atilde" unicode="&#xe3;" horiz-adv-x="537" 
d="M31 0zM31 123q0 38 16 68.5t46 51.5t72 32.5t95 11.5q56 0 123 -14l10 58q1 6 2 13t1 15q0 42 -30 69.5t-83 27.5q-72 0 -156 -28l-9 37q93 30 172 30q71 0 112 -37t41 -95q0 -18 -3 -34l-44 -252q-2 -10 -2 -17q0 -16 11.5 -25t30.5 -9q8 0 14.5 1t12.5 3l4 -37
q-23 -5 -42 -5q-33 0 -53.5 18t-20.5 48q0 4 0.5 8.5t1.5 9.5q-65 -84 -173 -84q-68 0 -108.5 37.5t-40.5 97.5zM79 128q0 -47 30 -75t83 -28q33 0 62.5 11.5t53 32.5t39 50.5t21.5 65.5l9 55q-62 15 -115 15q-85 0 -134 -34.5t-49 -92.5zM262 675q19 0 34.5 -6t30.5 -13.5
t29 -13.5t30 -6t29.5 10.5t20.5 28.5l32 -12q-11 -28 -33 -45.5t-50 -17.5q-18 0 -34 6t-30.5 13t-29 13t-29.5 6q-35 0 -51 -38l-31 11q11 29 32.5 46.5t49.5 17.5z" />
    <glyph glyph-name="adieresis" unicode="&#xe4;" horiz-adv-x="537" 
d="M31 0zM31 123q0 38 16 68.5t46 51.5t72 32.5t95 11.5q56 0 123 -14l10 58q1 6 2 13t1 15q0 42 -30 69.5t-83 27.5q-72 0 -156 -28l-9 37q93 30 172 30q71 0 112 -37t41 -95q0 -18 -3 -34l-44 -252q-2 -10 -2 -17q0 -16 11.5 -25t30.5 -9q8 0 14.5 1t12.5 3l4 -37
q-23 -5 -42 -5q-33 0 -53.5 18t-20.5 48q0 4 0.5 8.5t1.5 9.5q-65 -84 -173 -84q-68 0 -108.5 37.5t-40.5 97.5zM79 128q0 -47 30 -75t83 -28q33 0 62.5 11.5t53 32.5t39 50.5t21.5 65.5l9 55q-62 15 -115 15q-85 0 -134 -34.5t-49 -92.5zM388 632q0 17 12 28.5t29 11.5
q13 0 21.5 -8t8.5 -22q0 -17 -11.5 -28.5t-28.5 -11.5q-14 0 -22.5 8t-8.5 22zM188 632q0 17 11.5 28.5t28.5 11.5q14 0 22 -8t8 -22q0 -17 -11.5 -28.5t-28.5 -11.5q-14 0 -22 8t-8 22z" />
    <glyph glyph-name="amacron" unicode="&#x101;" horiz-adv-x="537" 
d="M31 0zM31 123q0 38 16 68.5t46 51.5t72 32.5t95 11.5q56 0 123 -14l10 58q1 6 2 13t1 15q0 42 -30 69.5t-83 27.5q-72 0 -156 -28l-9 37q93 30 172 30q71 0 112 -37t41 -95q0 -18 -3 -34l-44 -252q-2 -10 -2 -17q0 -16 11.5 -25t30.5 -9q8 0 14.5 1t12.5 3l4 -37
q-23 -5 -42 -5q-33 0 -53.5 18t-20.5 48q0 4 0.5 8.5t1.5 9.5q-65 -84 -173 -84q-68 0 -108.5 37.5t-40.5 97.5zM79 128q0 -47 30 -75t83 -28q33 0 62.5 11.5t53 32.5t39 50.5t21.5 65.5l9 55q-62 15 -115 15q-85 0 -134 -34.5t-49 -92.5zM185 655h284l-7 -36h-283z" />
    <glyph glyph-name="abreve" unicode="&#x103;" horiz-adv-x="537" 
d="M31 0zM31 123q0 38 16 68.5t46 51.5t72 32.5t95 11.5q56 0 123 -14l10 58q1 6 2 13t1 15q0 42 -30 69.5t-83 27.5q-72 0 -156 -28l-9 37q93 30 172 30q71 0 112 -37t41 -95q0 -18 -3 -34l-44 -252q-2 -10 -2 -17q0 -16 11.5 -25t30.5 -9q8 0 14.5 1t12.5 3l4 -37
q-23 -5 -42 -5q-33 0 -53.5 18t-20.5 48q0 4 0.5 8.5t1.5 9.5q-65 -84 -173 -84q-68 0 -108.5 37.5t-40.5 97.5zM79 128q0 -47 30 -75t83 -28q33 0 62.5 11.5t53 32.5t39 50.5t21.5 65.5l9 55q-62 15 -115 15q-85 0 -134 -34.5t-49 -92.5zM232 691q-7 -42 17 -68.5t69 -26.5
q44 0 77 25.5t42 69.5h35q-11 -60 -53.5 -96t-102.5 -36q-54 0 -87 29.5t-33 77.5q0 7 0.5 13.5t1.5 11.5h34z" />
    <glyph glyph-name="acaron" unicode="&#x1ce;" horiz-adv-x="521" 
d="M31 0zM31 123q0 38 16 68.5t46 51.5t72 32.5t95 11.5q56 0 123 -14l10 58q1 6 2 13t1 15q0 42 -30 69.5t-83 27.5q-72 0 -156 -28l-9 37q93 30 172 30q71 0 112 -37t41 -95q0 -18 -3 -34l-44 -252q-2 -10 -2 -17q0 -16 11.5 -25t30.5 -9q8 0 14.5 1t12.5 3l4 -37
q-23 -5 -42 -5q-33 0 -53.5 18t-20.5 48q0 4 0.5 8.5t1.5 9.5q-65 -84 -173 -84q-68 0 -108.5 37.5t-40.5 97.5zM79 128q0 -47 30 -75t83 -28q33 0 62.5 11.5t53 32.5t39 50.5t21.5 65.5l9 55q-62 15 -115 15q-85 0 -134 -34.5t-49 -92.5zM323 567h-33l-100 120l25 22
l94 -105l137 106l19 -27z" />
    <glyph glyph-name="aring" unicode="&#xe5;" horiz-adv-x="537" 
d="M31 0zM31 123q0 38 16 68.5t46 51.5t72 32.5t95 11.5q56 0 123 -14l10 58q1 6 2 13t1 15q0 42 -30 69.5t-83 27.5q-72 0 -156 -28l-9 37q93 30 172 30q71 0 112 -37t41 -95q0 -18 -3 -34l-44 -252q-2 -10 -2 -17q0 -16 11.5 -25t30.5 -9q8 0 14.5 1t12.5 3l4 -37
q-23 -5 -42 -5q-33 0 -53.5 18t-20.5 48q0 4 0.5 8.5t1.5 9.5q-65 -84 -173 -84q-68 0 -108.5 37.5t-40.5 97.5zM79 128q0 -47 30 -75t83 -28q33 0 62.5 11.5t53 32.5t39 50.5t21.5 65.5l9 55q-62 15 -115 15q-85 0 -134 -34.5t-49 -92.5zM259 627q0 -25 14.5 -40t39.5 -15
q32 0 53.5 21.5t21.5 53.5q0 25 -15 40t-40 15q-32 0 -53 -21.5t-21 -53.5zM229 624q0 22 8.5 41t23 33.5t34 22.5t42.5 8q35 0 57.5 -21.5t22.5 -56.5q0 -23 -8.5 -42t-22.5 -33.5t-34 -22.5t-42 -8q-36 0 -58.5 22t-22.5 57z" />
    <glyph glyph-name="aringacute" unicode="&#x1fb;" horiz-adv-x="521" 
d="M259 627q0 -25 14.5 -40t39.5 -15q32 0 53.5 21.5t21.5 53.5q0 25 -15 40t-40 15q-32 0 -53 -21.5t-21 -53.5zM229 624q0 31 15 55t48 43l170 97l18 -32l-115 -63q24 -8 38 -27.5t14 -45.5q0 -45 -30.5 -75t-76.5 -30q-36 0 -58.5 21.5t-22.5 56.5zM31 123q0 38 16 68.5
t46 51.5t72 32.5t95 11.5q56 0 123 -14l10 58q1 6 2 13t1 15q0 42 -30 69.5t-83 27.5q-72 0 -156 -28l-9 37q93 30 172 30q71 0 112 -37t41 -95q0 -18 -3 -34l-44 -252q-2 -10 -2 -17q0 -16 11.5 -25t30.5 -9q8 0 14.5 1t12.5 3l4 -37q-23 -5 -42 -5q-33 0 -53.5 18
t-20.5 48q0 4 0.5 8.5t1.5 9.5q-65 -84 -173 -84q-68 0 -108.5 37.5t-40.5 97.5zM79 128q0 -47 30 -75t83 -28q33 0 62.5 11.5t53 32.5t39 50.5t21.5 65.5l9 55q-62 15 -115 15q-85 0 -134 -34.5t-49 -92.5z" />
    <glyph glyph-name="aogonek" unicode="&#x105;" horiz-adv-x="537" 
d="M31 123q0 38 16 68.5t46 51.5t72 32.5t95 11.5q56 0 123 -14l10 58q1 6 2 13t1 15q0 42 -30 69.5t-83 27.5q-72 0 -156 -28l-9 37q93 30 172 30q71 0 112 -37t41 -95q0 -18 -3 -34l-44 -252q-2 -10 -2 -17q0 -16 11.5 -25t30.5 -9q8 0 14.5 1t12.5 3l4 -37
q-58 -36 -89 -71t-31 -65q0 -20 12.5 -32t33.5 -12q24 0 44 9l7 -31q-30 -11 -62 -11q-33 0 -54 19t-21 51q0 34 27 69.5t78 69.5q-28 3 -44.5 20.5t-16.5 44.5q0 4 0.5 8.5t1.5 9.5q-65 -84 -173 -84q-68 0 -108.5 37.5t-40.5 97.5zM79 128q0 -47 30 -75t83 -28
q33 0 62.5 11.5t53 32.5t39 50.5t21.5 65.5l9 55q-62 15 -115 15q-85 0 -134 -34.5t-49 -92.5z" />
    <glyph glyph-name="ae" unicode="&#xe6;" horiz-adv-x="848" 
d="M31 123q0 38 16 68.5t46 51.5t72 32.5t95 11.5q56 0 123 -14l10 58q1 6 2 13t1 15q0 42 -29.5 69.5t-83.5 27.5q-72 0 -156 -28l-9 37q93 30 172 30q60 0 99 -29t45 -82q32 54 82.5 82.5t115.5 28.5q40 0 72.5 -14t56 -39t36.5 -60t13 -78q0 -34 -9 -74h-377
q-2 -11 -2.5 -23t-0.5 -24q1 -35 13 -64t33.5 -49.5t50.5 -32t64 -11.5q36 0 73 11.5t74 33.5l18 -34q-89 -49 -171 -49q-72 0 -123 38t-66 102q-12 -32 -32.5 -57.5t-47 -44t-58 -28.5t-65.5 -10q-35 0 -63 10t-48 28t-31 42.5t-11 54.5zM629 456q-36 0 -69 -14t-59 -39.5
t-45 -60.5t-27 -78h332q2 11 2.5 21.5t0.5 21.5q-1 68 -37.5 108.5t-97.5 40.5zM79 128q0 -47 30 -75t83 -28q34 0 63.5 11.5t52.5 32.5t38.5 50.5t21.5 65.5l9 55q-63 15 -115 15q-85 0 -134 -34.5t-49 -92.5z" />
    <glyph glyph-name="aeacute" unicode="&#x1fd;" horiz-adv-x="848" 
d="M31 0zM31 123q0 38 16 68.5t46 51.5t72 32.5t95 11.5q56 0 123 -14l10 58q1 6 2 13t1 15q0 42 -29.5 69.5t-83.5 27.5q-72 0 -156 -28l-9 37q93 30 172 30q60 0 99 -29t45 -82q32 54 82.5 82.5t115.5 28.5q40 0 72.5 -14t56 -39t36.5 -60t13 -78q0 -34 -9 -74h-377
q-2 -11 -2.5 -23t-0.5 -24q1 -35 13 -64t33.5 -49.5t50.5 -32t64 -11.5q36 0 73 11.5t74 33.5l18 -34q-89 -49 -171 -49q-72 0 -123 38t-66 102q-12 -32 -32.5 -57.5t-47 -44t-58 -28.5t-65.5 -10q-35 0 -63 10t-48 28t-31 42.5t-11 54.5zM629 456q-36 0 -69 -14t-59 -39.5
t-45 -60.5t-27 -78h332q2 11 2.5 21.5t0.5 21.5q-1 68 -37.5 108.5t-97.5 40.5zM79 128q0 -47 30 -75t83 -28q34 0 63.5 11.5t52.5 32.5t38.5 50.5t21.5 65.5l9 55q-63 15 -115 15q-85 0 -134 -34.5t-49 -92.5zM452 563l-17 28l171 109l20 -35z" />
    <glyph glyph-name="cacute" unicode="&#x107;" horiz-adv-x="478" 
d="M46 0zM46 187q0 65 20 121.5t56 98t85.5 65t108.5 23.5q40 0 79.5 -12t74.5 -36l-24 -35q-62 42 -129 42q-48 0 -89 -20t-70.5 -55.5t-46 -83.5t-16.5 -104q0 -36 11.5 -66t32.5 -51.5t49.5 -33t63.5 -11.5t70 10.5t67 29.5l17 -35q-38 -22 -79 -34t-83 -12
q-43 0 -79.5 14.5t-62.5 40.5t-41 63t-15 81zM299 563l-17 28l171 109l20 -35z" />
    <glyph glyph-name="ccedilla" unicode="&#xe7;" horiz-adv-x="478" 
d="M46 187q0 65 20 121.5t56 98t85.5 65t108.5 23.5q40 0 79.5 -12t74.5 -36l-24 -35q-62 42 -129 42q-48 0 -89 -20t-70.5 -55.5t-46 -83.5t-16.5 -104q0 -74 43.5 -118t113.5 -44q35 0 70 10.5t67 29.5l17 -35q-36 -22 -76 -33.5t-79 -11.5l-18 -54q29 -5 45.5 -23.5
t16.5 -46.5q0 -37 -30 -61t-75 -24q-41 0 -90 22l14 30q40 -19 73 -19q29 0 48.5 15t19.5 38q0 20 -17 33t-43 13h-7l27 79q-38 4 -69 20t-53 41.5t-34.5 59.5t-12.5 75z" />
    <glyph glyph-name="ccircumflex" unicode="&#x109;" horiz-adv-x="478" 
d="M46 0zM46 187q0 65 20 121.5t56 98t85.5 65t108.5 23.5q40 0 79.5 -12t74.5 -36l-24 -35q-62 42 -129 42q-48 0 -89 -20t-70.5 -55.5t-46 -83.5t-16.5 -104q0 -36 11.5 -66t32.5 -51.5t49.5 -33t63.5 -11.5t70 10.5t67 29.5l17 -35q-38 -22 -79 -34t-83 -12
q-43 0 -79.5 14.5t-62.5 40.5t-41 63t-15 81zM331 707h33l100 -120l-25 -22l-95 105l-136 -106l-20 27z" />
    <glyph glyph-name="ccaron" unicode="&#x10d;" horiz-adv-x="478" 
d="M46 0zM46 187q0 65 20 121.5t56 98t85.5 65t108.5 23.5q40 0 79.5 -12t74.5 -36l-24 -35q-62 42 -129 42q-48 0 -89 -20t-70.5 -55.5t-46 -83.5t-16.5 -104q0 -36 11.5 -66t32.5 -51.5t49.5 -33t63.5 -11.5t70 10.5t67 29.5l17 -35q-38 -22 -79 -34t-83 -12
q-43 0 -79.5 14.5t-62.5 40.5t-41 63t-15 81zM345 567h-33l-100 120l25 22l94 -105l137 106l19 -27z" />
    <glyph glyph-name="cdotaccent" unicode="&#x10b;" horiz-adv-x="478" 
d="M46 0zM46 187q0 65 20 121.5t56 98t85.5 65t108.5 23.5q40 0 79.5 -12t74.5 -36l-24 -35q-62 42 -129 42q-48 0 -89 -20t-70.5 -55.5t-46 -83.5t-16.5 -104q0 -36 11.5 -66t32.5 -51.5t49.5 -33t63.5 -11.5t70 10.5t67 29.5l17 -35q-38 -22 -79 -34t-83 -12
q-43 0 -79.5 14.5t-62.5 40.5t-41 63t-15 81zM301 632q0 18 12.5 30t29.5 12q14 0 23 -9t9 -23q0 -17 -12 -29.5t-30 -12.5q-14 0 -23 9t-9 23z" />
    <glyph glyph-name="dcaron" unicode="&#x10f;" horiz-adv-x="628" 
d="M632 552l-31 14l88 163l36 -16zM426 0h-38l9 83q-34 -46 -79 -70.5t-96 -24.5q-39 0 -71.5 13.5t-56 38.5t-36 60.5t-12.5 78.5q0 67 18.5 125t51.5 100.5t78.5 66.5t99.5 24q56 0 97 -29.5t55 -80.5l56 319h48zM95 183q0 -69 38.5 -111.5t101.5 -42.5q32 0 61.5 11.5
t53 32.5t39.5 49.5t22 62.5l16 92q5 23 5 40q0 61 -37 99t-95 38q-44 0 -81.5 -21t-65 -57.5t-43 -86t-15.5 -106.5z" />
    <glyph glyph-name="dcroat" unicode="&#x111;" 
d="M534 617h75l-7 -37h-74l-102 -580h-38l9 83q-34 -46 -79 -70.5t-96 -24.5q-39 0 -71.5 13.5t-56 38.5t-36 60.5t-12.5 78.5q0 67 18.5 125t51.5 100.5t78.5 66.5t99.5 24q56 0 97 -29.5t55 -80.5l34 195h-183l6 37h184l15 87h48zM95 183q0 -69 38.5 -111.5t101.5 -42.5
q32 0 61.5 11.5t53 32.5t39.5 49.5t22 62.5l16 92q5 23 5 40q0 61 -37 99t-95 38q-44 0 -81.5 -21t-65 -57.5t-43 -86t-15.5 -106.5z" />
    <glyph glyph-name="eth" unicode="&#xf0;" 
d="M196 586l121 53q-17 13 -36.5 24.5t-42.5 20.5l14 34q62 -24 109 -61l125 56l11 -30l-109 -48q123 -117 123 -320q0 -73 -20.5 -133.5t-56.5 -103.5t-86 -66.5t-109 -23.5q-43 0 -78.5 14.5t-61 41t-39.5 62.5t-14 79q0 66 19.5 122t54 97t82.5 64t105 23
q49 0 87.5 -21.5t63.5 -63.5q-24 137 -109 212l-141 -62zM93 188q0 -36 11 -66t30.5 -51t47 -33t61.5 -12q47 0 86.5 20t68.5 55.5t45 84t16 105.5q0 36 -11 65.5t-31 51t-47.5 33t-61.5 11.5q-47 0 -86.5 -20t-68 -55.5t-44.5 -83.5t-16 -105z" />
    <glyph glyph-name="egrave" unicode="&#xe8;" horiz-adv-x="521" 
d="M46 0zM96 230q-3 -25 -2 -47q2 -70 46 -113.5t115 -43.5q36 0 73 11.5t74 33.5l17 -34q-87 -49 -170 -49q-45 0 -82.5 14.5t-64 40.5t-41.5 63t-15 81q0 66 20 122t54.5 97.5t82 65t102.5 23.5q40 0 72.5 -14t55.5 -39t36 -60t13 -78q0 -17 -1.5 -35.5t-6.5 -38.5h-378z
M301 456q-36 0 -68.5 -14t-59 -39.5t-45 -60.5t-26.5 -78h332q3 21 3 43q-1 68 -37.5 108.5t-98.5 40.5zM387 591l-20 -28l-155 105l24 32z" />
    <glyph glyph-name="eacute" unicode="&#xe9;" horiz-adv-x="521" 
d="M46 0zM96 230q-3 -25 -2 -47q2 -70 46 -113.5t115 -43.5q36 0 73 11.5t74 33.5l17 -34q-87 -49 -170 -49q-45 0 -82.5 14.5t-64 40.5t-41.5 63t-15 81q0 66 20 122t54.5 97.5t82 65t102.5 23.5q40 0 72.5 -14t55.5 -39t36 -60t13 -78q0 -17 -1.5 -35.5t-6.5 -38.5h-378z
M301 456q-36 0 -68.5 -14t-59 -39.5t-45 -60.5t-26.5 -78h332q3 21 3 43q-1 68 -37.5 108.5t-98.5 40.5zM300 563l-17 28l171 109l20 -35z" />
    <glyph glyph-name="ecircumflex" unicode="&#xea;" horiz-adv-x="521" 
d="M46 0zM96 230q-3 -25 -2 -47q2 -70 46 -113.5t115 -43.5q36 0 73 11.5t74 33.5l17 -34q-87 -49 -170 -49q-45 0 -82.5 14.5t-64 40.5t-41.5 63t-15 81q0 66 20 122t54.5 97.5t82 65t102.5 23.5q40 0 72.5 -14t55.5 -39t36 -60t13 -78q0 -17 -1.5 -35.5t-6.5 -38.5h-378z
M301 456q-36 0 -68.5 -14t-59 -39.5t-45 -60.5t-26.5 -78h332q3 21 3 43q-1 68 -37.5 108.5t-98.5 40.5zM332 707h33l100 -120l-25 -22l-95 105l-136 -106l-20 27z" />
    <glyph glyph-name="ecaron" unicode="&#x11b;" horiz-adv-x="521" 
d="M46 0zM96 230q-3 -25 -2 -47q2 -70 46 -113.5t115 -43.5q36 0 73 11.5t74 33.5l17 -34q-87 -49 -170 -49q-45 0 -82.5 14.5t-64 40.5t-41.5 63t-15 81q0 66 20 122t54.5 97.5t82 65t102.5 23.5q40 0 72.5 -14t55.5 -39t36 -60t13 -78q0 -17 -1.5 -35.5t-6.5 -38.5h-378z
M301 456q-36 0 -68.5 -14t-59 -39.5t-45 -60.5t-26.5 -78h332q3 21 3 43q-1 68 -37.5 108.5t-98.5 40.5zM346 567h-33l-100 120l25 22l94 -105l137 106l19 -27z" />
    <glyph glyph-name="edieresis" unicode="&#xeb;" horiz-adv-x="521" 
d="M46 0zM96 230q-3 -25 -2 -47q2 -70 46 -113.5t115 -43.5q36 0 73 11.5t74 33.5l17 -34q-87 -49 -170 -49q-45 0 -82.5 14.5t-64 40.5t-41.5 63t-15 81q0 66 20 122t54.5 97.5t82 65t102.5 23.5q40 0 72.5 -14t55.5 -39t36 -60t13 -78q0 -17 -1.5 -35.5t-6.5 -38.5h-378z
M301 456q-36 0 -68.5 -14t-59 -39.5t-45 -60.5t-26.5 -78h332q3 21 3 43q-1 68 -37.5 108.5t-98.5 40.5zM404 632q0 17 12 28.5t29 11.5q13 0 21.5 -8t8.5 -22q0 -17 -11.5 -28.5t-28.5 -11.5q-14 0 -22.5 8t-8.5 22zM204 632q0 17 11.5 28.5t28.5 11.5q14 0 22 -8t8 -22
q0 -17 -11.5 -28.5t-28.5 -11.5q-14 0 -22 8t-8 22z" />
    <glyph glyph-name="emacron" unicode="&#x113;" horiz-adv-x="521" 
d="M46 0zM96 230q-3 -25 -2 -47q2 -70 46 -113.5t115 -43.5q36 0 73 11.5t74 33.5l17 -34q-87 -49 -170 -49q-45 0 -82.5 14.5t-64 40.5t-41.5 63t-15 81q0 66 20 122t54.5 97.5t82 65t102.5 23.5q40 0 72.5 -14t55.5 -39t36 -60t13 -78q0 -17 -1.5 -35.5t-6.5 -38.5h-378z
M301 456q-36 0 -68.5 -14t-59 -39.5t-45 -60.5t-26.5 -78h332q3 21 3 43q-1 68 -37.5 108.5t-98.5 40.5zM201 655h284l-7 -36h-283z" />
    <glyph glyph-name="ebreve" unicode="&#x115;" horiz-adv-x="521" 
d="M46 0zM96 230q-3 -25 -2 -47q2 -70 46 -113.5t115 -43.5q36 0 73 11.5t74 33.5l17 -34q-87 -49 -170 -49q-45 0 -82.5 14.5t-64 40.5t-41.5 63t-15 81q0 66 20 122t54.5 97.5t82 65t102.5 23.5q40 0 72.5 -14t55.5 -39t36 -60t13 -78q0 -17 -1.5 -35.5t-6.5 -38.5h-378z
M301 456q-36 0 -68.5 -14t-59 -39.5t-45 -60.5t-26.5 -78h332q3 21 3 43q-1 68 -37.5 108.5t-98.5 40.5zM248 691q-7 -42 17 -68.5t69 -26.5q44 0 77 25.5t42 69.5h35q-11 -60 -53.5 -96t-102.5 -36q-54 0 -87 29.5t-33 77.5q0 7 0.5 13.5t1.5 11.5h34z" />
    <glyph glyph-name="edotaccent" unicode="&#x117;" horiz-adv-x="521" 
d="M46 0zM96 230q-3 -25 -2 -47q2 -70 46 -113.5t115 -43.5q36 0 73 11.5t74 33.5l17 -34q-87 -49 -170 -49q-45 0 -82.5 14.5t-64 40.5t-41.5 63t-15 81q0 66 20 122t54.5 97.5t82 65t102.5 23.5q40 0 72.5 -14t55.5 -39t36 -60t13 -78q0 -17 -1.5 -35.5t-6.5 -38.5h-378z
M301 456q-36 0 -68.5 -14t-59 -39.5t-45 -60.5t-26.5 -78h332q3 21 3 43q-1 68 -37.5 108.5t-98.5 40.5zM302 632q0 18 12.5 30t29.5 12q14 0 23 -9t9 -23q0 -17 -12 -29.5t-30 -12.5q-14 0 -23 9t-9 23z" />
    <glyph glyph-name="eogonek" unicode="&#x119;" horiz-adv-x="521" 
d="M96 230q-3 -25 -2 -47q2 -70 46 -113.5t115 -43.5q36 0 73 11.5t74 33.5l17 -34q-31 -20 -55.5 -42.5t-42 -45.5t-27 -45t-9.5 -40q0 -23 13 -37t35 -14q23 0 42 8l8 -31q-14 -5 -29 -7.5t-31 -2.5q-35 0 -56.5 20.5t-21.5 55.5q0 33 22.5 71t62.5 73q-41 -12 -81 -12
q-45 0 -82.5 14.5t-64 40.5t-41.5 63t-15 81q0 66 20 122t54.5 97.5t82 65t102.5 23.5q40 0 72.5 -14t55.5 -39t36 -60t13 -78q0 -17 -1.5 -35.5t-6.5 -38.5h-378zM301 456q-36 0 -68.5 -14t-59 -39.5t-45 -60.5t-26.5 -78h332q3 21 3 43q-1 68 -37.5 108.5t-98.5 40.5z" />
    <glyph glyph-name="gcircumflex" unicode="&#x11d;" 
d="M8 0zM95 183q0 -69 38.5 -111.5t101.5 -42.5q33 0 62.5 11.5t53 32t39 49t21.5 63.5l16 92q5 23 5 40q0 61 -37 99t-95 38q-44 0 -81.5 -21t-65 -57.5t-43 -86t-15.5 -106.5zM420 -36q-16 -88 -78 -136t-153 -48q-39 0 -86 11t-95 34l16 38q44 -21 86 -32t77 -11
q72 0 122.5 37t62.5 107l20 116q-31 -45 -75 -68.5t-95 -23.5q-39 0 -71.5 13.5t-56 38.5t-36 60.5t-12.5 78.5q0 67 18.5 125t51.5 100.5t78.5 66.5t99.5 24q56 0 97.5 -30t55.5 -81l23 99h41zM338 707h33l100 -120l-25 -22l-95 105l-136 -106l-20 27z" />
    <glyph glyph-name="gbreve" unicode="&#x11f;" 
d="M8 0zM95 183q0 -69 38.5 -111.5t101.5 -42.5q33 0 62.5 11.5t53 32t39 49t21.5 63.5l16 92q5 23 5 40q0 61 -37 99t-95 38q-44 0 -81.5 -21t-65 -57.5t-43 -86t-15.5 -106.5zM420 -36q-16 -88 -78 -136t-153 -48q-39 0 -86 11t-95 34l16 38q44 -21 86 -32t77 -11
q72 0 122.5 37t62.5 107l20 116q-31 -45 -75 -68.5t-95 -23.5q-39 0 -71.5 13.5t-56 38.5t-36 60.5t-12.5 78.5q0 67 18.5 125t51.5 100.5t78.5 66.5t99.5 24q56 0 97.5 -30t55.5 -81l23 99h41zM254 691q-7 -42 17 -68.5t69 -26.5q44 0 77 25.5t42 69.5h35
q-11 -60 -53.5 -96t-102.5 -36q-54 0 -87 29.5t-33 77.5q0 7 0.5 13.5t1.5 11.5h34z" />
    <glyph glyph-name="gdotaccent" unicode="&#x121;" 
d="M8 0zM95 183q0 -69 38.5 -111.5t101.5 -42.5q33 0 62.5 11.5t53 32t39 49t21.5 63.5l16 92q5 23 5 40q0 61 -37 99t-95 38q-44 0 -81.5 -21t-65 -57.5t-43 -86t-15.5 -106.5zM420 -36q-16 -88 -78 -136t-153 -48q-39 0 -86 11t-95 34l16 38q44 -21 86 -32t77 -11
q72 0 122.5 37t62.5 107l20 116q-31 -45 -75 -68.5t-95 -23.5q-39 0 -71.5 13.5t-56 38.5t-36 60.5t-12.5 78.5q0 67 18.5 125t51.5 100.5t78.5 66.5t99.5 24q56 0 97.5 -30t55.5 -81l23 99h41zM308 632q0 18 12.5 30t29.5 12q14 0 23 -9t9 -23q0 -17 -12 -29.5t-30 -12.5
q-14 0 -23 9t-9 23z" />
    <glyph glyph-name="gcommaaccent" unicode="&#x123;" 
d="M376 608q0 -17 -12 -28.5t-29 -11.5q-15 0 -24.5 11.5t-9.5 31.5q0 42 30 83.5t81 70.5l14 -21q-35 -23 -57 -50.5t-27 -59.5q14 2 24 -5t10 -21zM95 183q0 -69 38.5 -111.5t101.5 -42.5q33 0 62.5 11.5t53 32t39 49t21.5 63.5l16 92q5 23 5 40q0 61 -37 99t-95 38
q-44 0 -81.5 -21t-65 -57.5t-43 -86t-15.5 -106.5zM420 -36q-16 -88 -78 -136t-153 -48q-39 0 -86 11t-95 34l16 38q44 -21 86 -32t77 -11q72 0 122.5 37t62.5 107l20 116q-31 -45 -75 -68.5t-95 -23.5q-39 0 -71.5 13.5t-56 38.5t-36 60.5t-12.5 78.5q0 67 18.5 125
t51.5 100.5t78.5 66.5t99.5 24q56 0 97.5 -30t55.5 -81l23 99h41z" />
    <glyph glyph-name="hcircumflex" unicode="&#x125;" horiz-adv-x="572" 
d="M45 0zM169 704h48l-55 -311q29 48 76.5 75t100.5 27q69 0 111 -39.5t42 -104.5q0 -13 -1.5 -26t-3.5 -27l-53 -298h-48l53 296q5 25 5 46q0 51 -32.5 81.5t-86.5 30.5q-33 0 -63.5 -12.5t-54.5 -35t-41 -53.5t-23 -68l-50 -285h-48zM211 928h33l100 -120l-25 -22l-95 105
l-136 -106l-20 27z" />
    <glyph glyph-name="hbar" unicode="&#x127;" 
d="M147 580h-74l6 37h74l16 87h48l-16 -87h184l-7 -37h-183l-33 -187q29 48 76.5 75t100.5 27q69 0 111 -39.5t42 -104.5q0 -13 -1.5 -26t-3.5 -27l-53 -298h-48l52 296q5 25 5 46q0 51 -32 81.5t-86 30.5q-33 0 -63.5 -12.5t-54.5 -35t-41 -53.5t-23 -68l-50 -285h-48z" />
    <glyph glyph-name="dotlessi" unicode="&#x131;" horiz-adv-x="222" 
d="M130 483h48l-85 -483h-48z" />
    <glyph glyph-name="igrave" unicode="&#xec;" horiz-adv-x="222" 
d="M45 0zM130 483h48l-85 -483h-48zM226 591l-20 -28l-155 105l24 32z" />
    <glyph glyph-name="iacute" unicode="&#xed;" horiz-adv-x="222" 
d="M45 0zM130 483h48l-85 -483h-48zM139 563l-17 28l171 109l20 -35z" />
    <glyph glyph-name="icircumflex" unicode="&#xee;" horiz-adv-x="222" 
d="M28 0zM130 483h48l-85 -483h-48zM171 707h33l100 -120l-25 -22l-95 105l-136 -106l-20 27z" />
    <glyph glyph-name="itilde" unicode="&#x129;" horiz-adv-x="222" 
d="M35 0zM130 483h48l-85 -483h-48zM117 675q19 0 34.5 -6t30.5 -13.5t29 -13.5t30 -6t29.5 10.5t20.5 28.5l32 -12q-11 -28 -33 -45.5t-50 -17.5q-18 0 -34 6t-30.5 13t-29 13t-29.5 6q-35 0 -51 -38l-31 11q11 29 32.5 46.5t49.5 17.5z" />
    <glyph glyph-name="idieresis" unicode="&#xef;" horiz-adv-x="222" 
d="M43 0zM130 483h48l-85 -483h-48zM243 632q0 17 12 28.5t29 11.5q13 0 21.5 -8t8.5 -22q0 -17 -11.5 -28.5t-28.5 -11.5q-14 0 -22.5 8t-8.5 22zM43 632q0 17 11.5 28.5t28.5 11.5q14 0 22 -8t8 -22q0 -17 -11.5 -28.5t-28.5 -11.5q-14 0 -22 8t-8 22z" />
    <glyph glyph-name="imacron" unicode="&#x12b;" horiz-adv-x="222" 
d="M34 0zM130 483h48l-85 -483h-48zM40 655h284l-7 -36h-283z" />
    <glyph glyph-name="ibreve" unicode="&#x12d;" horiz-adv-x="222" 
d="M45 0zM130 483h48l-85 -483h-48zM87 691q-7 -42 17 -68.5t69 -26.5q44 0 77 25.5t42 69.5h35q-11 -60 -53.5 -96t-102.5 -36q-54 0 -87 29.5t-33 77.5q0 7 0.5 13.5t1.5 11.5h34z" />
    <glyph glyph-name="iogonek" unicode="&#x12f;" horiz-adv-x="222" 
d="M93 0q-58 -38 -89.5 -74.5t-31.5 -68.5q0 -20 13 -32t34 -12q22 0 43 8l8 -31q-14 -5 -30 -7.5t-32 -2.5q-34 0 -54.5 19t-20.5 51q0 36 29 75t83 75l85 483h48zM141 632q0 18 12.5 30.5t30.5 12.5q14 0 23 -9.5t9 -23.5q0 -18 -12.5 -30t-30.5 -12q-14 0 -23 9t-9 23z
" />
    <glyph glyph-name="ij" unicode="&#x133;" horiz-adv-x="453" 
d="M45 0zM130 483h48l-85 -483h-48zM141 632q0 18 12.5 30.5t30.5 12.5q14 0 23 -9.5t9 -23.5q0 -18 -12.5 -30t-30.5 -12q-14 0 -23 9t-9 23zM305 -102q-10 -54 -47.5 -86t-91.5 -32q-22 0 -47.5 5.5t-52.5 15.5l15 37q23 -8 43.5 -12.5t37.5 -4.5q38 0 63.5 22t32.5 60
l102 580h48zM371 632q0 18 12.5 30.5t30.5 12.5q14 0 23 -9.5t9 -23.5q0 -18 -12.5 -30t-30.5 -12q-14 0 -23 9t-9 23z" />
    <glyph glyph-name="jcircumflex" unicode="&#x135;" horiz-adv-x="230" 
d="M83 -102q-10 -54 -47.5 -86t-91.5 -32q-22 0 -47.5 5.5t-52.5 15.5l15 37q23 -8 43.5 -12.5t37.5 -4.5q38 0 63.5 22t32.5 60l102 580h48zM179 707h33l100 -120l-25 -22l-95 105l-136 -106l-20 27z" />
    <glyph glyph-name="kcommaaccent" unicode="&#x137;" horiz-adv-x="486" 
d="M45 0zM169 704h46l-83 -476l295 255h60l-262 -226l184 -257h-54l-164 230l-69 -60l-31 -170h-46zM145 -125q0 17 12 28.5t29 11.5q15 0 24 -11.5t9 -31.5q0 -42 -29.5 -83.5t-80.5 -70.5l-14 21q35 23 57 50.5t27 59.5q-14 -3 -24 4.5t-10 21.5z" />
    <glyph glyph-name="kgreenlandic" unicode="&#x138;" horiz-adv-x="486" 
d="M130 483h46l-44 -255l295 255h60l-262 -226l184 -257h-54l-164 230l-69 -60l-31 -170h-46z" />
    <glyph glyph-name="lacute" unicode="&#x13a;" horiz-adv-x="270" 
d="M59 0zM111 106q-3 -15 -3 -27q0 -24 15 -37t41 -13q11 0 21.5 1.5t19.5 3.5l4 -39q-14 -3 -28.5 -5t-28.5 -2q-42 0 -67.5 23t-25.5 61q0 15 3 32l107 600h48zM179 784l-17 28l171 109l20 -35z" />
    <glyph glyph-name="lcaron" unicode="&#x13e;" horiz-adv-x="268" 
d="M307 552l-31 14l88 163l36 -16zM111 106q-3 -15 -3 -27q0 -24 15 -37t41 -13q11 0 21.5 1.5t19.5 3.5l4 -39q-14 -3 -28.5 -5t-28.5 -2q-42 0 -67.5 23t-25.5 61q0 15 3 32l107 600h48z" />
    <glyph glyph-name="lcommaaccent" unicode="&#x13c;" horiz-adv-x="270" 
d="M16 0zM111 106q-3 -15 -3 -27q0 -24 15 -37t41 -13q11 0 21.5 1.5t19.5 3.5l4 -39q-14 -3 -28.5 -5t-28.5 -2q-42 0 -67.5 23t-25.5 61q0 15 3 32l107 600h48zM66 -125q0 17 12 28.5t29 11.5q15 0 24 -11.5t9 -31.5q0 -42 -29.5 -83.5t-80.5 -70.5l-14 21q35 23 57 50.5
t27 59.5q-14 -3 -24 4.5t-10 21.5z" />
    <glyph glyph-name="lslash" unicode="&#x142;" horiz-adv-x="302" 
d="M168 389l121 56l13 -34l-141 -65l-42 -240q-3 -15 -3 -27q0 -24 15 -37t41 -13q11 0 21.5 1.5t19.5 3.5l4 -39q-14 -3 -28.5 -5t-28.5 -2q-42 0 -67.5 23t-25.5 61q0 15 3 32l40 219l-103 -48l-13 34l123 57l60 338h48z" />
    <glyph glyph-name="ldot" unicode="&#x140;" horiz-adv-x="317" 
d="M59 0zM250 339q0 18 12.5 30t29.5 12q14 0 23 -9t9 -23q0 -17 -12 -29.5t-30 -12.5q-14 0 -23 9t-9 23zM111 106q-3 -15 -3 -27q0 -24 15 -37t41 -13q11 0 21.5 1.5t19.5 3.5l4 -39q-14 -3 -28.5 -5t-28.5 -2q-42 0 -67.5 23t-25.5 61q0 15 3 32l107 600h48z" />
    <glyph glyph-name="nacute" unicode="&#x144;" 
d="M45 0zM130 483h37l-10 -94q30 49 78.5 77.5t103.5 28.5q69 0 111 -39.5t42 -104.5q0 -13 -1.5 -26t-3.5 -27l-53 -298h-48l53 296q5 25 5 46q0 51 -32.5 81.5t-86.5 30.5q-33 0 -63.5 -12.5t-54.5 -35t-41 -53.5t-23 -68l-50 -285h-48zM306 563l-17 28l171 109l20 -35z
" />
    <glyph glyph-name="ncaron" unicode="&#x148;" 
d="M45 0zM130 483h37l-10 -94q30 49 78.5 77.5t103.5 28.5q69 0 111 -39.5t42 -104.5q0 -13 -1.5 -26t-3.5 -27l-53 -298h-48l53 296q5 25 5 46q0 51 -32.5 81.5t-86.5 30.5q-33 0 -63.5 -12.5t-54.5 -35t-41 -53.5t-23 -68l-50 -285h-48zM352 567h-33l-100 120l25 22
l94 -105l137 106l19 -27z" />
    <glyph glyph-name="ntilde" unicode="&#xf1;" 
d="M45 0zM130 483h37l-10 -94q30 49 78.5 77.5t103.5 28.5q69 0 111 -39.5t42 -104.5q0 -13 -1.5 -26t-3.5 -27l-53 -298h-48l53 296q5 25 5 46q0 51 -32.5 81.5t-86.5 30.5q-33 0 -63.5 -12.5t-54.5 -35t-41 -53.5t-23 -68l-50 -285h-48zM284 675q19 0 34.5 -6t30.5 -13.5
t29 -13.5t30 -6t29.5 10.5t20.5 28.5l32 -12q-11 -28 -33 -45.5t-50 -17.5q-18 0 -34 6t-30.5 13t-29 13t-29.5 6q-35 0 -51 -38l-31 11q11 29 32.5 46.5t49.5 17.5z" />
    <glyph glyph-name="ncommaaccent" unicode="&#x146;" 
d="M45 0zM130 483h37l-10 -94q30 49 78.5 77.5t103.5 28.5q69 0 111 -39.5t42 -104.5q0 -13 -1.5 -26t-3.5 -27l-53 -298h-48l53 296q5 25 5 46q0 51 -32.5 81.5t-86.5 30.5q-33 0 -63.5 -12.5t-54.5 -35t-41 -53.5t-23 -68l-50 -285h-48zM184 -125q0 17 12 28.5t29 11.5
q15 0 24 -11.5t9 -31.5q0 -42 -29.5 -83.5t-80.5 -70.5l-14 21q35 23 57 50.5t27 59.5q-14 -3 -24 4.5t-10 21.5z" />
    <glyph glyph-name="napostrophe" unicode="&#x149;" horiz-adv-x="695" 
d="M91 0zM270 483h37l-10 -94q30 49 78.5 77.5t103.5 28.5q69 0 111 -39.5t42 -104.5q0 -13 -1.5 -26t-3.5 -27l-53 -298h-48l53 296q5 25 5 46q0 51 -32.5 81.5t-86.5 30.5q-33 0 -63.5 -12.5t-54.5 -35t-41 -53.5t-23 -68l-50 -285h-48zM141 639q0 17 12 28.5t29 11.5
q15 0 24 -11.5t9 -31.5q0 -42 -29.5 -83.5t-80.5 -70.5l-14 21q35 23 57 50.5t27 59.5q-14 -3 -24 4.5t-10 21.5z" />
    <glyph glyph-name="eng" unicode="&#x14b;" 
d="M416 -102q-10 -54 -47.5 -86t-91.5 -32q-22 0 -47 5.5t-53 15.5l15 37q23 -8 43.5 -12.5t37.5 -4.5q38 0 63.5 22t32.5 60l69 393q5 25 5 46q0 51 -32 81.5t-86 30.5q-33 0 -63.5 -12.5t-54.5 -35t-41 -53.5t-23 -68l-50 -285h-48l85 483h37l-10 -94q30 49 78.5 77.5
t103.5 28.5q69 0 111 -39.5t42 -104.5q0 -13 -1.5 -26t-3.5 -27z" />
    <glyph glyph-name="ograve" unicode="&#xf2;" 
d="M46 0zM46 187q0 66 20 122.5t56 98t85 64.5t107 23q43 0 79 -14.5t62 -41t40 -63t14 -80.5q0 -66 -20 -122.5t-55.5 -98t-84.5 -64.5t-107 -23q-44 0 -80 14.5t-62 40.5t-40 63t-14 81zM95 190q0 -73 41 -117.5t109 -44.5q47 0 86.5 20t68.5 55.5t45 84t16 105.5
q0 73 -41.5 117.5t-109.5 44.5q-47 0 -86 -20t-68 -55.5t-45 -84t-16 -105.5zM393 591l-20 -28l-155 105l24 32z" />
    <glyph glyph-name="oacute" unicode="&#xf3;" 
d="M46 0zM46 187q0 66 20 122.5t56 98t85 64.5t107 23q43 0 79 -14.5t62 -41t40 -63t14 -80.5q0 -66 -20 -122.5t-55.5 -98t-84.5 -64.5t-107 -23q-44 0 -80 14.5t-62 40.5t-40 63t-14 81zM95 190q0 -73 41 -117.5t109 -44.5q47 0 86.5 20t68.5 55.5t45 84t16 105.5
q0 73 -41.5 117.5t-109.5 44.5q-47 0 -86 -20t-68 -55.5t-45 -84t-16 -105.5zM306 563l-17 28l171 109l20 -35z" />
    <glyph glyph-name="ocircumflex" unicode="&#xf4;" 
d="M46 0zM46 187q0 66 20 122.5t56 98t85 64.5t107 23q43 0 79 -14.5t62 -41t40 -63t14 -80.5q0 -66 -20 -122.5t-55.5 -98t-84.5 -64.5t-107 -23q-44 0 -80 14.5t-62 40.5t-40 63t-14 81zM95 190q0 -73 41 -117.5t109 -44.5q47 0 86.5 20t68.5 55.5t45 84t16 105.5
q0 73 -41.5 117.5t-109.5 44.5q-47 0 -86 -20t-68 -55.5t-45 -84t-16 -105.5zM338 707h33l100 -120l-25 -22l-95 105l-136 -106l-20 27z" />
    <glyph glyph-name="otilde" unicode="&#xf5;" 
d="M46 0zM46 187q0 66 20 122.5t56 98t85 64.5t107 23q43 0 79 -14.5t62 -41t40 -63t14 -80.5q0 -66 -20 -122.5t-55.5 -98t-84.5 -64.5t-107 -23q-44 0 -80 14.5t-62 40.5t-40 63t-14 81zM95 190q0 -73 41 -117.5t109 -44.5q47 0 86.5 20t68.5 55.5t45 84t16 105.5
q0 73 -41.5 117.5t-109.5 44.5q-47 0 -86 -20t-68 -55.5t-45 -84t-16 -105.5zM284 675q19 0 34.5 -6t30.5 -13.5t29 -13.5t30 -6t29.5 10.5t20.5 28.5l32 -12q-11 -28 -33 -45.5t-50 -17.5q-18 0 -34 6t-30.5 13t-29 13t-29.5 6q-35 0 -51 -38l-31 11q11 29 32.5 46.5
t49.5 17.5z" />
    <glyph glyph-name="odieresis" unicode="&#xf6;" 
d="M46 0zM46 187q0 66 20 122.5t56 98t85 64.5t107 23q43 0 79 -14.5t62 -41t40 -63t14 -80.5q0 -66 -20 -122.5t-55.5 -98t-84.5 -64.5t-107 -23q-44 0 -80 14.5t-62 40.5t-40 63t-14 81zM95 190q0 -73 41 -117.5t109 -44.5q47 0 86.5 20t68.5 55.5t45 84t16 105.5
q0 73 -41.5 117.5t-109.5 44.5q-47 0 -86 -20t-68 -55.5t-45 -84t-16 -105.5zM410 632q0 17 12 28.5t29 11.5q13 0 21.5 -8t8.5 -22q0 -17 -11.5 -28.5t-28.5 -11.5q-14 0 -22.5 8t-8.5 22zM210 632q0 17 11.5 28.5t28.5 11.5q14 0 22 -8t8 -22q0 -17 -11.5 -28.5
t-28.5 -11.5q-14 0 -22 8t-8 22z" />
    <glyph glyph-name="omacron" unicode="&#x14d;" 
d="M46 0zM46 187q0 66 20 122.5t56 98t85 64.5t107 23q43 0 79 -14.5t62 -41t40 -63t14 -80.5q0 -66 -20 -122.5t-55.5 -98t-84.5 -64.5t-107 -23q-44 0 -80 14.5t-62 40.5t-40 63t-14 81zM95 190q0 -73 41 -117.5t109 -44.5q47 0 86.5 20t68.5 55.5t45 84t16 105.5
q0 73 -41.5 117.5t-109.5 44.5q-47 0 -86 -20t-68 -55.5t-45 -84t-16 -105.5zM207 655h284l-7 -36h-283z" />
    <glyph glyph-name="obreve" unicode="&#x14f;" 
d="M46 0zM46 187q0 66 20 122.5t56 98t85 64.5t107 23q43 0 79 -14.5t62 -41t40 -63t14 -80.5q0 -66 -20 -122.5t-55.5 -98t-84.5 -64.5t-107 -23q-44 0 -80 14.5t-62 40.5t-40 63t-14 81zM95 190q0 -73 41 -117.5t109 -44.5q47 0 86.5 20t68.5 55.5t45 84t16 105.5
q0 73 -41.5 117.5t-109.5 44.5q-47 0 -86 -20t-68 -55.5t-45 -84t-16 -105.5zM254 691q-7 -42 17 -68.5t69 -26.5q44 0 77 25.5t42 69.5h35q-11 -60 -53.5 -96t-102.5 -36q-54 0 -87 29.5t-33 77.5q0 7 0.5 13.5t1.5 11.5h34z" />
    <glyph glyph-name="ohungarumlaut" unicode="&#x151;" 
d="M46 0zM46 187q0 66 20 122.5t56 98t85 64.5t107 23q43 0 79 -14.5t62 -41t40 -63t14 -80.5q0 -66 -20 -122.5t-55.5 -98t-84.5 -64.5t-107 -23q-44 0 -80 14.5t-62 40.5t-40 63t-14 81zM95 190q0 -73 41 -117.5t109 -44.5q47 0 86.5 20t68.5 55.5t45 84t16 105.5
q0 73 -41.5 117.5t-109.5 44.5q-47 0 -86 -20t-68 -55.5t-45 -84t-16 -105.5zM413 562l-22 27l152 134l26 -31zM235 562l-22 27l152 134l26 -31z" />
    <glyph glyph-name="oslash" unicode="&#xf8;" 
d="M46 187q0 66 20 122.5t56 98t85 64.5t107 23q40 0 73 -13.5t58 -36.5l48 52l22 -21l-48 -51q42 -53 42 -129q0 -66 -20 -122.5t-55.5 -98t-84.5 -64.5t-107 -23q-41 0 -74 13t-58 37l-47 -52l-23 20l47 51q-20 26 -30.5 58.5t-10.5 71.5zM245 26q48 0 88 20t69 56
t45.5 85t16.5 106q0 29 -7.5 53t-21.5 44l-296 -321q40 -43 106 -43zM92 190q0 -57 28 -97l296 320q-40 43 -106 43q-47 0 -87 -20t-69 -55.5t-45.5 -84.5t-16.5 -106z" />
    <glyph glyph-name="oslashacute" unicode="&#x1ff;" 
d="M40 0zM46 187q0 66 20 122.5t56 98t85 64.5t107 23q40 0 73 -13.5t58 -36.5l48 52l22 -21l-48 -51q42 -53 42 -129q0 -66 -20 -122.5t-55.5 -98t-84.5 -64.5t-107 -23q-41 0 -74 13t-58 37l-47 -52l-23 20l47 51q-20 26 -30.5 58.5t-10.5 71.5zM245 26q48 0 88 20t69 56
t45.5 85t16.5 106q0 29 -7.5 53t-21.5 44l-296 -321q40 -43 106 -43zM92 190q0 -57 28 -97l296 320q-40 43 -106 43q-47 0 -87 -20t-69 -55.5t-45.5 -84.5t-16.5 -106zM306 563l-17 28l171 109l20 -35z" />
    <glyph glyph-name="oe" unicode="&#x153;" horiz-adv-x="928" 
d="M504 230q-2 -11 -2.5 -23t-0.5 -24q1 -35 13 -64t33.5 -49.5t50.5 -32t64 -11.5q36 0 73 11.5t74 33.5l18 -34q-89 -49 -171 -49q-75 0 -126 42t-63 111q-32 -71 -90.5 -112t-134.5 -41q-44 0 -80 14.5t-62 40.5t-40 63t-14 81q0 66 20 122.5t56 98t85 64.5t107 23
q36 0 67 -11t54.5 -31.5t39 -48.5t20.5 -62q31 69 88 111t129 42q40 0 72.5 -14t56 -39t36.5 -60.5t13 -77.5q0 -34 -9 -74h-377zM245 28q47 0 86.5 20t68.5 55.5t45 84t16 105.5q0 73 -41.5 117.5t-109.5 44.5q-47 0 -86 -20t-68 -55.5t-45 -84t-16 -105.5q0 -73 41 -117.5
t109 -44.5zM709 456q-36 0 -69 -14t-59 -39.5t-45 -60.5t-27 -78h332q2 11 2.5 21.5t0.5 21.5q-1 68 -37.5 108.5t-97.5 40.5z" />
    <glyph glyph-name="thorn" unicode="&#xfe;" 
d="M169 704h46l-51 -301q32 45 75.5 68.5t94.5 23.5q39 0 71.5 -13.5t55.5 -38.5t35.5 -60.5t12.5 -78.5q0 -67 -18.5 -125t-51.5 -100.5t-78.5 -66.5t-98.5 -24q-56 0 -97.5 29.5t-55.5 80.5l-53 -306h-48zM461 300q0 34 -10 62.5t-28.5 49t-44.5 31.5t-57 11
q-32 0 -61.5 -11.5t-53 -32.5t-40 -49.5t-22.5 -62.5l-16 -92q-2 -11 -3 -21t-1 -20q0 -30 10 -55t27.5 -43t41.5 -28t53 -10q44 0 81.5 20.5t65 57t43 86t15.5 107.5z" />
    <glyph glyph-name="racute" unicode="&#x155;" horiz-adv-x="372" 
d="M45 0zM130 483h37l-10 -89q28 47 70 72t93 25q17 0 35.5 -3t35.5 -10l-14 -40q-30 12 -64 12q-66 0 -112 -45t-59 -121l-49 -284h-48zM232 563l-17 28l171 109l20 -35z" />
    <glyph glyph-name="rcaron" unicode="&#x159;" horiz-adv-x="372" 
d="M45 0zM130 483h37l-10 -89q28 47 70 72t93 25q17 0 35.5 -3t35.5 -10l-14 -40q-30 12 -64 12q-66 0 -112 -45t-59 -121l-49 -284h-48zM278 567h-33l-100 120l25 22l94 -105l137 106l19 -27z" />
    <glyph glyph-name="rcommaaccent" unicode="&#x157;" horiz-adv-x="372" 
d="M0 0zM130 483h37l-10 -89q28 47 70 72t93 25q17 0 35.5 -3t35.5 -10l-14 -40q-30 12 -64 12q-66 0 -112 -45t-59 -121l-49 -284h-48zM13 -125q0 17 12 28.5t29 11.5q15 0 24 -11.5t9 -31.5q0 -42 -29.5 -83.5t-80.5 -70.5l-14 21q35 23 57 50.5t27 59.5q-14 -3 -24 4.5
t-10 21.5z" />
    <glyph glyph-name="sacute" unicode="&#x15b;" horiz-adv-x="433" 
d="M13 0zM77 358q0 29 12 54t33.5 43.5t51 29t65.5 10.5q38 0 80 -10t84 -29l-18 -37q-37 18 -74.5 27.5t-70.5 9.5q-52 0 -84 -27t-32 -69q0 -29 17.5 -46.5t43.5 -31t56.5 -24.5t56.5 -27.5t43.5 -40t17.5 -61.5q0 -31 -12 -57t-34 -44.5t-52.5 -29t-67.5 -10.5
q-42 0 -89 11.5t-91 33.5l18 36q42 -20 83.5 -31t77.5 -11q55 0 87.5 27.5t32.5 72.5q0 30 -17.5 48.5t-43.5 32t-56.5 24.5t-56.5 27t-43.5 39t-17.5 60zM236 563l-17 28l171 109l20 -35z" />
    <glyph glyph-name="scircumflex" unicode="&#x15d;" horiz-adv-x="433" 
d="M13 0zM77 358q0 29 12 54t33.5 43.5t51 29t65.5 10.5q38 0 80 -10t84 -29l-18 -37q-37 18 -74.5 27.5t-70.5 9.5q-52 0 -84 -27t-32 -69q0 -29 17.5 -46.5t43.5 -31t56.5 -24.5t56.5 -27.5t43.5 -40t17.5 -61.5q0 -31 -12 -57t-34 -44.5t-52.5 -29t-67.5 -10.5
q-42 0 -89 11.5t-91 33.5l18 36q42 -20 83.5 -31t77.5 -11q55 0 87.5 27.5t32.5 72.5q0 30 -17.5 48.5t-43.5 32t-56.5 24.5t-56.5 27t-43.5 39t-17.5 60zM268 707h33l100 -120l-25 -22l-95 105l-136 -106l-20 27z" />
    <glyph glyph-name="scaron" unicode="&#x161;" horiz-adv-x="433" 
d="M13 0zM77 358q0 29 12 54t33.5 43.5t51 29t65.5 10.5q38 0 80 -10t84 -29l-18 -37q-37 18 -74.5 27.5t-70.5 9.5q-52 0 -84 -27t-32 -69q0 -29 17.5 -46.5t43.5 -31t56.5 -24.5t56.5 -27.5t43.5 -40t17.5 -61.5q0 -31 -12 -57t-34 -44.5t-52.5 -29t-67.5 -10.5
q-42 0 -89 11.5t-91 33.5l18 36q42 -20 83.5 -31t77.5 -11q55 0 87.5 27.5t32.5 72.5q0 30 -17.5 48.5t-43.5 32t-56.5 24.5t-56.5 27t-43.5 39t-17.5 60zM282 567h-33l-100 120l25 22l94 -105l137 106l19 -27z" />
    <glyph glyph-name="scedilla" unicode="&#x15f;" horiz-adv-x="433" 
d="M77 358q0 29 12 54t33.5 43.5t51 29t65.5 10.5q38 0 80 -10t84 -29l-18 -37q-37 18 -74.5 27.5t-70.5 9.5q-52 0 -84 -26t-32 -70q0 -29 17.5 -46.5t43.5 -31t56.5 -24.5t56.5 -27.5t43.5 -40t17.5 -61.5q0 -63 -44.5 -100.5t-118.5 -39.5l-17 -54q29 -5 45 -23.5
t16 -46.5q0 -37 -29.5 -61t-74.5 -24q-42 0 -91 22l14 30q41 -19 74 -19q29 0 48 15t19 38q0 20 -16.5 33t-42.5 13h-7l26 78q-35 3 -73.5 14t-73.5 29l18 36q42 -20 83.5 -31t77.5 -11q53 0 86.5 27t33.5 73q0 30 -17.5 48.5t-43.5 32t-56.5 24.5t-56.5 27t-43.5 39
t-17.5 60z" />
    <glyph glyph-name="scommaaccent" unicode="&#x219;" horiz-adv-x="433" 
d="M13 0zM77 358q0 29 12 54t33.5 43.5t51 29t65.5 10.5q38 0 80 -10t84 -29l-18 -37q-37 18 -74.5 27.5t-70.5 9.5q-52 0 -84 -27t-32 -69q0 -29 17.5 -46.5t43.5 -31t56.5 -24.5t56.5 -27.5t43.5 -40t17.5 -61.5q0 -31 -12 -57t-34 -44.5t-52.5 -29t-67.5 -10.5
q-42 0 -89 11.5t-91 33.5l18 36q42 -20 83.5 -31t77.5 -11q55 0 87.5 27.5t32.5 72.5q0 30 -17.5 48.5t-43.5 32t-56.5 24.5t-56.5 27t-43.5 39t-17.5 60zM118 -125q0 17 12 28.5t29 11.5q15 0 24 -11.5t9 -31.5q0 -42 -29.5 -83.5t-80.5 -70.5l-14 21q35 23 57 50.5
t27 59.5q-14 -3 -24 4.5t-10 21.5z" />
    <glyph glyph-name="germandbls" unicode="&#xdf;" horiz-adv-x="596" 
d="M321 336q0 37 21 65.5t46.5 54.5t46.5 54t21 64q0 48 -31.5 75.5t-88.5 27.5q-60 0 -99 -35.5t-50 -98.5l-96 -543h-46l96 548q14 78 66 123t131 45q78 0 122 -37.5t44 -101.5q0 -27 -10 -49t-24.5 -41t-32 -36t-32 -34t-24.5 -35.5t-10 -39.5q0 -27 12 -44t29.5 -30.5
t38.5 -25.5t38.5 -27.5t29.5 -37.5t12 -55q0 -29 -12.5 -53.5t-35 -42.5t-53 -28t-67.5 -10q-35 0 -72 8.5t-75 28.5l18 37q32 -18 65.5 -26.5t64.5 -8.5q53 0 86.5 26.5t33.5 67.5q0 27 -12 44.5t-30 30.5t-39.5 24.5t-39.5 26.5t-30 36t-12 53z" />
    <glyph glyph-name="tcaron" unicode="&#x165;" horiz-adv-x="393" 
d="M347 552l-31 14l88 163l36 -16zM226 483h164l-7 -39h-165l-54 -311q-2 -8 -3 -16t-1 -16q0 -32 22.5 -52t57.5 -20q34 0 68 7l5 -39q-23 -5 -44 -7t-41 -2q-52 0 -84 29.5t-32 77.5q0 9 1 18t3 18l55 313h-107l7 39h107l25 144h48z" />
    <glyph glyph-name="tcommaaccent" unicode="&#x163;" horiz-adv-x="393" 
d="M64 0zM226 483h164l-7 -39h-165l-54 -311q-2 -8 -3 -16t-1 -16q0 -32 22.5 -52t57.5 -20q34 0 68 7l5 -39q-23 -5 -44 -7t-41 -2q-52 0 -84 29.5t-32 77.5q0 9 1 18t3 18l55 313h-107l7 39h107l25 144h48zM137 -125q0 17 12 28.5t29 11.5q15 0 24 -11.5t9 -31.5
q0 -42 -29.5 -83.5t-80.5 -70.5l-14 21q35 23 57 50.5t27 59.5q-14 -3 -24 4.5t-10 21.5z" />
    <glyph glyph-name="uni021B" unicode="&#x21b;" horiz-adv-x="393" 
d="M64 0zM226 483h164l-7 -39h-165l-54 -311q-2 -8 -3 -16t-1 -16q0 -32 22.5 -52t57.5 -20q34 0 68 7l5 -39q-23 -5 -44 -7t-41 -2q-52 0 -84 29.5t-32 77.5q0 9 1 18t3 18l55 313h-107l7 39h107l25 144h48zM137 -125q0 17 12 28.5t29 11.5q15 0 24 -11.5t9 -31.5
q0 -42 -29.5 -83.5t-80.5 -70.5l-14 21q35 23 57 50.5t27 59.5q-14 -3 -24 4.5t-10 21.5z" />
    <glyph glyph-name="tbar" unicode="&#x167;" horiz-adv-x="393" 
d="M226 483h164l-7 -39h-165l-31 -179h148l-6 -36h-149l-16 -98q-2 -8 -3 -15.5t-1 -15.5q0 -32 22.5 -51.5t57.5 -19.5q34 0 68 7l5 -39q-23 -5 -44 -7t-41 -2q-52 0 -84 29.5t-32 77.5q0 9 1 18t3 18l16 98h-98l7 36h98l32 179h-107l7 39h107l25 144h48z" />
    <glyph glyph-name="ugrave" unicode="&#xf9;" 
d="M64 0zM426 0h-38l11 94q-30 -49 -79 -77.5t-104 -28.5q-68 0 -110 39.5t-42 104.5q0 13 1.5 26t3.5 27l53 298h48l-53 -296q-2 -12 -3 -23.5t-1 -22.5q0 -51 32 -81.5t86 -30.5q33 0 63 12.5t54 35t41 53.5t23 68l51 285h48zM393 591l-20 -28l-155 105l24 32z" />
    <glyph glyph-name="uacute" unicode="&#xfa;" 
d="M64 0zM426 0h-38l11 94q-30 -49 -79 -77.5t-104 -28.5q-68 0 -110 39.5t-42 104.5q0 13 1.5 26t3.5 27l53 298h48l-53 -296q-2 -12 -3 -23.5t-1 -22.5q0 -51 32 -81.5t86 -30.5q33 0 63 12.5t54 35t41 53.5t23 68l51 285h48zM306 563l-17 28l171 109l20 -35z" />
    <glyph glyph-name="ucircumflex" unicode="&#xfb;" 
d="M64 0zM426 0h-38l11 94q-30 -49 -79 -77.5t-104 -28.5q-68 0 -110 39.5t-42 104.5q0 13 1.5 26t3.5 27l53 298h48l-53 -296q-2 -12 -3 -23.5t-1 -22.5q0 -51 32 -81.5t86 -30.5q33 0 63 12.5t54 35t41 53.5t23 68l51 285h48zM338 707h33l100 -120l-25 -22l-95 105
l-136 -106l-20 27z" />
    <glyph glyph-name="utilde" unicode="&#x169;" 
d="M64 0zM426 0h-38l11 94q-30 -49 -79 -77.5t-104 -28.5q-68 0 -110 39.5t-42 104.5q0 13 1.5 26t3.5 27l53 298h48l-53 -296q-2 -12 -3 -23.5t-1 -22.5q0 -51 32 -81.5t86 -30.5q33 0 63 12.5t54 35t41 53.5t23 68l51 285h48zM284 675q19 0 34.5 -6t30.5 -13.5t29 -13.5
t30 -6t29.5 10.5t20.5 28.5l32 -12q-11 -28 -33 -45.5t-50 -17.5q-18 0 -34 6t-30.5 13t-29 13t-29.5 6q-35 0 -51 -38l-31 11q11 29 32.5 46.5t49.5 17.5z" />
    <glyph glyph-name="udieresis" unicode="&#xfc;" 
d="M64 0zM426 0h-38l11 94q-30 -49 -79 -77.5t-104 -28.5q-68 0 -110 39.5t-42 104.5q0 13 1.5 26t3.5 27l53 298h48l-53 -296q-2 -12 -3 -23.5t-1 -22.5q0 -51 32 -81.5t86 -30.5q33 0 63 12.5t54 35t41 53.5t23 68l51 285h48zM410 632q0 17 12 28.5t29 11.5q13 0 21.5 -8
t8.5 -22q0 -17 -11.5 -28.5t-28.5 -11.5q-14 0 -22.5 8t-8.5 22zM210 632q0 17 11.5 28.5t28.5 11.5q14 0 22 -8t8 -22q0 -17 -11.5 -28.5t-28.5 -11.5q-14 0 -22 8t-8 22z" />
    <glyph glyph-name="umacron" unicode="&#x16b;" 
d="M64 0zM426 0h-38l11 94q-30 -49 -79 -77.5t-104 -28.5q-68 0 -110 39.5t-42 104.5q0 13 1.5 26t3.5 27l53 298h48l-53 -296q-2 -12 -3 -23.5t-1 -22.5q0 -51 32 -81.5t86 -30.5q33 0 63 12.5t54 35t41 53.5t23 68l51 285h48zM207 655h284l-7 -36h-283z" />
    <glyph glyph-name="ubreve" unicode="&#x16d;" 
d="M64 0zM426 0h-38l11 94q-30 -49 -79 -77.5t-104 -28.5q-68 0 -110 39.5t-42 104.5q0 13 1.5 26t3.5 27l53 298h48l-53 -296q-2 -12 -3 -23.5t-1 -22.5q0 -51 32 -81.5t86 -30.5q33 0 63 12.5t54 35t41 53.5t23 68l51 285h48zM254 691q-7 -42 17 -68.5t69 -26.5
q44 0 77 25.5t42 69.5h35q-11 -60 -53.5 -96t-102.5 -36q-54 0 -87 29.5t-33 77.5q0 7 0.5 13.5t1.5 11.5h34z" />
    <glyph glyph-name="uring" unicode="&#x16f;" 
d="M64 0zM426 0h-38l11 94q-30 -49 -79 -77.5t-104 -28.5q-68 0 -110 39.5t-42 104.5q0 13 1.5 26t3.5 27l53 298h48l-53 -296q-2 -12 -3 -23.5t-1 -22.5q0 -51 32 -81.5t86 -30.5q33 0 63 12.5t54 35t41 53.5t23 68l51 285h48zM281 627q0 -25 14.5 -40t39.5 -15
q32 0 53.5 21.5t21.5 53.5q0 25 -15 40t-40 15q-32 0 -53 -21.5t-21 -53.5zM251 624q0 22 8.5 41t23 33.5t34 22.5t42.5 8q35 0 57.5 -21.5t22.5 -56.5q0 -23 -8.5 -42t-22.5 -33.5t-34 -22.5t-42 -8q-36 0 -58.5 22t-22.5 57z" />
    <glyph glyph-name="uhungarumlaut" unicode="&#x171;" 
d="M64 0zM426 0h-38l11 94q-30 -49 -79 -77.5t-104 -28.5q-68 0 -110 39.5t-42 104.5q0 13 1.5 26t3.5 27l53 298h48l-53 -296q-2 -12 -3 -23.5t-1 -22.5q0 -51 32 -81.5t86 -30.5q33 0 63 12.5t54 35t41 53.5t23 68l51 285h48zM413 562l-22 27l152 134l26 -31zM235 562
l-22 27l152 134l26 -31z" />
    <glyph glyph-name="uogonek" unicode="&#x173;" horiz-adv-x="572" 
d="M426 0q-58 -38 -89.5 -74.5t-31.5 -68.5q0 -20 13 -32t34 -12q22 0 43 8l8 -31q-14 -5 -30 -7.5t-32 -2.5q-34 0 -54.5 19t-20.5 51q0 38 32 78.5t90 77.5l11 88q-30 -49 -79 -77.5t-104 -28.5q-68 0 -110 39.5t-42 104.5q0 13 1.5 26t3.5 27l53 298h48l-53 -296
q-2 -12 -3 -23.5t-1 -22.5q0 -51 32 -81.5t86 -30.5q33 0 63 12.5t54 35t41 53.5t23 68l51 285h48z" />
    <glyph glyph-name="wgrave" unicode="&#x1e81;" horiz-adv-x="756" 
d="M81 0zM516 0h-47l-61 420l-207 -420h-45l-75 483h46l61 -420l207 420h45l62 -420l207 420h50zM485 591l-20 -28l-155 105l24 32z" />
    <glyph glyph-name="wacute" unicode="&#x1e83;" horiz-adv-x="756" 
d="M81 0zM516 0h-47l-61 420l-207 -420h-45l-75 483h46l61 -420l207 420h45l62 -420l207 420h50zM398 563l-17 28l171 109l20 -35z" />
    <glyph glyph-name="wcircumflex" unicode="&#x175;" horiz-adv-x="756" 
d="M81 0zM516 0h-47l-61 420l-207 -420h-45l-75 483h46l61 -420l207 420h45l62 -420l207 420h50zM430 707h33l100 -120l-25 -22l-95 105l-136 -106l-20 27z" />
    <glyph glyph-name="wdieresis" unicode="&#x1e85;" horiz-adv-x="756" 
d="M81 0zM516 0h-47l-61 420l-207 -420h-45l-75 483h46l61 -420l207 420h45l62 -420l207 420h50zM502 632q0 17 12 28.5t29 11.5q13 0 21.5 -8t8.5 -22q0 -17 -11.5 -28.5t-28.5 -11.5q-14 0 -22.5 8t-8.5 22zM302 632q0 17 11.5 28.5t28.5 11.5q14 0 22 -8t8 -22
q0 -17 -11.5 -28.5t-28.5 -11.5q-14 0 -22 8t-8 22z" />
    <glyph glyph-name="ygrave" unicode="&#x1ef3;" horiz-adv-x="500" 
d="M0 0zM178 -95q-38 -66 -74 -95.5t-82 -29.5q-29 0 -60 9l11 40q26 -8 48 -8q33 0 60 22.5t57 74.5l49 87l-114 478h47l98 -423l242 423h51zM357 591l-20 -28l-155 105l24 32z" />
    <glyph glyph-name="yacute" unicode="&#xfd;" horiz-adv-x="500" 
d="M0 0zM178 -95q-38 -66 -74 -95.5t-82 -29.5q-29 0 -60 9l11 40q26 -8 48 -8q33 0 60 22.5t57 74.5l49 87l-114 478h47l98 -423l242 423h51zM270 563l-17 28l171 109l20 -35z" />
    <glyph glyph-name="ycircumflex" unicode="&#x177;" horiz-adv-x="500" 
d="M0 0zM178 -95q-38 -66 -74 -95.5t-82 -29.5q-29 0 -60 9l11 40q26 -8 48 -8q33 0 60 22.5t57 74.5l49 87l-114 478h47l98 -423l242 423h51zM302 707h33l100 -120l-25 -22l-95 105l-136 -106l-20 27z" />
    <glyph glyph-name="ydieresis" unicode="&#xff;" horiz-adv-x="500" 
d="M0 0zM178 -95q-38 -66 -74 -95.5t-82 -29.5q-29 0 -60 9l11 40q26 -8 48 -8q33 0 60 22.5t57 74.5l49 87l-114 478h47l98 -423l242 423h51zM374 632q0 17 12 28.5t29 11.5q13 0 21.5 -8t8.5 -22q0 -17 -11.5 -28.5t-28.5 -11.5q-14 0 -22.5 8t-8.5 22zM174 632
q0 17 11.5 28.5t28.5 11.5q14 0 22 -8t8 -22q0 -17 -11.5 -28.5t-28.5 -11.5q-14 0 -22 8t-8 22z" />
    <glyph glyph-name="zacute" unicode="&#x17a;" horiz-adv-x="465" 
d="M8 0zM13 30l364 414h-284l8 39h348l-5 -30l-364 -414h299l-7 -39h-364zM260 563l-17 28l171 109l20 -35z" />
    <glyph glyph-name="zcaron" unicode="&#x17e;" horiz-adv-x="465" 
d="M8 0zM13 30l364 414h-284l8 39h348l-5 -30l-364 -414h299l-7 -39h-364zM306 567h-33l-100 120l25 22l94 -105l137 106l19 -27z" />
    <glyph glyph-name="zdotaccent" unicode="&#x17c;" horiz-adv-x="465" 
d="M8 0zM13 30l364 414h-284l8 39h348l-5 -30l-364 -414h299l-7 -39h-364zM262 632q0 18 12.5 30t29.5 12q14 0 23 -9t9 -23q0 -17 -12 -29.5t-30 -12.5q-14 0 -23 9t-9 23z" />
    <glyph glyph-name="apple" unicode="&#xf8ff;" horiz-adv-x="591" 
d="M230 202v65h196v66h-196v195h261v-65h-196v-65h196v-196h-261zM165 594v-529h73v-65h-138v659h391v-65h-326z" />
    <glyph glyph-name=".ttfautohint" horiz-adv-x="591" 
d="M0 0z" />
    </font>
</defs>
</svg>
